<svg width="23" height="24" viewBox="0 0 23 24" fill="none" xmlns="http://www.w3.org/2000/svg">
<g id="&#240;&#159;&#166;&#134; icon &#34;phone&#34;">
<path id="Vector" d="M21.9993 16.7537V19.9214C22.0005 20.2154 21.9403 20.5065 21.8225 20.7759C21.7047 21.0454 21.5319 21.2872 21.3152 21.486C21.0985 21.6848 20.8427 21.8362 20.5642 21.9304C20.2856 22.0246 19.9904 22.0596 19.6975 22.0331C16.4484 21.6801 13.3275 20.5698 10.5853 18.7916C8.03418 17.1705 5.87123 15.0075 4.2501 12.4563C2.46565 9.70178 1.35515 6.56561 1.00857 3.30191C0.982184 3.00992 1.01689 2.71564 1.11046 2.43781C1.20404 2.15997 1.35444 1.90466 1.5521 1.68813C1.74975 1.47161 1.99033 1.29861 2.2585 1.18015C2.52668 1.0617 2.81659 1.00038 3.10976 1.0001H6.27738C6.78981 0.995059 7.28658 1.17652 7.67511 1.51065C8.06364 1.84479 8.31741 2.3088 8.38913 2.81621C8.52283 3.82992 8.77078 4.82525 9.12824 5.78321C9.2703 6.16114 9.30105 6.57186 9.21684 6.96672C9.13263 7.36158 8.93699 7.72403 8.6531 8.01111L7.31214 9.35207C8.81524 11.9955 11.004 14.1842 13.6474 15.6873L14.9883 14.3464C15.2754 14.0625 15.6379 13.8668 16.0327 13.7826C16.4276 13.6984 16.8383 13.7291 17.2162 13.8712C18.1742 14.2287 19.1695 14.4766 20.1832 14.6103C20.6962 14.6827 21.1646 14.941 21.4994 15.3362C21.8343 15.7314 22.0122 16.2359 21.9993 16.7537Z" fill="white" stroke="black" stroke-width="2" stroke-linecap="round" stroke-linejoin="round"/>
</g>
</svg>
