<svg width="211" height="38" viewBox="0 0 211 38" fill="none" xmlns="http://www.w3.org/2000/svg">
<path d="M192.332 1.9043L197.504 13.1337L209.07 14.9455L200.701 23.6815L202.676 36.023L192.332 30.1931L181.988 36.023L183.963 23.6815L175.594 14.9455L187.16 13.1337L192.332 1.9043Z" fill="#EA4F0D" stroke="#EA4F0D" stroke-width="3" stroke-linecap="round" stroke-linejoin="round"/>
<path d="M105.541 1.9043L110.713 13.1337L122.279 14.9455L113.91 23.6815L115.886 36.023L105.541 30.1931L95.1972 36.023L97.1723 23.6815L88.8032 14.9455L100.369 13.1337L105.541 1.9043Z" fill="#EA4F0D" stroke="#EA4F0D" stroke-width="3" stroke-linecap="round" stroke-linejoin="round"/>
<path d="M62.1463 1.9043L67.3184 13.1337L78.8845 14.9455L70.5154 23.6815L72.4905 36.023L62.1463 30.1931L51.8022 36.023L53.7773 23.6815L45.4082 14.9455L56.9743 13.1337L62.1463 1.9043Z" fill="#EA4F0D" stroke="#EA4F0D" stroke-width="3" stroke-linecap="round" stroke-linejoin="round"/>
<path d="M18.7508 1.9043L23.9229 13.1337L35.489 14.9455L27.1199 23.6815L29.095 36.023L18.7508 30.1931L8.40666 36.023L10.3818 23.6815L2.0127 14.9455L13.5787 13.1337L18.7508 1.9043Z" fill="#EA4F0D" stroke="#EA4F0D" stroke-width="3" stroke-linecap="round" stroke-linejoin="round"/>
<path d="M148.936 1.9043L154.108 13.1337L165.675 14.9455L157.305 23.6815L159.281 36.023L148.936 30.1931L138.592 36.023L140.567 23.6815L132.198 14.9455L143.764 13.1337L148.936 1.9043Z" fill="#EA4F0D" stroke="#EA4F0D" stroke-width="3" stroke-linecap="round" stroke-linejoin="round"/>
</svg>
