<svg width="158" height="158" viewBox="0 0 158 158" fill="none" xmlns="http://www.w3.org/2000/svg">
<rect x="17" y="17" width="124" height="124" rx="62" fill="#BEFF6B"/>
<rect x="8.88095" y="8.88095" width="140.238" height="140.238" rx="70.119" stroke="#BEFF6B" stroke-opacity="0.47" stroke-width="16.2381"/>
<path d="M69.25 108.251H105C105.862 108.251 106.689 107.909 107.298 107.299C107.908 106.69 108.25 105.863 108.25 105.001V56.251C108.25 55.389 107.908 54.5624 107.298 53.9529C106.689 53.3434 105.862 53.001 105 53.001H53C52.138 53.001 51.3114 53.3434 50.7019 53.9529C50.0924 54.5624 49.75 55.389 49.75 56.251V88.751M69.25 108.251L49.75 88.751M69.25 108.251V88.751H49.75" stroke="#233753" stroke-width="6.5" stroke-linecap="round" stroke-linejoin="round"/>
<path d="M62.75 49.75V56.25M79 49.75V56.25M95.25 49.75V56.25M49.75 56.25V69.25H108.25V56.25C108.25 55.388 107.908 54.5614 107.298 53.9519C106.689 53.3424 105.862 53 105 53H53C52.138 53 51.3114 53.3424 50.7019 53.9519C50.0924 54.5614 49.75 55.388 49.75 56.25Z" stroke="#233754" stroke-width="6.5" stroke-linecap="round" stroke-linejoin="round"/>
</svg>
