<svg width="28" height="28" viewBox="0 0 28 28" fill="none" xmlns="http://www.w3.org/2000/svg">
<path d="M25.5725 19.5401C25.1875 22.6434 22.6442 25.1867 19.5409 25.5717C17.6625 25.8051 15.9125 25.2917 14.5475 24.2884C13.7659 23.7167 13.9525 22.5034 14.8859 22.2234C18.3975 21.1617 21.1625 18.3851 22.2359 14.8734C22.5159 13.9517 23.7292 13.7651 24.3009 14.5351C25.2925 15.9117 25.8059 17.6617 25.5725 19.5401Z" fill="#062258"/>
<path d="M11.6557 2.33398C6.51065 2.33398 2.33398 6.51065 2.33398 11.6557C2.33398 16.8006 6.51065 20.9773 11.6557 20.9773C16.8006 20.9773 20.9773 16.8006 20.9773 11.6557C20.9657 6.51065 16.8006 2.33398 11.6557 2.33398ZM10.559 10.349L13.3707 11.329C14.3857 11.6907 14.8757 12.4023 14.8757 13.499C14.8757 14.759 13.8723 15.7973 12.6473 15.7973H12.5423V15.8557C12.5423 16.334 12.1457 16.7307 11.6673 16.7307C11.189 16.7307 10.7923 16.334 10.7923 15.8557V15.7857C9.49732 15.7273 8.45898 14.6423 8.45898 13.289C8.45898 12.8107 8.85565 12.414 9.33398 12.414C9.81232 12.414 10.209 12.8107 10.209 13.289C10.209 13.709 10.5123 14.0473 10.8857 14.0473H12.6357C12.904 14.0473 13.114 13.8023 13.114 13.499C13.114 13.0907 13.044 13.0673 12.7757 12.974L9.96398 11.994C8.96065 11.644 8.45898 10.9323 8.45898 9.82398C8.45898 8.56398 9.46232 7.52565 10.6873 7.52565H10.7923V7.47898C10.7923 7.00065 11.189 6.60398 11.6673 6.60398C12.1457 6.60398 12.5423 7.00065 12.5423 7.47898V7.54898C13.8373 7.60732 14.8757 8.69232 14.8757 10.0457C14.8757 10.524 14.479 10.9207 14.0007 10.9207C13.5223 10.9207 13.1257 10.524 13.1257 10.0457C13.1257 9.62565 12.8223 9.28732 12.449 9.28732H10.699C10.4307 9.28732 10.2207 9.53232 10.2207 9.83565C10.209 10.2323 10.279 10.2557 10.559 10.349Z" fill="#062258"/>
</svg>
