<svg width="23" height="23" viewBox="0 0 23 23" fill="none" xmlns="http://www.w3.org/2000/svg">
<rect y="0.0146484" width="22.9698" height="22.9698" rx="11.4849" fill="#E9EEF9"/>
<path fill-rule="evenodd" clip-rule="evenodd" d="M11.4011 3.33594C11.9259 3.33594 12.3513 3.76134 12.3513 4.28609V4.68734C14.4168 5.05719 16.1519 6.60902 16.1519 8.72011C16.1519 9.24486 15.7265 9.67026 15.2017 9.67026C14.677 9.67026 14.2516 9.24486 14.2516 8.72011C14.2516 7.86059 13.5369 6.95079 12.3513 6.62659V11.0216C14.4168 11.3915 16.1519 12.9433 16.1519 15.0544C16.1519 17.1655 14.4168 18.7173 12.3513 19.0872V19.4885C12.3513 20.0132 11.9259 20.4386 11.4011 20.4386C10.8764 20.4386 10.451 20.0132 10.451 19.4885V19.0872C8.38545 18.7173 6.65039 17.1655 6.65039 15.0544C6.65039 14.5297 7.07579 14.1043 7.60054 14.1043C8.12529 14.1043 8.55069 14.5297 8.55069 15.0544C8.55069 15.914 9.26532 16.8237 10.451 17.1479V12.7529C8.38545 12.383 6.65039 10.8312 6.65039 8.72011C6.65039 6.60902 8.38545 5.05719 10.451 4.68734V4.28609C10.451 3.76134 10.8764 3.33594 11.4011 3.33594ZM10.451 6.62659C9.26532 6.95079 8.55069 7.86059 8.55069 8.72011C8.55069 9.57968 9.26532 10.4894 10.451 10.8136V6.62659ZM14.2516 15.0544C14.2516 14.1949 13.5369 13.2851 12.3513 12.9609V17.1479C13.5369 16.8237 14.2516 15.914 14.2516 15.0544Z" fill="#1C274C"/>
</svg>
