<svg width="24" height="24" viewBox="0 0 24 24" fill="none" xmlns="http://www.w3.org/2000/svg">
<rect x="0.676758" y="0.546875" width="22.9698" height="22.9698" rx="11.4849" fill="#E9EEF9"/>
<path fill-rule="evenodd" clip-rule="evenodd" d="M12.0774 3.86816C12.6021 3.86816 13.0275 4.29356 13.0275 4.81831V5.21957C15.093 5.58941 16.8281 7.14125 16.8281 9.25234C16.8281 9.77708 16.4027 10.2025 15.878 10.2025C15.3533 10.2025 14.9278 9.77708 14.9278 9.25234C14.9278 8.39282 14.2132 7.48302 13.0275 7.15882V11.5538C15.093 11.9238 16.8281 13.4756 16.8281 15.5867C16.8281 17.6978 15.093 19.2495 13.0275 19.6195V20.0207C13.0275 20.5454 12.6021 20.9708 12.0774 20.9708C11.5527 20.9708 11.1273 20.5454 11.1273 20.0207V19.6195C9.06172 19.2495 7.32666 17.6978 7.32666 15.5867C7.32666 15.0619 7.75206 14.6365 8.27681 14.6365C8.80156 14.6365 9.22696 15.0619 9.22696 15.5867C9.22696 16.4462 9.94159 17.356 11.1273 17.6801V13.2851C9.06172 12.9152 7.32666 11.3634 7.32666 9.25234C7.32666 7.14125 9.06172 5.58941 11.1273 5.21957V4.81831C11.1273 4.29356 11.5527 3.86816 12.0774 3.86816ZM11.1273 7.15882C9.94159 7.48302 9.22696 8.39282 9.22696 9.25234C9.22696 10.1119 9.94159 11.0216 11.1273 11.3458V7.15882ZM14.9278 15.5867C14.9278 14.7271 14.2132 13.8174 13.0275 13.4932V17.6801C14.2132 17.356 14.9278 16.4462 14.9278 15.5867Z" fill="#1C274C"/>
</svg>
