<svg width="20" height="21" viewBox="0 0 20 21" fill="none" xmlns="http://www.w3.org/2000/svg">
<path fill-rule="evenodd" clip-rule="evenodd" d="M13.9993 3.83333C13.809 3.83333 13.6206 3.87175 13.4448 3.94639C13.2689 4.02103 13.1092 4.13044 12.9746 4.26836L4.19391 13.268L3.42539 16.1561L6.2433 15.3685L15.024 6.36884C15.1586 6.23092 15.2653 6.06719 15.3382 5.88699C15.411 5.70679 15.4485 5.51365 15.4485 5.3186C15.4485 5.12355 15.411 4.93041 15.3382 4.75021C15.2653 4.57001 15.1586 4.40628 15.024 4.26836C14.8895 4.13044 14.7297 4.02103 14.5539 3.94639C14.3781 3.87175 14.1896 3.83333 13.9993 3.83333ZM13.1336 3.17649C13.4081 3.05997 13.7022 3 13.9993 3C14.2964 3 14.5906 3.05997 14.865 3.17649C15.1395 3.29301 15.3889 3.4638 15.5989 3.6791C15.809 3.8944 15.9756 4.15 16.0893 4.43131C16.203 4.71262 16.2615 5.01412 16.2615 5.3186C16.2615 5.62308 16.203 5.92458 16.0893 6.20589C15.9756 6.48719 15.809 6.74279 15.5989 6.9581L6.74189 16.036C6.69186 16.0872 6.62964 16.1242 6.56139 16.1433L2.95296 17.152C2.81221 17.1913 2.66169 17.1503 2.55853 17.0446C2.45538 16.9389 2.4154 16.7846 2.45379 16.6404L3.4379 12.942C3.45652 12.872 3.49262 12.8082 3.54265 12.757L12.3997 3.6791C12.6098 3.4638 12.8592 3.29301 13.1336 3.17649Z" fill="#1D1D1D"/>
</svg>
