<svg width="60" height="61" viewBox="0 0 60 61" fill="none" xmlns="http://www.w3.org/2000/svg">
<rect y="0.5" width="60" height="60" rx="8.10507" fill="#182743"/>
<path fill-rule="evenodd" clip-rule="evenodd" d="M47.0443 7.46094C50.4961 7.46094 53.2943 10.2592 53.2943 13.7109V47.0443C53.2943 50.4961 50.4961 53.2943 47.0443 53.2943H13.7109C10.2592 53.2943 7.46094 50.4961 7.46094 47.0443V13.7109C7.46094 10.2592 10.2592 7.46094 13.7109 7.46094H47.0443ZM47.0443 11.6276C48.1949 11.6276 49.1276 12.5604 49.1276 13.7109V47.0443C49.1276 48.1949 48.1949 49.1276 47.0443 49.1276H36.6276V34.5441H40.953C41.8497 34.5441 42.6457 33.9703 42.9295 33.1195L43.8524 30.3507C44.1897 29.3389 43.4366 28.2941 42.3701 28.2941H36.6276V24.1274C36.6276 23.0858 37.6693 22.0441 38.7109 22.0441H42.8776C44.0282 22.0441 44.9609 21.1114 44.9609 19.9608V18.5316C44.9609 17.8587 44.5311 17.2553 43.8803 17.0836C41.1495 16.3629 38.7109 16.3629 38.7109 16.3629C33.5026 16.3629 30.3776 19.9608 30.3776 23.0858V28.2941H26.2109C25.0604 28.2941 24.1276 29.2268 24.1276 30.3774V32.4607C24.1276 33.6114 25.0603 34.5441 26.2109 34.5441H30.3776V49.1276H13.7109C12.5604 49.1276 11.6276 48.1949 11.6276 47.0443V13.7109C11.6276 12.5604 12.5604 11.6276 13.7109 11.6276H47.0443Z" fill="white"/>
</svg>
