<svg width="23" height="23" viewBox="0 0 23 23" fill="none" xmlns="http://www.w3.org/2000/svg">
<path d="M11.5 6.70833V19.1667M11.5 6.70833H8.11161C7.61235 6.70833 7.13355 6.5064 6.78052 6.14695C6.42749 5.78751 6.22917 5.3 6.22917 4.79167C6.22917 4.28334 6.42749 3.79582 6.78052 3.43638C7.13355 3.07693 7.61235 2.875 8.11161 2.875C10.747 2.875 11.5 6.70833 11.5 6.70833ZM11.5 6.70833H14.8884C15.3877 6.70833 15.8665 6.5064 16.2195 6.14695C16.5725 5.78751 16.7708 5.3 16.7708 4.79167C16.7708 4.28334 16.5725 3.79582 16.2195 3.43638C15.8665 3.07693 15.3877 2.875 14.8884 2.875C12.253 2.875 11.5 6.70833 11.5 6.70833ZM4.79167 11.5H18.2083V17.0583C18.2083 18.1318 18.2083 18.6685 17.9994 19.0785C17.8157 19.4391 17.5225 19.7324 17.1618 19.9161C16.7519 20.125 16.2151 20.125 15.1417 20.125H7.85833C6.78489 20.125 6.24818 20.125 5.83819 19.9161C5.47754 19.7324 5.18432 19.4391 5.00057 19.0785C4.79167 18.6685 4.79167 18.1318 4.79167 17.0583V11.5ZM4.40833 11.5H18.5917C19.1284 11.5 19.3968 11.5 19.6018 11.3955C19.7821 11.3036 19.9286 11.1571 20.0205 10.9768C20.125 10.7718 20.125 10.5034 20.125 9.96667V8.24167C20.125 7.70495 20.125 7.43659 20.0205 7.23159C19.9286 7.05127 19.7821 6.90467 19.6018 6.81278C19.3968 6.70833 19.1284 6.70833 18.5917 6.70833H4.40833C3.87162 6.70833 3.60326 6.70833 3.39826 6.81278C3.21794 6.90467 3.07133 7.05127 2.97945 7.23159C2.875 7.43659 2.875 7.70495 2.875 8.24167V9.96667C2.875 10.5034 2.875 10.7718 2.97945 10.9768C3.07133 11.1571 3.21794 11.3036 3.39826 11.3955C3.60326 11.5 3.87162 11.5 4.40833 11.5Z" stroke="black" stroke-linecap="round" stroke-linejoin="round"/>
</svg>
