<svg width="18" height="15" viewBox="0 0 18 15" fill="none" xmlns="http://www.w3.org/2000/svg">
<path d="M12.3333 11.666H16.5M14.4167 9.58268V13.7493M9 13.3327H4.16667C3.23325 13.3327 2.76653 13.3327 2.41002 13.151C2.09641 12.9913 1.84144 12.7363 1.68166 12.4227C1.5 12.0662 1.5 11.5994 1.5 10.666V4.33268C1.5 3.39927 1.5 2.93255 1.68166 2.57603C1.84144 2.26242 2.09641 2.00746 2.41002 1.84767C2.76653 1.66602 3.23325 1.66602 4.16667 1.66602H13.8333C14.7667 1.66602 15.2335 1.66602 15.59 1.84767C15.9036 2.00746 16.1586 2.26242 16.3183 2.57603C16.5 2.93255 16.5 3.39927 16.5 4.33268V6.66602M16.1723 4.38459L11.9582 7.19393C10.8891 7.90668 10.3545 8.2631 9.77667 8.4016C9.266 8.52393 8.73367 8.52393 8.22308 8.4016C7.64525 8.2631 7.11066 7.90668 6.04146 7.19393L1.62288 4.24821" stroke="white" stroke-width="1.66667" stroke-linecap="round" stroke-linejoin="round"/>
</svg>
