<svg width="25" height="26" viewBox="0 0 25 26" fill="none" xmlns="http://www.w3.org/2000/svg">
<rect y="0.240234" width="25" height="25" rx="12.5" fill="#E9EEF9"/>
<path fill-rule="evenodd" clip-rule="evenodd" d="M6.33228 9.7265C6 10.3336 6 11.0658 6 12.5304V13.5039C6 16.0004 6 17.2487 6.74979 18.0242C7.49959 18.7998 8.70637 18.7998 11.1199 18.7998H13.6799C16.0934 18.7998 17.3002 18.7998 18.05 18.0242C18.7998 17.2487 18.7998 16.0004 18.7998 13.5039V12.5304C18.7998 11.0658 18.7998 10.3336 18.4675 9.7265C18.1352 9.11945 17.5282 8.74268 16.3141 7.98917L15.0341 7.19478C13.7507 6.39826 13.1089 6 12.3999 6C11.6909 6 11.0491 6.39826 9.76572 7.19478L8.48574 7.98917C7.27163 8.74268 6.66457 9.11945 6.33228 9.7265ZM10.4799 15.7599C10.2148 15.7599 9.99994 15.9748 9.99994 16.2398C9.99994 16.5049 10.2148 16.7198 10.4799 16.7198H14.3199C14.585 16.7198 14.7999 16.5049 14.7999 16.2398C14.7999 15.9748 14.585 15.7599 14.3199 15.7599H10.4799Z" fill="#1C274C"/>
</svg>
