<svg width="25" height="26" viewBox="0 0 25 26" fill="none" xmlns="http://www.w3.org/2000/svg">
<rect y="0.378906" width="25" height="25" rx="12.5" fill="#E9EEF9"/>
<path d="M12.5 18.8682C12.9315 18.8682 13.2812 18.5184 13.2812 18.0869V11.8369C13.2812 11.4055 12.9315 11.0557 12.5 11.0557C12.0685 11.0557 11.7188 11.4055 11.7188 11.8369V18.0869C11.7188 18.5184 12.0685 18.8682 12.5 18.8682Z" fill="#182743"/>
<path d="M12.5002 7.6709C13.0755 7.6709 13.5418 8.13727 13.5418 8.71257C13.5418 9.28786 13.0755 9.75423 12.5002 9.75423C11.9249 9.75423 11.4585 9.28786 11.4585 8.71257C11.4585 8.13727 11.9249 7.6709 12.5002 7.6709Z" fill="#182743"/>
</svg>
