<svg width="60" height="61" viewBox="0 0 60 61" fill="none" xmlns="http://www.w3.org/2000/svg">
<rect y="0.5" width="60" height="60" rx="8.10507" fill="#182743"/>
<g clip-path="url(#clip0_4358_479)">
<path fill-rule="evenodd" clip-rule="evenodd" d="M30.3779 42.8779C37.2815 42.8779 42.8779 37.2815 42.8779 30.3779C42.8779 23.4744 37.2815 17.8779 30.3779 17.8779C23.4744 17.8779 17.8779 23.4744 17.8779 30.3779C17.8779 37.2815 23.4744 42.8779 30.3779 42.8779ZM30.3779 38.7113C34.9802 38.7113 38.7113 34.9802 38.7113 30.3779C38.7113 25.7756 34.9802 22.0446 30.3779 22.0446C25.7756 22.0446 22.0446 25.7756 22.0446 30.3779C22.0446 34.9802 25.7756 38.7113 30.3779 38.7113Z" fill="white"/>
<path d="M42.8783 15.7949C41.7276 15.7949 40.7949 16.7277 40.7949 17.8783C40.7949 19.0288 41.7276 19.9616 42.8783 19.9616C44.0289 19.9616 44.9616 19.0288 44.9616 17.8783C44.9616 16.7277 44.0289 15.7949 42.8783 15.7949Z" fill="white"/>
<path fill-rule="evenodd" clip-rule="evenodd" d="M8.82335 14.2861C7.46094 16.96 7.46094 20.4603 7.46094 27.4609V33.2943C7.46094 40.2949 7.46094 43.7953 8.82335 46.4691C10.0218 48.8211 11.934 50.7334 14.2861 51.9318C16.96 53.2943 20.4603 53.2943 27.4609 53.2943H33.2943C40.2949 53.2943 43.7953 53.2943 46.4691 51.9318C48.8211 50.7334 50.7334 48.8211 51.9318 46.4691C53.2943 43.7953 53.2943 40.2949 53.2943 33.2943V27.4609C53.2943 20.4603 53.2943 16.96 51.9318 14.2861C50.7334 11.934 48.8211 10.0218 46.4691 8.82335C43.7953 7.46094 40.2949 7.46094 33.2943 7.46094H27.4609C20.4603 7.46094 16.96 7.46094 14.2861 8.82335C11.934 10.0218 10.0218 11.934 8.82335 14.2861ZM33.2943 11.6276H27.4609C23.8919 11.6276 21.4656 11.6309 19.5903 11.7841C17.7635 11.9333 16.8294 12.2038 16.1777 12.5359C14.6097 13.3348 13.3348 14.6097 12.5359 16.1777C12.2038 16.8294 11.9333 17.7635 11.7841 19.5903C11.6309 21.4656 11.6276 23.8919 11.6276 27.4609V33.2943C11.6276 36.8634 11.6309 39.2895 11.7841 41.1649C11.9333 42.9918 12.2038 43.9259 12.5359 44.5776C13.3348 46.1455 14.6097 47.4203 16.1777 48.2193C16.8294 48.5513 17.7635 48.822 19.5903 48.9711C21.4656 49.1243 23.8919 49.1276 27.4609 49.1276H33.2943C36.8634 49.1276 39.2895 49.1243 41.1649 48.9711C42.9918 48.822 43.9259 48.5513 44.5776 48.2193C46.1455 47.4203 47.4203 46.1455 48.2193 44.5776C48.5513 43.9259 48.822 42.9918 48.9711 41.1649C49.1243 39.2895 49.1276 36.8634 49.1276 33.2943V27.4609C49.1276 23.8919 49.1243 21.4656 48.9711 19.5903C48.822 17.7635 48.5513 16.8294 48.2193 16.1777C47.4203 14.6097 46.1455 13.3348 44.5776 12.5359C43.9259 12.2038 42.9918 11.9333 41.1649 11.7841C39.2895 11.6309 36.8634 11.6276 33.2943 11.6276Z" fill="white"/>
</g>
<defs>
<clipPath id="clip0_4358_479">
<rect width="50" height="50" fill="white" transform="translate(5.37793 5.37793)"/>
</clipPath>
</defs>
</svg>
