<svg width="365" height="33" viewBox="0 0 365 33" fill="none" xmlns="http://www.w3.org/2000/svg">
<path d="M0.24 26V1.5H12.77C18.02 1.5 22.43 4.965 22.43 10.18C22.43 15.115 17.775 18.86 12.77 18.86H5.14V26H0.24ZM17.53 10.18C17.53 7.765 15.5 6.015 12.77 6.015H5.14V14.275H12.77C15.465 14.275 17.53 12.49 17.53 10.18ZM46.7096 26H42.3696L41.8796 23.69C40.0946 25.475 37.5396 26.525 34.5646 26.525C28.7546 26.525 24.3796 22.57 24.3796 17.285C24.3796 11.93 28.7196 7.975 34.5646 7.975C37.5046 7.975 40.0946 8.99 41.8796 10.81L42.3696 8.5H46.7096V26ZM29.2796 17.285C29.2796 20.12 31.9396 22.185 35.6146 22.185C39.3246 22.185 41.8096 20.19 41.8096 17.285C41.8096 14.345 39.2896 12.28 35.6146 12.28C31.9396 12.28 29.2796 14.38 29.2796 17.285ZM67.7569 21.03C67.7569 24.18 64.4319 26.525 59.3219 26.525C54.0719 26.525 50.5019 24.215 50.1169 20.575H55.0169C55.2969 22.115 56.8369 23.025 59.3219 23.025C61.3169 23.025 62.8219 22.15 62.8219 21.03C62.8219 17.18 50.5719 20.575 50.5719 13.54C50.5719 10.46 53.7219 7.975 58.8319 7.975C64.0819 7.975 67.1969 10.25 67.4769 13.89H62.5769C62.3669 12.49 61.1069 11.51 58.7969 11.51C56.8719 11.51 55.4719 12.35 55.4719 13.505C55.4719 17.25 67.7569 13.47 67.7569 21.03ZM87.7862 21.03C87.7862 24.18 84.4612 26.525 79.3512 26.525C74.1012 26.525 70.5312 24.215 70.1462 20.575H75.0462C75.3262 22.115 76.8662 23.025 79.3512 23.025C81.3462 23.025 82.8512 22.15 82.8512 21.03C82.8512 17.18 70.6012 20.575 70.6012 13.54C70.6012 10.46 73.7512 7.975 78.8612 7.975C84.1112 7.975 87.2262 10.25 87.5062 13.89H82.6062C82.3962 12.49 81.1362 11.51 78.8262 11.51C76.9012 11.51 75.5012 12.35 75.5012 13.505C75.5012 17.25 87.7862 13.47 87.7862 21.03ZM91.6105 3.215C91.6105 1.92 92.5205 0.974999 93.9205 0.974999C95.2505 0.974999 96.1605 1.92 96.1605 3.215C96.1605 4.615 95.2505 5.49 93.9205 5.49C92.5205 5.49 91.6105 4.615 91.6105 3.215ZM96.3705 26H91.4705V8.5H96.3705V26ZM98.6934 8.5H104.118L110.243 20.575L116.263 8.5H121.723L112.973 26H107.513L98.6934 8.5ZM143.2 18.475H127.31C127.835 20.995 130.075 22.675 133.015 22.675C135.115 22.675 136.795 21.905 137.705 20.645H142.675C141.345 24.215 137.6 26.525 132.805 26.525C126.785 26.525 122.27 22.57 122.27 17.285C122.27 11.93 126.75 7.975 132.805 7.975C138.79 7.975 143.27 11.72 143.27 17.285C143.27 17.67 143.27 18.09 143.2 18.475ZM127.31 16.025H138.23C137.74 13.54 135.675 11.93 132.805 11.93C129.97 11.93 127.835 13.575 127.31 16.025ZM151.532 10.215V26H146.632V1.5H152.862L160.772 20.155L168.647 1.5H174.877V26H169.977V10.285L163.222 26H158.287L151.532 10.215ZM177.881 17.285C177.881 11.93 182.431 7.975 188.591 7.975C194.821 7.975 199.336 11.72 199.336 17.285C199.336 22.745 194.821 26.525 188.591 26.525C182.466 26.525 177.881 22.57 177.881 17.285ZM182.781 17.285C182.781 20.015 185.266 21.975 188.591 21.975C192.091 21.975 194.436 20.015 194.436 17.285C194.436 14.485 192.091 12.49 188.591 12.49C185.231 12.49 182.781 14.485 182.781 17.285ZM207.62 17.845V26H202.72V8.5H207.095L207.585 11.37C209.125 9.27 211.435 7.975 214.165 7.975C219.415 7.975 223.09 12 223.09 17.845V26H218.19V17.845C218.19 14.695 215.95 12.49 212.835 12.49C209.72 12.49 207.62 14.695 207.62 17.845ZM247.346 18.475H231.456C231.981 20.995 234.221 22.675 237.161 22.675C239.261 22.675 240.941 21.905 241.851 20.645H246.821C245.491 24.215 241.746 26.525 236.951 26.525C230.931 26.525 226.416 22.57 226.416 17.285C226.416 11.93 230.896 7.975 236.951 7.975C242.936 7.975 247.416 11.72 247.416 17.285C247.416 17.67 247.416 18.09 247.346 18.475ZM231.456 16.025H242.376C241.886 13.54 239.821 11.93 236.951 11.93C234.116 11.93 231.981 13.575 231.456 16.025ZM262.467 32.895H257.287L259.772 26H254.907L248.537 8.5H253.717L258.372 21.31H261.487L266.107 8.5H271.252L262.467 32.895ZM270.849 23.97C270.849 22.5 271.899 21.45 273.474 21.45C274.944 21.45 275.994 22.5 275.994 23.97C275.994 25.545 274.944 26.525 273.474 26.525C271.899 26.525 270.849 25.545 270.849 23.97ZM282.175 13.785C282.175 18.51 285.745 21.835 290.715 21.835C294.25 21.835 297.015 20.19 298.38 17.53H303.56C302.055 23.025 297.015 26.525 290.715 26.525C283.05 26.525 277.275 21.065 277.275 13.785C277.275 6.4 283.015 0.974999 290.715 0.974999C297.015 0.974999 302.02 4.475 303.56 9.97H298.38C297.05 7.275 294.285 5.665 290.715 5.665C285.71 5.665 282.175 8.955 282.175 13.785ZM305.439 17.285C305.439 11.93 309.989 7.975 316.149 7.975C322.379 7.975 326.894 11.72 326.894 17.285C326.894 22.745 322.379 26.525 316.149 26.525C310.024 26.525 305.439 22.57 305.439 17.285ZM310.339 17.285C310.339 20.015 312.824 21.975 316.149 21.975C319.649 21.975 321.994 20.015 321.994 17.285C321.994 14.485 319.649 12.49 316.149 12.49C312.789 12.49 310.339 14.485 310.339 17.285ZM335.179 17.845V26H330.279V8.5H334.654L335.109 11.265C336.579 9.235 338.784 7.975 341.374 7.975C344.839 7.975 347.604 9.865 349.004 12.945C350.369 9.9 352.994 7.975 356.214 7.975C361.254 7.975 364.859 12 364.859 17.845V26H359.959V17.845C359.959 14.695 357.894 12.49 354.954 12.49C352.014 12.49 350.019 14.695 350.019 17.845V26H345.119V17.845C345.119 14.695 343.054 12.49 340.114 12.49C337.174 12.49 335.179 14.695 335.179 17.845Z" fill="white"/>
</svg>
