<svg width="61" height="55" viewBox="0 0 61 55" fill="none" xmlns="http://www.w3.org/2000/svg">
<rect x="0.5" y="0.5" width="60" height="54" rx="7.5" fill="white"/>
<rect x="0.5" y="0.5" width="60" height="54" rx="7.5" stroke="white"/>
<path d="M36.897 18.9029C36.897 22.4358 34.0329 25.2999 30.5 25.2999C26.9671 25.2999 24.103 22.4358 24.103 18.9029C24.103 15.3699 26.9671 12.5059 30.5 12.5059C34.0329 12.5059 36.897 15.3699 36.897 18.9029Z" fill="white"/>
<path d="M36.897 18.9029C36.897 22.4358 34.0329 25.2999 30.5 25.2999C26.9671 25.2999 24.103 22.4358 24.103 18.9029C24.103 15.3699 26.9671 12.5059 30.5 12.5059C34.0329 12.5059 36.897 15.3699 36.897 18.9029Z" fill="#182743"/>
<path d="M36.897 18.9029C36.897 22.4358 34.0329 25.2999 30.5 25.2999C26.9671 25.2999 24.103 22.4358 24.103 18.9029C24.103 15.3699 26.9671 12.5059 30.5 12.5059C34.0329 12.5059 36.897 15.3699 36.897 18.9029Z" stroke="white" stroke-width="2.25777" stroke-linecap="round" stroke-linejoin="round"/>
<path d="M36.897 18.9029C36.897 22.4358 34.0329 25.2999 30.5 25.2999C26.9671 25.2999 24.103 22.4358 24.103 18.9029C24.103 15.3699 26.9671 12.5059 30.5 12.5059C34.0329 12.5059 36.897 15.3699 36.897 18.9029Z" stroke="#182743" stroke-width="2.25777" stroke-linecap="round" stroke-linejoin="round"/>
<path d="M30.4999 31.2998C24.3172 31.2998 19.3052 36.3119 19.3052 42.4946H41.6947C41.6947 36.3119 36.6827 31.2998 30.4999 31.2998Z" fill="white"/>
<path d="M30.4999 31.2998C24.3172 31.2998 19.3052 36.3119 19.3052 42.4946H41.6947C41.6947 36.3119 36.6827 31.2998 30.4999 31.2998Z" fill="#182743"/>
<path d="M30.4999 31.2998C24.3172 31.2998 19.3052 36.3119 19.3052 42.4946H41.6947C41.6947 36.3119 36.6827 31.2998 30.4999 31.2998Z" stroke="white" stroke-width="2.25777" stroke-linecap="round" stroke-linejoin="round"/>
<path d="M30.4999 31.2998C24.3172 31.2998 19.3052 36.3119 19.3052 42.4946H41.6947C41.6947 36.3119 36.6827 31.2998 30.4999 31.2998Z" stroke="#182743" stroke-width="2.25777" stroke-linecap="round" stroke-linejoin="round"/>
</svg>
