<svg width="158" height="158" viewBox="0 0 158 158" fill="none" xmlns="http://www.w3.org/2000/svg">
<rect x="17" y="17" width="124" height="124" rx="62" fill="#BEFF6B"/>
<rect x="8.88095" y="8.88095" width="140.238" height="140.238" rx="70.119" stroke="#BEFF6B" stroke-opacity="0.47" stroke-width="16.2381"/>
<path d="M96.5833 59.8902H107.765C108.442 59.8909 109.094 60.1426 109.595 60.5965C110.096 61.0504 110.411 61.6743 110.479 62.3472L112.144 79.0002H106.651L105.286 65.3502H96.5833V73.5402C96.5833 74.2642 96.2957 74.9586 95.7837 75.4706C95.2717 75.9826 94.5773 76.2702 93.8533 76.2702C93.1292 76.2702 92.4348 75.9826 91.9229 75.4706C91.4109 74.9586 91.1233 74.2642 91.1233 73.5402V65.3502H69.2833V73.5402C69.2833 74.2642 68.9957 74.9586 68.4837 75.4706C67.9718 75.9826 67.2774 76.2702 66.5533 76.2702C65.8293 76.2702 65.1349 75.9826 64.6229 75.4706C64.111 74.9586 63.8233 74.2642 63.8233 73.5402V65.3502H55.1147L50.7467 109.03H80.2033V114.49H47.7273C47.346 114.49 46.969 114.409 46.6206 114.255C46.2722 114.1 45.9601 113.873 45.7045 113.59C45.4488 113.308 45.2553 112.974 45.1363 112.612C45.0173 112.25 44.9756 111.867 45.0137 111.487L49.9277 62.3472C49.9953 61.6743 50.3103 61.0504 50.8116 60.5965C51.313 60.1426 51.965 59.8909 52.6413 59.8902H63.8233V57.9847C63.8233 48.5171 71.1179 40.7803 80.2033 40.7803C89.2887 40.7803 96.5833 48.5171 96.5833 57.9847V59.8957V59.8902ZM91.1233 59.8902V57.9847C91.1233 51.4655 86.1984 46.2403 80.2033 46.2403C74.2082 46.2403 69.2833 51.4655 69.2833 57.9847V59.8957H91.1233V59.8902ZM108.306 101.168L102.043 94.9106V114.49C102.043 115.214 101.756 115.909 101.244 116.421C100.732 116.932 100.037 117.22 99.3133 117.22C98.5892 117.22 97.8948 116.932 97.3829 116.421C96.8709 115.909 96.5833 115.214 96.5833 114.49V94.9106L90.3261 101.168C90.0743 101.428 89.773 101.636 89.44 101.78C89.1069 101.923 88.7487 101.998 88.3862 102.001C88.0237 102.004 87.6642 101.935 87.3287 101.798C86.9932 101.661 86.6884 101.458 86.4321 101.202C86.1758 100.945 85.973 100.64 85.8358 100.305C85.6985 99.9694 85.6294 99.6099 85.6326 99.2475C85.6357 98.885 85.711 98.5267 85.8541 98.1937C85.9972 97.8606 86.2052 97.5594 86.4659 97.3075L97.3859 86.3876C97.8978 85.8758 98.5921 85.5882 99.316 85.5882C100.04 85.5882 100.734 85.8758 101.246 86.3876L112.166 97.3075C112.427 97.5594 112.635 97.8606 112.778 98.1937C112.921 98.5267 112.996 98.885 112.999 99.2475C113.003 99.6099 112.933 99.9694 112.796 100.305C112.659 100.64 112.456 100.945 112.2 101.202C111.944 101.458 111.639 101.661 111.303 101.798C110.968 101.935 110.608 102.004 110.246 102.001C109.883 101.998 109.525 101.923 109.192 101.78C108.859 101.636 108.558 101.428 108.306 101.168Z" fill="#21364F"/>
</svg>
