<svg width="60" height="61" viewBox="0 0 60 61" fill="none" xmlns="http://www.w3.org/2000/svg">
<rect y="0.5" width="60" height="60" rx="8.10507" fill="#182743"/>
<path d="M22.7638 44.9699C21.4756 44.9699 21.6945 44.5193 21.2502 43.3831L17.4619 31.8342L46.6222 15.8096" fill="#C8DAEA"/>
<path d="M22.3291 44.9682C23.3232 44.9682 23.7624 44.5322 24.3173 44.015L29.6192 39.0718L23.0058 35.248" fill="#A9C9DD"/>
<path d="M23.917 35.8282L39.2264 46.9339C40.9734 47.8804 42.2343 47.3903 42.6695 45.3414L48.9012 16.5077C49.5392 13.9961 47.9261 12.857 46.2549 13.602L9.66222 27.4561C7.16443 28.4398 7.179 29.808 9.20693 30.4177L18.5974 33.2954L40.3374 19.8287C41.3637 19.2176 42.3057 19.5461 41.5326 20.2198" fill="url(#paint0_linear_4358_461)"/>
<defs>
<linearGradient id="paint0_linear_4358_461" x1="25.4802" y1="30.532" x2="29.4057" y2="43.4642" gradientUnits="userSpaceOnUse">
<stop stop-color="#EFF7FC"/>
<stop offset="1" stop-color="white"/>
</linearGradient>
</defs>
</svg>
