<svg width="21" height="21" viewBox="0 0 21 21" fill="none" xmlns="http://www.w3.org/2000/svg">
<path fill-rule="evenodd" clip-rule="evenodd" d="M8.92793 3.9375C8.70096 3.9375 8.47957 4.0318 8.31352 4.20578C8.14689 4.38035 8.05034 4.62077 8.05034 4.875V5.8125H12.4899V4.875C12.4899 4.62077 12.3934 4.38035 12.2267 4.20578C12.0607 4.0318 11.8393 3.9375 11.6123 3.9375H8.92793ZM13.4191 5.8125V4.875C13.4191 4.38331 13.2329 3.90836 12.8961 3.55549C12.5587 3.20201 12.0973 3 11.6123 3H8.92793C8.44296 3 7.98156 3.20201 7.64419 3.55549C7.30739 3.90836 7.12112 4.38331 7.12112 4.875V5.8125H4.23023C3.97364 5.8125 3.76562 6.02237 3.76562 6.28125C3.76562 6.54013 3.97364 6.75 4.23023 6.75H5.10782V16.125C5.10782 16.6167 5.29409 17.0916 5.63089 17.4445C5.96826 17.798 6.42966 18 6.91463 18H13.6256C14.1106 18 14.572 17.798 14.9094 17.4445C15.2462 17.0916 15.4324 16.6167 15.4324 16.125V6.75H16.31C16.5666 6.75 16.7746 6.54013 16.7746 6.28125C16.7746 6.02237 16.5666 5.8125 16.31 5.8125H13.4191ZM6.03704 6.75V16.125C6.03704 16.3792 6.1336 16.6196 6.30022 16.7942C6.46627 16.9682 6.68766 17.0625 6.91463 17.0625H13.6256C13.8526 17.0625 14.074 16.9682 14.24 16.7942C14.4067 16.6196 14.5032 16.3792 14.5032 16.125V6.75H6.03704ZM8.92793 9.32812C9.18453 9.32812 9.39254 9.53799 9.39254 9.79688V14.0156C9.39254 14.2745 9.18453 14.4844 8.92793 14.4844C8.67133 14.4844 8.46332 14.2745 8.46332 14.0156V9.79688C8.46332 9.53799 8.67133 9.32812 8.92793 9.32812ZM11.6123 9.32812C11.8689 9.32812 12.0769 9.53799 12.0769 9.79688V14.0156C12.0769 14.2745 11.8689 14.4844 11.6123 14.4844C11.3557 14.4844 11.1477 14.2745 11.1477 14.0156V9.79688C11.1477 9.53799 11.3557 9.32812 11.6123 9.32812Z" fill="#1D1D1D"/>
</svg>
