<svg width="140" height="140" viewBox="0 0 140 140" fill="none" xmlns="http://www.w3.org/2000/svg">
<rect x="15" y="15" width="110" height="110" rx="55" fill="#BEFF6B"/>
<rect x="7.79762" y="7.79762" width="124.405" height="124.405" rx="62.2024" stroke="#BEFF6B" stroke-opacity="0.47" stroke-width="14.4048"/>
<path d="M70.5173 82.1978C72.2192 81.9122 73.3676 80.3009 73.082 78.5987C72.7964 76.8966 71.1851 75.7481 69.483 76.0337L70.5173 82.1978ZM76.2501 101.25C77.9761 101.25 79.3751 99.8509 79.3751 98.125C79.3751 96.3991 77.9761 95 76.2501 95V101.25ZM86.5314 86.5403C85.3108 87.7606 85.3108 89.7394 86.5314 90.9597C87.7517 92.18 89.7304 92.18 90.9508 90.9597L86.5314 86.5403ZM79.6614 78.5959C79.2314 80.2675 80.2373 81.9712 81.9089 82.4012C83.5804 82.8316 85.2839 81.8253 85.7142 80.1541L79.6614 78.5959ZM88.7411 95C87.0151 95 85.6161 96.3991 85.6161 98.125C85.6161 99.8509 87.0151 101.25 88.7411 101.25V95ZM88.7723 101.25C90.4983 101.25 91.8973 99.8509 91.8973 98.125C91.8973 96.3991 90.4983 95 88.7723 95V101.25ZM76.2501 54.375C76.2501 59.5527 72.0529 63.75 66.8751 63.75V70C75.5045 70 82.5001 63.0044 82.5001 54.375H76.2501ZM66.8751 63.75C61.6975 63.75 57.5001 59.5527 57.5001 54.375H51.2501C51.2501 63.0044 58.2457 70 66.8751 70V63.75ZM57.5001 54.375C57.5001 49.1973 61.6975 45 66.8751 45V38.75C58.2457 38.75 51.2501 45.7456 51.2501 54.375H57.5001ZM66.8751 45C72.0529 45 76.2501 49.1973 76.2501 54.375H82.5001C82.5001 45.7456 75.5045 38.75 66.8751 38.75V45ZM66.8751 76.25C64.5733 76.25 62.3955 75.7541 60.4359 74.8666L57.857 80.5597C60.6106 81.8072 63.6662 82.5 66.8751 82.5V76.25ZM48.1251 93.125V87.7628H41.8751V93.125H48.1251ZM50.0001 95C49.0735 95 48.5665 94.9975 48.2021 94.9678C47.8743 94.9409 47.9454 94.9084 48.1251 95L45.2877 100.569C46.1359 101.001 46.9788 101.139 47.6932 101.197C48.371 101.252 49.1766 101.25 50.0001 101.25V95ZM41.8751 93.125C41.8751 93.9484 41.8727 94.7541 41.9281 95.4319C41.9865 96.1462 42.1242 96.9894 42.5564 97.8375L48.1251 95C48.2167 95.1797 48.1841 95.2509 48.1573 94.9231C48.1276 94.5588 48.1251 94.0516 48.1251 93.125H41.8751ZM48.1251 95L42.5564 97.8375C43.1555 99.0134 44.1117 99.9697 45.2877 100.569L48.1251 95ZM48.1251 87.7628C48.1251 85.64 48.1377 84.9944 48.2251 84.5116L42.0751 83.3981C41.8625 84.5722 41.8751 85.9128 41.8751 87.7628H48.1251ZM53.2494 73.1878C52.8781 73.2159 52.5152 73.2584 52.1484 73.325L53.2618 79.475C53.3757 79.4544 53.5203 79.435 53.7243 79.4197L53.2494 73.1878ZM48.2251 84.5116C48.6895 81.9466 50.6969 79.9394 53.2618 79.475L52.1484 73.325C47.0186 74.2537 43.0038 78.2684 42.0751 83.3981L48.2251 84.5116ZM60.4359 74.8666C58.9644 74.2 57.8395 73.6787 57.0922 73.4681L55.3955 79.4834C55.377 79.4781 55.4119 79.4872 55.5304 79.5331C55.6438 79.5769 55.7987 79.6409 56.013 79.7334C56.4469 79.9209 57.0296 80.1847 57.857 80.5597L60.4359 74.8666ZM53.7243 79.4197C54.4671 79.3631 54.5835 79.36 54.7793 79.3747L55.2436 73.1419C54.5 73.0866 53.9132 73.1372 53.2494 73.1878L53.7243 79.4197ZM57.0922 73.4681C56.4198 73.2784 55.9403 73.1937 55.2436 73.1419L54.7793 79.3747C54.9638 79.3884 55.042 79.3997 55.091 79.4081C55.14 79.4169 55.2173 79.4331 55.3955 79.4834L57.0922 73.4681ZM69.483 76.0337C68.637 76.1756 67.7658 76.25 66.8751 76.25V82.5C68.1139 82.5 69.3308 82.3969 70.5173 82.1978L69.483 76.0337ZM76.2501 95H50.0001V101.25H76.2501V95ZM91.8658 80.9375C91.8658 81.4787 91.7239 81.8916 90.8676 82.7178C90.3873 83.1812 89.8217 83.6416 89.0373 84.2937C88.2926 84.9134 87.4192 85.6522 86.5314 86.5403L90.9508 90.9597C91.6251 90.2853 92.3142 89.6978 93.0342 89.0987C93.7148 88.5328 94.5164 87.8822 95.208 87.2147C96.6958 85.7791 98.1158 83.8481 98.1158 80.9375H91.8658ZM88.7408 77.8125C90.4667 77.8125 91.8658 79.2116 91.8658 80.9375H98.1158C98.1158 75.7597 93.9186 71.5625 88.7408 71.5625V77.8125ZM85.7142 80.1541C86.0614 78.8053 87.2892 77.8125 88.7408 77.8125V71.5625C84.3683 71.5625 80.702 74.5531 79.6614 78.5959L85.7142 80.1541ZM88.7411 101.25H88.7723V95H88.7411V101.25Z" fill="#182743"/>
</svg>
