<svg width="140" height="140" viewBox="0 0 140 140" fill="none" xmlns="http://www.w3.org/2000/svg">
<rect x="15" y="15" width="110" height="110" rx="55" fill="#BEFF6B"/>
<rect x="7.79762" y="7.79762" width="124.405" height="124.405" rx="62.2024" stroke="#BEFF6B" stroke-opacity="0.47" stroke-width="14.4048"/>
<path fill-rule="evenodd" clip-rule="evenodd" d="M52.6589 72.8178C52.846 72.3967 53.4435 72.3967 53.6306 72.8178L54.1082 73.8614C56.1515 78.0886 59.3705 81.6371 63.3779 84.0813L64.122 84.5173C64.4678 84.712 64.4678 85.2097 64.122 85.4041L63.3779 85.8404C59.3705 88.2846 56.1515 91.8329 54.1082 96.0601L53.6306 97.1039C53.4435 97.5247 52.846 97.5247 52.6589 97.1039L52.1813 96.0601C50.138 91.8329 46.919 88.2846 42.9116 85.8404L42.1675 85.4041C41.8218 85.2097 41.8218 84.712 42.1675 84.5173L42.9116 84.0813C46.919 81.6371 50.138 78.0886 52.1813 73.8614C52.3476 73.5175 52.5034 73.1675 52.6589 72.8178ZM53.1362 82.6119L52.6442 83.1905C52.2944 83.5844 51.9342 83.969 51.564 84.3439L51.0014 84.8991L50.9254 84.9659L51.5641 85.5924L52.1117 86.162L52.6442 86.7458L53.1362 87.3228L53.6293 86.7458C53.9792 86.3519 54.3394 85.9673 54.7095 85.5924L55.347 84.9659L55.2722 84.8991C54.8922 84.5339 54.522 84.1588 54.1619 83.7743L53.6294 83.1905L53.1362 82.6119ZM76.9457 43.9578C77.2733 43.2211 78.3189 43.2211 78.6464 43.9578L79.0692 44.9016L79.4821 45.7843L80.0321 46.8816L80.6667 48.0581L80.9816 48.6112C83.7821 53.444 87.5008 57.6774 91.9225 61.0743L93.1225 61.9633C93.9601 62.5615 94.8211 63.1306 95.7041 63.6691C96.133 63.9307 96.567 64.1851 97.0061 64.4322C97.6112 64.7724 97.6112 65.6438 97.0061 65.984C96.567 66.2312 96.133 66.4854 95.7041 66.7472C95.1154 67.1061 94.5366 67.4786 93.9679 67.8644L92.9553 68.5729C88.0784 72.0911 83.9975 76.6003 80.9816 81.8051L80.6122 82.4557C80.2156 83.1686 79.8386 83.8945 79.4821 84.6319L79.0692 85.5145L78.6464 86.4584C78.3189 87.195 77.2733 87.195 76.9457 86.4584L76.523 85.5145L76.11 84.6319L75.56 83.5346L74.9254 82.3579L74.6105 81.8051C71.81 76.9721 68.0911 72.7388 63.6695 69.3419L62.4696 68.4529C61.6318 67.8546 60.7709 67.2855 59.8881 66.7472C59.4591 66.4854 59.025 66.2312 58.5859 65.984C57.9808 65.6438 57.9808 64.7724 58.5859 64.4322C59.025 64.1851 59.4591 63.9307 59.8881 63.6691C60.4766 63.3101 61.0554 62.9375 61.6242 62.5518L62.6368 61.8433C67.5135 58.3252 71.5946 53.8158 74.6105 48.6112L74.9799 47.9606C75.3766 47.2474 75.7536 46.5218 76.11 45.7843L76.523 44.9016L76.9457 43.9578ZM77.7961 54.113C74.9709 58.3267 71.4983 62.0717 67.5062 65.2081C71.4983 68.3445 74.9709 72.0894 77.7961 76.3031C80.6212 72.0894 84.0936 68.3445 88.086 65.2081C84.0936 62.0717 80.6212 58.3267 77.7961 54.113Z" fill="#09244B"/>
</svg>
