<svg width="140" height="140" viewBox="0 0 140 140" fill="none" xmlns="http://www.w3.org/2000/svg">
<rect x="15" y="15" width="110" height="110" rx="55" fill="#BEFF6B"/>
<rect x="7.79762" y="7.79762" width="124.405" height="124.405" rx="62.2024" stroke="#BEFF6B" stroke-opacity="0.47" stroke-width="14.4048"/>
<path d="M80.6266 94.3377C78.4578 94.3377 76.5516 93.8939 74.9141 93.0064C73.2766 92.1189 71.8078 90.8314 70.5078 89.1439L73.2891 86.3502C74.2141 87.6814 75.2891 88.7314 76.5016 89.5002C77.7203 90.2689 79.1516 90.6564 80.8016 90.6564C82.5703 90.6564 83.9953 90.2439 85.0766 89.4127C86.1641 88.5877 86.7078 87.4314 86.7078 85.9502C86.7078 84.7939 86.4453 83.8627 85.9266 83.1564C85.4078 82.4439 84.7078 81.8627 83.8391 81.4064C82.9703 80.9502 82.0141 80.5439 80.9703 80.1877C79.9266 79.8314 78.8828 79.4439 77.8453 79.0127C76.8016 78.5814 75.8516 78.0439 75.0016 77.3939C74.1453 76.7439 73.4516 75.9064 72.9141 74.8877C72.3766 73.8689 72.1078 72.5564 72.1078 70.9627C72.1078 69.2189 72.5203 67.7314 73.3453 66.5064C74.1703 65.2814 75.3016 64.3314 76.7328 63.6689C78.1641 63.0064 79.7641 62.6689 81.5328 62.6689C83.3578 62.6689 85.0203 63.0627 86.5266 63.8439C88.0328 64.6252 89.2766 65.6564 90.2641 66.9252L87.4828 69.7627C86.6141 68.6689 85.6828 67.8252 84.6828 67.2314C83.6828 66.6377 82.6078 66.3439 81.4453 66.3439C79.7641 66.3439 78.4516 66.7127 77.4953 67.4502C76.5391 68.1877 76.0641 69.2689 76.0641 70.6877C76.0641 71.7252 76.3328 72.5564 76.8703 73.1939C77.4078 73.8314 78.1141 74.3689 78.9953 74.8127C79.8766 75.2564 80.8328 75.6627 81.8641 76.0314C82.8891 76.4002 83.9328 76.8064 84.9891 77.2502C86.0453 77.6939 87.0078 78.2564 87.8766 78.9377C88.7453 79.6189 89.4453 80.5002 89.9828 81.5752C90.5203 82.6564 90.7891 84.0064 90.7891 85.6377C90.7891 88.3564 89.8766 90.4877 88.0516 92.0252C86.2266 93.5689 83.7516 94.3377 80.6266 94.3377ZM80.0641 98.3314V58.6689H82.9328V98.3314H80.0641Z" fill="#182743"/>
<path d="M51.5078 94.4627V62.7377H55.2141V94.4627H51.5078ZM53.9953 82.1189V78.3689H61.4391C62.4641 78.3689 63.3766 78.1252 64.1766 77.6377C64.9766 77.1502 65.6078 76.4627 66.0703 75.5814C66.5328 74.7002 66.7578 73.6439 66.7578 72.4252C66.7578 71.2064 66.5266 70.1564 66.0703 69.2689C65.6078 68.3877 64.9828 67.7002 64.1766 67.2127C63.3766 66.7252 62.4641 66.4814 61.4391 66.4814H53.9953V62.7314H61.6391C63.3203 62.7314 64.8328 63.1252 66.1703 63.9189C67.5078 64.7127 68.5703 65.8314 69.3453 67.2814C70.1203 68.7314 70.5078 70.4439 70.5078 72.4252C70.5078 74.3752 70.1203 76.0814 69.3453 77.5439C68.5703 79.0064 67.5141 80.1314 66.1703 80.9252C64.8328 81.7189 63.3203 82.1127 61.6391 82.1127H53.9953V82.1189Z" fill="#182743"/>
<path d="M70.0016 42.6953C69.9078 42.7641 69.8203 42.8328 69.7266 42.9016C69.7266 44.5016 69.7266 46.1016 69.7266 47.7016C69.9078 47.5641 70.0078 47.4891 70.0078 47.4891C77.9266 53.4516 85.8141 59.3891 93.6641 65.3016H100.027C89.9516 57.7141 79.9703 50.1953 70.0016 42.6953Z" fill="#182743"/>
<path d="M70.0016 42.6953C70.0953 42.7641 70.1828 42.8328 70.2766 42.9016C70.2766 44.5016 70.2766 46.1016 70.2766 47.7016C70.0953 47.5641 69.9953 47.4891 69.9953 47.4891C62.0766 53.4516 54.1891 59.3891 46.3391 65.3016H39.9766C50.0516 57.7141 60.0328 50.1953 70.0016 42.6953Z" fill="#182743"/>
</svg>
