<svg width="14" height="15" viewBox="0 0 14 15" fill="none" xmlns="http://www.w3.org/2000/svg">
<path fill-rule="evenodd" clip-rule="evenodd" d="M0.386899 0.658872C0.685968 0.359803 1.17086 0.359803 1.46992 0.658872L7.05492 6.24387L12.6399 0.658872C12.939 0.359803 13.4239 0.359803 13.723 0.658872C14.022 0.957941 14.022 1.44283 13.723 1.7419L8.13795 7.3269L13.723 12.9119C14.022 13.211 14.022 13.6959 13.723 13.9949C13.4239 14.294 12.939 14.294 12.6399 13.9949L7.05492 8.40992L1.46992 13.9949C1.17086 14.294 0.685968 14.294 0.386899 13.9949C0.0878304 13.6959 0.0878304 13.211 0.386899 12.9119L5.9719 7.3269L0.386899 1.7419C0.0878304 1.44283 0.0878304 0.957941 0.386899 0.658872Z" fill="white" fill-opacity="0.36"/>
</svg>
