<svg width="530" height="28" viewBox="0 0 530 28" fill="none" xmlns="http://www.w3.org/2000/svg">
<path fill-rule="evenodd" clip-rule="evenodd" d="M270.934 8.2554C270.39 8.3574 269.914 8.4254 269.54 8.4594L266.718 8.8334C262.604 9.3774 260.564 11.1454 260.564 14.1374C260.564 14.9874 260.734 15.7354 261.04 16.3474C261.346 16.9934 261.788 17.5034 262.332 17.9454C262.876 18.3874 263.522 18.6934 264.236 18.8974C264.95 19.1014 265.664 19.2034 266.446 19.2034C267.738 19.2034 268.928 18.9654 270.05 18.4554C271.172 17.9454 272.158 17.2314 273.008 16.2794C273.008 16.5854 273.042 16.8914 273.076 17.1634C273.11 17.4694 273.212 17.7074 273.348 17.9454C273.45 18.1834 273.62 18.3874 273.824 18.5574C274.028 18.7614 274.3 18.8634 274.64 18.8974C274.946 18.9654 275.252 18.9994 275.558 18.9994C275.864 18.9994 276.17 18.9654 276.476 18.8634L276.476 18.8633C276.782 18.7614 276.986 18.6934 277.156 18.6594V17.0614C276.306 17.3674 275.728 17.4354 275.456 17.1974C275.15 16.9934 275.014 16.4834 275.014 15.7014V6.1134C275.014 5.0934 274.844 4.2434 274.538 3.5294C274.198 2.8154 273.756 2.2714 273.178 1.8294C272.6 1.4214 271.92 1.1154 271.138 0.911403C270.356 0.741403 269.506 0.639404 268.622 0.639404C267.67 0.639404 266.786 0.741403 265.936 0.945404C265.086 1.1834 264.338 1.5234 263.692 1.9654C263.046 2.4414 262.502 3.0534 262.094 3.7674C261.686 4.5154 261.448 5.3994 261.38 6.4534H263.454C263.556 5.6714 263.726 5.0254 264.032 4.5154C264.304 4.0054 264.678 3.5974 265.12 3.2914C265.562 2.9854 266.072 2.7814 266.65 2.6454C267.228 2.5434 267.874 2.4754 268.588 2.4754C270.186 2.4754 271.308 2.8154 271.988 3.4614C272.634 4.1414 272.974 4.9914 272.974 6.0454C272.974 6.3514 272.94 6.6914 272.872 7.0654C272.77 7.4394 272.566 7.7114 272.226 7.8814C271.886 8.0514 271.444 8.1534 270.934 8.2554ZM270.356 10.1934C271.24 10.0914 272.124 9.8534 272.974 9.4794V12.2334C272.974 13.1174 272.804 13.8654 272.43 14.5114C272.056 15.1574 271.58 15.7014 271.002 16.1094C270.39 16.5514 269.71 16.8574 268.928 17.0614C268.146 17.2654 267.364 17.3674 266.548 17.3674C266.072 17.3674 265.596 17.2994 265.154 17.1634C264.678 17.0614 264.27 16.8574 263.93 16.5854C263.556 16.3474 263.284 16.0074 263.08 15.5994C262.842 15.2254 262.74 14.7494 262.74 14.2054C262.74 13.0154 263.182 12.0974 264.066 11.5194C264.916 10.9414 266.14 10.5674 267.704 10.4654C268.588 10.3974 269.472 10.2954 270.356 10.1934ZM6.5 27.7275C9.57358 27.7275 12.1489 25.5942 12.8261 22.7275H516.174C516.851 25.5942 519.426 27.7275 522.5 27.7275C525.574 27.7275 528.149 25.5942 528.826 22.7275H530V19.7275H528.826C528.149 16.8608 525.574 14.7275 522.5 14.7275C519.426 14.7275 516.851 16.8608 516.174 19.7275H12.8261C12.1489 16.8608 9.57358 14.7275 6.5 14.7275C2.91015 14.7275 0 17.6377 0 21.2275C0 24.8174 2.91015 27.7275 6.5 27.7275Z" fill="black"/>
</svg>
