<svg width="137" height="130" viewBox="0 0 137 130" fill="none" xmlns="http://www.w3.org/2000/svg">
<g id="A3">
<path id="Vector" d="M27.5897 40.4C29.2897 19.5 46.7897 3 68.1897 3C90.6897 3 108.89 21.2 108.89 43.7C108.89 58 101.59 70.5 90.4897 77.8" stroke="#EAEAEA" stroke-width="5.5" stroke-linecap="round" stroke-linejoin="round"/>
<path id="Vector_2" d="M62.0896 121.9C43.3896 131.5 20.0896 125.2 8.88964 107C-3.01036 87.7999 2.98964 62.7 22.1896 50.9C34.6896 43.2 49.6896 43.1 61.8896 49.2" stroke="#EAEAEA" stroke-width="5.5" stroke-linecap="round" stroke-linejoin="round"/>
<path id="Vector_3" d="M73.6896 58.2C75.3896 60 76.8896 62 78.1896 64.2C87.8896 80 85.5896 99.7 73.7896 112.8" stroke="#EAEAEA" stroke-width="5.5" stroke-linecap="round" stroke-linejoin="round"/>
<path id="Vector_4" d="M115.39 51.4C132.79 62.9 138.89 86 128.89 104.7C118.19 124.5 93.4896 132 73.6896 121.3C61.0896 114.5 53.4896 102 52.3896 88.7" stroke="#EAEAEA" stroke-width="5.5" stroke-linecap="round" stroke-linejoin="round"/>
<path id="Vector_5" d="M53.7897 74C54.5897 71.3 55.6897 68.7 56.9897 66.2C65.7897 49.8 84.2897 41.9 101.59 45.7" stroke="#EAEAEA" stroke-width="5.5" stroke-linecap="round" stroke-linejoin="round"/>
<path id="Vector_6" d="M76.8896 83.6C74.0896 84.2 71.1896 84.5 68.2896 84.5C49.7896 84.5 34.1896 72.2 29.1896 55.2" stroke="#EAEAEA" stroke-width="5.5" stroke-linecap="round" stroke-linejoin="round"/>
</g>
</svg>
