<svg width="61" height="61" viewBox="0 0 61 61" fill="none" xmlns="http://www.w3.org/2000/svg">
<rect x="1.5" y="1.00537" width="59" height="59" stroke="black"/>
<line x1="1.31246" y1="60.1516" x2="60.6458" y2="0.818237" stroke="black"/>
<circle cx="31" cy="31" r="24.5" fill="#EAEAEA" stroke="black"/>
<path d="M29.732 26.636C30.584 27.092 31.112 27.872 31.304 29H30.152C30.008 28.376 29.72 27.908 29.276 27.62C28.832 27.332 28.28 27.2 27.608 27.2C26.804 27.2 26.144 27.5 25.592 28.088C25.052 28.688 24.776 29.576 24.776 30.764C24.776 31.784 25.004 32.624 25.448 33.26C25.904 33.908 26.636 34.232 27.644 34.232C28.424 34.232 29.072 34.004 29.576 33.548C30.092 33.092 30.344 32.372 30.356 31.364H27.668V30.392H31.448V35H30.692L30.416 33.896C30.02 34.328 29.672 34.628 29.36 34.796C28.856 35.084 28.208 35.228 27.416 35.228C26.396 35.228 25.508 34.904 24.776 34.244C23.984 33.416 23.576 32.276 23.576 30.824C23.576 29.384 23.972 28.244 24.752 27.392C25.496 26.576 26.456 26.168 27.632 26.168C28.448 26.168 29.144 26.324 29.732 26.636ZM37.5832 29.348C38.1472 29.888 38.4232 30.68 38.4232 31.736C38.4232 32.744 38.1832 33.572 37.6912 34.244C37.1992 34.904 36.4312 35.228 35.3992 35.228C34.5352 35.228 33.8512 34.94 33.3352 34.352C32.8312 33.764 32.5792 32.984 32.5792 32C32.5792 30.944 32.8432 30.104 33.3832 29.48C33.9112 28.856 34.6312 28.544 35.5312 28.544C36.3472 28.544 37.0312 28.808 37.5832 29.348ZM36.9352 33.524C37.1992 32.996 37.3192 32.408 37.3192 31.76C37.3192 31.172 37.2352 30.704 37.0432 30.332C36.7432 29.756 36.2272 29.468 35.5072 29.468C34.8592 29.468 34.3912 29.708 34.1032 30.2C33.8032 30.692 33.6592 31.28 33.6592 31.988C33.6592 32.648 33.8032 33.212 34.1032 33.656C34.3912 34.1 34.8592 34.316 35.4952 34.316C36.1912 34.316 36.6712 34.052 36.9352 33.524Z" fill="black"/>
</svg>
