<svg width="476" height="160" viewBox="0 0 476 160" fill="none" xmlns="http://www.w3.org/2000/svg">
<g style="mix-blend-mode:multiply" clip-path="url(#clip0_603_11379)">
<path d="M33.3652 0.00537109V73.7864" stroke="black" stroke-width="1.25692" stroke-miterlimit="10"/>
<path d="M0.00390625 36.9587H66.6128" stroke="black" stroke-width="1.25692" stroke-miterlimit="10"/>
<path d="M122.782 0.00537109V34.3192" stroke="black" stroke-width="1.25692" stroke-miterlimit="10"/>
<path d="M122.782 39.4727V73.7865" stroke="black" stroke-width="1.25692" stroke-miterlimit="10"/>
<path d="M89.5352 36.9585H120.4" stroke="black" stroke-width="1.25692" stroke-miterlimit="10"/>
<path d="M125.165 36.9587H156.143" stroke="black" stroke-width="1.25692" stroke-miterlimit="10"/>
<path d="M203.349 0.00537109V31.6797" stroke="black" stroke-width="1.25692" stroke-miterlimit="10"/>
<path d="M203.349 42.1121V73.7864" stroke="black" stroke-width="1.25692" stroke-miterlimit="10"/>
<path d="M169.987 36.9587H198.583" stroke="black" stroke-width="1.25692" stroke-miterlimit="10"/>
<path d="M208.001 36.9587H236.596" stroke="black" stroke-width="1.25692" stroke-miterlimit="10"/>
<path d="M283.233 0.00537109V29.0402" stroke="black" stroke-width="1.25692" stroke-miterlimit="10"/>
<path d="M283.233 44.7517V73.7865" stroke="black" stroke-width="1.25692" stroke-miterlimit="10"/>
<path d="M249.986 36.9587H276.199" stroke="black" stroke-width="1.25692" stroke-miterlimit="10"/>
<path d="M290.383 36.9585H316.595" stroke="black" stroke-width="1.25692" stroke-miterlimit="10"/>
<path d="M366.637 0.00537109V26.5263" stroke="black" stroke-width="1.25692" stroke-miterlimit="10"/>
<path d="M366.637 47.2656V73.7866" stroke="black" stroke-width="1.25692" stroke-miterlimit="10"/>
<path d="M333.275 36.9587H357.218" stroke="black" stroke-width="1.25692" stroke-miterlimit="10"/>
<path d="M376.056 36.9585H399.885" stroke="black" stroke-width="1.25692" stroke-miterlimit="10"/>
<path d="M441.643 0.00537109V23.8868" stroke="black" stroke-width="1.25692" stroke-miterlimit="10"/>
<path d="M441.643 49.905V73.7865" stroke="black" stroke-width="1.25692" stroke-miterlimit="10"/>
<path d="M408.396 36.9585H429.955" stroke="black" stroke-width="1.25692" stroke-miterlimit="10"/>
<path d="M453.443 36.9585H475.003" stroke="black" stroke-width="1.25692" stroke-miterlimit="10"/>
<path d="M33.3652 85.2244V106.466" stroke="black" stroke-width="1.25692" stroke-miterlimit="10"/>
<path d="M33.3652 137.764V159.005" stroke="black" stroke-width="1.25692" stroke-miterlimit="10"/>
<path d="M0.00390625 122.052H19.1809" stroke="black" stroke-width="1.25692" stroke-miterlimit="10"/>
<path d="M47.4355 122.052H66.6126" stroke="black" stroke-width="1.25692" stroke-miterlimit="10"/>
<path d="M122.782 85.2244V103.827" stroke="black" stroke-width="1.25692" stroke-miterlimit="10"/>
<path d="M122.782 140.277V159.005" stroke="black" stroke-width="1.25692" stroke-miterlimit="10"/>
<path d="M89.5352 122.052H106.329" stroke="black" stroke-width="1.25692" stroke-miterlimit="10"/>
<path d="M139.236 122.052H156.144" stroke="black" stroke-width="1.25692" stroke-miterlimit="10"/>
<path d="M203.349 85.2244V101.313" stroke="black" stroke-width="1.25692" stroke-miterlimit="10"/>
<path d="M203.349 142.917V159.005" stroke="black" stroke-width="1.25692" stroke-miterlimit="10"/>
<path d="M169.987 122.052H184.512" stroke="black" stroke-width="1.25692" stroke-miterlimit="10"/>
<path d="M222.071 122.052H236.596" stroke="black" stroke-width="1.25692" stroke-miterlimit="10"/>
<path d="M283.233 85.2244V98.6734" stroke="black" stroke-width="1.25692" stroke-miterlimit="10"/>
<path d="M283.233 145.556V159.005" stroke="black" stroke-width="1.25692" stroke-miterlimit="10"/>
<path d="M249.986 122.052H262.128" stroke="black" stroke-width="1.25692" stroke-miterlimit="10"/>
<path d="M304.453 122.052H316.595" stroke="black" stroke-width="1.25692" stroke-miterlimit="10"/>
<path d="M366.637 85.2244V96.0338" stroke="black" stroke-width="1.25692" stroke-miterlimit="10"/>
<path d="M366.637 148.196V159.005" stroke="black" stroke-width="1.25692" stroke-miterlimit="10"/>
<path d="M333.275 122.052H343.148" stroke="black" stroke-width="1.25692" stroke-miterlimit="10"/>
<path d="M390.126 122.052H399.885" stroke="black" stroke-width="1.25692" stroke-miterlimit="10"/>
<path d="M441.643 85.2244V93.3943" stroke="black" stroke-width="1.25692" stroke-miterlimit="10"/>
<path d="M441.643 150.71V159.005" stroke="black" stroke-width="1.25692" stroke-miterlimit="10"/>
<path d="M408.396 122.052H415.771" stroke="black" stroke-width="1.25692" stroke-miterlimit="10"/>
<path d="M467.515 122.052H475.004" stroke="black" stroke-width="1.25692" stroke-miterlimit="10"/>
</g>
<defs>
<clipPath id="clip0_603_11379">
<rect width="475" height="159" fill="white" transform="translate(0.00390625 0.00537109)"/>
</clipPath>
</defs>
</svg>
