<svg width="61" height="61" viewBox="0 0 61 61" fill="none" xmlns="http://www.w3.org/2000/svg">
<rect x="1.5" y="1.00537" width="59" height="59" stroke="black"/>
<line x1="1.31246" y1="60.1516" x2="60.6458" y2="0.818237" stroke="black"/>
<circle cx="31" cy="31" r="24.5" fill="#EAEAEA" stroke="black"/>
<path d="M13.776 29.612C14.076 29.252 14.388 28.988 14.724 28.82C15.048 28.664 15.42 28.58 15.828 28.58C16.716 28.58 17.316 28.892 17.628 29.516C17.796 29.852 17.892 30.344 17.892 30.98V35H16.812V31.04C16.812 30.668 16.752 30.356 16.644 30.116C16.464 29.732 16.116 29.528 15.624 29.528C15.372 29.528 15.168 29.552 15.012 29.612C14.724 29.696 14.472 29.864 14.244 30.128C14.076 30.332 13.968 30.548 13.908 30.764C13.86 30.992 13.824 31.304 13.824 31.712V35H12.768V28.724H13.776V29.612ZM23.9113 29.348C24.4753 29.888 24.7513 30.68 24.7513 31.736C24.7513 32.744 24.5113 33.572 24.0193 34.244C23.5273 34.904 22.7593 35.228 21.7273 35.228C20.8633 35.228 20.1793 34.94 19.6633 34.352C19.1593 33.764 18.9073 32.984 18.9073 32C18.9073 30.944 19.1713 30.104 19.7113 29.48C20.2393 28.856 20.9593 28.544 21.8593 28.544C22.6753 28.544 23.3593 28.808 23.9113 29.348ZM23.2633 33.524C23.5273 32.996 23.6473 32.408 23.6473 31.76C23.6473 31.172 23.5633 30.704 23.3713 30.332C23.0713 29.756 22.5553 29.468 21.8353 29.468C21.1873 29.468 20.7193 29.708 20.4313 30.2C20.1313 30.692 19.9873 31.28 19.9873 31.988C19.9873 32.648 20.1313 33.212 20.4313 33.656C20.7193 34.1 21.1873 34.316 21.8233 34.316C22.5193 34.316 22.9993 34.052 23.2633 33.524ZM29.3546 28.916C29.5466 29.036 29.7506 29.24 29.9906 29.528V26.36H31.0106V35H30.0626V34.124C29.8106 34.508 29.5226 34.796 29.1866 34.964C28.8506 35.132 28.4666 35.228 28.0346 35.228C27.3386 35.228 26.7266 34.928 26.2106 34.34C25.7066 33.752 25.4426 32.972 25.4426 32C25.4426 31.076 25.6826 30.284 26.1506 29.612C26.6186 28.952 27.2786 28.616 28.1426 28.616C28.6226 28.616 29.0306 28.712 29.3546 28.916ZM26.9906 33.62C27.2786 34.076 27.7346 34.304 28.3586 34.304C28.8506 34.304 29.2466 34.088 29.5706 33.668C29.8706 33.248 30.0386 32.648 30.0386 31.868C30.0386 31.076 29.8706 30.488 29.5466 30.104C29.2226 29.72 28.8266 29.528 28.3466 29.528C27.8186 29.528 27.3866 29.744 27.0626 30.14C26.7266 30.548 26.5586 31.148 26.5586 31.94C26.5586 32.612 26.7026 33.176 26.9906 33.62ZM36.3579 28.892C36.7779 29.108 37.1019 29.372 37.3179 29.708C37.5219 30.02 37.6659 30.392 37.7379 30.812C37.7979 31.1 37.8339 31.568 37.8339 32.204H33.2259C33.2499 32.84 33.4059 33.344 33.6819 33.728C33.9579 34.112 34.4019 34.304 34.9899 34.304C35.5419 34.304 35.9739 34.124 36.3099 33.764C36.4899 33.548 36.6339 33.308 36.7059 33.032H37.7379C37.7139 33.26 37.6299 33.512 37.4739 33.8C37.3179 34.088 37.1499 34.316 36.9459 34.496C36.6339 34.808 36.2379 35.012 35.7579 35.132C35.5059 35.192 35.2179 35.228 34.9059 35.228C34.1259 35.228 33.4539 34.94 32.9139 34.364C32.3739 33.8 32.0979 33.008 32.0979 31.988C32.0979 30.98 32.3739 30.152 32.9259 29.528C33.4659 28.904 34.1739 28.58 35.0619 28.58C35.5059 28.58 35.9379 28.688 36.3579 28.892ZM36.7419 31.364C36.7059 30.908 36.6099 30.536 36.4419 30.26C36.1659 29.756 35.6739 29.504 35.0019 29.504C34.5099 29.504 34.1139 29.684 33.7779 30.02C33.4539 30.38 33.2739 30.824 33.2619 31.364H36.7419ZM40.4812 35H39.2572V33.728H40.4812V35ZM42.2363 26.396H43.2923V27.608H42.2363V26.396ZM41.2403 36.584C41.7203 36.572 41.9963 36.524 42.1043 36.464C42.2003 36.392 42.2363 36.176 42.2363 35.816V28.748H43.2923V35.936C43.2923 36.392 43.2203 36.728 43.0763 36.956C42.8243 37.34 42.3563 37.532 41.6723 37.532C41.6243 37.532 41.5643 37.532 41.5163 37.52L41.2403 37.496V36.584ZM45.4238 33.032C45.4478 33.38 45.5318 33.656 45.6878 33.836C45.9518 34.184 46.4078 34.352 47.0678 34.352C47.4638 34.352 47.7998 34.256 48.0998 34.088C48.3998 33.92 48.5438 33.668 48.5438 33.308C48.5438 33.032 48.4238 32.828 48.1838 32.696C48.0278 32.6 47.7398 32.504 47.2838 32.396L46.4438 32.18C45.9158 32.048 45.5198 31.904 45.2678 31.736C44.8118 31.448 44.5838 31.052 44.5838 30.548C44.5838 29.96 44.7998 29.48 45.2318 29.108C45.6518 28.748 46.2278 28.556 46.9478 28.556C47.8958 28.556 48.5798 28.832 48.9998 29.396C49.2638 29.744 49.3838 30.128 49.3718 30.524H48.3758C48.3638 30.284 48.2678 30.068 48.1238 29.876C47.8838 29.6 47.4638 29.468 46.8638 29.468C46.4678 29.468 46.1678 29.54 45.9638 29.696C45.7598 29.84 45.6518 30.044 45.6518 30.296C45.6518 30.572 45.7838 30.788 46.0598 30.956C46.2158 31.052 46.4438 31.136 46.7558 31.208L47.4518 31.376C48.2078 31.556 48.7118 31.748 48.9758 31.916C49.3838 32.18 49.5878 32.6 49.5878 33.188C49.5878 33.74 49.3718 34.232 48.9518 34.628C48.5198 35.036 47.8838 35.24 47.0198 35.24C46.0838 35.24 45.4238 35.024 45.0278 34.604C44.6438 34.184 44.4398 33.656 44.4038 33.032H45.4238Z" fill="black"/>
</svg>
