<svg width="90" height="91" viewBox="0 0 90 91" fill="none" xmlns="http://www.w3.org/2000/svg">
<rect x="0.5" y="1.00537" width="89" height="89" stroke="black"/>
<line x1="0.646447" y1="90.1518" x2="89.6464" y2="1.15181" stroke="black"/>
<circle cx="45" cy="45.5054" r="29.5" fill="#EAEAEA" stroke="black"/>
<path d="M29.4 43.5774C29.512 43.3054 29.784 42.9534 30.216 42.5534C30.648 42.1534 31.128 41.9454 31.688 41.9454C31.704 41.9454 31.752 41.9454 31.816 41.9614L32.136 41.9934V43.4814C32.056 43.4654 31.992 43.4494 31.912 43.4494C31.848 43.4334 31.768 43.4334 31.672 43.4334C30.968 43.4334 30.424 43.6574 30.04 44.1214C29.672 44.5694 29.48 45.0974 29.48 45.6894V50.5054H28.072V42.1374H29.4V43.5774ZM38.4594 42.3614C39.0194 42.6494 39.4514 43.0014 39.7394 43.4494C40.0114 43.8654 40.2034 44.3614 40.2994 44.9214C40.3794 45.3054 40.4274 45.9294 40.4274 46.7774H34.2834C34.3154 47.6254 34.5234 48.2974 34.8914 48.8094C35.2594 49.3214 35.8514 49.5774 36.6354 49.5774C37.3714 49.5774 37.9474 49.3374 38.3954 48.8574C38.6354 48.5694 38.8274 48.2494 38.9234 47.8814H40.2994C40.2674 48.1854 40.1554 48.5214 39.9474 48.9054C39.7394 49.2894 39.5154 49.5934 39.2434 49.8334C38.8274 50.2494 38.2994 50.5214 37.6594 50.6814C37.3234 50.7614 36.9394 50.8094 36.5234 50.8094C35.4834 50.8094 34.5874 50.4254 33.8674 49.6574C33.1474 48.9054 32.7794 47.8494 32.7794 46.4894C32.7794 45.1454 33.1474 44.0414 33.8834 43.2094C34.6034 42.3774 35.5474 41.9454 36.7314 41.9454C37.3234 41.9454 37.8994 42.0894 38.4594 42.3614ZM38.9714 45.6574C38.9234 45.0494 38.7954 44.5534 38.5714 44.1854C38.2034 43.5134 37.5474 43.1774 36.6514 43.1774C35.9954 43.1774 35.4674 43.4174 35.0194 43.8654C34.5874 44.3454 34.3474 44.9374 34.3314 45.6574H38.9714ZM46.5214 45.4334C46.8414 45.4014 47.0494 45.2574 47.1614 45.0334C47.2254 44.9054 47.2574 44.7294 47.2574 44.4894C47.2574 44.0094 47.0814 43.6574 46.7454 43.4494C46.4094 43.2254 45.9134 43.1294 45.2894 43.1294C44.5534 43.1294 44.0254 43.3214 43.7214 43.7214C43.5454 43.9294 43.4334 44.2654 43.3854 44.6974H42.0734C42.0894 43.6574 42.4254 42.9374 43.0814 42.5374C43.7214 42.1374 44.4574 41.9294 45.3214 41.9294C46.2974 41.9294 47.0974 42.1214 47.7054 42.5054C48.3294 42.8734 48.6334 43.4654 48.6334 44.2494V49.0654C48.6334 49.2094 48.6654 49.3374 48.7134 49.4174C48.7774 49.5134 48.9054 49.5454 49.0974 49.5454C49.1614 49.5454 49.2254 49.5454 49.3054 49.5294C49.3854 49.5294 49.4654 49.5134 49.5614 49.5134V50.5374C49.3374 50.6014 49.1774 50.6494 49.0494 50.6654C48.9374 50.6814 48.7774 50.6814 48.5854 50.6814C48.1054 50.6814 47.7534 50.5054 47.5294 50.1694C47.4174 49.9934 47.3374 49.7374 47.2894 49.4014C47.0014 49.7694 46.6014 50.1054 46.0574 50.3774C45.5134 50.6494 44.9374 50.7934 44.2814 50.7934C43.5134 50.7934 42.8734 50.5534 42.3774 50.0734C41.8974 49.6094 41.6414 49.0174 41.6414 48.3134C41.6414 47.5294 41.8814 46.9374 42.3614 46.5054C42.8574 46.0734 43.4814 45.8174 44.2814 45.7214L46.5214 45.4334ZM43.5614 49.2414C43.8494 49.4814 44.2014 49.5934 44.6174 49.5934C45.0974 49.5934 45.5934 49.4814 46.0414 49.2414C46.8254 48.8574 47.2254 48.2494 47.2254 47.3854V46.2494C47.0494 46.3614 46.8254 46.4574 46.5534 46.5214C46.2814 46.5854 46.0094 46.6494 45.7534 46.6814L44.9054 46.7934C44.3934 46.8574 44.0094 46.9534 43.7534 47.1134C43.3374 47.3534 43.1134 47.7374 43.1134 48.2814C43.1134 48.6814 43.2574 49.0014 43.5614 49.2414ZM56.3433 42.5854C56.9353 43.0494 57.2873 43.8334 57.4153 44.9534H56.0393C55.9593 44.4414 55.7673 44.0094 55.4633 43.6574C55.1753 43.3214 54.6953 43.1614 54.0393 43.1614C53.1433 43.1614 52.5033 43.5934 52.1193 44.4734C51.8633 45.0334 51.7513 45.7374 51.7513 46.5694C51.7513 47.4014 51.9273 48.1214 52.2793 48.6814C52.6313 49.2574 53.1913 49.5454 53.9433 49.5454C54.5353 49.5454 54.9993 49.3694 55.3353 49.0014C55.6713 48.6494 55.9113 48.1694 56.0393 47.5454H57.4153C57.2553 48.6494 56.8553 49.4654 56.2313 49.9774C55.6073 50.4894 54.8073 50.7454 53.8313 50.7454C52.7433 50.7454 51.8633 50.3454 51.2233 49.5454C50.5673 48.7454 50.2473 47.7534 50.2473 46.5534C50.2473 45.0814 50.5993 43.9454 51.3193 43.1294C52.0233 42.2974 52.9353 41.8974 54.0393 41.8974C54.9833 41.8974 55.7513 42.1214 56.3433 42.5854ZM60.4107 42.1374H61.7387V43.2894H60.4107V48.7454C60.4107 49.0334 60.5067 49.2254 60.6987 49.3374C60.8107 49.3854 61.0027 49.4174 61.2587 49.4174H61.4667C61.5467 49.4174 61.6427 49.4014 61.7387 49.4014V50.5054C61.5787 50.5534 61.4187 50.5854 61.2427 50.6014C61.0667 50.6334 60.8747 50.6334 60.6667 50.6334C60.0107 50.6334 59.5787 50.4734 59.3387 50.1374C59.0987 49.8014 58.9867 49.3694 58.9867 48.8254V43.2894H57.8507V42.1374H58.9867V39.8014H60.4107V42.1374Z" fill="black"/>
</svg>
