<svg width="90" height="91" viewBox="0 0 90 91" fill="none" xmlns="http://www.w3.org/2000/svg">
<rect x="0.5" y="1.00537" width="89" height="89" stroke="black"/>
<line x1="0.646447" y1="90.1518" x2="89.6464" y2="1.15181" stroke="black"/>
<circle cx="45" cy="45.5054" r="29.5" fill="#EAEAEA" stroke="black"/>
<path d="M34.848 47.0814C34.848 48.0574 34.704 48.8094 34.416 49.3374C33.888 50.3134 32.88 50.8094 31.392 50.8094C30.528 50.8094 29.792 50.5694 29.184 50.1054C28.576 49.6414 28.272 48.8254 28.272 47.6254V46.8094H29.728V47.6254C29.728 48.2494 29.872 48.7134 30.16 49.0334C30.432 49.3534 30.864 49.5134 31.456 49.5134C32.288 49.5134 32.816 49.2254 33.072 48.6494C33.232 48.2974 33.312 47.6414 33.312 46.6814V39.0334H34.848V47.0814ZM41.4113 45.4334C41.7313 45.4014 41.9393 45.2574 42.0513 45.0334C42.1153 44.9054 42.1473 44.7294 42.1473 44.4894C42.1473 44.0094 41.9713 43.6574 41.6353 43.4494C41.2993 43.2254 40.8033 43.1294 40.1793 43.1294C39.4433 43.1294 38.9153 43.3214 38.6113 43.7214C38.4353 43.9294 38.3233 44.2654 38.2753 44.6974H36.9633C36.9793 43.6574 37.3153 42.9374 37.9713 42.5374C38.6113 42.1374 39.3473 41.9294 40.2113 41.9294C41.1873 41.9294 41.9873 42.1214 42.5953 42.5054C43.2193 42.8734 43.5233 43.4654 43.5233 44.2494V49.0654C43.5233 49.2094 43.5553 49.3374 43.6033 49.4174C43.6673 49.5134 43.7953 49.5454 43.9873 49.5454C44.0513 49.5454 44.1153 49.5454 44.1953 49.5294C44.2753 49.5294 44.3553 49.5134 44.4513 49.5134V50.5374C44.2273 50.6014 44.0673 50.6494 43.9393 50.6654C43.8273 50.6814 43.6673 50.6814 43.4753 50.6814C42.9953 50.6814 42.6433 50.5054 42.4193 50.1694C42.3073 49.9934 42.2273 49.7374 42.1793 49.4014C41.8913 49.7694 41.4913 50.1054 40.9473 50.3774C40.4033 50.6494 39.8273 50.7934 39.1713 50.7934C38.4033 50.7934 37.7633 50.5534 37.2673 50.0734C36.7873 49.6094 36.5313 49.0174 36.5313 48.3134C36.5313 47.5294 36.7713 46.9374 37.2513 46.5054C37.7473 46.0734 38.3713 45.8174 39.1713 45.7214L41.4113 45.4334ZM38.4513 49.2414C38.7393 49.4814 39.0913 49.5934 39.5073 49.5934C39.9873 49.5934 40.4833 49.4814 40.9313 49.2414C41.7153 48.8574 42.1153 48.2494 42.1153 47.3854V46.2494C41.9393 46.3614 41.7153 46.4574 41.4433 46.5214C41.1713 46.5854 40.8993 46.6494 40.6433 46.6814L39.7953 46.7934C39.2833 46.8574 38.8993 46.9534 38.6433 47.1134C38.2273 47.3534 38.0033 47.7374 38.0033 48.2814C38.0033 48.6814 38.1473 49.0014 38.4513 49.2414ZM50.9613 42.1374H52.4973L49.3453 50.5054H47.8413L44.7533 42.1374H46.3853L48.6253 48.9534L50.9613 42.1374ZM58.0846 45.4334C58.4046 45.4014 58.6126 45.2574 58.7246 45.0334C58.7886 44.9054 58.8206 44.7294 58.8206 44.4894C58.8206 44.0094 58.6446 43.6574 58.3086 43.4494C57.9726 43.2254 57.4766 43.1294 56.8526 43.1294C56.1166 43.1294 55.5886 43.3214 55.2846 43.7214C55.1086 43.9294 54.9966 44.2654 54.9486 44.6974H53.6366C53.6526 43.6574 53.9886 42.9374 54.6446 42.5374C55.2846 42.1374 56.0206 41.9294 56.8846 41.9294C57.8606 41.9294 58.6606 42.1214 59.2686 42.5054C59.8926 42.8734 60.1966 43.4654 60.1966 44.2494V49.0654C60.1966 49.2094 60.2286 49.3374 60.2766 49.4174C60.3406 49.5134 60.4686 49.5454 60.6606 49.5454C60.7246 49.5454 60.7886 49.5454 60.8686 49.5294C60.9486 49.5294 61.0286 49.5134 61.1246 49.5134V50.5374C60.9006 50.6014 60.7406 50.6494 60.6126 50.6654C60.5006 50.6814 60.3406 50.6814 60.1486 50.6814C59.6686 50.6814 59.3166 50.5054 59.0926 50.1694C58.9806 49.9934 58.9006 49.7374 58.8526 49.4014C58.5646 49.7694 58.1646 50.1054 57.6206 50.3774C57.0766 50.6494 56.5006 50.7934 55.8446 50.7934C55.0766 50.7934 54.4366 50.5534 53.9406 50.0734C53.4606 49.6094 53.2046 49.0174 53.2046 48.3134C53.2046 47.5294 53.4446 46.9374 53.9246 46.5054C54.4206 46.0734 55.0446 45.8174 55.8446 45.7214L58.0846 45.4334ZM55.1246 49.2414C55.4126 49.4814 55.7646 49.5934 56.1806 49.5934C56.6606 49.5934 57.1566 49.4814 57.6046 49.2414C58.3886 48.8574 58.7886 48.2494 58.7886 47.3854V46.2494C58.6126 46.3614 58.3886 46.4574 58.1166 46.5214C57.8446 46.5854 57.5726 46.6494 57.3166 46.6814L56.4686 46.7934C55.9566 46.8574 55.5726 46.9534 55.3166 47.1134C54.9006 47.3534 54.6766 47.7374 54.6766 48.2814C54.6766 48.6814 54.8206 49.0014 55.1246 49.2414Z" fill="black"/>
</svg>
