<svg width="59" height="73" viewBox="0 0 59 73" fill="none" xmlns="http://www.w3.org/2000/svg">
<path d="M37.4359 13.3114V12.7781H36.9026V13.3114H37.4359ZM37.4359 72.6692V73.2025H37.9693V72.6692H37.4359ZM22.1954 72.6692H21.6621V73.2025H22.1954V72.6692ZM22.1954 13.3114H22.7288V12.7781H22.1954V13.3114ZM0.537858 13.3114H0.00452554V13.8447H0.537858V13.3114ZM0.537858 0.477294V-0.0560386H0.00452554V0.477294H0.537858ZM58.9932 0.477294H59.5266V-0.0560386H58.9932V0.477294ZM58.9932 13.3114V13.8447H59.5266V13.3114H58.9932ZM36.9026 13.3114V72.6692H37.9693V13.3114H36.9026ZM37.4359 72.1359H22.1954V73.2025H37.4359V72.1359ZM22.7288 72.6692V13.3114H21.6621V72.6692H22.7288ZM22.1954 12.7781H0.537858V13.8447H22.1954V12.7781ZM1.07119 13.3114V0.477294H0.00452554V13.3114H1.07119ZM0.537858 1.01063H58.9932V-0.0560386H0.537858V1.01063ZM58.4599 0.477294V13.3114H59.5266V0.477294H58.4599ZM58.9932 12.7781H37.4359V13.8447H58.9932V12.7781Z" fill="black"/>
</svg>
