<svg width="90" height="91" viewBox="0 0 90 91" fill="none" xmlns="http://www.w3.org/2000/svg">
<rect x="0.5" y="1.00537" width="89" height="89" stroke="black"/>
<line x1="0.646447" y1="90.1518" x2="89.6464" y2="1.15181" stroke="black"/>
<circle cx="45" cy="45.5054" r="29.5" fill="#EAEAEA" stroke="black"/>
<path d="M34.528 39.0334C35.552 39.0334 36.368 39.3214 36.992 39.8814C37.632 40.4734 37.936 41.2734 37.936 42.3134C37.936 43.2094 37.664 43.9934 37.104 44.6494C36.544 45.3214 35.68 45.6574 34.528 45.6574H30.928V50.5054H29.36V39.0334H34.528ZM35.424 40.6014C35.088 40.4414 34.624 40.3614 34.016 40.3614H30.928V44.3454H34.016C34.704 44.3454 35.28 44.1854 35.712 43.8974C36.144 43.5934 36.368 43.0814 36.368 42.3294C36.368 41.4814 36.048 40.9054 35.424 40.6014ZM41.3952 43.7694H47.3632V39.0334H48.9312V50.5054H47.3632V45.1454H41.3952V50.5054H39.8272V39.0334H41.3952V43.7694ZM56.5294 39.0334C57.5534 39.0334 58.3694 39.3214 58.9934 39.8814C59.6334 40.4734 59.9374 41.2734 59.9374 42.3134C59.9374 43.2094 59.6654 43.9934 59.1054 44.6494C58.5454 45.3214 57.6814 45.6574 56.5294 45.6574H52.9294V50.5054H51.3614V39.0334H56.5294ZM57.4254 40.6014C57.0894 40.4414 56.6254 40.3614 56.0174 40.3614H52.9294V44.3454H56.0174C56.7054 44.3454 57.2814 44.1854 57.7134 43.8974C58.1454 43.5934 58.3694 43.0814 58.3694 42.3294C58.3694 41.4814 58.0494 40.9054 57.4254 40.6014Z" fill="black"/>
</svg>
