<svg width="34" height="124" viewBox="0 0 34 124" fill="none" xmlns="http://www.w3.org/2000/svg">
<path d="M4.79302 118.841L4.41588 119.218L4.4187 119.221L4.79302 118.841ZM6.14875 97.4556L6.4546 97.8926L6.45592 97.8916L6.14875 97.4556ZM12.009 95.269H12.5423V94.7114L11.9853 94.7362L12.009 95.269ZM12.009 101.829L12.1555 102.342L12.5423 102.231V101.829H12.009ZM8.59781 103.491L8.9481 103.893L8.95068 103.891L8.59781 103.491ZM9.42874 114.468L9.11505 114.899L9.11505 114.899L9.42874 114.468ZM25.5663 114.337L25.2269 113.925L25.2209 113.93L25.5663 114.337ZM25.9162 103.491L25.5747 103.901L25.583 103.907L25.9162 103.491ZM22.2863 101.829H21.753V102.227L22.1343 102.34L22.2863 101.829ZM22.2863 95.3127L22.3805 94.7878L21.753 94.6751V95.3127H22.2863ZM30.6394 99.686L30.2478 100.048L30.248 100.048L30.6394 99.686ZM29.5023 119.366L29.1498 118.966L29.1469 118.968L29.5023 119.366ZM5.17014 118.464C2.69978 115.994 1.47782 112.898 1.47782 109.045H0.411156C0.411156 113.152 1.72573 116.528 4.41589 119.218L5.17014 118.464ZM1.47782 109.045C1.47782 103.877 3.13515 100.216 6.45459 97.8926L5.8429 97.0187C2.16503 99.5932 0.411156 103.629 0.411156 109.045H1.47782ZM6.45592 97.8916C8.31535 96.5816 10.1869 95.8838 12.0327 95.8018L11.9853 94.7362C9.89508 94.8291 7.83067 95.6182 5.84157 97.0196L6.45592 97.8916ZM11.4757 95.269V101.829H12.5423V95.269H11.4757ZM11.8625 101.316C10.2899 101.765 9.06996 102.363 8.24495 103.091L8.95068 103.891C9.6126 103.307 10.6668 102.767 12.1555 102.342L11.8625 101.316ZM8.24753 103.089C6.74337 104.399 6.00902 106.359 6.00902 108.826H7.07568C7.07568 106.57 7.74079 104.945 8.94809 103.893L8.24753 103.089ZM6.00902 108.826C6.00902 111.36 7.05403 113.4 9.11505 114.899L9.74243 114.037C7.95494 112.737 7.07568 111.016 7.07568 108.826H6.00902ZM9.11505 114.899C11.1688 116.393 14.0546 117.057 17.6069 117.057V115.99C14.1618 115.99 11.5372 115.342 9.74243 114.037L9.11505 114.899ZM17.6069 117.057C21.2022 117.057 24.0217 116.35 25.9117 114.743L25.2209 113.93C23.6122 115.298 21.0964 115.99 17.6069 115.99V117.057ZM25.9057 114.748C27.7783 113.203 28.7236 111.172 28.7236 108.783H27.657C27.657 110.854 26.853 112.584 25.2269 113.925L25.9057 114.748ZM28.7236 108.783C28.7236 106.338 27.9319 104.42 26.2494 103.074L25.583 103.907C26.9618 105.01 27.657 106.591 27.657 108.783H28.7236ZM26.2576 103.081C25.3829 102.352 24.0701 101.803 22.4383 101.318L22.1343 102.34C23.7388 102.817 24.875 103.317 25.5748 103.901L26.2576 103.081ZM22.8197 101.829L22.8197 95.3127H21.753L21.753 101.829H22.8197ZM22.1921 95.8377C25.5046 96.4322 28.1937 97.8263 30.2478 100.048L31.031 99.324C28.7992 96.9101 25.8905 95.4178 22.3805 94.7878L22.1921 95.8377ZM30.248 100.048C32.3279 102.295 33.3423 105.175 33.3423 108.695H34.409C34.409 104.956 33.3242 101.801 31.0307 99.3237L30.248 100.048ZM33.3423 108.695C33.3423 113.119 31.9448 116.505 29.1498 118.966L29.8548 119.766C32.9201 117.067 34.409 113.367 34.409 108.695H33.3423ZM29.1469 118.968C26.3849 121.437 22.5022 122.725 17.5194 122.725V123.792C22.6827 123.792 26.8469 122.455 29.8578 119.764L29.1469 118.968ZM17.5194 122.725C12.1478 122.725 8.01336 121.265 5.16734 118.461L4.4187 119.221C7.5204 122.277 11.9577 123.792 17.5194 123.792V122.725ZM30.202 66.1709L29.8145 66.5372L29.8229 66.5462L29.8318 66.5548L30.202 66.1709ZM30.202 86.7692L29.8318 86.3853L29.8229 86.3939L29.8145 86.4029L30.202 86.7692ZM4.22448 86.7692L4.6201 86.4115L4.60784 86.398L4.59469 86.3853L4.22448 86.7692ZM4.22448 66.1709L4.59469 66.5548L4.60784 66.5421L4.6201 66.5285L4.22448 66.1709ZM25.4351 70.2381L25.7728 69.8253L25.7671 69.8206L25.7612 69.816L25.4351 70.2381ZM9.03514 70.2381L8.70904 69.816L8.70316 69.8206L8.69742 69.8253L9.03514 70.2381ZM9.03514 82.702L8.69742 83.1148V83.1148L9.03514 82.702ZM25.4351 82.702L25.7728 83.1148L25.4351 82.702ZM29.8318 66.5548C32.1465 68.7868 33.3423 72.0405 33.3423 76.4482H34.409C34.409 71.8468 33.1557 68.2781 30.5723 65.7869L29.8318 66.5548ZM33.3423 76.4482C33.3423 80.8576 32.1456 84.1542 29.8318 86.3853L30.5723 87.1531C33.1566 84.6611 34.409 81.0478 34.409 76.4482H33.3423ZM29.8145 86.4029C26.9229 89.4621 22.7933 91.0466 17.2133 91.0466V92.1132C23.0039 92.1132 27.446 90.4614 30.5896 87.1356L29.8145 86.4029ZM17.2133 91.0466C11.5393 91.0466 7.37512 89.4588 4.6201 86.4115L3.82887 87.1269C6.84664 90.4647 11.3416 92.1132 17.2133 92.1132V91.0466ZM4.59469 86.3853C2.28095 84.1542 1.08422 80.8576 1.08422 76.4482H0.0175568C0.0175568 81.0478 1.2699 84.6611 3.85428 87.1531L4.59469 86.3853ZM1.08422 76.4482C1.08422 72.0405 2.27998 68.7868 4.59469 66.5548L3.85428 65.7869C1.27086 68.2781 0.0175568 71.8468 0.0175568 76.4482H1.08422ZM4.6201 66.5285C7.37315 63.4835 11.5353 61.9373 17.2133 61.9373V60.8706C11.3456 60.8706 6.84862 62.4732 3.82887 65.8132L4.6201 66.5285ZM17.2133 61.9373C22.7972 61.9373 26.925 63.4802 29.8145 66.5372L30.5896 65.8045C27.4439 62.4764 23 60.8706 17.2133 60.8706V61.9373ZM25.7612 69.816C23.7125 68.233 20.8273 67.4306 17.2133 67.4306V68.4973C20.684 68.4973 23.3092 69.2693 25.109 70.6601L25.7612 69.816ZM17.2133 67.4306C13.642 67.4306 10.7572 68.2334 8.70904 69.816L9.36125 70.6601C11.1616 69.2689 13.7872 68.4973 17.2133 68.4973V67.4306ZM8.69742 69.8253C6.64525 71.5043 5.61542 73.7133 5.61542 76.4482H6.68208C6.68208 74.0225 7.57651 72.1206 9.37287 70.6508L8.69742 69.8253ZM5.61542 76.4482C5.61542 79.2252 6.64404 81.4348 8.69742 83.1148L9.37287 82.2893C7.57772 80.8205 6.68208 78.9192 6.68208 76.4482H5.61542ZM8.69742 83.1148C10.7533 84.7969 13.6047 85.5532 17.2133 85.5532V84.4866C13.7371 84.4866 11.1655 83.756 9.37287 82.2893L8.69742 83.1148ZM17.2133 85.5532C20.82 85.5532 23.716 84.7977 25.7728 83.1148L25.0974 82.2893C23.3057 83.7552 20.6913 84.4866 17.2133 84.4866V85.5532ZM25.7728 83.1148C27.8262 81.4348 28.8548 79.2252 28.8548 76.4482H27.7882C27.7882 78.9192 26.8925 80.8205 25.0974 82.2893L25.7728 83.1148ZM28.8548 76.4482C28.8548 73.7133 27.825 71.5043 25.7728 69.8253L25.0974 70.6508C26.8938 72.1206 27.7882 74.0225 27.7882 76.4482H28.8548ZM4.53062 32.7151L4.87925 33.1188L4.88494 33.1137L4.53062 32.7151ZM7.19835 31.097L7.40028 31.5906L7.40974 31.5868L7.41904 31.5825L7.19835 31.097ZM14.8954 31.6218L14.6512 32.0959H14.6512L14.8954 31.6218ZM17.9567 35.3391L17.4508 35.5078L17.9149 36.9003L18.4529 35.5346L17.9567 35.3391ZM20.4495 32.2778L20.7101 32.7431L20.4495 32.2778ZM30.4207 31.1845L30.305 30.6637L30.2914 30.6671L30.4207 31.1845ZM32.2138 30.0037V29.4703H31.9226L31.7652 29.7153L32.2138 30.0037ZM33.001 30.0037H33.5343V29.4703H33.001V30.0037ZM33.001 37.2197L33.1601 37.7287L33.5343 37.6118V37.2197H33.001ZM31.2954 37.657L31.4 38.18H31.4L31.2954 37.657ZM28.5839 37.9194V37.386L28.5758 37.3861L28.5839 37.9194ZM25.6975 37.9631L25.6894 37.4298L25.6859 37.4299L25.6975 37.9631ZM21.6741 39.0564L22.0631 39.4212H22.0631L21.6741 39.0564ZM20.6682 49.8148H20.1349V50.3482H20.6682V49.8148ZM33.001 49.8148H33.5343V49.2815H33.001V49.8148ZM33.001 56.2436V56.777H33.5343V56.2436H33.001ZM1.51302 56.2436H0.979689V56.777H1.51302V56.2436ZM1.51302 40.8058L0.979689 40.7951V40.8058H1.51302ZM14.9391 39.0564L14.4558 39.282L14.4566 39.2835L14.9391 39.0564ZM7.54821 38.969L7.07809 38.7171L7.07155 38.7293L7.06564 38.7419L7.54821 38.969ZM6.97968 49.8148H6.44635V50.3482H6.97968V49.8148ZM15.4639 49.8148V50.3482H15.9973V49.8148H15.4639ZM2.83787 35.9339C3.28531 34.8357 3.97702 33.8979 4.87921 33.1188L4.18202 32.3115C3.15995 33.1942 2.36473 34.2682 1.85004 35.5315L2.83787 35.9339ZM4.88494 33.1137C5.61748 32.4626 6.48067 31.9668 7.40028 31.5906L6.99641 30.6034C5.99176 31.0144 5.01816 31.5682 4.17629 32.3165L4.88494 33.1137ZM7.41904 31.5825C8.29044 31.1864 9.30224 31.0181 10.4783 31.0181L10.4783 29.9514C9.20538 29.9514 8.03052 30.1329 6.97765 30.6115L7.41904 31.5825ZM10.4783 31.0181C11.9116 31.0181 13.2716 31.3852 14.6512 32.0959L15.1396 31.1477C13.6328 30.3714 12.1064 29.9514 10.4783 29.9514L10.4783 31.0181ZM14.6512 32.0959C15.958 32.7691 16.9216 33.9202 17.4508 35.5078L18.4627 35.1705C17.8548 33.3469 16.7192 31.9614 15.1396 31.1477L14.6512 32.0959ZM18.4529 35.5346C18.9858 34.1819 19.7446 33.2838 20.7101 32.7431L20.1889 31.8125C18.9678 32.4963 18.0647 33.61 17.4605 35.1436L18.4529 35.5346ZM20.7101 32.7431C21.6847 32.1974 23.1933 31.8927 25.3914 31.8927V30.8261C23.1287 30.8261 21.401 31.1337 20.1889 31.8125L20.7101 32.7431ZM25.3914 31.8927H27.4906V30.8261H25.3914V31.8927ZM27.4906 31.8927C28.9171 31.8927 29.9493 31.8521 30.5501 31.7019L30.2914 30.6671C29.8425 30.7793 28.9505 30.8261 27.4906 30.8261V31.8927ZM30.5364 31.7051C31.4379 31.5048 32.181 31.041 32.6624 30.2921L31.7652 29.7153C31.4594 30.1909 30.9779 30.5143 30.305 30.6638L30.5364 31.7051ZM32.2138 30.537H33.001V29.4703H32.2138V30.537ZM32.4676 30.0037V37.2197H33.5343V30.0037H32.4676ZM32.8419 36.7106C32.1634 36.9226 31.6135 37.0495 31.1908 37.134L31.4 38.18C31.8519 38.0896 32.4391 37.954 33.1601 37.7287L32.8419 36.7106ZM31.1908 37.134C30.3524 37.3017 29.4691 37.3861 28.5839 37.3861V38.4527C29.5355 38.4527 30.4891 38.3621 31.4 38.18L31.1908 37.134ZM28.5758 37.3861L25.6894 37.4298L25.7056 38.4964L28.592 38.4527L28.5758 37.3861ZM25.6859 37.4299C24.656 37.4523 23.7677 37.5532 23.0392 37.7487C22.3145 37.9431 21.7064 38.2422 21.285 38.6917L22.0631 39.4212C22.2977 39.171 22.6955 38.9453 23.3156 38.7789C23.9318 38.6136 24.7273 38.5177 25.7091 38.4963L25.6859 37.4299ZM21.285 38.6917C20.4804 39.5498 20.1349 41.0896 20.1349 43.0362H21.2015C21.2015 41.1342 21.5557 39.9625 22.0631 39.4212L21.285 38.6917ZM20.1349 43.0362L20.1349 49.8148H21.2015L21.2015 43.0362H20.1349ZM20.6682 50.3482H33.001V49.2815H20.6682V50.3482ZM32.4676 49.8148V56.2436H33.5343V49.8148H32.4676ZM33.001 55.7103H1.51302L1.51302 56.777H33.001V55.7103ZM2.04635 56.2436L2.04635 40.8058H0.979689L0.979689 56.2436H2.04635ZM2.04625 40.8164C2.08927 38.6656 2.39062 37.0317 2.83787 35.9339L1.85004 35.5315C1.33516 36.7953 1.02424 38.5727 0.979796 40.7951L2.04625 40.8164ZM15.9973 42.3802C15.9973 40.8669 15.8217 39.6794 15.4217 38.8294L14.4566 39.2835C14.7563 39.9204 14.9306 40.9196 14.9306 42.3802H15.9973ZM15.4224 38.8309C15.0724 38.0808 14.5492 37.5008 13.8533 37.1142C13.1637 36.7311 12.336 36.5551 11.3967 36.5551V37.6218C12.2068 37.6218 12.8442 37.7738 13.3353 38.0467C13.8203 38.3161 14.1936 38.7201 14.4558 39.282L15.4224 38.8309ZM11.3967 36.5551C9.34584 36.5551 7.85587 37.2653 7.07809 38.7171L8.01834 39.2208C8.55255 38.2236 9.59911 37.6218 11.3967 37.6218V36.5551ZM7.06564 38.7419C6.67149 39.5795 6.44635 40.7138 6.44635 42.2052H7.51301C7.51301 40.8103 7.7252 39.8454 8.03078 39.1961L7.06564 38.7419ZM6.44635 42.2052L6.44635 49.8148H7.51301L7.51301 42.2052H6.44635ZM6.97968 50.3482H15.4639V49.2815H6.97968V50.3482ZM15.9973 49.8148L15.9973 42.3802H14.9306L14.9306 49.8148H15.9973ZM13.8021 18.2677V18.801H14.3354V18.2677H13.8021ZM13.8021 3.00474L13.8021 2.47141H13.2687L13.2687 3.00474H13.8021ZM19.2687 3.00474H19.8021V2.47141H19.2687V3.00474ZM19.2687 18.2677H18.7354V18.801H19.2687V18.2677ZM27.3594 18.2677V18.801H27.8927V18.2677H27.3594ZM27.3594 0.861809V0.328476H26.8261V0.861809H27.3594ZM33.001 0.861809H33.5343V0.328476H33.001V0.861809ZM33.001 24.6964V25.2298H33.5343V24.6964H33.001ZM1.51302 24.6964H0.979689L0.979689 25.2298H1.51302L1.51302 24.6964ZM1.51302 1.64901V1.11568H0.979689V1.64901H1.51302ZM7.11088 1.64901H7.64421V1.11568H7.11088V1.64901ZM7.11088 18.2677H6.57755L6.57755 18.801H7.11088L7.11088 18.2677ZM14.3354 18.2677L14.3354 3.00474H13.2687L13.2687 18.2677H14.3354ZM13.8021 3.53807H19.2687V2.47141H13.8021L13.8021 3.53807ZM18.7354 3.00474L18.7354 18.2677H19.8021L19.8021 3.00474H18.7354ZM19.2687 18.801H27.3594V17.7343H19.2687V18.801ZM27.8927 18.2677L27.8927 0.861809H26.8261L26.8261 18.2677H27.8927ZM27.3594 1.39514H33.001V0.328476H27.3594V1.39514ZM32.4676 0.861809L32.4676 24.6964H33.5343L33.5343 0.861809H32.4676ZM33.001 24.1631H1.51302L1.51302 25.2298H33.001V24.1631ZM2.04635 24.6964L2.04635 1.64901H0.979689L0.979689 24.6964H2.04635ZM1.51302 2.18234H7.11088V1.11568H1.51302L1.51302 2.18234ZM6.57755 1.64901L6.57755 18.2677H7.64421L7.64421 1.64901H6.57755ZM7.11088 18.801H13.8021V17.7343H7.11088L7.11088 18.801Z" fill="black"/>
</svg>
