<svg width="60" height="77" viewBox="0 0 60 77" fill="none" xmlns="http://www.w3.org/2000/svg">
<path d="M14.5113 52.3434L15.0407 52.2792L14.9839 51.81H14.5113V52.3434ZM17.2185 59.7631L16.7948 60.0871L16.8011 60.0952L16.8076 60.1031L17.2185 59.7631ZM38.475 62.9716L38.2956 62.4694L38.2927 62.4704L38.475 62.9716ZM41.6835 49.1348L41.4028 49.5883L41.6835 49.1348ZM31.7571 45.7258L31.6407 46.2463L31.6414 46.2464L31.7571 45.7258ZM24.1369 44.0213L24.0175 44.541L24.0205 44.5417L24.1369 44.0213ZM8.59556 38.5066L8.28726 38.9418L8.29277 38.9456L8.59556 38.5066ZM8.39503 6.7221L8.03542 6.32824L8.03502 6.32861L8.39503 6.7221ZM48.5016 6.32104L48.8242 5.89626L48.8229 5.89533L48.5016 6.32104ZM56.924 23.9679V24.5013H57.4714L57.4572 23.9541L56.924 23.9679ZM42.4856 23.9679L41.9535 24.0042L41.9874 24.5013H42.4856V23.9679ZM36.7705 14.6432L36.5237 15.116L36.5265 15.1174L36.7705 14.6432ZM18.7225 15.2448L19.0138 15.6915L19.0205 15.6871L19.027 15.6826L18.7225 15.2448ZM18.7225 27.5775L18.9871 27.1145L18.9849 27.1132L18.7225 27.5775ZM28.0473 30.5855L27.9179 31.103L27.9258 31.1049L28.0473 30.5855ZM40.4803 33.4933L40.6119 32.9763L40.6018 32.9739L40.4803 33.4933ZM52.8131 38.8074L52.4762 39.2208L52.4822 39.2258L52.4884 39.2305L52.8131 38.8074ZM51.8104 69.89L51.4627 69.4856L51.462 69.4862L51.8104 69.89ZM8.1945 69.9903L8.52674 69.573L8.52193 69.5693L8.1945 69.9903ZM0.173173 52.3434V51.81H-0.36016V52.3434H0.173173ZM13.9818 52.4075C14.392 55.7911 15.4226 58.2926 16.7948 60.0871L17.6421 59.4391C16.4075 57.8245 15.4327 55.5132 15.0407 52.2792L13.9818 52.4075ZM16.8076 60.1031C19.3601 63.1874 23.7641 64.7082 29.7518 64.7082V63.6415C23.9081 63.6415 19.8897 62.1543 17.6294 59.4231L16.8076 60.1031ZM29.7518 64.7082C33.3938 64.7082 36.3703 64.3045 38.6572 63.4728L38.2927 62.4704C36.1679 63.2431 33.329 63.6415 29.7518 63.6415V64.7082ZM38.6544 63.4739C40.8315 62.6963 42.5075 61.5661 43.6379 60.0724C44.7712 58.5748 45.3251 56.7525 45.3251 54.6495H44.2584C44.2584 56.5572 43.7596 58.1439 42.7873 59.4287C41.8121 60.7174 40.3297 61.7429 38.2956 62.4694L38.6544 63.4739ZM45.3251 54.6495C45.3251 53.3701 45.0578 52.2244 44.4923 51.2174C43.9269 50.2108 43.0799 49.372 41.9642 48.6814L41.4028 49.5883C42.3927 50.2011 43.0999 50.9165 43.5622 51.7397C44.0244 52.5626 44.2584 53.5225 44.2584 54.6495H45.3251ZM41.9642 48.6814C39.7784 47.3282 36.3955 46.2102 31.8728 45.2051L31.6414 46.2464C36.1428 47.2467 39.3775 48.3346 41.4028 49.5883L41.9642 48.6814ZM31.8736 45.2053L24.2533 43.5008L24.0205 44.5417L31.6407 46.2463L31.8736 45.2053ZM24.2563 43.5015C16.8383 41.7973 11.7144 40.0097 8.89835 38.0675L8.29277 38.9456C11.2921 41.0142 16.596 42.8361 24.0175 44.541L24.2563 43.5015ZM8.90384 38.0714C4.25434 34.778 1.80944 29.84 1.80944 22.865H0.742772C0.742772 30.1279 3.3112 35.4171 8.28728 38.9418L8.90384 38.0714ZM1.80944 22.865C1.80944 16.4996 4.15128 11.3275 8.75503 7.1156L8.03502 6.32861C3.21372 10.7396 0.742772 16.1958 0.742772 22.865H1.80944ZM8.75464 7.11596C13.2342 3.02591 20.0034 0.838376 29.0499 0.838376V-0.228289C19.848 -0.228289 12.7804 1.99591 8.03542 6.32824L8.75464 7.11596ZM29.0499 0.838376C36.5726 0.838376 42.9724 2.81624 48.1804 6.74674L48.8229 5.89533C43.4026 1.80452 36.7678 -0.228289 29.0499 -0.228289V0.838376ZM48.1791 6.74581C53.4479 10.7462 56.194 16.401 56.3909 23.9818L57.4572 23.9541C57.253 16.0938 54.3841 10.1177 48.8242 5.89626L48.1791 6.74581ZM56.924 23.4346H42.4856V24.5013H56.924V23.4346ZM43.0177 23.9317C42.7061 19.3604 40.7125 16.0708 37.0144 14.1689L36.5265 15.1174C39.8471 16.8252 41.6636 19.752 41.9535 24.0042L43.0177 23.9317ZM37.0172 14.1703C34.612 12.9155 31.5122 12.305 28.0473 12.305V13.3717C31.4005 13.3717 34.3166 13.9644 36.5238 15.116L37.0172 14.1703ZM28.0473 12.305C24.0694 12.305 20.8423 13.1204 18.4179 14.8069L19.027 15.6826C21.215 14.1605 24.2044 13.3717 28.0473 13.3717V12.305ZM18.4311 14.798C15.9733 16.401 14.6798 18.7753 14.6798 21.7621H15.7465C15.7465 19.1339 16.8594 17.0965 19.0138 15.6915L18.4311 14.798ZM14.6798 21.7621C14.6798 23.1509 15.0014 24.3775 15.6478 25.4365C16.293 26.4936 17.2441 27.3546 18.46 28.0418L18.9849 27.1132C17.8947 26.497 17.0911 25.7538 16.5582 24.8807C16.0265 24.0096 15.7465 22.9802 15.7465 21.7621H14.6798ZM18.4579 28.0406C19.9365 28.8855 23.1189 29.9032 27.9179 31.1029L28.1766 30.0681C23.3501 28.8615 20.3159 27.8738 18.9871 27.1145L18.4579 28.0406ZM27.9258 31.1049L40.3589 34.0126L40.6018 32.9739L28.1687 30.0662L27.9258 31.1049ZM40.3488 34.0101C45.8391 35.4077 49.8596 37.0888 52.4762 39.2208L53.15 38.3939C50.3522 36.1142 46.1508 34.3863 40.6119 32.9764L40.3488 34.0101ZM52.4884 39.2305C56.6429 42.4188 58.7971 47.2604 58.7971 53.5466H59.8638C59.8638 46.9986 57.6062 41.8135 53.1378 38.3843L52.4884 39.2305ZM58.7971 53.5466C58.7971 59.9086 56.3581 65.2756 51.4627 69.4856L52.1582 70.2944C57.2894 65.8815 59.8638 60.2191 59.8638 53.5466H58.7971ZM51.462 69.4862C46.4752 73.7885 39.4961 75.9743 30.3534 75.9743V77.0409C39.6598 77.0409 46.9184 74.8149 52.1588 70.2938L51.462 69.4862ZM30.3534 75.9743C21.1094 75.9743 13.8196 73.7878 8.52672 69.5731L7.86227 70.4075C13.3981 74.8157 20.9478 77.0409 30.3534 77.0409V75.9743ZM8.52193 69.5693C3.25628 65.4738 0.706506 59.7242 0.706506 52.3434H-0.36016C-0.36016 60.0025 2.30392 66.0844 7.86706 70.4113L8.52193 69.5693ZM0.173173 52.8767H14.5113V51.81H0.173173V52.8767Z" fill="black"/>
</svg>
