<svg width="61" height="61" viewBox="0 0 61 61" fill="none" xmlns="http://www.w3.org/2000/svg">
<rect x="1.5" y="1.00537" width="59" height="59" stroke="black"/>
<line x1="1.31246" y1="60.1516" x2="60.6458" y2="0.818237" stroke="black"/>
<circle cx="31" cy="31.2473" r="24.5" fill="#EAEAEA" stroke="black"/>
<path d="M14.716 29.588C14.932 29.3 15.16 29.084 15.412 28.928C15.76 28.688 16.18 28.568 16.66 28.568C17.368 28.568 17.98 28.844 18.472 29.384C18.976 29.936 19.216 30.716 19.216 31.724C19.216 33.092 18.856 34.064 18.148 34.652C17.692 35.024 17.164 35.216 16.564 35.216C16.084 35.216 15.7 35.108 15.376 34.904C15.184 34.784 14.98 34.58 14.752 34.292V37.496H13.696V28.748H14.716V29.588ZM17.656 33.668C17.98 33.26 18.136 32.648 18.136 31.82C18.136 31.328 18.064 30.896 17.92 30.536C17.644 29.84 17.152 29.504 16.42 29.504C15.688 29.504 15.196 29.864 14.92 30.596C14.776 30.992 14.704 31.484 14.704 32.084C14.704 32.564 14.776 32.984 14.92 33.32C15.196 33.968 15.7 34.292 16.42 34.292C16.912 34.292 17.32 34.088 17.656 33.668ZM25.4153 28.724C25.2713 29.132 24.9353 30.044 24.4313 31.484C24.0473 32.552 23.7233 33.44 23.4713 34.112C22.8593 35.72 22.4273 36.692 22.1753 37.04C21.9233 37.4 21.5033 37.568 20.8913 37.568C20.7473 37.568 20.6273 37.568 20.5553 37.556C20.4713 37.544 20.3633 37.52 20.2553 37.496V36.524C20.4353 36.584 20.5673 36.608 20.6513 36.62C20.7353 36.632 20.8073 36.644 20.8673 36.644C21.0593 36.644 21.2033 36.608 21.2993 36.548C21.3833 36.488 21.4673 36.404 21.5273 36.308C21.5513 36.272 21.6113 36.116 21.7433 35.828L22.0073 35.18L19.6793 28.724H20.8793L22.5593 33.836L24.2513 28.724H25.4153ZM27.5026 28.724H28.4986V29.588H27.5026V33.68C27.5026 33.896 27.5746 34.04 27.7186 34.124C27.8026 34.16 27.9466 34.184 28.1386 34.184H28.2946C28.3546 34.184 28.4266 34.172 28.4986 34.172V35C28.3786 35.036 28.2586 35.06 28.1266 35.072C27.9946 35.096 27.8506 35.096 27.6946 35.096C27.2026 35.096 26.8786 34.976 26.6986 34.724C26.5186 34.472 26.4346 34.148 26.4346 33.74V29.588H25.5826V28.724H26.4346V26.972H27.5026V28.724ZM30.5058 29.576C30.7578 29.252 30.9858 29.036 31.1778 28.904C31.5258 28.688 31.9458 28.568 32.4498 28.568C33.3618 28.568 33.9858 28.892 34.3098 29.528C34.4778 29.876 34.5738 30.356 34.5738 30.98V35H33.4818V31.04C33.4818 30.584 33.4338 30.248 33.3138 30.032C33.1218 29.684 32.7618 29.516 32.2338 29.516C31.7898 29.516 31.4058 29.672 31.0458 29.972C30.6858 30.26 30.5058 30.836 30.5058 31.676V35H29.4498V26.36H30.5058V29.576ZM40.5931 29.348C41.1571 29.888 41.4331 30.68 41.4331 31.736C41.4331 32.744 41.1931 33.572 40.7011 34.244C40.2091 34.904 39.4411 35.228 38.4091 35.228C37.5451 35.228 36.8611 34.94 36.3451 34.352C35.8411 33.764 35.5891 32.984 35.5891 32C35.5891 30.944 35.8531 30.104 36.3931 29.48C36.9211 28.856 37.6411 28.544 38.5411 28.544C39.3571 28.544 40.0411 28.808 40.5931 29.348ZM39.9451 33.524C40.2091 32.996 40.3291 32.408 40.3291 31.76C40.3291 31.172 40.2451 30.704 40.0531 30.332C39.7531 29.756 39.2371 29.468 38.5171 29.468C37.8691 29.468 37.4011 29.708 37.1131 30.2C36.8131 30.692 36.6691 31.28 36.6691 31.988C36.6691 32.648 36.8131 33.212 37.1131 33.656C37.4011 34.1 37.8691 34.316 38.5051 34.316C39.2011 34.316 39.6811 34.052 39.9451 33.524ZM43.5764 29.612C43.8764 29.252 44.1884 28.988 44.5244 28.82C44.8484 28.664 45.2204 28.58 45.6284 28.58C46.5164 28.58 47.1164 28.892 47.4284 29.516C47.5964 29.852 47.6924 30.344 47.6924 30.98V35H46.6124V31.04C46.6124 30.668 46.5524 30.356 46.4444 30.116C46.2644 29.732 45.9164 29.528 45.4244 29.528C45.1724 29.528 44.9684 29.552 44.8124 29.612C44.5244 29.696 44.2724 29.864 44.0444 30.128C43.8764 30.332 43.7684 30.548 43.7084 30.764C43.6604 30.992 43.6244 31.304 43.6244 31.712V35H42.5684V28.724H43.5764V29.612Z" fill="black"/>
</svg>
