<svg width="572" height="710" viewBox="0 0 572 710" fill="none" xmlns="http://www.w3.org/2000/svg">
<mask id="mask0_277_1487" style="mask-type:alpha" maskUnits="userSpaceOnUse" x="0" y="0" width="572" height="710">
<rect y="0.00537109" width="572" height="709" fill="#D9D9D9"/>
</mask>
<g mask="url(#mask0_277_1487)">
<line x1="368.518" y1="708.97" x2="368.518" y2="0.017334" stroke="black" stroke-opacity="0.21"/>
<line x1="510.303" y1="708.982" x2="510.303" y2="0.0291748" stroke="black" stroke-opacity="0.21"/>
<line x1="84.9463" y1="708.993" x2="84.9463" y2="0.0410156" stroke="black" stroke-opacity="0.21"/>
<line x1="226.732" y1="708.993" x2="226.732" y2="0.0410156" stroke="black" stroke-opacity="0.21"/>
<line x1="439.41" y1="708.982" x2="439.41" y2="0.0291748" stroke="black" stroke-opacity="0.21"/>
<line x1="14.0537" y1="708.993" x2="14.0537" y2="0.0410156" stroke="black" stroke-opacity="0.21"/>
<line x1="155.839" y1="709.005" x2="155.839" y2="0.0529785" stroke="black" stroke-opacity="0.21"/>
<line x1="297.625" y1="709.005" x2="297.625" y2="0.0529785" stroke="black" stroke-opacity="0.21"/>
<line x1="403.964" y1="708.97" x2="403.964" y2="0.017334" stroke="black" stroke-opacity="0.21"/>
<line x1="545.75" y1="708.982" x2="545.75" y2="0.0291748" stroke="black" stroke-opacity="0.21"/>
<line x1="120.393" y1="708.993" x2="120.393" y2="0.0410156" stroke="black" stroke-opacity="0.21"/>
<line x1="262.179" y1="708.993" x2="262.179" y2="0.0410156" stroke="black" stroke-opacity="0.21"/>
<line x1="474.856" y1="708.982" x2="474.856" y2="0.0291748" stroke="black" stroke-opacity="0.21"/>
<line x1="49.5" y1="708.993" x2="49.5" y2="0.0410156" stroke="black" stroke-opacity="0.21"/>
<line x1="191.285" y1="709.005" x2="191.285" y2="0.0529785" stroke="black" stroke-opacity="0.21"/>
<line x1="333.071" y1="709.005" x2="333.071" y2="0.0529785" stroke="black" stroke-opacity="0.21"/>
<line x1="-1367.86" y1="-0.482666" x2="1467.86" y2="-0.482666" stroke="black" stroke-opacity="0.21"/>
<line x1="-1367.86" y1="566.66" x2="1467.86" y2="566.66" stroke="black" stroke-opacity="0.21"/>
<line x1="-1367.86" y1="283.089" x2="1467.86" y2="283.089" stroke="black" stroke-opacity="0.21"/>
<line x1="-1367.86" y1="141.303" x2="1467.86" y2="141.303" stroke="black" stroke-opacity="0.21"/>
<line x1="-1367.86" y1="708.446" x2="1467.86" y2="708.446" stroke="black" stroke-opacity="0.21"/>
<line x1="-1367.86" y1="424.874" x2="1467.86" y2="424.874" stroke="black" stroke-opacity="0.21"/>
<line x1="-1367.86" y1="34.9639" x2="1467.86" y2="34.9639" stroke="black" stroke-opacity="0.21"/>
<line x1="-1367.86" y1="602.106" x2="1467.86" y2="602.106" stroke="black" stroke-opacity="0.21"/>
<line x1="-1367.86" y1="318.535" x2="1467.86" y2="318.535" stroke="black" stroke-opacity="0.21"/>
<line x1="-1367.86" y1="176.75" x2="1467.86" y2="176.75" stroke="black" stroke-opacity="0.21"/>
<line x1="-1367.86" y1="460.321" x2="1467.86" y2="460.321" stroke="black" stroke-opacity="0.21"/>
<line x1="-1367.86" y1="70.4102" x2="1467.86" y2="70.4102" stroke="black" stroke-opacity="0.21"/>
<line x1="-1367.86" y1="637.553" x2="1467.86" y2="637.553" stroke="black" stroke-opacity="0.21"/>
<line x1="-1367.86" y1="353.981" x2="1467.86" y2="353.981" stroke="black" stroke-opacity="0.21"/>
<line x1="-1367.86" y1="212.196" x2="1467.86" y2="212.196" stroke="black" stroke-opacity="0.21"/>
<line x1="-1367.86" y1="495.767" x2="1467.86" y2="495.767" stroke="black" stroke-opacity="0.21"/>
<line x1="-1367.86" y1="105.856" x2="1467.86" y2="105.856" stroke="black" stroke-opacity="0.21"/>
<line x1="-1367.86" y1="672.999" x2="1467.86" y2="672.999" stroke="black" stroke-opacity="0.21"/>
<line x1="-1367.86" y1="389.428" x2="1467.86" y2="389.428" stroke="black" stroke-opacity="0.21"/>
<line x1="-1367.86" y1="247.642" x2="1467.86" y2="247.642" stroke="black" stroke-opacity="0.21"/>
<line x1="-1367.86" y1="531.213" x2="1467.86" y2="531.213" stroke="black" stroke-opacity="0.21"/>
</g>
</svg>
