<svg width="166" height="62" viewBox="0 0 166 62" fill="none" xmlns="http://www.w3.org/2000/svg">
<rect width="166" height="62" fill="#3F3F3F"/>
<g id="qazdev main page" clip-path="url(#clip0_0_1)">
<rect width="1920" height="10800" transform="translate(-432 -758)" fill="#EAEAEA"/>
<g id="main block">
<g id="content">
<g id="content_2">
<g id="core">
<g id="vertical lines distance left">
</g>
</g>
</g>
</g>
</g>
<path id="CORE" d="M14.5474 61.5H14.9066L15.0212 61.1595L18.9906 49.3682H40.0053L43.6992 61.1496L43.809 61.5H44.1763H57.5493H58.2568L58.0206 60.8331L37.1202 1.81551L37.0023 1.48242H36.6489H22.7153H22.3629L22.2444 1.81438L1.18387 60.832L0.945477 61.5H1.65479H14.5474ZM77.5002 61.5H78.0002V61V40.2793H90.0324C96.6383 40.2793 101.799 38.824 105.444 35.8421C109.134 32.8229 110.912 27.7169 110.912 20.6807C110.912 14.2122 109.124 9.33792 105.454 6.16846C101.817 3.02756 96.9655 1.48242 90.9533 1.48242H65.2483H64.7483V1.98242V61V61.5H65.2483H77.5002ZM95.4417 14.5816L95.4449 14.5841C96.9076 15.7591 97.7004 17.7691 97.7004 20.7607C97.7004 23.7502 96.9215 25.8269 95.4685 27.1113C93.9589 28.4221 91.8218 29.1094 88.9914 29.1094H78.0002V12.7324H88.9914C91.8318 12.7324 93.9597 13.3712 95.4417 14.5816ZM132.085 61.5H132.585V61V40.2793H144.617C151.223 40.2793 156.384 38.824 160.028 35.8421C163.718 32.8229 165.497 27.7169 165.497 20.6807C165.497 14.2122 163.709 9.33792 160.039 6.16846C156.402 3.02756 151.55 1.48242 145.538 1.48242H119.833H119.333V1.98242V61V61.5H119.833H132.085ZM150.026 14.5816L150.03 14.5841C151.492 15.7591 152.285 17.7691 152.285 20.7607C152.285 23.7502 151.506 25.8269 150.053 27.1113C148.544 28.4221 146.406 29.1094 143.576 29.1094H132.585V12.7324H143.576C146.417 12.7324 148.544 13.3712 150.026 14.5816ZM22.6445 38.1982L29.5544 17.105L36.246 38.1982H22.6445Z" stroke="black"/>
</g>
<defs>
<clipPath id="clip0_0_1">
<rect width="1920" height="10800" fill="white" transform="translate(-432 -758)"/>
</clipPath>
</defs>
</svg>
