<svg width="78" height="37" viewBox="0 0 78 37" fill="none" xmlns="http://www.w3.org/2000/svg">
<path d="M2.2517 5.39549C1.00938 5.39549 0 4.38611 0 3.14379C0 1.90147 1.00938 0.89209 2.2517 0.89209C3.49402 0.89209 4.5034 1.90147 4.5034 3.14379C4.5034 4.38611 3.49402 5.39549 2.2517 5.39549ZM2.2517 1.66854C1.47525 1.66854 0.776449 2.36734 0.776449 3.14379C0.776449 3.92024 1.47525 4.61904 2.2517 4.61904C3.02815 4.61904 3.72695 3.99789 3.72695 3.14379C3.72695 2.36734 3.1058 1.66854 2.2517 1.66854Z" fill="#757575"/>
<path d="M77.0354 35.9096C77.0354 36.124 76.8616 36.2978 76.6471 36.2978H35.7828C34.7465 36.2978 33.7532 35.8835 33.0241 35.1471L3.21926 5.04572C3.07044 4.89543 3.07104 4.65313 3.2206 4.50358C3.37121 4.35296 3.61559 4.35357 3.76545 4.50493L33.3346 34.3706C34.0638 35.107 35.0571 35.5214 36.0935 35.5214H76.6471C76.8616 35.5214 77.0354 35.6952 77.0354 35.9096Z" fill="#757575"/>
</svg>
