<svg width="40" height="36" viewBox="0 0 40 36" fill="none" xmlns="http://www.w3.org/2000/svg">
<g id="arrows">
<g id="right">
<rect id="Rectangle 487" y="35.2079" width="3.91198" height="3.91198" transform="rotate(-90 0 35.2079)" fill="black"/>
<rect id="Rectangle 488" x="3.91211" y="31.2958" width="3.91198" height="3.91198" transform="rotate(-90 3.91211 31.2958)" fill="black"/>
<rect id="Rectangle 489" x="7.82397" y="27.3839" width="3.91198" height="3.91198" transform="rotate(-90 7.82397 27.3839)" fill="black"/>
<rect id="Rectangle 490" x="11.7358" y="23.4719" width="3.91198" height="3.91198" transform="rotate(-90 11.7358 23.4719)" fill="black"/>
<rect id="Rectangle 491" x="15.6479" y="19.5599" width="3.91198" height="3.91198" transform="rotate(-90 15.6479 19.5599)" fill="black"/>
<rect id="Rectangle 492" x="11.7358" y="15.6479" width="3.91198" height="3.91198" transform="rotate(-90 11.7358 15.6479)" fill="black"/>
<rect id="Rectangle 493" x="7.82397" y="11.736" width="3.91198" height="3.91198" transform="rotate(-90 7.82397 11.736)" fill="black"/>
<rect id="Rectangle 494" x="3.91211" y="7.82395" width="3.91198" height="3.91198" transform="rotate(-90 3.91211 7.82395)" fill="black"/>
<rect id="Rectangle 495" y="3.91198" width="3.91198" height="3.91198" transform="rotate(-90 0 3.91198)" fill="black"/>
</g>
<g id="right_2">
<rect id="Rectangle 487_2" x="20.4401" y="35.2079" width="3.91198" height="3.91198" transform="rotate(-90 20.4401 35.2079)" fill="#2313DB"/>
<rect id="Rectangle 488_2" x="24.3522" y="31.2958" width="3.91198" height="3.91198" transform="rotate(-90 24.3522 31.2958)" fill="#2313DB"/>
<rect id="Rectangle 489_2" x="28.264" y="27.3839" width="3.91198" height="3.91198" transform="rotate(-90 28.264 27.3839)" fill="#2313DB"/>
<rect id="Rectangle 490_2" x="32.1759" y="23.4719" width="3.91198" height="3.91198" transform="rotate(-90 32.1759 23.4719)" fill="#2313DB"/>
<rect id="Rectangle 491_2" x="36.088" y="19.5599" width="3.91198" height="3.91198" transform="rotate(-90 36.088 19.5599)" fill="#2313DB"/>
<rect id="Rectangle 492_2" x="32.1759" y="15.6479" width="3.91198" height="3.91198" transform="rotate(-90 32.1759 15.6479)" fill="#2313DB"/>
<rect id="Rectangle 493_2" x="28.264" y="11.736" width="3.91198" height="3.91198" transform="rotate(-90 28.264 11.736)" fill="#2313DB"/>
<rect id="Rectangle 494_2" x="24.3522" y="7.82395" width="3.91198" height="3.91198" transform="rotate(-90 24.3522 7.82395)" fill="#2313DB"/>
<rect id="Rectangle 495_2" x="20.4401" y="3.91198" width="3.91198" height="3.91198" transform="rotate(-90 20.4401 3.91198)" fill="#2313DB"/>
</g>
</g>
</svg>
