<svg width="78" height="70" viewBox="0 0 78 70" fill="none" xmlns="http://www.w3.org/2000/svg">
<path d="M2.11097 69.5954C0.946305 69.5954 0 68.6491 0 67.4845C0 66.3198 0.946305 65.3735 2.11097 65.3735C3.27563 65.3735 4.22189 66.3198 4.22189 67.4845C4.22189 68.6491 3.27563 69.5954 2.11097 69.5954ZM2.11097 66.1014C1.38305 66.1014 0.727913 66.7566 0.727913 67.4845C0.727913 68.2124 1.38305 68.8675 2.11097 68.8675C2.83888 68.8675 3.49398 68.2124 3.49398 67.4845C3.49398 66.6838 2.91167 66.1014 2.11097 66.1014Z" fill="black"/>
<path d="M3.09213 65.5494C2.99295 65.7329 2.76295 65.8001 2.58059 65.6988C2.40119 65.5991 2.33538 65.3737 2.43299 65.1931L36.5287 2.13361C37.1645 0.957802 38.3936 0.225098 39.7303 0.225098H77.0863C77.2873 0.225098 77.4503 0.388047 77.4503 0.589054C77.4503 0.790062 77.2873 0.953011 77.0863 0.953011H40.1676C38.8306 0.953011 37.6012 1.68608 36.9656 2.86235L3.09213 65.5494Z" fill="black"/>
</svg>
