<svg width="331" height="35" viewBox="0 0 331 35" fill="none" xmlns="http://www.w3.org/2000/svg">
<path fill-rule="evenodd" clip-rule="evenodd" d="M158.726 0.247314H156.686V24.7273H158.726V21.6333H158.794C159.1 22.2113 159.474 22.7213 159.95 23.1633C160.392 23.6053 160.902 23.9793 161.48 24.2853C162.024 24.5913 162.602 24.7953 163.18 24.9653C163.758 25.1353 164.336 25.2033 164.914 25.2033C166.342 25.2033 167.566 24.9653 168.552 24.4893C169.538 24.0133 170.388 23.3673 171.034 22.5173C171.68 21.7013 172.122 20.7153 172.428 19.5933C172.734 18.4713 172.87 17.2473 172.87 15.9553C172.87 14.7313 172.7 13.5413 172.394 12.4193C172.088 11.2973 171.612 10.2773 170.966 9.42732C170.32 8.57732 169.504 7.89731 168.518 7.38731C167.532 6.87731 166.342 6.63932 165.016 6.63932C163.758 6.63932 162.568 6.91131 161.446 7.45532C160.29 8.03332 159.372 8.84932 158.726 9.93731V0.247314ZM159.134 18.8113C158.862 17.8933 158.726 16.9073 158.726 15.8533C158.726 14.8673 158.862 13.9153 159.134 12.9973C159.406 12.1133 159.814 11.3313 160.324 10.6513C160.834 10.0053 161.446 9.46132 162.194 9.05332C162.908 8.67931 163.758 8.47532 164.676 8.47532C165.73 8.47532 166.648 8.67931 167.43 9.08732C168.212 9.52931 168.824 10.1073 169.334 10.8213C169.844 11.5353 170.184 12.3853 170.422 13.3373C170.66 14.3233 170.728 15.3433 170.694 16.4653C170.694 17.5873 170.558 18.5393 170.252 19.3893C169.946 20.2393 169.504 20.9873 168.96 21.5653C168.416 22.1433 167.77 22.5853 167.056 22.8913C166.342 23.1973 165.526 23.3673 164.676 23.3673C163.724 23.3673 162.874 23.1633 162.126 22.7893C161.378 22.4153 160.766 21.8713 160.256 21.1913C159.746 20.5453 159.372 19.7293 159.134 18.8113ZM330.019 26.2273H329.924C329.443 23.1122 326.75 20.7273 323.5 20.7273C320.25 20.7273 317.557 23.1122 317.076 26.2273H12.6865C11.8429 23.6161 9.39204 21.7273 6.5 21.7273C2.91015 21.7273 0 24.6375 0 28.2273C0 31.8172 2.91015 34.7273 6.5 34.7273C9.74979 34.7273 12.4425 32.3424 12.9236 29.2273H317.314C318.157 31.8386 320.608 33.7273 323.5 33.7273C326.392 33.7273 328.843 31.8386 329.686 29.2273H330.019V26.2273Z" fill="black"/>
</svg>
