<svg width="1020" height="658" viewBox="0 0 1020 658" fill="none" xmlns="http://www.w3.org/2000/svg">
<path d="M327.425 651.2C325.925 650.8 324.325 650.8 322.725 650.8C321.525 652.1 319.925 651.7 318.425 651.5C313.725 650.9 308.925 650.8 304.225 650.4C297.825 649.8 291.425 649.3 285.025 648.8C279.825 648.3 274.525 647.9 269.325 647.4C263.625 646.9 257.925 646.4 252.225 645.8C247.725 645.3 243.125 644.9 238.625 644.5C231.925 643.8 225.325 643.1 218.625 642.2C213.025 641.5 207.425 641 201.825 640.2C193.825 639.1 185.725 638 177.725 636.9C169.625 635.7 161.525 634.4 153.425 633.1C141.025 631.1 128.625 628.9 116.225 626.4C102.625 623.6 89.025 620.6 75.725 616.8C57.825 611.9 40.225 606.3 23.825 597.4C16.425 593.4 9.625 588.5 4.325 581.9C1.625 578.6 -0.0749992 574.8 0.0250008 570.4C0.0250008 568.5 -0.0750008 566.6 0.124999 564.7C2.925 556.3 8.925 550.7 15.925 545.9C25.125 539.6 35.125 535.1 45.525 531.2C56.725 527 68.025 523.4 79.625 520.5C96.125 516.4 112.725 512.5 129.425 509.5C139.125 507.8 148.925 506.3 158.625 504.3C159.925 504.3 161.425 503.9 162.325 505.3C162.425 507.4 162.125 509.4 160.525 511C159.225 511.5 157.825 511.3 156.625 511.9C151.225 512.3 145.825 513.4 140.525 514.4C128.725 516.6 117.025 518.9 105.425 521.5C87.125 525.6 69.025 530.5 51.325 536.6C50.625 536.8 50.025 537.1 49.425 537.5C38.025 541.3 27.225 546.5 17.425 553.4C14.125 555.8 11.125 558.6 9.025 562.2C5.725 567.7 6.525 574 10.825 578.7C15.825 584.2 21.725 588.2 28.225 591.6C44.825 600.3 62.625 605.9 80.625 610.7C86.825 612.3 92.925 614.1 99.225 615.2C112.225 618.5 125.425 620.8 138.625 623.3C147.525 625 156.525 626.6 165.525 627.9C176.125 629.5 186.625 630.9 197.225 632.3C205.825 633.4 214.525 634.5 223.125 635.6C229.525 636.4 235.925 637 242.325 637.7C249.225 638.4 256.125 639 263.025 639.8C268.225 640.4 273.525 640.8 278.725 641.2C285.125 641.7 291.525 642.3 297.925 642.8C302.725 643.2 307.625 643.9 312.525 643.6C315.125 644.5 317.925 643.9 320.625 644.2C326.025 644.9 331.525 645 336.925 645.4C346.125 646.1 355.325 646.2 364.625 647C369.325 647.4 373.925 647.5 378.625 647.6C386.625 647.8 394.525 648.2 402.525 648.5C417.325 649 432.125 649.6 446.925 649.6C448.825 650.1 450.825 650.2 452.825 650.2C489.725 650.2 526.725 650.4 563.625 650.1C573.025 650 582.425 650.1 591.725 649.5C598.225 649.1 604.725 649.4 611.125 649C621.325 648.4 631.625 648.2 641.825 647.7C649.425 647.4 656.925 647 664.525 646.5C675.825 645.7 687.125 645.2 698.425 644.3C705.125 643.8 711.925 643.4 718.625 642.9C727.025 642.3 735.425 641.5 743.925 640.7C750.925 640 758.025 639.4 765.025 638.8C773.425 638 781.825 637.1 790.225 636.2C799.125 635.2 808.025 634.1 816.925 632.9C827.425 631.5 837.825 630.1 848.225 628.5C861.825 626.5 875.425 624.2 888.925 621.6C905.625 618.4 922.225 614.9 938.725 610.4C955.725 605.7 972.525 600.5 988.325 592.6C995.525 589 1002.13 584.6 1007.53 578.6C1012.83 572.7 1013.32 566.9 1008.62 560.5C1003.62 553.6 996.525 549.4 989.125 545.6C974.325 538 958.625 532.9 942.725 528.5C926.125 523.8 909.325 520.1 892.425 516.8C888.225 516 884.125 514.8 879.825 514.7C878.625 514.2 877.325 514.1 876.125 513.8C874.325 513.4 873.325 512.4 873.525 510.4C873.725 509.3 873.925 508.3 874.725 507.4C875.825 506.7 877.125 506.9 878.325 507C893.725 510.1 909.225 512.9 924.525 516.5C943.925 521.1 963.025 526.5 981.425 534.1C991.625 538.3 1001.32 543.3 1009.62 550.7C1015.72 556.2 1020.23 562.7 1019.03 571.6C1018.63 574.6 1017.63 577.4 1015.93 579.9C1010.03 588.4 1001.73 593.9 992.625 598.5C975.625 607.2 957.425 612.8 939.025 617.7C918.925 623 898.525 627.2 878.025 630.8C865.625 633 853.125 635 840.525 636.8C830.825 638.2 821.125 639.5 811.425 640.6C803.625 641.5 795.725 642.5 787.925 643.4C781.225 644.1 774.525 644.7 767.825 645.4C759.225 646.3 750.625 647 742.025 647.7C740.425 647.8 739.025 648.7 737.325 648.6C730.525 648.6 723.725 649.3 716.825 649.8C710.925 650.3 704.925 651 699.025 651.1C696.425 651.2 693.925 651.8 691.325 651.8C681.325 652.3 671.225 652.7 661.225 653.5C656.925 653.9 652.725 653.9 648.425 654C641.125 654.2 633.925 654.6 626.625 654.9C612.925 655.3 599.125 655.8 585.425 656.2C580.125 656.3 574.925 656.5 569.625 656.6C536.925 657.5 504.225 657.2 471.525 657.2C470.025 657.2 468.525 657.3 467.025 657.1C465.725 656.8 464.525 656.6 463.225 656.6C450.725 656.7 438.325 656.2 425.825 656C411.825 655.8 397.725 655.2 383.725 654.6C368.525 653.9 353.325 653.6 338.125 652.3C335.225 652.1 332.425 651.6 329.525 651.7C328.625 652.2 327.925 651.8 327.425 651.2Z" fill="#E3E3E3"/>
<path d="M509.525 174C593.544 174 669.653 168.624 724.798 159.917C752.354 155.566 774.767 150.369 790.335 144.557C798.108 141.656 804.293 138.558 808.571 135.257C812.81 131.986 815.525 128.234 815.525 124C815.525 119.766 812.81 116.014 808.571 112.743C804.293 109.442 798.108 106.344 790.335 103.443C774.767 97.6309 752.354 92.4344 724.798 88.0833C669.653 79.3763 593.544 74 509.525 74C425.507 74 349.398 79.3763 294.253 88.0833C266.696 92.4344 244.284 97.6309 228.716 103.443C220.943 106.344 214.758 109.442 210.48 112.743C206.24 116.014 203.525 119.766 203.525 124C203.525 128.234 206.24 131.986 210.48 135.257C214.758 138.558 220.943 141.656 228.716 144.557C244.284 150.369 266.696 155.566 294.253 159.917C349.398 168.624 425.507 174 509.525 174Z" stroke="#E3E3E3" stroke-width="4"/>
<path d="M509.525 137C615.089 137 710.708 129.664 779.978 117.787C814.597 111.851 842.732 104.765 862.257 96.849C872.011 92.895 879.732 88.6886 885.049 84.2335C890.347 79.7941 893.525 74.8713 893.525 69.5C893.525 64.1287 890.347 59.2059 885.049 54.7665C879.732 50.3114 872.011 46.105 862.257 42.151C842.732 34.2354 814.597 27.1493 779.978 21.2133C710.708 9.33572 615.089 2 509.525 2C403.962 2 308.343 9.33572 239.073 21.2133C204.453 27.1493 176.319 34.2354 156.793 42.151C147.04 46.105 139.319 50.3114 134.002 54.7665C128.704 59.2059 125.525 64.1287 125.525 69.5C125.525 74.8713 128.704 79.7941 134.002 84.2335C139.319 88.6886 147.04 92.895 156.793 96.849C176.319 104.765 204.453 111.851 239.073 117.787C308.343 129.664 403.962 137 509.525 137Z" stroke="#E3E3E3" stroke-width="4"/>
</svg>
