<svg width="312" height="72" viewBox="0 0 312 72" fill="none" xmlns="http://www.w3.org/2000/svg">
<path fill-rule="evenodd" clip-rule="evenodd" d="M17.6885 3.96246C14.976 3.96246 12.3822 5.07476 10.5123 7.03977L6.69236 11.054C4.93985 12.8957 3.96246 15.3406 3.96246 17.8829V57.4557C3.96246 62.9268 8.3976 67.3619 13.8686 67.3619H29.7185V71.3244H13.8686C6.20919 71.3244 0 65.1152 0 57.4557V17.8829C0 14.3237 1.36834 10.9008 3.82186 8.32248L7.64178 4.30823C10.2596 1.55721 13.891 0 17.6885 0H29.7185V3.96246H17.6885Z" fill="black"/>
<path fill-rule="evenodd" clip-rule="evenodd" d="M13.0361 68.815L17.9892 57.1753L21.6353 58.7268L16.6822 70.3666L13.0361 68.815Z" fill="black"/>
<path fill-rule="evenodd" clip-rule="evenodd" d="M1.81294 57.6526L12.2145 50.1523L14.5321 53.3664L4.13049 60.8666L1.81294 57.6526Z" fill="black"/>
<path fill-rule="evenodd" clip-rule="evenodd" d="M23.7748 3.92972C18.3037 3.92972 13.8686 8.3282 13.8686 13.754V45.683C13.8686 51.1088 18.3037 55.5073 23.7748 55.5073H29.7185V59.437H23.7748C16.1153 59.437 9.90613 53.2791 9.90613 45.683V13.754C9.90613 6.15788 16.1153 0 23.7748 0H29.7185V3.92972H23.7748Z" fill="black"/>
<path fill-rule="evenodd" clip-rule="evenodd" d="M96.7185 3.96246H29.7185V0H96.7185V3.96246Z" fill="black"/>
<path d="M37.2313 38.0539C36.0109 38.0539 34.9173 37.8558 33.9504 37.4595C32.9836 37.0633 32.2069 36.4768 31.6205 35.7002C31.0499 34.9235 30.7487 33.9884 30.717 32.8947H35.0441C35.1075 33.5129 35.3214 33.9884 35.686 34.3212C36.0505 34.6382 36.526 34.7967 37.1125 34.7967C37.7148 34.7967 38.1903 34.662 38.539 34.3926C38.8876 34.1073 39.062 33.7189 39.062 33.2276C39.062 32.8155 38.9193 32.4747 38.6341 32.2053C38.3646 31.9358 38.0238 31.7139 37.6117 31.5396C37.2155 31.3652 36.6449 31.1671 35.9 30.9452C34.8222 30.6124 33.9425 30.2795 33.2609 29.9467C32.5794 29.6138 31.993 29.1225 31.5016 28.4726C31.0103 27.8228 30.7646 26.9748 30.7646 25.9287C30.7646 24.3754 31.3273 23.1629 32.4526 22.2912C33.5779 21.4036 35.0441 20.9598 36.8509 20.9598C38.6895 20.9598 40.1715 21.4036 41.2968 22.2912C42.4222 23.1629 43.0245 24.3834 43.1037 25.9525H38.7054C38.6737 25.4136 38.4756 24.9936 38.111 24.6924C37.7465 24.3754 37.2789 24.2169 36.7083 24.2169C36.2169 24.2169 35.8207 24.3517 35.5196 24.6211C35.2184 24.8747 35.0678 25.2472 35.0678 25.7385C35.0678 26.2774 35.3214 26.6975 35.8286 26.9986C36.3358 27.2997 37.1283 27.6247 38.2061 27.9734C39.2839 28.3379 40.1556 28.6866 40.8213 29.0195C41.5029 29.3523 42.0893 29.8357 42.5807 30.4697C43.072 31.1037 43.3177 31.92 43.3177 32.9185C43.3177 33.8695 43.072 34.7333 42.5807 35.51C42.1052 36.2866 41.4078 36.9048 40.4885 37.3644C39.5692 37.8241 38.4835 38.0539 37.2313 38.0539ZM60.2747 21.1975V37.8875H56.2092V31.0165H49.8851V37.8875H45.8196V21.1975H49.8851V27.7356H56.2092V21.1975H60.2747ZM67.2751 21.1975V37.8875H63.2096V21.1975H67.2751ZM81.0864 21.1975V24.4547H74.2868V27.9734H79.3746V31.1354H74.2868V37.8875H70.2213V21.1975H81.0864ZM95.2294 21.1975V24.4547H90.8073V37.8875H86.7418V24.4547H82.3197V21.1975H95.2294Z" fill="black"/>
<path fill-rule="evenodd" clip-rule="evenodd" d="M96.7185 59.7748H29.7185V55.8124H96.7185V59.7748Z" fill="black"/>
<path fill-rule="evenodd" clip-rule="evenodd" d="M96.7185 71.6622H29.7185V67.6997H96.7185V71.6622Z" fill="black"/>
<path fill-rule="evenodd" clip-rule="evenodd" d="M108.748 3.96246C111.461 3.96246 114.055 5.07476 115.925 7.03977L119.745 11.054C121.497 12.8957 122.475 15.3406 122.475 17.8829V57.4557C122.475 62.9268 118.039 67.3619 112.568 67.3619H96.7185V71.3244H112.568C120.228 71.3244 126.437 65.1152 126.437 57.4557V17.8829C126.437 14.3237 125.069 10.9008 122.615 8.32248L118.795 4.30823C116.177 1.55721 112.546 0 108.748 0H96.7185V3.96246H108.748Z" fill="black"/>
<path fill-rule="evenodd" clip-rule="evenodd" d="M113.401 68.815L108.448 57.1753L104.802 58.7268L109.755 70.3666L113.401 68.815Z" fill="black"/>
<path fill-rule="evenodd" clip-rule="evenodd" d="M124.624 57.6526L114.223 50.1523L111.905 53.3664L122.307 60.8666L124.624 57.6526Z" fill="black"/>
<path fill-rule="evenodd" clip-rule="evenodd" d="M102.662 3.92972C108.133 3.92972 112.568 8.3282 112.568 13.754V45.683C112.568 51.1088 108.133 55.5073 102.662 55.5073H96.7185V59.437H102.662C110.322 59.437 116.531 53.2791 116.531 45.683V13.754C116.531 6.15788 110.322 0 102.662 0H96.7185V3.92972H102.662Z" fill="black"/>
<path fill-rule="evenodd" clip-rule="evenodd" d="M159.975 3.96246C157.263 3.96246 154.669 5.07476 152.799 7.03977L148.979 11.054C147.227 12.8957 146.249 15.3406 146.249 17.8829V57.4557C146.249 62.9268 150.684 67.3619 156.155 67.3619H172.005V71.3244H156.155C148.496 71.3244 142.287 65.1152 142.287 57.4557V17.8829C142.287 14.3237 143.655 10.9008 146.109 8.32248L149.929 4.30823C152.546 1.55721 156.178 0 159.975 0H172.005V3.96246H159.975Z" fill="black"/>
<path fill-rule="evenodd" clip-rule="evenodd" d="M155.323 68.815L160.276 57.1753L163.922 58.7268L158.969 70.3666L155.323 68.815Z" fill="black"/>
<path fill-rule="evenodd" clip-rule="evenodd" d="M144.1 57.6526L154.501 50.1523L156.819 53.3664L146.417 60.8666L144.1 57.6526Z" fill="black"/>
<path fill-rule="evenodd" clip-rule="evenodd" d="M166.062 3.92972C160.591 3.92972 156.156 8.3282 156.156 13.754V45.683C156.156 51.1088 160.591 55.5073 166.062 55.5073H172.005V59.437H166.062C158.402 59.437 152.193 53.2791 152.193 45.683V13.754C152.193 6.15788 158.402 0 166.062 0H172.005V3.92972H166.062Z" fill="black"/>
<path fill-rule="evenodd" clip-rule="evenodd" d="M187.005 3.96246H172.005V0H187.005V3.96246Z" fill="black"/>
<path d="M185.533 31.3969H181.396V35.6288H177.545V31.3969H173.408V27.7594H177.545V23.5037H181.396V27.7594H185.533V31.3969Z" fill="black"/>
<path fill-rule="evenodd" clip-rule="evenodd" d="M187.005 59.7748H172.005V55.8124H187.005V59.7748Z" fill="black"/>
<path fill-rule="evenodd" clip-rule="evenodd" d="M187.005 71.6622H172.005V67.6997H187.005V71.6622Z" fill="black"/>
<path fill-rule="evenodd" clip-rule="evenodd" d="M199.035 3.96246C201.748 3.96246 204.342 5.07476 206.212 7.03977L210.031 11.054C211.784 12.8957 212.761 15.3406 212.761 17.8829V57.4557C212.761 62.9268 208.326 67.3619 202.855 67.3619H187.005V71.3244H202.855C210.515 71.3244 216.724 65.1152 216.724 57.4557V17.8829C216.724 14.3237 215.355 10.9008 212.902 8.32248L209.082 4.30823C206.464 1.55721 202.833 0 199.035 0H187.005V3.96246H199.035Z" fill="black"/>
<path fill-rule="evenodd" clip-rule="evenodd" d="M203.688 68.815L198.735 57.1753L195.088 58.7268L200.042 70.3666L203.688 68.815Z" fill="black"/>
<path fill-rule="evenodd" clip-rule="evenodd" d="M214.911 57.6526L204.509 50.1523L202.192 53.3664L212.593 60.8666L214.911 57.6526Z" fill="black"/>
<path fill-rule="evenodd" clip-rule="evenodd" d="M192.949 3.92972C198.42 3.92972 202.855 8.3282 202.855 13.754V45.683C202.855 51.1088 198.42 55.5073 192.949 55.5073H187.005V59.437H192.949C200.608 59.437 206.818 53.2791 206.818 45.683V13.754C206.818 6.15788 200.608 0 192.949 0H187.005V3.92972H192.949Z" fill="black"/>
<path fill-rule="evenodd" clip-rule="evenodd" d="M250.262 3.96246C247.55 3.96246 244.956 5.07476 243.086 7.03977L239.266 11.054C237.514 12.8957 236.536 15.3406 236.536 17.8829V57.4557C236.536 62.9268 240.971 67.3619 246.442 67.3619H262.292V71.3244H246.442C238.783 71.3244 232.574 65.1152 232.574 57.4557V17.8829C232.574 14.3237 233.942 10.9008 236.396 8.32248L240.215 4.30823C242.833 1.55721 246.465 0 250.262 0H262.292V3.96246H250.262Z" fill="black"/>
<path fill-rule="evenodd" clip-rule="evenodd" d="M245.61 68.815L250.563 57.1753L254.209 58.7268L249.256 70.3666L245.61 68.815Z" fill="black"/>
<path fill-rule="evenodd" clip-rule="evenodd" d="M234.387 57.6526L244.788 50.1523L247.106 53.3664L236.704 60.8666L234.387 57.6526Z" fill="black"/>
<path fill-rule="evenodd" clip-rule="evenodd" d="M256.348 3.92972C250.877 3.92972 246.442 8.3282 246.442 13.754V45.683C246.442 51.1088 250.877 55.5073 256.348 55.5073H262.292V59.437H256.348C248.689 59.437 242.48 53.2791 242.48 45.683V13.754C242.48 6.15788 248.689 0 256.348 0H262.292V3.92972H256.348Z" fill="black"/>
<path fill-rule="evenodd" clip-rule="evenodd" d="M281.292 3.96246H262.292V0H281.292V3.96246Z" fill="black"/>
<path d="M274.845 26.4756C274.544 25.9208 274.108 25.5008 273.538 25.2155C272.983 24.9143 272.325 24.7638 271.564 24.7638C270.249 24.7638 269.195 25.1996 268.402 26.0714C267.61 26.9273 267.214 28.0764 267.214 29.5187C267.214 31.0562 267.626 32.2608 268.45 33.1325C269.29 33.9884 270.439 34.4163 271.897 34.4163C272.896 34.4163 273.736 34.1627 274.417 33.6555C275.115 33.1483 275.622 32.4192 275.939 31.4683H270.78V28.4726H279.624V32.2528C279.323 33.2672 278.808 34.2103 278.079 35.082C277.365 35.9538 276.454 36.6591 275.345 37.198C274.235 37.7369 272.983 38.0063 271.588 38.0063C269.94 38.0063 268.466 37.6497 267.166 36.9365C265.882 36.2074 264.876 35.2009 264.147 33.9171C263.433 32.6332 263.077 31.1671 263.077 29.5187C263.077 27.8703 263.433 26.4042 264.147 25.1204C264.876 23.8207 265.882 22.8142 267.166 22.101C268.45 21.3719 269.916 21.0074 271.564 21.0074C273.561 21.0074 275.242 21.4908 276.605 22.4576C277.984 23.4245 278.895 24.7638 279.339 26.4756H274.845Z" fill="black"/>
<path fill-rule="evenodd" clip-rule="evenodd" d="M281.292 59.7748H262.292V55.8124H281.292V59.7748Z" fill="black"/>
<path fill-rule="evenodd" clip-rule="evenodd" d="M281.292 71.6622H262.292V67.6997H281.292V71.6622Z" fill="black"/>
<path fill-rule="evenodd" clip-rule="evenodd" d="M293.322 3.96246C296.035 3.96246 298.628 5.07476 300.498 7.03977L304.318 11.054C306.071 12.8957 307.048 15.3406 307.048 17.8829V57.4557C307.048 62.9268 302.613 67.3619 297.142 67.3619H281.292V71.3244H297.142C304.801 71.3244 311.011 65.1152 311.011 57.4557V17.8829C311.011 14.3237 309.642 10.9008 307.189 8.32248L303.369 4.30823C300.751 1.55721 297.12 0 293.322 0H281.292V3.96246H293.322Z" fill="black"/>
<path fill-rule="evenodd" clip-rule="evenodd" d="M297.974 68.815L293.021 57.1753L289.375 58.7268L294.328 70.3666L297.974 68.815Z" fill="black"/>
<path fill-rule="evenodd" clip-rule="evenodd" d="M309.198 57.6526L298.796 50.1523L296.479 53.3664L306.88 60.8666L309.198 57.6526Z" fill="black"/>
<path fill-rule="evenodd" clip-rule="evenodd" d="M287.236 3.92972C292.707 3.92972 297.142 8.3282 297.142 13.754V45.683C297.142 51.1088 292.707 55.5073 287.236 55.5073H281.292V59.437H287.236C294.895 59.437 301.104 53.2791 301.104 45.683V13.754C301.104 6.15788 294.895 0 287.236 0H281.292V3.92972H287.236Z" fill="black"/>
</svg>
