<svg width="323" height="72" viewBox="0 0 323 72" fill="none" xmlns="http://www.w3.org/2000/svg">
<path fill-rule="evenodd" clip-rule="evenodd" d="M18.6832 3.96246C15.9707 3.96246 13.3768 5.07476 11.5069 7.03977L7.68699 11.054C5.93448 12.8957 4.95709 15.3406 4.95709 17.8829V57.4557C4.95709 62.9268 9.39223 67.3619 14.8633 67.3619H30.7131V71.3244H14.8633C7.20382 71.3244 0.994629 65.1152 0.994629 57.4557V17.8829C0.994629 14.3237 2.36297 10.9008 4.81649 8.32248L8.63641 4.30823C11.2542 1.55721 14.8857 0 18.6832 0H30.7131V3.96246H18.6832Z" fill="black"/>
<path fill-rule="evenodd" clip-rule="evenodd" d="M14.0308 68.815L18.9838 57.1753L22.6299 58.7268L17.6768 70.3666L14.0308 68.815Z" fill="black"/>
<path fill-rule="evenodd" clip-rule="evenodd" d="M2.80757 57.6526L13.2091 50.1523L15.5267 53.3664L5.12511 60.8666L2.80757 57.6526Z" fill="black"/>
<path fill-rule="evenodd" clip-rule="evenodd" d="M24.7694 3.92972C19.2984 3.92972 14.8632 8.3282 14.8632 13.754V45.683C14.8632 51.1088 19.2984 55.5073 24.7694 55.5073H30.7131V59.437H24.7694C17.11 59.437 10.9008 53.2791 10.9008 45.683V13.754C10.9008 6.15788 17.11 0 24.7694 0H30.7131V3.92972H24.7694Z" fill="black"/>
<path fill-rule="evenodd" clip-rule="evenodd" d="M97.7131 3.96246H30.7131V0H97.7131V3.96246Z" fill="black"/>
<path d="M38.226 38.0539C37.0055 38.0539 35.9119 37.8558 34.945 37.4595C33.9782 37.0633 33.2016 36.4768 32.6151 35.7002C32.0445 34.9235 31.7434 33.9884 31.7117 32.8947H36.0387C36.1021 33.5129 36.3161 33.9884 36.6806 34.3212C37.0452 34.6382 37.5206 34.7967 38.1071 34.7967C38.7094 34.7967 39.1849 34.662 39.5336 34.3926C39.8823 34.1073 40.0566 33.7189 40.0566 33.2276C40.0566 32.8155 39.914 32.4747 39.6287 32.2053C39.3592 31.9358 39.0185 31.7139 38.6064 31.5396C38.2101 31.3652 37.6395 31.1671 36.8946 30.9452C35.8168 30.6124 34.9371 30.2795 34.2556 29.9467C33.574 29.6138 32.9876 29.1225 32.4962 28.4726C32.0049 27.8228 31.7592 26.9748 31.7592 25.9287C31.7592 24.3754 32.3219 23.1629 33.4472 22.2912C34.5726 21.4036 36.0387 20.9598 37.8456 20.9598C39.6842 20.9598 41.1661 21.4036 42.2915 22.2912C43.4168 23.1629 44.0191 24.3834 44.0983 25.9525H39.7C39.6683 25.4136 39.4702 24.9936 39.1056 24.6924C38.7411 24.3754 38.2735 24.2169 37.7029 24.2169C37.2116 24.2169 36.8153 24.3517 36.5142 24.6211C36.213 24.8747 36.0625 25.2472 36.0625 25.7385C36.0625 26.2774 36.3161 26.6975 36.8233 26.9986C37.3305 27.2997 38.1229 27.6247 39.2007 27.9734C40.2785 28.3379 41.1503 28.6866 41.816 29.0195C42.4975 29.3523 43.084 29.8357 43.5753 30.4697C44.0666 31.1037 44.3123 31.92 44.3123 32.9185C44.3123 33.8695 44.0666 34.7333 43.5753 35.51C43.0998 36.2866 42.4024 36.9048 41.4831 37.3644C40.5638 37.8241 39.4781 38.0539 38.226 38.0539ZM61.2693 21.1975V37.8875H57.2038V31.0165H50.8797V37.8875H46.8142V21.1975H50.8797V27.7356H57.2038V21.1975H61.2693ZM68.2697 21.1975V37.8875H64.2042V21.1975H68.2697ZM82.081 21.1975V24.4547H75.2814V27.9734H80.3692V31.1354H75.2814V37.8875H71.2159V21.1975H82.081ZM96.224 21.1975V24.4547H91.8019V37.8875H87.7364V24.4547H83.3143V21.1975H96.224Z" fill="black"/>
<path fill-rule="evenodd" clip-rule="evenodd" d="M97.7131 59.7748H30.7131V55.8124H97.7131V59.7748Z" fill="black"/>
<path fill-rule="evenodd" clip-rule="evenodd" d="M97.7131 71.6622H30.7131V67.6997H97.7131V71.6622Z" fill="black"/>
<path fill-rule="evenodd" clip-rule="evenodd" d="M109.743 3.96246C112.456 3.96246 115.049 5.07476 116.919 7.03977L120.739 11.054C122.492 12.8957 123.469 15.3406 123.469 17.8829V57.4557C123.469 62.9268 119.034 67.3619 113.563 67.3619H97.7132V71.3244H113.563C121.222 71.3244 127.432 65.1152 127.432 57.4557V17.8829C127.432 14.3237 126.063 10.9008 123.61 8.32248L119.79 4.30823C117.172 1.55721 113.541 0 109.743 0H97.7132V3.96246H109.743Z" fill="black"/>
<path fill-rule="evenodd" clip-rule="evenodd" d="M114.395 68.815L109.442 57.1753L105.796 58.7268L110.749 70.3666L114.395 68.815Z" fill="black"/>
<path fill-rule="evenodd" clip-rule="evenodd" d="M125.619 57.6526L115.217 50.1523L112.9 53.3664L123.301 60.8666L125.619 57.6526Z" fill="black"/>
<path fill-rule="evenodd" clip-rule="evenodd" d="M103.657 3.92972C109.128 3.92972 113.563 8.3282 113.563 13.754V45.683C113.563 51.1088 109.128 55.5073 103.657 55.5073H97.7131V59.437H103.657C111.316 59.437 117.525 53.2791 117.525 45.683V13.754C117.525 6.15788 111.316 0 103.657 0H97.7131V3.92972H103.657Z" fill="black"/>
<path fill-rule="evenodd" clip-rule="evenodd" d="M160.97 3.96246C158.258 3.96246 155.664 5.07476 153.794 7.03977L149.974 11.054C148.221 12.8957 147.244 15.3406 147.244 17.8829V57.4557C147.244 62.9268 151.679 67.3619 157.15 67.3619H173V71.3244H157.15C149.491 71.3244 143.281 65.1152 143.281 57.4557V17.8829C143.281 14.3237 144.65 10.9008 147.103 8.32248L150.923 4.30823C153.541 1.55721 157.173 0 160.97 0H173V3.96246H160.97Z" fill="black"/>
<path fill-rule="evenodd" clip-rule="evenodd" d="M156.318 68.815L161.271 57.1753L164.917 58.7268L159.964 70.3666L156.318 68.815Z" fill="black"/>
<path fill-rule="evenodd" clip-rule="evenodd" d="M145.094 57.6526L155.496 50.1523L157.814 53.3664L147.412 60.8666L145.094 57.6526Z" fill="black"/>
<path fill-rule="evenodd" clip-rule="evenodd" d="M167.056 3.92972C161.585 3.92972 157.15 8.3282 157.15 13.754V45.683C157.15 51.1088 161.585 55.5073 167.056 55.5073H173V59.437H167.056C159.397 59.437 153.188 53.2791 153.188 45.683V13.754C153.188 6.15788 159.397 0 167.056 0H173V3.92972H167.056Z" fill="black"/>
<path fill-rule="evenodd" clip-rule="evenodd" d="M188 3.96246H173V0H188V3.96246Z" fill="black"/>
<path d="M186.528 31.3969H182.391V35.6288H178.54V31.3969H174.403V27.7594H178.54V23.5037H182.391V27.7594H186.528V31.3969Z" fill="black"/>
<path fill-rule="evenodd" clip-rule="evenodd" d="M188 59.7748H173V55.8124H188V59.7748Z" fill="black"/>
<path fill-rule="evenodd" clip-rule="evenodd" d="M188 71.6622H173V67.6997H188V71.6622Z" fill="black"/>
<path fill-rule="evenodd" clip-rule="evenodd" d="M200.03 3.96246C202.742 3.96246 205.336 5.07476 207.206 7.03977L211.026 11.054C212.779 12.8957 213.756 15.3406 213.756 17.8829V57.4557C213.756 62.9268 209.321 67.3619 203.85 67.3619H188V71.3244H203.85C211.509 71.3244 217.718 65.1152 217.718 57.4557V17.8829C217.718 14.3237 216.35 10.9008 213.897 8.32248L210.077 4.30823C207.459 1.55721 203.827 0 200.03 0H188V3.96246H200.03Z" fill="black"/>
<path fill-rule="evenodd" clip-rule="evenodd" d="M204.682 68.815L199.729 57.1753L196.083 58.7268L201.036 70.3666L204.682 68.815Z" fill="black"/>
<path fill-rule="evenodd" clip-rule="evenodd" d="M215.905 57.6526L205.504 50.1523L203.186 53.3664L213.588 60.8666L215.905 57.6526Z" fill="black"/>
<path fill-rule="evenodd" clip-rule="evenodd" d="M193.944 3.92972C199.415 3.92972 203.85 8.3282 203.85 13.754V45.683C203.85 51.1088 199.415 55.5073 193.944 55.5073H188V59.437H193.944C201.603 59.437 207.812 53.2791 207.812 45.683V13.754C207.812 6.15788 201.603 0 193.944 0H188V3.92972H193.944Z" fill="black"/>
<path fill-rule="evenodd" clip-rule="evenodd" d="M251.257 3.96246C248.544 3.96246 245.95 5.07476 244.081 7.03977L240.261 11.054C238.508 12.8957 237.531 15.3406 237.531 17.8829V57.4557C237.531 62.9268 241.966 67.3619 247.437 67.3619H263.287V71.3244H247.437C239.777 71.3244 233.568 65.1152 233.568 57.4557V17.8829C233.568 14.3237 234.937 10.9008 237.39 8.32248L241.21 4.30823C243.828 1.55721 247.459 0 251.257 0H263.287V3.96246H251.257Z" fill="black"/>
<path fill-rule="evenodd" clip-rule="evenodd" d="M246.604 68.815L251.558 57.1753L255.204 58.7268L250.251 70.3666L246.604 68.815Z" fill="black"/>
<path fill-rule="evenodd" clip-rule="evenodd" d="M235.381 57.6526L245.783 50.1523L248.1 53.3664L237.699 60.8666L235.381 57.6526Z" fill="black"/>
<path fill-rule="evenodd" clip-rule="evenodd" d="M257.343 3.92972C251.872 3.92972 247.437 8.3282 247.437 13.754V45.683C247.437 51.1088 251.872 55.5073 257.343 55.5073H263.287V59.437H257.343C249.684 59.437 243.474 53.2791 243.474 45.683V13.754C243.474 6.15788 249.684 0 257.343 0H263.287V3.92972H257.343Z" fill="black"/>
<path fill-rule="evenodd" clip-rule="evenodd" d="M292.287 3.96246H263.287V0H292.287V3.96246Z" fill="black"/>
<path d="M275.626 21.1975V24.4547H268.826V27.9734H273.914V31.1354H268.826V37.8875H264.761V21.1975H275.626ZM285.941 25.2155C285.814 24.629 285.593 24.1932 285.276 23.9079C284.959 23.6067 284.507 23.4562 283.92 23.4562C283.017 23.4562 282.367 23.8524 281.971 24.6449C281.575 25.4215 281.369 26.6578 281.353 28.3538C281.701 27.799 282.201 27.3631 282.85 27.0461C283.516 26.7292 284.245 26.5707 285.038 26.5707C286.591 26.5707 287.835 27.062 288.77 28.0447C289.721 29.0274 290.197 30.3984 290.197 32.1577C290.197 33.3148 289.959 34.3292 289.484 35.2009C289.024 36.0726 288.342 36.7542 287.439 37.2455C286.551 37.7369 285.497 37.9826 284.277 37.9826C281.836 37.9826 280.14 37.2218 279.189 35.7002C278.238 34.1627 277.763 31.9596 277.763 29.0908C277.763 26.0793 278.262 23.8445 279.26 22.3863C280.275 20.9123 281.892 20.1752 284.111 20.1752C285.299 20.1752 286.298 20.413 287.106 20.8885C287.93 21.3481 288.549 21.9583 288.961 22.7191C289.389 23.4799 289.642 24.312 289.721 25.2155H285.941ZM284.063 29.7802C283.381 29.7802 282.811 29.9863 282.351 30.3984C281.907 30.7946 281.686 31.3652 281.686 32.1102C281.686 32.871 281.892 33.4653 282.304 33.8933C282.732 34.3212 283.334 34.5352 284.111 34.5352C284.808 34.5352 285.355 34.3292 285.751 33.9171C286.163 33.4891 286.369 32.9106 286.369 32.1815C286.369 31.4366 286.171 30.8501 285.775 30.4222C285.379 29.9942 284.808 29.7802 284.063 29.7802Z" fill="black"/>
<path fill-rule="evenodd" clip-rule="evenodd" d="M292.287 59.7748H263.287V55.8124H292.287V59.7748Z" fill="black"/>
<path fill-rule="evenodd" clip-rule="evenodd" d="M292.287 71.6622H263.287V67.6997H292.287V71.6622Z" fill="black"/>
<path fill-rule="evenodd" clip-rule="evenodd" d="M304.317 3.96246C307.029 3.96246 309.623 5.07476 311.493 7.03977L315.313 11.054C317.065 12.8957 318.043 15.3406 318.043 17.8829V57.4557C318.043 62.9268 313.608 67.3619 308.137 67.3619H292.287V71.3244H308.137C315.796 71.3244 322.005 65.1152 322.005 57.4557V17.8829C322.005 14.3237 320.637 10.9008 318.183 8.32248L314.363 4.30823C311.746 1.55721 308.114 0 304.317 0H292.287V3.96246H304.317Z" fill="black"/>
<path fill-rule="evenodd" clip-rule="evenodd" d="M308.969 68.815L304.016 57.1753L300.37 58.7268L305.323 70.3666L308.969 68.815Z" fill="black"/>
<path fill-rule="evenodd" clip-rule="evenodd" d="M320.192 57.6526L309.791 50.1523L307.473 53.3664L317.875 60.8666L320.192 57.6526Z" fill="black"/>
<path fill-rule="evenodd" clip-rule="evenodd" d="M298.23 3.92972C303.701 3.92972 308.137 8.3282 308.137 13.754V45.683C308.137 51.1088 303.701 55.5073 298.23 55.5073H292.287V59.437H298.23C305.89 59.437 312.099 53.2791 312.099 45.683V13.754C312.099 6.15788 305.89 0 298.23 0H292.287V3.92972H298.23Z" fill="black"/>
</svg>
