<svg width="36" height="24" viewBox="0 0 36 24" fill="none" xmlns="http://www.w3.org/2000/svg">
<path opacity="0.5" fill-rule="evenodd" clip-rule="evenodd" d="M26.7038 0.945312C31.6198 0.945312 35.6051 4.50355 35.6051 8.89287C35.6051 13.2822 31.6198 16.8404 26.7038 16.8404H12.4618C9.51215 16.8404 7.12101 14.7055 7.12101 12.0719C7.12101 9.4383 9.51215 7.30336 12.4618 7.30336H26.7038C27.687 7.30336 28.484 8.01501 28.484 8.89287C28.484 9.77073 27.687 10.4824 26.7038 10.4824H12.4618L12.2542 10.4931C11.3688 10.5849 10.6815 11.2567 10.6815 12.0719C10.6815 12.887 11.3688 13.5589 12.2542 13.6507L12.4618 13.6614H26.7038C29.6534 13.6614 32.0445 11.5265 32.0445 8.89287C32.0445 6.25928 29.6534 4.12434 26.7038 4.12434H12.4618C7.54574 4.12434 3.56051 7.68258 3.56051 12.0719C3.56051 16.3457 7.33875 19.8316 12.0757 20.0121L12.4618 20.0194H26.7038C27.687 20.0194 28.484 20.7311 28.484 21.609C28.484 22.4868 27.687 23.1985 26.7038 23.1985H12.4618C5.57932 23.1985 0 18.2169 0 12.0719C0 5.92685 5.57932 0.945312 12.4618 0.945312H26.7038Z" fill="#EAEAEA"/>
</svg>
