<svg width="980" height="574" viewBox="0 0 980 574" fill="none" xmlns="http://www.w3.org/2000/svg">
<rect x="428.938" y="91.6091" width="348" height="168" rx="15.5" transform="rotate(-15.0729 428.938 91.6091)" stroke="white"/>
<path d="M527.714 145.938L524.933 146.687L519.987 128.321L508.922 131.301L513.867 149.667L511.086 150.415L505.485 129.616L522.113 125.139L527.714 145.938ZM530.704 131.121L530.762 131.105C530.843 130.711 530.952 130.309 531.134 129.949C531.309 129.56 531.558 129.213 531.864 128.851C532.157 128.555 532.508 128.243 532.969 127.995C533.394 127.725 533.929 127.519 534.537 127.355C535.348 127.137 536.169 127.071 537.008 127.187C537.847 127.302 538.609 127.594 539.353 128.047C540.103 128.528 540.778 129.185 541.346 130.027C541.951 130.889 542.413 131.914 542.749 133.16C543.17 134.724 543.376 136.066 543.354 137.253C543.331 138.44 543.131 139.426 542.71 140.285C542.318 141.136 541.755 141.816 541.03 142.353C540.275 142.897 539.416 143.284 538.403 143.557C537.91 143.69 537.431 143.757 536.957 143.729C536.492 143.73 536.039 143.665 535.658 143.519C535.227 143.418 534.875 143.264 534.573 143.066C534.271 142.868 533.998 142.661 533.82 142.461L533.762 142.477L535.829 150.153L533.222 150.855L527.536 129.737L530.143 129.035L530.704 131.121ZM532.144 136.698C532.37 137.539 532.652 138.239 532.984 138.896C533.345 139.544 533.741 140.09 534.229 140.518C534.68 140.924 535.224 141.213 535.823 141.362C536.394 141.519 537.012 141.508 537.707 141.321C538.431 141.126 539.001 140.817 539.473 140.379C539.917 139.949 540.213 139.435 540.428 138.849C540.635 138.234 540.703 137.563 540.69 136.821C540.647 136.087 540.539 135.339 540.313 134.499C540.079 133.63 539.789 132.9 539.45 132.215C539.081 131.537 538.685 130.991 538.197 130.564C537.709 130.136 537.194 129.839 536.595 129.69C535.967 129.549 535.319 129.568 534.595 129.763C533.9 129.95 533.359 130.251 532.945 130.673C532.502 131.103 532.176 131.626 531.998 132.233C531.791 132.848 531.723 133.519 531.744 134.29C531.794 135.053 531.91 135.829 532.144 136.698ZM544.973 129.92C544.752 128.985 544.715 128.156 544.862 127.433C545.009 126.71 545.304 126.072 545.753 125.547C546.194 124.993 546.753 124.532 547.459 124.155C548.166 123.778 548.953 123.473 549.852 123.231C550.576 123.036 551.316 122.899 552.058 122.886C552.792 122.844 553.463 122.912 554.078 123.119C554.714 123.289 555.273 123.636 555.732 124.071C556.22 124.499 556.544 125.126 556.747 125.88L559.118 134.686C559.181 134.918 559.301 135.134 559.493 135.269C559.655 135.411 559.911 135.436 560.2 135.358C560.316 135.327 560.453 135.259 560.59 135.191C560.735 135.152 560.872 135.084 561.009 135.016L561.493 136.812C561.306 136.924 561.089 137.045 560.894 137.128C560.707 137.241 560.454 137.34 560.165 137.418C559.701 137.543 559.309 137.586 558.975 137.614C558.604 137.621 558.312 137.575 558.033 137.464C557.784 137.344 557.547 137.159 557.325 136.909C557.139 136.679 556.987 136.347 556.82 135.957C556.595 136.391 556.333 136.803 556.063 137.186C555.802 137.598 555.466 137.968 555.057 138.296C554.685 138.645 554.24 138.951 553.728 139.244C553.209 139.508 552.616 139.73 551.921 139.917C551.342 140.073 550.768 140.134 550.163 140.08C549.566 140.054 548.966 139.905 548.438 139.674C547.902 139.415 547.43 139.045 547.021 138.565C546.591 138.121 546.303 137.515 546.108 136.791C545.898 136.009 545.834 135.311 545.968 134.654C546.073 134.004 546.295 133.447 546.6 132.962C546.925 132.439 547.347 132.046 547.835 131.666C548.331 131.315 548.85 131.051 549.377 130.816L553.495 129.148C553.893 129.009 554.165 128.75 554.326 128.427C554.48 128.075 554.487 127.638 554.323 127.029C554.073 126.102 553.612 125.543 552.894 125.301C552.177 125.06 551.282 125.083 550.152 125.387C548.994 125.699 548.224 126.186 547.769 126.806C547.351 127.446 547.199 128.264 547.406 129.265L544.973 129.92ZM555.138 130.29C554.975 130.489 554.745 130.675 554.487 130.869C554.191 131.042 553.867 131.222 553.535 131.374C553.182 131.562 552.792 131.729 552.394 131.867L551.195 132.376C550.755 132.588 550.336 132.763 549.97 133.017C549.624 133.234 549.324 133.502 549.081 133.754C548.817 134.042 548.684 134.358 548.581 134.665C548.514 134.994 548.513 135.336 548.614 135.712C548.731 136.147 548.89 136.508 549.129 136.816C549.359 137.096 549.611 137.339 549.927 137.472C550.221 137.641 550.557 137.737 550.907 137.767C551.286 137.789 551.678 137.746 552.084 137.636C552.344 137.566 552.626 137.459 552.921 137.287C553.253 137.135 553.557 136.991 553.865 136.753C554.211 136.536 554.482 136.276 554.783 136.009C555.047 135.72 555.303 135.402 555.494 135.072C555.677 134.712 555.801 134.367 555.874 133.944C555.925 133.557 555.911 133.157 555.794 132.723L555.138 130.29ZM564.454 127.657L570.128 118.269L573.547 117.348L568.222 125.959L577.742 132.468L574.382 133.372L566.624 128.098L565.141 130.206L566.56 135.478L563.953 136.18L559.874 121.03L562.481 120.328L564.454 127.657ZM574.556 117.076L587.592 113.566L588.2 115.826L582.986 117.23L586.457 130.121L583.85 130.823L580.379 117.932L575.165 119.336L574.556 117.076ZM595.963 123.771L596.021 123.755L600.338 110.135L603.322 109.331L607.401 124.482L604.765 125.191L601.637 113.575L601.579 113.591L597.291 127.204L594.308 128.007L590.228 112.857L592.835 112.155L595.963 123.771ZM611.697 114.936L617.372 105.548L620.79 104.628L615.466 113.238L624.985 119.747L621.625 120.652L613.867 115.377L612.384 117.485L613.803 122.758L611.196 123.46L607.117 108.309L609.724 107.607L611.697 114.936ZM631.611 114.949L631.669 114.934L632.373 101.509L635.241 100.737L633.69 118.055C633.611 118.916 633.538 119.681 633.433 120.331C633.357 120.972 633.266 121.556 633.114 122.032C632.992 122.5 632.846 122.881 632.684 123.204C632.523 123.527 632.288 123.808 632.066 124.023C631.786 124.254 631.528 124.447 631.159 124.578C630.827 124.729 630.429 124.868 629.966 124.992C629.589 125.094 629.292 125.143 629.081 125.168C628.842 125.202 628.631 125.227 628.471 125.208L627.839 122.862C628.028 122.873 628.276 122.869 628.552 122.856C628.828 122.844 629.155 122.787 629.444 122.709C629.908 122.585 630.282 122.36 630.509 122.05C630.766 121.732 630.883 121.359 630.939 120.878L631.202 118.508L621.394 104.465L624.262 103.693L631.611 114.949ZM641.802 105.836L644.728 105.048C644.534 103.982 644.53 102.927 644.651 101.993C644.802 101.052 645.099 100.195 645.543 99.4228C645.996 98.6796 646.566 98.0289 647.292 97.4919C648.046 96.947 648.905 96.5604 649.919 96.2874C651.02 95.991 652.051 95.8996 653.022 96.0422C653.992 96.1848 654.894 96.5323 655.689 97.0638C656.485 97.5952 657.145 98.3183 657.758 99.2096C658.342 100.109 658.783 101.171 659.119 102.416C659.454 103.662 659.606 104.802 659.56 105.901C659.478 106.98 659.269 107.937 658.848 108.796C658.427 109.655 657.822 110.408 657.054 111.019C656.287 111.629 655.349 112.068 654.248 112.365C653.205 112.646 652.268 112.743 651.334 112.621C650.408 112.529 649.559 112.26 648.779 111.787C648.007 111.342 647.341 110.714 646.73 109.946C646.141 109.142 645.644 108.219 645.29 107.134L642.364 107.922L644.158 114.584L641.551 115.286L637.471 100.136L640.078 99.434L641.802 105.836ZM656.512 103.118C656.285 102.278 655.959 101.527 655.598 100.879C655.237 100.23 654.783 99.6999 654.266 99.2799C653.757 98.8889 653.184 98.6081 652.556 98.4666C651.928 98.3251 651.251 98.3519 650.527 98.5469C649.803 98.7419 649.205 99.0583 648.732 99.4962C648.26 99.9341 647.906 100.464 647.662 101.058C647.425 101.681 647.3 102.367 647.313 103.11C647.326 103.852 647.421 104.665 647.647 105.505C647.873 106.345 648.2 107.096 648.561 107.744C648.93 108.422 649.383 108.952 649.9 109.372C650.409 109.763 650.982 110.044 651.61 110.185C652.239 110.327 652.915 110.3 653.639 110.105C654.364 109.91 654.962 109.594 655.434 109.156C655.907 108.718 656.261 108.188 656.505 107.594C656.741 106.971 656.867 106.285 656.846 105.514C656.832 104.772 656.738 103.958 656.512 103.118ZM660.018 94.0652L662.625 93.3632L666.096 106.254L671.542 104.788L668.071 91.8968L670.678 91.1948L674.149 104.086L679.595 102.619L676.124 89.7284L678.731 89.0264L682.202 101.917L684.085 101.41L685.692 107.378L683.259 108.033L682.26 104.325L664.097 109.216L660.018 94.0652ZM688.695 98.8019L688.753 98.7863L693.07 85.1655L696.054 84.3621L700.134 99.5125L697.497 100.222L694.37 88.606L694.312 88.6216L690.024 102.235L687.04 103.038L682.961 87.8877L685.568 87.1857L688.695 98.8019ZM715.517 90.1819C715.609 90.8716 715.549 91.5713 715.373 92.3022C715.197 93.0331 714.882 93.7083 714.435 94.3568C714.025 95.0264 713.468 95.6113 712.793 96.1038C712.097 96.6331 711.267 97.0119 710.34 97.2615C709.326 97.5345 708.352 97.6103 707.397 97.5256C706.434 97.412 705.549 97.1224 704.753 96.5909C703.936 96.0963 703.218 95.3888 702.597 94.4685C701.948 93.556 701.446 92.3861 701.08 91.0246C700.83 90.0976 700.691 89.2342 700.72 88.4186C700.72 87.6108 700.801 86.8743 700.993 86.2014C701.184 85.5284 701.449 84.8978 701.767 84.3463C702.113 83.7869 702.483 83.3145 702.927 82.8844C703.349 82.4911 703.816 82.1479 704.298 81.8627C704.781 81.5775 705.286 81.3791 705.779 81.2465C706.822 80.9657 707.788 80.861 708.743 80.9456C709.697 81.0303 710.546 81.2988 711.355 81.7645C712.135 82.238 712.817 82.9243 713.443 83.7499C714.027 84.649 714.505 85.732 714.848 87.0066L715.199 88.3101L704.133 91.2897C704.328 92.0139 704.624 92.649 704.99 93.2027C705.328 93.7643 705.75 94.1787 706.244 94.5118C706.708 94.8528 707.258 95.0466 707.842 95.138C708.425 95.2293 709.036 95.1892 709.702 95.0098C710.368 94.8304 710.924 94.5875 711.333 94.2599C711.75 93.9613 712.064 93.6282 712.297 93.2237C712.538 92.8482 712.684 92.4672 712.793 92.0649C712.894 91.6338 712.945 91.2471 712.997 90.8605L715.517 90.1819ZM712.031 86.9264C711.807 86.21 711.511 85.5749 711.182 85.0424C710.794 84.5254 710.379 84.1399 709.923 83.828C709.474 83.545 708.932 83.3801 708.377 83.2809C707.801 83.2186 707.227 83.2799 706.59 83.4514C706.011 83.6074 705.491 83.8715 705.061 84.2359C704.602 84.608 704.254 85.0437 703.986 85.5506C703.719 86.0576 703.562 86.628 703.478 87.2408C703.403 87.8826 703.421 88.5299 703.572 89.204L712.031 86.9264ZM577.655 172.031L577.713 172.015L578.423 158.496L581.986 157.536L586.065 172.687L583.632 173.342L580.348 161.146L580.29 161.162L579.576 174.434L577.085 175.105L569.803 163.985L569.746 164.001L573.029 176.197L570.596 176.852L566.517 161.702L570.311 160.68L577.655 172.031ZM601.478 163.348C601.57 164.038 601.51 164.738 601.334 165.469C601.158 166.199 600.843 166.875 600.396 167.523C599.986 168.193 599.429 168.778 598.754 169.27C598.057 169.799 597.227 170.178 596.3 170.428C595.286 170.701 594.313 170.777 593.358 170.692C592.395 170.578 591.509 170.289 590.714 169.757C589.897 169.263 589.178 168.555 588.558 167.635C587.908 166.722 587.407 165.553 587.04 164.191C586.791 163.264 586.651 162.401 586.68 161.585C586.68 160.777 586.762 160.041 586.953 159.368C587.145 158.695 587.41 158.064 587.727 157.513C588.074 156.953 588.444 156.481 588.887 156.051C589.31 155.658 589.776 155.314 590.259 155.029C590.741 154.744 591.247 154.546 591.739 154.413C592.782 154.132 593.748 154.027 594.703 154.112C595.658 154.197 596.507 154.465 597.316 154.931C598.096 155.404 598.778 156.091 599.404 156.916C599.988 157.815 600.466 158.898 600.809 160.173L601.16 161.477L590.094 164.456C590.289 165.18 590.584 165.815 590.951 166.369C591.289 166.931 591.711 167.345 592.204 167.678C592.669 168.019 593.218 168.213 593.802 168.304C594.386 168.396 594.997 168.356 595.663 168.176C596.329 167.997 596.885 167.754 597.294 167.426C597.711 167.128 598.025 166.795 598.258 166.39C598.498 166.015 598.644 165.634 598.753 165.231C598.855 164.8 598.906 164.414 598.957 164.027L601.478 163.348ZM597.991 160.093C597.767 159.376 597.472 158.741 597.142 158.209C596.754 157.692 596.34 157.306 595.883 156.994C595.434 156.711 594.893 156.546 594.338 156.447C593.762 156.385 593.188 156.446 592.551 156.618C591.971 156.774 591.452 157.038 591.022 157.402C590.563 157.774 590.214 158.21 589.947 158.717C589.68 159.224 589.522 159.794 589.439 160.407C589.363 161.049 589.382 161.696 589.533 162.37L597.991 160.093ZM606.159 157.583L613.228 155.68L611.582 149.567L614.189 148.865L618.268 164.016L615.661 164.718L613.836 157.939L606.768 159.842L608.593 166.621L605.986 167.323L601.907 152.172L604.514 151.47L606.159 157.583ZM616.815 148.158L629.851 144.648L630.46 146.908L625.245 148.312L628.716 161.202L626.109 161.904L622.638 149.014L617.424 150.418L616.815 148.158ZM647.704 147.95C648.039 149.196 648.191 150.335 648.116 151.443C648.063 152.514 647.854 153.471 647.433 154.33C647.012 155.189 646.407 155.942 645.639 156.553C644.872 157.163 643.934 157.602 642.833 157.899C641.732 158.195 640.7 158.286 639.73 158.144C638.759 158.001 637.887 157.646 637.091 157.114C636.296 156.583 635.606 155.868 635.022 154.969C634.431 154.04 633.96 152.986 633.625 151.741C633.29 150.495 633.167 149.348 633.221 148.277C633.274 147.206 633.511 146.241 633.932 145.382C634.354 144.523 634.93 143.778 635.697 143.167C636.465 142.557 637.403 142.118 638.504 141.821C639.605 141.525 640.636 141.433 641.607 141.576C642.577 141.719 643.479 142.066 644.274 142.598C645.07 143.129 645.73 143.852 646.314 144.751C646.927 145.643 647.368 146.704 647.704 147.95ZM645.097 148.652C644.87 147.812 644.573 147.053 644.183 146.413C643.822 145.764 643.368 145.234 642.851 144.814C642.342 144.423 641.769 144.142 641.141 144C640.513 143.859 639.836 143.886 639.112 144.081C638.388 144.276 637.79 144.592 637.317 145.03C636.845 145.468 636.491 145.998 636.247 146.592C636.01 147.215 635.885 147.901 635.898 148.643C635.882 149.393 636.006 150.199 636.232 151.039C636.458 151.879 636.756 152.638 637.146 153.278C637.515 153.956 637.968 154.486 638.485 154.906C638.994 155.297 639.567 155.578 640.195 155.719C640.824 155.861 641.5 155.834 642.224 155.639C642.949 155.444 643.547 155.128 644.019 154.69C644.492 154.252 644.846 153.722 645.09 153.128C645.326 152.505 645.452 151.818 645.431 151.047C645.446 150.298 645.323 149.492 645.097 148.652ZM651.608 141.027L651.666 141.011C651.746 140.617 651.855 140.215 652.038 139.855C652.213 139.466 652.461 139.119 652.768 138.757C653.061 138.461 653.412 138.149 653.873 137.9C654.297 137.631 654.832 137.425 655.44 137.261C656.252 137.042 657.073 136.977 657.912 137.093C658.751 137.208 659.513 137.5 660.256 137.953C661.007 138.434 661.681 139.091 662.249 139.932C662.854 140.795 663.317 141.82 663.652 143.065C664.073 144.63 664.279 145.972 664.257 147.159C664.235 148.346 664.034 149.332 663.613 150.191C663.221 151.042 662.658 151.721 661.933 152.259C661.179 152.803 660.32 153.19 659.306 153.463C658.814 153.596 658.334 153.662 657.861 153.635C657.395 153.636 656.943 153.571 656.562 153.425C656.131 153.324 655.778 153.17 655.477 152.972C655.175 152.773 654.902 152.567 654.723 152.367L654.665 152.382L656.732 160.059L654.125 160.761L648.439 139.643L651.046 138.941L651.608 141.027ZM653.047 146.604C653.274 147.444 653.556 148.145 653.888 148.801C654.249 149.45 654.644 149.996 655.132 150.424C655.583 150.83 656.127 151.119 656.727 151.268C657.297 151.425 657.915 151.414 658.611 151.227C659.335 151.032 659.904 150.723 660.377 150.285C660.82 149.855 661.116 149.341 661.331 148.754C661.539 148.139 661.607 147.469 661.593 146.727C661.551 145.992 661.443 145.245 661.217 144.405C660.983 143.536 660.693 142.806 660.353 142.121C659.984 141.443 659.589 140.897 659.101 140.47C658.613 140.042 658.098 139.745 657.498 139.596C656.87 139.455 656.223 139.474 655.498 139.669C654.803 139.856 654.263 140.157 653.848 140.579C653.405 141.009 653.08 141.532 652.901 142.139C652.694 142.754 652.626 143.425 652.647 144.196C652.698 144.959 652.813 145.735 653.047 146.604ZM668.824 140.275L673.372 139.05C674.183 138.832 674.968 138.745 675.689 138.768C676.388 138.828 677.025 138.999 677.597 139.28C678.141 139.568 678.65 139.959 679.038 140.476C679.426 140.993 679.721 141.628 679.916 142.352C680.111 143.077 680.174 143.774 680.099 144.416C680.023 145.058 679.779 145.651 679.454 146.174C679.099 146.704 678.635 147.171 678.06 147.575C677.448 147.957 676.726 148.275 675.915 148.494L668.76 150.42L664.681 135.27L667.288 134.568L668.824 140.275ZM685.851 145.818L683.244 146.52L679.165 131.37L681.772 130.668L685.851 145.818ZM674.832 146.548C675.296 146.424 675.693 146.285 676.068 146.06C676.421 145.872 676.729 145.634 676.957 145.324C677.163 145.051 677.324 144.728 677.376 144.341C677.464 143.976 677.441 143.547 677.309 143.054C677.184 142.591 676.988 142.209 676.72 141.908C676.49 141.628 676.18 141.401 675.836 141.276C675.463 141.159 675.068 141.079 674.61 141.109C674.181 141.131 673.702 141.198 673.181 141.339L669.386 142.36L670.805 147.633L674.832 146.548Z" fill="white"/>
<rect x="263.365" y="228.481" width="348" height="168" rx="15.5" transform="rotate(5.74516 263.365 228.481)" stroke="white"/>
<path d="M338.105 303.179C338.011 304.104 337.829 305.021 337.53 305.895C337.257 306.802 336.901 307.641 336.429 308.438C335.957 309.234 335.431 309.965 334.792 310.625C334.153 311.284 333.403 311.842 332.576 312.271C331.746 312.73 330.838 313.061 329.823 313.26C328.808 313.459 327.718 313.5 326.524 313.38C325.36 313.263 324.271 313.002 323.316 312.605C322.391 312.21 321.537 311.702 320.815 311.087C320.12 310.504 319.497 309.808 319.002 309.035C318.477 308.258 318.077 307.434 317.803 306.562C317.5 305.687 317.318 304.795 317.202 303.848C317.113 302.935 317.117 302 317.21 301.075C317.379 299.404 317.768 297.935 318.386 296.58C319.002 295.255 319.809 294.131 320.774 293.233C321.769 292.338 322.951 291.673 324.289 291.265C325.659 290.83 327.149 290.709 328.79 290.874C330.432 291.039 331.898 291.458 333.124 292.155C334.383 292.824 335.38 293.708 336.176 294.784C336.972 295.859 337.509 297.119 337.848 298.54C338.184 299.991 338.273 301.507 338.105 303.179ZM335.239 302.89C335.365 301.637 335.306 300.425 335.086 299.317C334.866 298.21 334.452 297.233 333.903 296.394C333.325 295.552 332.579 294.874 331.696 294.363C330.786 293.819 329.732 293.502 328.538 293.381C327.344 293.261 326.248 293.362 325.248 293.713C324.281 294.038 323.415 294.554 322.71 295.267C321.975 295.977 321.374 296.851 320.938 297.893C320.501 298.934 320.202 300.11 320.076 301.364C319.943 302.677 319.972 303.886 320.166 304.961C320.386 306.068 320.77 307.042 321.319 307.881C321.868 308.72 322.617 309.368 323.497 309.909C324.41 310.423 325.493 310.744 326.777 310.873C328.06 311.002 329.186 310.904 330.183 310.583C331.183 310.231 332.046 309.745 332.751 309.032C333.456 308.319 333.997 307.439 334.404 306.394C334.837 305.383 335.107 304.204 335.239 302.89ZM343.793 305.169L351.077 305.902L351.711 299.604L354.397 299.875L352.825 315.486L350.139 315.215L350.842 308.231L343.559 307.497L342.856 314.482L340.169 314.211L341.741 298.6L344.428 298.871L343.793 305.169ZM362.132 306.805C361.883 308.679 361.574 310.246 361.209 311.476C360.841 312.735 360.44 313.72 359.944 314.454C359.478 315.191 358.917 315.677 358.316 315.948C357.719 316.19 357.045 316.303 356.298 316.227C356.03 316.2 355.797 316.117 355.624 316.039C355.424 315.928 355.284 315.824 355.173 315.722L355.411 313.364C355.784 313.552 356.106 313.645 356.405 313.675C356.613 313.696 356.825 313.688 357.011 313.646C357.199 313.574 357.39 313.473 357.587 313.312C357.757 313.118 357.963 312.867 358.149 312.524C358.304 312.178 358.501 311.716 358.678 311.16C358.825 310.602 359.013 309.928 359.154 309.128C359.298 308.298 359.454 307.349 359.598 306.218L360.297 300.469L371.521 301.599L369.949 317.21L367.262 316.94L368.6 303.657L362.63 303.056L362.132 306.805ZM374.965 306.68C375.091 305.727 375.352 304.94 375.746 304.316C376.141 303.692 376.642 303.2 377.249 302.869C377.858 302.508 378.545 302.276 379.339 302.175C380.133 302.074 380.978 302.069 381.903 302.162C382.649 302.237 383.389 302.372 384.088 302.623C384.789 302.845 385.392 303.146 385.893 303.559C386.427 303.944 386.827 304.467 387.101 305.037C387.405 305.611 387.485 306.312 387.407 307.088L386.493 316.162C386.469 316.401 386.505 316.646 386.636 316.84C386.738 317.031 386.967 317.145 387.266 317.175C387.385 317.187 387.537 317.172 387.69 317.157C387.839 317.172 387.991 317.157 388.143 317.143L387.957 318.993C387.742 319.032 387.497 319.068 387.285 319.076C387.07 319.115 386.799 319.118 386.5 319.088C386.023 319.04 385.641 318.941 385.318 318.848C384.969 318.723 384.713 318.576 384.492 318.373C384.301 318.173 384.146 317.916 384.027 317.602C383.934 317.322 383.911 316.958 383.893 316.534C383.529 316.859 383.137 317.151 382.749 317.414C382.358 317.706 381.913 317.932 381.414 318.093C380.943 318.287 380.417 318.415 379.835 318.507C379.256 318.569 378.623 318.566 377.907 318.494C377.31 318.434 376.751 318.287 376.205 318.021C375.656 317.785 375.149 317.432 374.737 317.029C374.329 316.596 374.019 316.082 373.807 315.488C373.563 314.921 373.509 314.252 373.585 313.506C373.666 312.7 373.854 312.025 374.213 311.458C374.542 310.888 374.948 310.447 375.405 310.101C375.895 309.728 376.429 309.511 377.02 309.329C377.608 309.177 378.188 309.115 378.764 309.082L383.206 308.987C383.627 308.999 383.973 308.853 384.239 308.608C384.508 308.334 384.669 307.928 384.732 307.301C384.828 306.346 384.596 305.659 384.011 305.178C383.427 304.697 382.582 304.401 381.418 304.284C380.224 304.164 379.331 304.345 378.686 304.763C378.068 305.213 377.635 305.923 377.473 306.932L374.965 306.68ZM384.336 310.638C384.112 310.767 383.831 310.859 383.521 310.948C383.183 311.005 382.816 311.058 382.452 311.082C382.055 311.132 381.631 311.15 381.21 311.138L379.909 311.188C379.422 311.229 378.968 311.244 378.535 311.351C378.135 311.431 377.759 311.574 377.443 311.723C377.093 311.899 376.857 312.147 376.651 312.397C376.472 312.681 376.349 313 376.31 313.388C376.265 313.836 376.286 314.23 376.399 314.603C376.515 314.947 376.664 315.263 376.912 315.499C377.126 315.762 377.407 315.971 377.723 316.123C378.069 316.279 378.451 316.378 378.869 316.42C379.138 316.447 379.439 316.447 379.777 316.391C380.141 316.367 380.475 316.34 380.848 316.227C381.248 316.147 381.595 316.001 381.971 315.858C382.32 315.682 382.673 315.476 382.969 315.235C383.267 314.963 383.506 314.686 383.724 314.316C383.91 313.972 384.038 313.593 384.083 313.146L384.336 310.638ZM396.872 298.031C396.928 298.67 397.149 299.174 397.501 299.572C397.883 299.972 398.459 300.241 399.205 300.316C400.011 300.397 400.626 300.278 401.05 299.959C401.474 299.64 401.794 299.16 401.976 298.545L404.454 298.794C404.397 299.361 404.223 299.887 403.936 300.34C403.619 300.791 403.252 301.146 402.801 301.432C402.29 301.712 401.756 301.93 401.111 302.046C400.466 302.162 399.771 302.182 399.024 302.107C398.308 302.035 397.631 301.876 397.022 301.634C396.443 301.395 395.93 301.102 395.515 300.729C395.133 300.328 394.844 299.907 394.623 299.403C394.43 298.931 394.364 298.381 394.395 297.781L396.872 298.031ZM393.534 315.906L393.594 315.912L402.47 304.715L405.545 305.025L403.973 320.636L401.257 320.363L402.462 308.393L402.402 308.387L393.556 319.587L390.481 319.278L392.053 303.666L394.74 303.937L393.534 315.906ZM411.508 311.987L418.791 312.721L419.425 306.423L422.111 306.693L420.539 322.304L417.853 322.034L418.556 315.049L411.273 314.316L410.57 321.3L407.883 321.03L409.455 305.419L412.142 305.689L411.508 311.987ZM431.766 316.409L424.453 315.673L424.727 312.957L432.04 313.693L431.766 316.409ZM443.643 322.731C443.323 323.211 442.986 323.569 442.657 323.838C442.329 324.106 441.973 324.342 441.63 324.458C441.254 324.601 440.913 324.687 440.519 324.708C440.155 324.732 439.794 324.726 439.406 324.686C438.63 324.608 437.931 324.357 437.251 323.927C436.571 323.496 435.968 322.893 435.503 322.123C435.005 321.379 434.615 320.465 434.395 319.358C434.171 318.28 434.113 317.068 434.251 315.695C434.32 315.008 434.446 314.358 434.604 313.68C434.757 313.062 434.972 312.421 435.241 311.845C435.511 311.269 435.836 310.729 436.219 310.224C436.568 309.747 437.001 309.338 437.488 308.995C437.945 308.649 438.483 308.402 439.071 308.25C439.662 308.068 440.328 308.045 441.044 308.117C441.581 308.171 442.053 308.279 442.456 308.47C442.856 308.692 443.226 308.91 443.53 309.182C443.834 309.453 444.079 309.719 444.32 310.015L444.839 310.851L444.899 310.857L445.671 303.186L448.358 303.456L447.585 311.128L447.645 311.134C447.848 310.913 448.084 310.665 448.35 310.421C448.616 310.176 448.909 309.964 449.261 309.759C449.613 309.553 450.019 309.413 450.455 309.276C450.888 309.169 451.372 309.157 451.909 309.211C452.626 309.283 453.273 309.439 453.816 309.735C454.362 310.001 454.84 310.351 455.248 310.784C455.657 311.217 455.97 311.701 456.247 312.241C456.492 312.808 456.703 313.403 456.852 314.021C457.001 314.639 457.084 315.31 457.111 315.946C457.131 316.642 457.125 317.304 457.055 317.991C456.917 319.364 456.618 320.54 456.184 321.552C455.748 322.593 455.183 323.411 454.577 324.043C453.937 324.702 453.227 325.174 452.474 325.46C451.722 325.746 450.987 325.853 450.211 325.774C449.823 325.735 449.468 325.669 449.116 325.574C448.764 325.478 448.417 325.322 448.107 325.11C447.794 324.928 447.463 324.623 447.194 324.295C446.926 323.966 446.666 323.548 446.449 323.014L446.389 323.008L445.581 331.037L442.894 330.767L443.703 322.737L443.643 322.731ZM444.436 315.454C444.511 314.708 444.488 314.042 444.366 313.457C444.214 312.869 444.023 312.367 443.764 311.949C443.505 311.531 443.147 311.193 442.78 310.945C442.383 310.694 441.974 310.563 441.526 310.518C440.81 310.445 440.168 310.532 439.627 310.809C439.09 311.056 438.66 311.435 438.277 311.939C437.895 312.443 437.59 313.076 437.369 313.777C437.147 314.479 437.012 315.219 436.928 316.055C436.886 316.473 436.868 316.953 436.879 317.437C436.861 317.917 436.906 318.374 436.977 318.864C437.051 319.324 437.188 319.759 437.325 320.195C437.462 320.631 437.695 321.017 437.934 321.342C438.202 321.671 438.533 321.975 438.903 322.194C439.273 322.412 439.712 322.546 440.249 322.6C441.354 322.712 442.258 322.411 442.936 321.665C443.585 320.916 443.994 319.842 444.142 318.379L444.436 315.454ZM449.741 323.556C450.278 323.61 450.765 323.569 451.201 323.432C451.607 323.292 451.992 323.059 452.321 322.791C452.649 322.522 452.924 322.188 453.175 321.791C453.396 321.392 453.588 320.989 453.752 320.553C453.92 320.087 454.054 319.649 454.162 319.177C454.24 318.703 454.318 318.228 454.36 317.81C454.444 316.974 454.46 316.222 454.383 315.491C454.276 314.756 454.103 314.076 453.858 313.508C453.584 312.938 453.208 312.478 452.731 312.128C452.257 311.749 451.675 311.539 450.958 311.467C450.511 311.422 450.084 311.47 449.645 311.637C449.236 311.806 448.818 312.066 448.48 312.424C448.143 312.782 447.856 313.235 447.59 313.781C447.353 314.331 447.198 314.978 447.123 315.724L446.828 318.65C446.681 320.112 446.868 321.247 447.354 322.11C447.87 322.976 448.667 323.448 449.741 323.556ZM473.614 319.749C473.484 321.032 473.221 322.152 472.758 323.16C472.327 324.142 471.792 324.963 471.093 325.616C470.394 326.269 469.561 326.758 468.626 327.056C467.692 327.354 466.659 327.431 465.525 327.316C464.39 327.202 463.394 326.921 462.537 326.443C461.681 325.965 460.992 325.322 460.437 324.543C459.882 323.763 459.492 322.85 459.266 321.802C459.043 320.724 458.978 319.572 459.107 318.288C459.236 317.005 459.53 315.888 459.96 314.907C460.391 313.925 460.955 313.107 461.654 312.454C462.353 311.801 463.157 311.309 464.091 311.011C465.026 310.713 466.059 310.636 467.193 310.75C468.327 310.864 469.324 311.146 470.18 311.624C471.037 312.102 471.756 312.747 472.31 313.527C472.865 314.306 473.226 315.217 473.452 316.265C473.708 317.316 473.743 318.465 473.614 319.749ZM470.927 319.478C471.014 318.613 471.006 317.798 470.869 317.06C470.762 316.326 470.527 315.669 470.193 315.093C469.856 314.546 469.42 314.08 468.883 313.725C468.346 313.369 467.705 313.154 466.958 313.078C466.212 313.003 465.54 313.086 464.943 313.328C464.346 313.569 463.826 313.939 463.387 314.407C462.945 314.906 462.584 315.502 462.332 316.201C462.051 316.896 461.881 317.693 461.793 318.559C461.706 319.424 461.715 320.239 461.851 320.977C461.955 321.741 462.191 322.398 462.525 322.974C462.862 323.521 463.297 323.987 463.834 324.342C464.371 324.698 465.013 324.913 465.759 324.988C466.505 325.063 467.177 324.98 467.774 324.739C468.371 324.497 468.891 324.128 469.33 323.659C469.772 323.161 470.134 322.564 470.388 321.836C470.669 321.141 470.84 320.344 470.927 319.478ZM479.724 314.665L479.783 314.671C479.998 314.331 480.243 313.994 480.542 313.723C480.844 313.421 481.199 313.186 481.614 312.956C481.994 312.783 482.432 312.616 482.952 312.548C483.445 312.447 484.018 312.444 484.645 312.508C485.48 312.592 486.271 312.822 487.014 313.229C487.757 313.635 488.366 314.179 488.9 314.866C489.431 315.582 489.827 316.437 490.059 317.425C490.318 318.446 490.386 319.568 490.257 320.852C490.094 322.464 489.81 323.792 489.367 324.893C488.925 325.994 488.387 326.845 487.688 327.498C487.019 328.154 486.251 328.589 485.383 328.834C484.484 329.075 483.544 329.131 482.499 329.026C481.991 328.975 481.52 328.867 481.087 328.672C480.651 328.508 480.252 328.287 479.947 328.015C479.58 327.767 479.306 327.498 479.094 327.205C478.882 326.913 478.7 326.623 478.605 326.372L478.545 326.366L477.749 334.276L475.062 334.006L477.254 312.246L479.94 312.516L479.724 314.665ZM479.087 320.39C479 321.256 479.014 322.011 479.091 322.743C479.198 323.477 479.374 324.128 479.678 324.701C479.955 325.242 480.361 325.705 480.868 326.057C481.345 326.407 481.927 326.616 482.644 326.688C483.39 326.764 484.032 326.677 484.629 326.436C485.196 326.192 485.656 325.816 486.066 325.344C486.478 324.843 486.78 324.24 487.031 323.542C487.252 322.841 487.417 322.104 487.504 321.238C487.594 320.342 487.583 319.557 487.509 318.796C487.405 318.032 487.229 317.381 486.925 316.808C486.621 316.234 486.245 315.774 485.738 315.422C485.201 315.066 484.589 314.854 483.843 314.779C483.127 314.707 482.515 314.796 481.977 315.043C481.41 315.287 480.92 315.66 480.537 316.164C480.125 316.666 479.823 317.268 479.569 317.997C479.345 318.728 479.177 319.495 479.087 320.39ZM500.729 327.545L500.789 327.551L506.257 315.166L509.928 315.536L508.356 331.147L505.849 330.894L507.114 318.328L507.055 318.322L501.67 330.474L499.103 330.215L496.249 317.234L496.19 317.228L494.924 329.794L492.417 329.542L493.989 313.931L497.899 314.325L500.729 327.545ZM513.367 320.616C513.493 319.664 513.753 318.876 514.148 318.252C514.542 317.629 515.044 317.136 515.65 316.806C516.26 316.445 516.946 316.212 517.74 316.111C518.534 316.011 519.379 316.005 520.305 316.098C521.051 316.173 521.791 316.308 522.489 316.56C523.191 316.781 523.793 317.083 524.295 317.495C524.829 317.881 525.228 318.403 525.503 318.974C525.807 319.547 525.887 320.248 525.809 321.025L524.895 330.099C524.871 330.337 524.907 330.582 525.038 330.776C525.139 330.967 525.369 331.081 525.667 331.111C525.787 331.123 525.939 331.108 526.091 331.094C526.241 331.109 526.393 331.094 526.545 331.079L526.359 332.93C526.144 332.968 525.899 333.004 525.687 333.013C525.472 333.051 525.2 333.054 524.902 333.024C524.424 332.976 524.042 332.877 523.72 332.784C523.371 332.659 523.114 332.512 522.893 332.309C522.703 332.109 522.547 331.852 522.428 331.539C522.336 331.258 522.312 330.894 522.295 330.47C521.93 330.795 521.539 331.087 521.151 331.35C520.76 331.642 520.315 331.869 519.816 332.03C519.344 332.223 518.819 332.351 518.237 332.443C517.657 332.506 517.025 332.502 516.308 332.43C515.711 332.37 515.153 332.223 514.607 331.957C514.058 331.721 513.551 331.368 513.139 330.965C512.73 330.532 512.42 330.018 512.209 329.424C511.964 328.857 511.911 328.188 511.986 327.442C512.067 326.636 512.256 325.962 512.614 325.395C512.943 324.825 513.35 324.383 513.806 324.037C514.296 323.664 514.831 323.447 515.422 323.265C516.01 323.113 516.589 323.051 517.165 323.019L521.607 322.923C522.028 322.935 522.375 322.789 522.64 322.545C522.909 322.27 523.071 321.864 523.134 321.238C523.23 320.282 522.998 319.596 522.413 319.115C521.828 318.634 520.984 318.338 519.82 318.22C518.626 318.1 517.733 318.282 517.088 318.699C516.47 319.149 516.036 319.86 515.874 320.868L513.367 320.616ZM522.738 324.575C522.514 324.703 522.233 324.795 521.922 324.885C521.585 324.941 521.218 324.995 520.854 325.018C520.457 325.069 520.033 325.086 519.612 325.074L518.31 325.124C517.824 325.165 517.37 325.18 516.937 325.287C516.537 325.367 516.161 325.51 515.844 325.66C515.495 325.835 515.259 326.083 515.053 326.334C514.873 326.617 514.751 326.936 514.712 327.324C514.667 327.772 514.687 328.166 514.8 328.539C514.917 328.883 515.066 329.199 515.313 329.435C515.528 329.698 515.808 329.907 516.125 330.06C516.471 330.215 516.853 330.314 517.271 330.356C517.539 330.383 517.841 330.383 518.178 330.327C518.543 330.303 518.877 330.277 519.25 330.163C519.65 330.083 519.997 329.937 520.373 329.794C520.722 329.618 521.075 329.412 521.37 329.171C521.669 328.899 521.908 328.622 522.126 328.252C522.311 327.909 522.44 327.53 522.485 327.082L522.738 324.575ZM529.231 317.48L542.663 318.832L542.429 321.16L537.056 320.619L535.718 333.902L533.032 333.632L534.369 320.349L528.997 319.808L529.231 317.48ZM374.945 351.021C374.816 352.304 374.552 353.423 374.089 354.432C373.658 355.414 373.123 356.234 372.425 356.888C371.726 357.541 370.892 358.03 369.958 358.328C369.023 358.626 367.99 358.703 366.856 358.588C365.722 358.474 364.725 358.193 363.869 357.715C363.012 357.236 362.323 356.594 361.768 355.815C361.214 355.035 360.823 354.121 360.597 353.074C360.374 351.996 360.309 350.843 360.438 349.56C360.568 348.276 360.861 347.16 361.291 346.178C361.722 345.197 362.287 344.379 362.986 343.726C363.685 343.073 364.488 342.581 365.423 342.283C366.357 341.985 367.39 341.908 368.524 342.022C369.659 342.136 370.655 342.418 371.512 342.896C372.368 343.374 373.087 344.019 373.642 344.799C374.197 345.578 374.557 346.489 374.783 347.537C375.039 348.588 375.074 349.737 374.945 351.021ZM372.259 350.75C372.346 349.885 372.337 349.07 372.201 348.332C372.094 347.598 371.858 346.941 371.524 346.365C371.187 345.818 370.752 345.352 370.215 344.996C369.678 344.641 369.036 344.426 368.29 344.35C367.544 344.275 366.872 344.358 366.275 344.6C365.678 344.841 365.158 345.211 364.719 345.679C364.277 346.178 363.915 346.774 363.664 347.473C363.383 348.168 363.212 348.965 363.125 349.83C363.038 350.696 363.046 351.511 363.183 352.248C363.287 353.013 363.522 353.67 363.856 354.246C364.193 354.792 364.629 355.258 365.166 355.614C365.703 355.97 366.344 356.185 367.091 356.26C367.837 356.335 368.509 356.252 369.106 356.011C369.703 355.769 370.223 355.4 370.662 354.931C371.104 354.433 371.465 353.836 371.72 353.108C372.001 352.413 372.171 351.616 372.259 350.75ZM391.457 338.753C391.442 338.903 391.394 339.079 391.346 339.255C391.263 339.488 391.182 339.69 391.068 339.92C390.925 340.147 390.781 340.374 390.611 340.568C390.405 340.818 390.145 341.003 389.855 341.185C389.667 341.257 389.536 341.364 389.41 341.412C389.252 341.486 389.097 341.531 388.882 341.569C388.697 341.611 388.455 341.617 388.151 341.647C387.819 341.643 387.428 341.634 386.921 341.583L385.813 341.502C385.064 341.456 384.363 341.537 383.738 341.745C383.082 341.98 382.505 342.314 382.006 342.777C381.478 343.236 381.056 343.827 380.656 344.51C380.285 345.196 379.995 345.981 379.756 346.862C380.004 346.495 380.282 346.131 380.619 345.773C380.954 345.445 381.375 345.155 381.853 344.902C382.331 344.649 382.892 344.464 383.507 344.345C384.122 344.226 384.817 344.206 385.623 344.287C386.519 344.377 387.369 344.613 388.142 345.023C388.915 345.432 389.583 345.982 390.147 346.672C390.678 347.389 391.074 348.243 391.336 349.234C391.601 350.195 391.669 351.318 391.54 352.601C391.501 352.989 391.423 353.464 391.306 354.025C391.189 354.586 391.01 355.171 390.768 355.78C390.526 356.389 390.224 356.991 389.835 357.555C389.444 358.149 388.969 358.674 388.383 359.098C387.798 359.521 387.102 359.843 386.293 360.093C385.487 360.314 384.547 360.37 383.472 360.262C383.024 360.216 382.55 360.138 382.048 360.028C381.55 359.887 381.087 359.69 380.598 359.46C380.109 359.229 379.661 358.883 379.216 358.506C378.775 358.1 378.402 357.61 378.068 357.034C377.919 356.717 377.74 356.398 377.597 356.022C377.424 355.642 377.317 355.209 377.189 354.684C377.091 354.162 377.032 353.553 377.011 352.857C376.991 352.161 377.012 351.35 377.109 350.394C377.172 349.768 377.271 349.084 377.412 348.284C377.549 347.514 377.72 346.717 377.95 345.926C378.184 345.105 378.471 344.35 378.788 343.598C379.102 342.876 379.469 342.22 379.915 341.692C380.396 341.107 380.862 340.671 381.351 340.299C381.838 339.956 382.346 339.705 382.874 339.547C383.406 339.36 383.958 339.265 384.567 339.205C385.143 339.173 385.776 339.176 386.466 339.216L387.424 339.282C387.722 339.312 387.994 339.309 388.236 339.303C388.445 339.324 388.63 339.283 388.785 339.238C388.94 339.193 389.069 339.116 389.14 339.002C389.239 338.922 389.347 338.752 389.427 338.549L391.457 338.753ZM379.681 351.799C379.651 352.098 379.615 352.456 379.635 352.85C379.626 353.241 379.644 353.665 379.721 354.095C379.765 354.551 379.899 355.017 380.036 355.453C380.203 355.892 380.463 356.31 380.758 356.672C381.053 357.033 381.444 357.344 381.901 357.601C382.387 357.861 382.972 358.04 383.659 358.109C384.435 358.188 385.077 358.101 385.638 357.917C386.169 357.729 386.65 357.446 387.018 357.091C387.385 356.736 387.696 356.345 387.956 355.859C388.153 355.396 388.347 354.963 388.482 354.525C388.59 354.053 388.689 353.671 388.757 353.286L388.842 352.45C388.914 351.734 388.923 351.041 388.813 350.337C388.733 349.635 388.525 349.011 388.221 348.438C387.913 347.894 387.508 347.431 386.974 347.046C386.44 346.66 385.768 346.442 384.932 346.358C384.126 346.277 383.395 346.354 382.798 346.595C382.168 346.863 381.648 347.233 381.236 347.734C380.794 348.233 380.462 348.832 380.181 349.528C379.93 350.226 379.762 350.993 379.681 351.799ZM399.502 358.469L399.562 358.475L404.991 346.177L407.946 346.474L400.342 362.111C399.962 362.887 399.621 363.576 399.292 364.146C398.993 364.719 398.701 365.232 398.39 365.623C398.109 366.017 397.837 366.321 397.571 366.566C397.305 366.81 396.986 366.989 396.702 367.111C396.359 367.228 396.048 367.317 395.657 367.308C395.293 367.331 394.872 367.319 394.395 367.271C394.007 367.232 393.711 367.172 393.505 367.121C393.269 367.067 393.063 367.016 392.92 366.942L393.164 364.524C393.337 364.602 393.57 364.685 393.832 364.772C394.095 364.859 394.42 364.922 394.719 364.952C395.196 365 395.626 364.923 395.949 364.714C396.301 364.508 396.543 364.201 396.767 363.771L397.855 361.65L393.679 345.037L396.634 345.335L399.502 358.469ZM418.709 356.965C418.097 357.054 417.456 357.141 416.76 357.161C416.032 357.208 415.369 357.202 414.772 357.142C412.712 356.934 411.172 356.357 410.269 355.452C409.335 354.544 408.954 353.239 409.128 351.508L409.618 346.643L412.304 346.913L411.869 351.241C411.808 351.838 411.817 352.352 411.924 352.784C412.002 353.214 412.204 353.597 412.506 353.898C412.807 354.2 413.201 354.481 413.726 354.654C414.221 354.825 414.869 354.981 415.615 355.056C415.824 355.077 416.096 355.074 416.367 355.071C416.672 355.041 416.944 355.039 417.278 355.012C417.582 354.982 417.887 354.953 418.165 354.89C418.469 354.861 418.717 354.795 418.932 354.756L419.647 347.652L422.334 347.923L420.762 363.534L418.075 363.263L418.709 356.965ZM438.519 360.287C438.36 360.964 438.055 361.597 437.631 362.217C437.207 362.838 436.672 363.357 436.024 363.804C435.403 364.285 434.674 364.633 433.868 364.854C433.029 365.101 432.119 365.16 431.163 365.064C430.119 364.959 429.181 364.683 428.319 364.265C427.46 363.816 426.735 363.231 426.18 362.451C425.592 361.699 425.172 360.782 424.919 359.701C424.636 358.617 424.583 357.346 424.725 355.943C424.821 354.988 424.998 354.131 425.315 353.379C425.602 352.624 425.939 351.965 426.358 351.404C426.776 350.843 427.248 350.347 427.741 349.945C428.264 349.545 428.777 349.235 429.345 348.991C429.879 348.773 430.437 348.618 430.99 348.523C431.542 348.428 432.085 348.422 432.593 348.474C433.667 348.582 434.607 348.827 435.47 349.246C436.332 349.664 437.03 350.217 437.621 350.94C438.182 351.659 438.575 352.543 438.867 353.538C439.093 354.586 439.155 355.768 439.023 357.081L438.887 358.424L427.485 357.276C427.41 358.022 427.46 358.721 427.606 359.369C427.722 360.014 427.969 360.551 428.312 361.038C428.625 361.522 429.07 361.898 429.583 362.191C430.096 362.484 430.681 362.663 431.368 362.733C432.054 362.802 432.66 362.772 433.159 362.611C433.655 362.48 434.067 362.281 434.428 361.985C434.787 361.72 435.058 361.416 435.303 361.079C435.551 360.712 435.737 360.368 435.922 360.025L438.519 360.287ZM436.417 356.005C436.463 355.255 436.412 354.557 436.293 353.942C436.115 353.321 435.864 352.813 435.548 352.359C435.229 351.935 434.782 351.588 434.298 351.299C433.782 351.036 433.224 350.889 432.567 350.823C431.97 350.763 431.391 350.825 430.86 351.013C430.298 351.197 429.817 351.481 429.387 351.859C428.957 352.238 428.608 352.716 428.312 353.259C428.013 353.832 427.8 354.443 427.701 355.127L436.417 356.005ZM444.944 356.562L452.228 357.295L452.862 350.997L455.548 351.267L453.976 366.878L451.29 366.608L451.993 359.623L444.71 358.89L444.007 365.875L441.32 365.604L442.892 349.993L445.579 350.264L444.944 356.562ZM460.959 363.903L461.019 363.909L469.896 352.712L472.97 353.022L471.398 368.633L468.682 368.359L469.887 356.39L469.827 356.384L460.981 367.584L457.906 367.274L459.478 351.663L462.165 351.934L460.959 363.903ZM485.93 363.855L482.468 363.506C481.841 363.443 481.304 363.389 480.853 363.374C480.372 363.355 479.975 363.406 479.632 363.522C479.315 363.671 479.026 363.853 478.84 364.196C478.598 364.503 478.434 364.939 478.341 365.563L478.053 367.222C478.017 367.279 478.008 367.369 477.993 367.518C477.948 367.664 477.93 367.843 477.882 368.019C477.831 368.225 477.781 368.431 477.7 368.634C477.646 368.87 477.565 369.073 477.458 369.243L474.503 368.945C474.601 368.865 474.64 368.778 474.739 368.698C474.807 368.614 474.882 368.471 474.957 368.328C475.031 368.185 475.115 367.952 475.199 367.719C475.286 367.456 475.378 367.134 475.45 366.719L475.831 364.737C475.945 364.206 476.046 363.794 476.169 363.475C476.292 363.156 476.441 362.869 476.611 362.675C476.782 362.481 476.979 362.32 477.233 362.195C477.513 362.103 477.827 361.983 478.2 361.87C476.589 361.105 475.879 359.767 476.065 357.916C476.114 357.439 476.215 357.027 476.377 356.621C476.535 356.245 476.718 355.932 476.96 355.625C477.169 355.344 477.405 355.096 477.671 354.852C477.93 354.667 478.19 354.482 478.444 354.357C478.761 354.208 479.107 354.062 479.474 354.008C479.874 353.928 480.238 353.904 480.603 353.881C480.964 353.887 481.325 353.893 481.683 353.929C482.015 353.932 482.343 353.966 482.641 353.996L489.566 354.693L487.994 370.304L485.308 370.033L485.93 363.855ZM481.658 356.279C481.416 356.284 481.177 356.26 480.995 356.272C480.816 356.254 480.631 356.296 480.449 356.308C480.293 356.352 480.138 356.397 479.95 356.468C479.604 356.614 479.305 356.886 479.087 357.256C478.872 357.596 478.74 358.005 478.698 358.423C478.656 358.841 478.679 359.205 478.772 359.486C478.891 359.799 479.016 360.053 479.237 360.256C479.395 360.483 479.622 360.626 479.881 360.743C480.108 360.886 480.371 360.973 480.633 361.06L481.401 361.228C481.639 361.252 481.878 361.276 482.057 361.294L486.147 361.706L486.642 356.78L481.658 356.279Z" fill="white"/>
<rect x="0.5" y="405" width="348" height="168" rx="15.5" stroke="white"/>
<path d="M112.184 463.24C113.114 464.47 113.564 465.73 113.564 467.02H110.954C110.804 466.18 110.534 465.55 110.204 465.07C109.574 464.2 108.614 463.75 107.324 463.75C105.854 463.75 104.684 464.41 103.814 465.79C102.944 467.14 102.464 469.12 102.344 471.64C102.944 470.74 103.724 470.08 104.654 469.66C105.464 469.27 106.424 469.06 107.444 469.06C109.214 469.06 110.744 469.63 112.064 470.74C113.354 471.88 114.014 473.56 114.014 475.78C114.014 477.67 113.414 479.38 112.154 480.82C110.924 482.32 109.154 483.04 106.844 483.04C104.894 483.04 103.184 482.29 101.774 480.79C100.364 479.32 99.6439 476.83 99.6439 473.29C99.6439 470.68 99.9439 468.46 100.574 466.66C101.804 463.18 104.054 461.44 107.264 461.44C109.634 461.44 111.254 462.04 112.184 463.24ZM110.204 479.29C110.894 478.36 111.224 477.28 111.224 475.99C111.224 474.94 110.924 473.89 110.324 472.93C109.694 471.94 108.584 471.46 106.964 471.46C105.824 471.46 104.834 471.85 103.994 472.6C103.124 473.35 102.704 474.49 102.704 475.99C102.704 477.34 103.094 478.45 103.874 479.35C104.654 480.25 105.704 480.7 107.084 480.7C108.494 480.7 109.514 480.22 110.204 479.29ZM133.573 479.68H133.633L137.833 466.81H141.523V482.5H139.003V469.87H138.943L134.803 482.5H132.223L128.083 469.87H128.023V482.5H125.503V466.81H129.433L133.573 479.68ZM158.834 477.49C158.744 478.18 158.504 478.84 158.144 479.5C157.784 480.16 157.304 480.73 156.704 481.24C156.134 481.78 155.444 482.2 154.664 482.5C153.854 482.83 152.954 482.98 151.994 482.98C150.944 482.98 149.984 482.8 149.084 482.47C148.184 482.11 147.404 481.6 146.774 480.88C146.114 480.19 145.604 479.32 145.244 478.27C144.854 477.22 144.674 475.96 144.674 474.55C144.674 473.59 144.764 472.72 145.004 471.94C145.214 471.16 145.484 470.47 145.844 469.87C146.204 469.27 146.624 468.73 147.074 468.28C147.554 467.83 148.034 467.47 148.574 467.17C149.084 466.9 149.624 466.69 150.164 466.54C150.704 466.39 151.244 466.33 151.754 466.33C152.834 466.33 153.794 466.48 154.694 466.81C155.594 467.14 156.344 467.62 157.004 468.28C157.634 468.94 158.114 469.78 158.504 470.74C158.834 471.76 159.014 472.93 159.014 474.25V475.6H147.554C147.554 476.35 147.674 477.04 147.884 477.67C148.064 478.3 148.364 478.81 148.754 479.26C149.114 479.71 149.594 480.04 150.134 480.28C150.674 480.52 151.274 480.64 151.964 480.64C152.654 480.64 153.254 480.55 153.734 480.34C154.214 480.16 154.604 479.92 154.934 479.59C155.264 479.29 155.504 478.96 155.714 478.6C155.924 478.21 156.074 477.85 156.224 477.49H158.834ZM156.314 473.44C156.284 472.69 156.164 472 155.984 471.4C155.744 470.8 155.444 470.32 155.084 469.9C154.724 469.51 154.244 469.21 153.734 468.97C153.194 468.76 152.624 468.67 151.964 468.67C151.364 468.67 150.794 468.79 150.284 469.03C149.744 469.27 149.294 469.6 148.904 470.02C148.514 470.44 148.214 470.95 147.974 471.52C147.734 472.12 147.584 472.75 147.554 473.44H156.314ZM174.484 476.98C174.454 477.37 174.364 477.76 174.274 478.21C174.154 478.69 173.974 479.11 173.764 479.56C173.554 480.01 173.284 480.43 172.954 480.85C172.624 481.24 172.204 481.63 171.724 481.93C171.244 482.26 170.674 482.5 170.014 482.71C169.354 482.89 168.604 482.98 167.764 482.98C167.314 482.98 166.834 482.92 166.324 482.83C165.784 482.71 165.304 482.5 164.824 482.26C164.344 481.99 163.894 481.66 163.444 481.24C163.024 480.82 162.634 480.31 162.304 479.68C161.974 479.08 161.704 478.36 161.524 477.52C161.344 476.74 161.224 475.78 161.224 474.73C161.224 473.44 161.434 472.27 161.794 471.22C162.154 470.17 162.664 469.3 163.294 468.58C163.894 467.86 164.614 467.32 165.454 466.9C166.264 466.51 167.134 466.33 168.034 466.33C168.874 466.33 169.594 466.42 170.224 466.6C170.854 466.78 171.394 466.99 171.874 467.29C172.324 467.59 172.714 467.92 173.044 468.31C173.374 468.7 173.644 469.09 173.854 469.51C174.034 469.96 174.184 470.38 174.304 470.83C174.394 471.25 174.454 471.7 174.484 472.09H171.964C171.844 471.01 171.454 470.17 170.854 469.57C170.254 468.97 169.414 468.67 168.334 468.67C167.584 468.67 166.954 468.82 166.414 469.12C165.844 469.42 165.394 469.84 165.034 470.38C164.644 470.92 164.374 471.58 164.194 472.36C164.014 473.14 163.924 473.95 163.924 474.88C163.924 475.93 164.014 476.8 164.224 477.55C164.404 478.3 164.674 478.9 165.064 479.38C165.424 479.89 165.844 480.25 166.384 480.46C166.894 480.7 167.494 480.82 168.154 480.82C168.634 480.82 169.054 480.73 169.504 480.55C169.924 480.4 170.284 480.13 170.614 479.8C170.944 479.47 171.244 479.08 171.454 478.6C171.694 478.12 171.874 477.58 171.964 476.98H174.484ZM187.204 476.29H183.724C183.094 476.29 182.554 476.29 182.104 476.32C181.624 476.35 181.234 476.44 180.904 476.59C180.604 476.77 180.334 476.98 180.184 477.34C179.974 477.67 179.854 478.12 179.824 478.75L179.704 480.43C179.674 480.49 179.674 480.58 179.674 480.73C179.644 480.88 179.644 481.06 179.614 481.24C179.584 481.45 179.554 481.66 179.494 481.87C179.464 482.11 179.404 482.32 179.314 482.5H176.344C176.434 482.41 176.464 482.32 176.554 482.23C176.614 482.14 176.674 481.99 176.734 481.84C176.794 481.69 176.854 481.45 176.914 481.21C176.974 480.94 177.034 480.61 177.064 480.19L177.244 478.18C177.304 477.64 177.364 477.22 177.454 476.89C177.544 476.56 177.664 476.26 177.814 476.05C177.964 475.84 178.144 475.66 178.384 475.51C178.654 475.39 178.954 475.24 179.314 475.09C177.634 474.49 176.794 473.23 176.794 471.37C176.794 470.89 176.854 470.47 176.974 470.05C177.094 469.66 177.244 469.33 177.454 469C177.634 468.7 177.844 468.43 178.084 468.16C178.324 467.95 178.564 467.74 178.804 467.59C179.104 467.41 179.434 467.23 179.794 467.14C180.184 467.02 180.544 466.96 180.904 466.9C181.264 466.87 181.624 466.84 181.984 466.84C182.314 466.81 182.644 466.81 182.944 466.81H189.904V482.5H187.204V476.29ZM182.194 469.18C181.954 469.21 181.714 469.21 181.534 469.24C181.354 469.24 181.174 469.3 180.994 469.33C180.844 469.39 180.694 469.45 180.514 469.54C180.184 469.72 179.914 470.02 179.734 470.41C179.554 470.77 179.464 471.19 179.464 471.61C179.464 472.03 179.524 472.39 179.644 472.66C179.794 472.96 179.944 473.2 180.184 473.38C180.364 473.59 180.604 473.71 180.874 473.8C181.114 473.92 181.384 473.98 181.654 474.04L182.434 474.13C182.674 474.13 182.914 474.13 183.094 474.13H187.204V469.18H182.194ZM196.582 480.16H203.902V466.81H206.602V480.16H208.552V486.34H206.032V482.5H193.882V466.81H196.582V480.16ZM224.371 477.49C224.281 478.18 224.041 478.84 223.681 479.5C223.321 480.16 222.841 480.73 222.241 481.24C221.671 481.78 220.981 482.2 220.201 482.5C219.391 482.83 218.491 482.98 217.531 482.98C216.481 482.98 215.521 482.8 214.621 482.47C213.721 482.11 212.941 481.6 212.311 480.88C211.651 480.19 211.141 479.32 210.781 478.27C210.391 477.22 210.211 475.96 210.211 474.55C210.211 473.59 210.301 472.72 210.541 471.94C210.751 471.16 211.021 470.47 211.381 469.87C211.741 469.27 212.161 468.73 212.611 468.28C213.091 467.83 213.571 467.47 214.111 467.17C214.621 466.9 215.161 466.69 215.701 466.54C216.241 466.39 216.781 466.33 217.291 466.33C218.371 466.33 219.331 466.48 220.231 466.81C221.131 467.14 221.881 467.62 222.541 468.28C223.171 468.94 223.651 469.78 224.041 470.74C224.371 471.76 224.551 472.93 224.551 474.25V475.6H213.091C213.091 476.35 213.211 477.04 213.421 477.67C213.601 478.3 213.901 478.81 214.291 479.26C214.651 479.71 215.131 480.04 215.671 480.28C216.211 480.52 216.811 480.64 217.501 480.64C218.191 480.64 218.791 480.55 219.271 480.34C219.751 480.16 220.141 479.92 220.471 479.59C220.801 479.29 221.041 478.96 221.251 478.6C221.461 478.21 221.611 477.85 221.761 477.49H224.371ZM221.851 473.44C221.821 472.69 221.701 472 221.521 471.4C221.281 470.8 220.981 470.32 220.621 469.9C220.261 469.51 219.781 469.21 219.271 468.97C218.731 468.76 218.161 468.67 217.501 468.67C216.901 468.67 216.331 468.79 215.821 469.03C215.281 469.27 214.831 469.6 214.441 470.02C214.051 470.44 213.751 470.95 213.511 471.52C213.271 472.12 213.121 472.75 213.091 473.44H221.851ZM234.381 466.81C236.301 466.81 237.711 467.17 238.671 467.89C239.631 468.61 240.081 469.63 240.081 470.98C240.081 471.7 239.931 472.33 239.571 472.81C239.211 473.32 238.761 473.74 238.191 474.13C239.001 474.43 239.661 474.91 240.141 475.48C240.651 476.08 240.891 476.83 240.891 477.76C240.891 478.48 240.771 479.14 240.531 479.74C240.261 480.31 239.901 480.82 239.421 481.24C238.911 481.63 238.281 481.93 237.531 482.17C236.751 482.38 235.821 482.5 234.801 482.5H227.691V466.81H234.381ZM234.471 473.44C235.371 473.44 236.091 473.26 236.601 472.9C237.141 472.54 237.411 471.97 237.411 471.22C237.411 470.8 237.321 470.44 237.171 470.14C237.021 469.87 236.841 469.63 236.601 469.45C236.331 469.27 236.091 469.15 235.761 469.06C235.461 469 235.131 468.97 234.831 468.97H230.391V473.44H234.471ZM234.471 480.34C235.191 480.34 235.791 480.28 236.271 480.16C236.751 480.07 237.111 479.92 237.411 479.68C237.681 479.47 237.891 479.23 238.011 478.9C238.131 478.6 238.191 478.27 238.191 477.88C238.191 477.49 238.131 477.16 238.011 476.86C237.891 476.53 237.681 476.29 237.411 476.08C237.111 475.87 236.751 475.69 236.271 475.6C235.791 475.48 235.191 475.42 234.471 475.42H230.391V480.34H234.471ZM124.109 515.64C124.109 516.93 123.959 518.07 123.599 519.12C123.269 520.14 122.819 521.01 122.189 521.73C121.559 522.45 120.779 523.02 119.879 523.41C118.979 523.8 117.959 523.98 116.819 523.98C115.679 523.98 114.659 523.8 113.759 523.41C112.859 523.02 112.109 522.45 111.479 521.73C110.849 521.01 110.369 520.14 110.039 519.12C109.709 518.07 109.529 516.93 109.529 515.64C109.529 514.35 109.709 513.21 110.039 512.19C110.369 511.17 110.849 510.3 111.479 509.58C112.109 508.86 112.859 508.29 113.759 507.9C114.659 507.51 115.679 507.33 116.819 507.33C117.959 507.33 118.979 507.51 119.879 507.9C120.779 508.29 121.559 508.86 122.189 509.58C122.819 510.3 123.269 511.17 123.599 512.19C123.959 513.21 124.109 514.35 124.109 515.64ZM121.409 515.64C121.409 514.77 121.319 513.96 121.109 513.24C120.929 512.52 120.629 511.89 120.239 511.35C119.849 510.84 119.369 510.42 118.799 510.12C118.229 509.82 117.569 509.67 116.819 509.67C116.069 509.67 115.409 509.82 114.839 510.12C114.269 510.42 113.789 510.84 113.399 511.35C113.009 511.89 112.709 512.52 112.529 513.24C112.319 513.96 112.229 514.77 112.229 515.64C112.229 516.51 112.319 517.32 112.529 518.04C112.709 518.79 113.009 519.42 113.399 519.96C113.789 520.47 114.269 520.89 114.839 521.19C115.409 521.49 116.069 521.64 116.819 521.64C117.569 521.64 118.229 521.49 118.799 521.19C119.369 520.89 119.849 520.47 120.239 519.96C120.629 519.42 120.929 518.79 121.109 518.04C121.319 517.32 121.409 516.51 121.409 515.64ZM139.309 501.78C139.309 501.93 139.279 502.11 139.249 502.29C139.189 502.53 139.129 502.74 139.039 502.98C138.919 503.22 138.799 503.46 138.649 503.67C138.469 503.94 138.229 504.15 137.959 504.36C137.779 504.45 137.659 504.57 137.539 504.63C137.389 504.72 137.239 504.78 137.029 504.84C136.849 504.9 136.609 504.93 136.309 504.99C135.979 505.02 135.589 505.05 135.079 505.05L133.969 505.08C133.219 505.11 132.529 505.26 131.929 505.53C131.299 505.83 130.759 506.22 130.309 506.73C129.829 507.24 129.469 507.87 129.139 508.59C128.839 509.31 128.629 510.12 128.479 511.02C128.689 510.63 128.929 510.24 129.229 509.85C129.529 509.49 129.919 509.16 130.369 508.86C130.819 508.56 131.359 508.32 131.959 508.14C132.559 507.96 133.249 507.87 134.059 507.87C134.959 507.87 135.829 508.02 136.639 508.35C137.449 508.68 138.169 509.16 138.799 509.79C139.399 510.45 139.879 511.26 140.239 512.22C140.599 513.15 140.779 514.26 140.779 515.55C140.779 515.94 140.749 516.42 140.689 516.99C140.629 517.56 140.509 518.16 140.329 518.79C140.149 519.42 139.909 520.05 139.579 520.65C139.249 521.28 138.829 521.85 138.289 522.33C137.749 522.81 137.089 523.2 136.309 523.53C135.529 523.83 134.599 523.98 133.519 523.98C133.069 523.98 132.589 523.95 132.079 523.89C131.569 523.8 131.089 523.65 130.579 523.47C130.069 523.29 129.589 522.99 129.109 522.66C128.629 522.3 128.209 521.85 127.819 521.31C127.639 521.01 127.429 520.71 127.249 520.35C127.039 519.99 126.889 519.57 126.709 519.06C126.559 518.55 126.439 517.95 126.349 517.26C126.259 516.57 126.199 515.76 126.199 514.8C126.199 514.17 126.229 513.48 126.289 512.67C126.349 511.89 126.439 511.08 126.589 510.27C126.739 509.43 126.949 508.65 127.189 507.87C127.429 507.12 127.729 506.43 128.119 505.86C128.539 505.23 128.959 504.75 129.409 504.33C129.859 503.94 130.339 503.64 130.849 503.43C131.359 503.19 131.899 503.04 132.499 502.92C133.069 502.83 133.699 502.77 134.389 502.74L135.349 502.71C135.649 502.71 135.919 502.68 136.159 502.65C136.369 502.65 136.549 502.59 136.699 502.53C136.849 502.47 136.969 502.38 137.029 502.26C137.119 502.17 137.209 501.99 137.269 501.78H139.309ZM128.899 515.94C128.899 516.24 128.899 516.6 128.959 516.99C128.989 517.38 129.049 517.8 129.169 518.22C129.259 518.67 129.439 519.12 129.619 519.54C129.829 519.96 130.129 520.35 130.459 520.68C130.789 521.01 131.209 521.28 131.689 521.49C132.199 521.7 132.799 521.82 133.489 521.82C134.269 521.82 134.899 521.67 135.439 521.43C135.949 521.19 136.399 520.86 136.729 520.47C137.059 520.08 137.329 519.66 137.539 519.15C137.689 518.67 137.839 518.22 137.929 517.77C137.989 517.29 138.049 516.9 138.079 516.51V515.67C138.079 514.95 138.019 514.26 137.839 513.57C137.689 512.88 137.419 512.28 137.059 511.74C136.699 511.23 136.249 510.81 135.679 510.48C135.109 510.15 134.419 510 133.579 510C132.769 510 132.049 510.15 131.479 510.45C130.879 510.78 130.399 511.2 130.039 511.74C129.649 512.28 129.379 512.91 129.169 513.63C128.989 514.35 128.899 515.13 128.899 515.94ZM149.289 520.59H149.349L153.519 507.81H156.489L150.489 524.13C150.189 524.94 149.919 525.66 149.649 526.26C149.409 526.86 149.169 527.4 148.899 527.82C148.659 528.24 148.419 528.57 148.179 528.84C147.939 529.11 147.639 529.32 147.369 529.47C147.039 529.62 146.739 529.74 146.349 529.77C145.989 529.83 145.569 529.86 145.089 529.86C144.699 529.86 144.399 529.83 144.189 529.8C143.949 529.77 143.739 529.74 143.589 529.68V527.25C143.769 527.31 144.009 527.37 144.279 527.43C144.549 527.49 144.879 527.52 145.179 527.52C145.659 527.52 146.079 527.4 146.379 527.16C146.709 526.92 146.919 526.59 147.099 526.14L147.969 523.92L142.149 507.81H145.119L149.289 520.59ZM168.249 517.17C167.649 517.32 167.019 517.47 166.329 517.56C165.609 517.68 164.949 517.74 164.349 517.74C162.279 517.74 160.689 517.32 159.699 516.51C158.679 515.7 158.169 514.44 158.169 512.7V507.81H160.869V512.16C160.869 512.76 160.929 513.27 161.079 513.69C161.199 514.11 161.439 514.47 161.769 514.74C162.099 515.01 162.519 515.25 163.059 515.37C163.569 515.49 164.229 515.58 164.979 515.58C165.189 515.58 165.459 515.55 165.729 515.52C166.029 515.46 166.299 515.43 166.629 515.37C166.929 515.31 167.229 515.25 167.499 515.16C167.799 515.1 168.039 515.01 168.249 514.95V507.81H170.949V523.5H168.249V517.17ZM188.292 518.49C188.202 519.18 187.962 519.84 187.602 520.5C187.242 521.16 186.762 521.73 186.162 522.24C185.592 522.78 184.902 523.2 184.122 523.5C183.312 523.83 182.412 523.98 181.452 523.98C180.402 523.98 179.442 523.8 178.542 523.47C177.642 523.11 176.862 522.6 176.232 521.88C175.572 521.19 175.062 520.32 174.702 519.27C174.312 518.22 174.132 516.96 174.132 515.55C174.132 514.59 174.222 513.72 174.462 512.94C174.672 512.16 174.942 511.47 175.302 510.87C175.662 510.27 176.082 509.73 176.532 509.28C177.012 508.83 177.492 508.47 178.032 508.17C178.542 507.9 179.082 507.69 179.622 507.54C180.162 507.39 180.702 507.33 181.212 507.33C182.292 507.33 183.252 507.48 184.152 507.81C185.052 508.14 185.802 508.62 186.462 509.28C187.092 509.94 187.572 510.78 187.962 511.74C188.292 512.76 188.472 513.93 188.472 515.25V516.6H177.012C177.012 517.35 177.132 518.04 177.342 518.67C177.522 519.3 177.822 519.81 178.212 520.26C178.572 520.71 179.052 521.04 179.592 521.28C180.132 521.52 180.732 521.64 181.422 521.64C182.112 521.64 182.712 521.55 183.192 521.34C183.672 521.16 184.062 520.92 184.392 520.59C184.722 520.29 184.962 519.96 185.172 519.6C185.382 519.21 185.532 518.85 185.682 518.49H188.292ZM185.772 514.44C185.742 513.69 185.622 513 185.442 512.4C185.202 511.8 184.902 511.32 184.542 510.9C184.182 510.51 183.702 510.21 183.192 509.97C182.652 509.76 182.082 509.67 181.422 509.67C180.822 509.67 180.252 509.79 179.742 510.03C179.202 510.27 178.752 510.6 178.362 511.02C177.972 511.44 177.672 511.95 177.432 512.52C177.192 513.12 177.042 513.75 177.012 514.44H185.772ZM194.312 514.14H201.632V507.81H204.332V523.5H201.632V516.48H194.312V523.5H191.612V507.81H194.312V514.14ZM210.982 519.84H211.042L218.752 507.81H221.842V523.5H219.112V511.47H219.052L211.372 523.5H208.282V507.81H210.982V519.84ZM235.822 517.29H232.342C231.712 517.29 231.172 517.29 230.722 517.32C230.242 517.35 229.852 517.44 229.522 517.59C229.222 517.77 228.952 517.98 228.802 518.34C228.592 518.67 228.472 519.12 228.442 519.75L228.322 521.43C228.292 521.49 228.292 521.58 228.292 521.73C228.262 521.88 228.262 522.06 228.232 522.24C228.202 522.45 228.172 522.66 228.112 522.87C228.082 523.11 228.022 523.32 227.932 523.5H224.962C225.052 523.41 225.082 523.32 225.172 523.23C225.232 523.14 225.292 522.99 225.352 522.84C225.412 522.69 225.472 522.45 225.532 522.21C225.592 521.94 225.652 521.61 225.682 521.19L225.862 519.18C225.922 518.64 225.982 518.22 226.072 517.89C226.162 517.56 226.282 517.26 226.432 517.05C226.582 516.84 226.762 516.66 227.002 516.51C227.272 516.39 227.572 516.24 227.932 516.09C226.252 515.49 225.412 514.23 225.412 512.37C225.412 511.89 225.472 511.47 225.592 511.05C225.712 510.66 225.862 510.33 226.072 510C226.252 509.7 226.462 509.43 226.702 509.16C226.942 508.95 227.182 508.74 227.422 508.59C227.722 508.41 228.052 508.23 228.412 508.14C228.802 508.02 229.162 507.96 229.522 507.9C229.882 507.87 230.242 507.84 230.602 507.84C230.932 507.81 231.262 507.81 231.562 507.81H238.522V523.5H235.822V517.29ZM230.812 510.18C230.572 510.21 230.332 510.21 230.152 510.24C229.972 510.24 229.792 510.3 229.612 510.33C229.462 510.39 229.312 510.45 229.132 510.54C228.802 510.72 228.532 511.02 228.352 511.41C228.172 511.77 228.082 512.19 228.082 512.61C228.082 513.03 228.142 513.39 228.262 513.66C228.412 513.96 228.562 514.2 228.802 514.38C228.982 514.59 229.222 514.71 229.492 514.8C229.732 514.92 230.002 514.98 230.272 515.04L231.052 515.13C231.292 515.13 231.532 515.13 231.712 515.13H235.822V510.18H230.812Z" fill="white"/>
<rect x="697.369" y="187.198" width="348" height="168" rx="15.5" transform="rotate(35.9675 697.369 187.198)" stroke="white"/>
<path d="M751.46 309.722C750.914 310.475 750.295 311.174 749.596 311.779C748.904 312.426 748.175 312.972 747.366 313.423C746.557 313.873 745.734 314.24 744.85 314.488C743.966 314.736 743.037 314.841 742.106 314.795C741.158 314.774 740.207 314.603 739.23 314.265C738.252 313.926 737.29 313.413 736.319 312.708C735.372 312.021 734.562 311.247 733.937 310.423C733.336 309.617 732.854 308.748 732.54 307.853C732.233 307 732.044 306.084 732.006 305.167C731.943 304.232 732.013 303.319 732.215 302.427C732.393 301.518 732.685 300.656 733.062 299.78C733.444 298.945 733.918 298.14 734.464 297.387C735.451 296.028 736.526 294.955 737.743 294.095C738.942 293.26 740.205 292.695 741.491 292.404C742.801 292.132 744.157 292.152 745.518 292.473C746.921 292.787 748.27 293.432 749.605 294.401C750.94 295.37 751.996 296.47 752.705 297.689C753.456 298.901 753.872 300.167 754.019 301.497C754.166 302.827 753.995 304.185 753.573 305.584C753.134 307.007 752.447 308.362 751.46 309.722ZM749.129 308.03C749.869 307.011 750.428 305.934 750.796 304.866C751.163 303.798 751.296 302.746 751.245 301.744C751.169 300.725 750.865 299.764 750.36 298.878C749.847 297.95 749.096 297.145 748.125 296.441C747.154 295.736 746.156 295.271 745.115 295.072C744.116 294.865 743.108 294.875 742.14 295.136C741.147 295.38 740.188 295.833 739.287 296.513C738.386 297.194 737.535 298.059 736.795 299.079C736.02 300.147 735.436 301.206 735.062 302.232C734.695 303.3 734.537 304.335 734.589 305.336C734.641 306.338 734.961 307.275 735.45 308.185C735.98 309.089 736.755 309.911 737.799 310.669C738.843 311.426 739.865 311.908 740.889 312.132C741.93 312.332 742.92 312.346 743.888 312.085C744.856 311.824 745.767 311.335 746.644 310.638C747.528 309.982 748.354 309.099 749.129 308.03ZM755.911 306.873L766.837 314.803L765.463 316.697L761.093 313.525L753.251 324.329L751.066 322.743L758.907 311.939L754.537 308.767L755.911 306.873ZM769.842 319.652L769.89 319.687C770.248 319.502 770.629 319.334 771.024 319.25C771.436 319.141 771.862 319.116 772.336 319.127C772.751 319.168 773.214 319.245 773.697 319.448C774.174 319.608 774.67 319.894 775.18 320.264C775.86 320.758 776.427 321.355 776.865 322.08C777.302 322.805 777.555 323.582 777.67 324.444C777.768 325.33 777.681 326.268 777.384 327.239C777.094 328.251 776.588 329.255 775.83 330.299C774.878 331.611 773.964 332.615 773.027 333.344C772.091 334.073 771.198 334.537 770.265 334.749C769.357 334.98 768.474 334.97 767.601 334.743C766.703 334.499 765.862 334.074 765.012 333.458C764.599 333.158 764.246 332.828 763.97 332.442C763.676 332.081 763.442 331.688 763.316 331.3C763.124 330.901 763.022 330.531 762.986 330.171C762.951 329.812 762.939 329.47 762.983 329.205L762.935 329.17L758.265 335.604L756.08 334.018L768.925 316.318L771.111 317.904L769.842 319.652ZM766.41 324.279C765.899 324.983 765.531 325.643 765.23 326.313C764.953 327.002 764.777 327.653 764.751 328.301C764.719 328.908 764.836 329.512 765.097 330.072C765.333 330.614 765.731 331.088 766.314 331.511C766.921 331.952 767.519 332.2 768.156 332.292C768.769 332.367 769.356 332.273 769.947 332.072C770.555 331.846 771.12 331.478 771.688 331.001C772.233 330.506 772.746 329.952 773.257 329.248C773.786 328.519 774.171 327.835 774.49 327.14C774.785 326.427 774.961 325.777 774.987 325.128C775.012 324.48 774.919 323.893 774.658 323.333C774.373 322.755 773.951 322.264 773.344 321.823C772.762 321.401 772.188 321.17 771.599 321.113C770.986 321.038 770.375 321.114 769.791 321.357C769.182 321.583 768.618 321.952 768.032 322.453C767.47 322.972 766.939 323.55 766.41 324.279ZM779.747 329.992C780.336 329.232 780.957 328.683 781.612 328.342C782.266 328.002 782.948 327.829 783.638 327.848C784.346 327.843 785.057 327.988 785.794 328.301C786.531 328.613 787.263 329.034 788.016 329.58C788.623 330.02 789.195 330.51 789.672 331.078C790.166 331.622 790.535 332.187 790.761 332.795C791.028 333.397 791.111 334.05 791.06 334.681C791.035 335.329 790.751 335.976 790.293 336.607L784.936 343.988C784.795 344.182 784.703 344.412 784.718 344.646C784.71 344.862 784.851 345.076 785.094 345.252C785.191 345.322 785.33 345.386 785.469 345.45C785.59 345.538 785.729 345.602 785.868 345.666L784.776 347.171C784.571 347.096 784.341 347.004 784.154 346.905C783.948 346.83 783.712 346.696 783.469 346.519C783.081 346.237 782.801 345.96 782.569 345.717C782.33 345.433 782.182 345.177 782.094 344.891C782.029 344.622 782.025 344.322 782.08 343.991C782.141 343.702 782.304 343.375 782.502 343C782.024 343.098 781.538 343.153 781.071 343.185C780.586 343.24 780.087 343.212 779.575 343.1C779.07 343.03 778.552 342.876 778.002 342.663C777.47 342.425 776.925 342.104 776.343 341.681C775.857 341.328 775.449 340.921 775.111 340.416C774.755 339.935 774.494 339.375 774.341 338.82C774.206 338.24 774.197 337.64 774.313 337.02C774.388 336.407 774.678 335.802 775.119 335.195C775.594 334.54 776.097 334.052 776.692 333.742C777.263 333.415 777.836 333.238 778.405 333.169C779.016 333.094 779.587 333.175 780.19 333.315C780.774 333.48 781.306 333.718 781.82 333.98L785.707 336.133C786.064 336.355 786.437 336.404 786.79 336.326C787.16 336.224 787.504 335.955 787.874 335.445C788.438 334.668 788.583 333.958 788.32 333.248C788.056 332.538 787.476 331.857 786.529 331.169C785.558 330.465 784.695 330.172 783.927 330.208C783.166 330.286 782.435 330.682 781.787 331.472L779.747 329.992ZM785.852 338.129C785.594 338.127 785.305 338.066 784.992 337.986C784.672 337.865 784.327 337.727 784.001 337.564C783.632 337.408 783.257 337.21 782.9 336.987L781.75 336.375C781.309 336.166 780.909 335.95 780.481 335.825C780.095 335.693 779.698 335.627 779.349 335.597C778.959 335.573 778.63 335.668 778.326 335.781C778.029 335.936 777.762 336.15 777.533 336.465C777.269 336.83 777.088 337.18 776.998 337.56C776.926 337.915 776.895 338.264 776.99 338.592C777.043 338.927 777.18 339.249 777.377 339.54C777.598 339.849 777.878 340.126 778.218 340.373C778.437 340.532 778.697 340.684 779.017 340.805C779.344 340.968 779.646 341.113 780.026 341.203C780.412 341.335 780.784 341.383 781.182 341.449C781.572 341.473 781.98 341.472 782.357 341.412C782.752 341.328 783.098 341.209 783.473 340.999C783.806 340.795 784.108 340.533 784.372 340.168L785.852 338.129ZM809.429 338.263C809.341 338.384 809.211 338.512 809.081 338.64C808.891 338.799 808.719 338.934 808.506 339.075C808.267 339.199 808.029 339.323 807.785 339.405C807.48 339.517 807.163 339.546 806.821 339.558C806.622 339.525 806.455 339.551 806.322 339.53C806.148 339.514 805.992 339.475 805.786 339.4C805.605 339.343 805.394 339.226 805.116 339.098C804.831 338.929 804.498 338.724 804.085 338.425L803.169 337.797C802.544 337.381 801.898 337.097 801.253 336.963C800.567 336.836 799.901 336.834 799.238 336.983C798.55 337.113 797.888 337.412 797.198 337.801C796.532 338.207 795.887 338.739 795.237 339.38C795.636 339.187 796.059 339.013 796.531 338.873C796.985 338.758 797.495 338.72 798.035 338.742C798.575 338.763 799.153 338.886 799.745 339.093C800.336 339.3 800.947 339.632 801.603 340.108C802.331 340.636 802.947 341.269 803.409 342.012C803.871 342.754 804.172 343.566 804.311 344.446C804.409 345.332 804.322 346.27 804.05 347.258C803.795 348.222 803.288 349.226 802.531 350.27C802.302 350.586 801.995 350.957 801.612 351.383C801.229 351.809 800.779 352.224 800.263 352.628C799.748 353.032 799.183 353.401 798.564 353.693C797.927 354.009 797.252 354.224 796.533 354.295C795.814 354.366 795.051 354.294 794.226 354.103C793.418 353.888 792.578 353.463 791.704 352.829C791.339 352.564 790.968 352.258 790.591 351.91C790.231 351.538 789.931 351.134 789.624 350.689C789.317 350.244 789.104 349.719 788.91 349.17C788.733 348.597 788.657 347.986 788.659 347.32C788.689 346.971 788.695 346.605 788.761 346.208C788.803 345.794 788.928 345.365 789.082 344.847C789.26 344.346 789.515 343.79 789.848 343.179C790.18 342.567 790.607 341.877 791.171 341.1C791.541 340.59 791.971 340.049 792.495 339.429C793.002 338.833 793.55 338.23 794.148 337.663C794.762 337.071 795.39 336.563 796.043 336.073C796.678 335.607 797.326 335.224 797.976 334.992C798.686 334.729 799.308 334.587 799.919 334.512C800.512 334.46 801.077 334.499 801.613 334.629C802.167 334.734 802.692 334.93 803.248 335.185C803.762 335.447 804.307 335.769 804.883 336.15L805.678 336.689C805.921 336.866 806.157 337 806.369 337.117C806.538 337.24 806.719 337.297 806.876 337.337C807.033 337.376 807.183 337.374 807.302 337.312C807.427 337.292 807.606 337.199 807.778 337.064L809.429 338.263ZM792.687 343.608C792.511 343.851 792.299 344.142 792.119 344.493C791.914 344.827 791.716 345.202 791.566 345.612C791.375 346.029 791.256 346.499 791.155 346.945C791.078 347.408 791.092 347.9 791.165 348.361C791.239 348.822 791.42 349.287 791.685 349.739C791.974 350.208 792.389 350.658 792.948 351.063C793.579 351.521 794.177 351.77 794.755 351.893C795.309 351.998 795.867 351.995 796.363 351.874C796.859 351.752 797.324 351.57 797.794 351.281C798.197 350.981 798.583 350.705 798.92 350.393C799.251 350.04 799.528 349.76 799.782 349.462L800.275 348.782C800.698 348.199 801.055 347.605 801.314 346.941C801.598 346.295 801.732 345.65 801.758 345.002C801.766 344.378 801.649 343.774 801.381 343.172C801.114 342.57 800.643 342.043 799.963 341.55C799.308 341.074 798.637 340.772 797.999 340.68C797.32 340.595 796.685 340.653 796.076 340.879C795.444 341.087 794.855 341.438 794.262 341.897C793.694 342.374 793.163 342.953 792.687 343.608ZM815.969 360.135C815.211 361.179 814.42 362.013 813.512 362.651C812.646 363.283 811.771 363.723 810.838 363.936C809.905 364.148 808.939 364.151 807.982 363.938C807.024 363.725 806.093 363.272 805.171 362.602C804.248 361.933 803.528 361.188 803.029 360.344C802.53 359.5 802.257 358.598 802.17 357.645C802.083 356.692 802.206 355.706 802.538 354.687C802.888 353.643 803.412 352.615 804.169 351.571C804.927 350.527 805.742 349.71 806.608 349.078C807.475 348.447 808.374 348.024 809.307 347.812C810.24 347.599 811.181 347.578 812.139 347.791C813.096 348.004 814.028 348.458 814.95 349.127C815.873 349.797 816.593 350.542 817.092 351.386C817.591 352.23 817.888 353.15 817.975 354.102C818.062 355.055 817.915 356.023 817.583 357.043C817.275 358.08 816.727 359.091 815.969 360.135ZM813.784 358.549C814.295 357.845 814.698 357.136 814.951 356.43C815.228 355.742 815.355 355.056 815.357 354.389C815.341 353.748 815.199 353.126 814.914 352.548C814.629 351.971 814.183 351.462 813.576 351.021C812.969 350.581 812.346 350.314 811.709 350.222C811.071 350.13 810.436 350.188 809.821 350.372C809.188 350.58 808.575 350.914 808.007 351.391C807.414 351.85 806.865 352.453 806.354 353.157C805.843 353.861 805.44 354.569 805.188 355.275C804.893 355.988 804.765 356.674 804.764 357.34C804.78 357.982 804.922 358.604 805.207 359.181C805.492 359.759 805.938 360.268 806.545 360.709C807.152 361.149 807.774 361.415 808.412 361.507C809.049 361.599 809.684 361.541 810.3 361.358C810.932 361.15 811.545 360.816 812.132 360.315C812.724 359.855 813.273 359.253 813.784 358.549ZM822.017 354.849L832.943 362.778L831.568 364.672L827.198 361.5L819.357 372.305L817.171 370.719L825.013 359.914L820.642 356.743L822.017 354.849ZM832.879 372.11L843.747 370.62L846.612 372.699L836.569 373.973L837.494 385.468L834.677 383.424L833.9 374.075L831.329 374.247L828.122 378.666L825.936 377.08L835.152 364.382L837.337 365.968L832.879 372.11ZM845.663 377.83C846.251 377.07 846.873 376.521 847.527 376.18C848.182 375.84 848.864 375.667 849.554 375.686C850.262 375.681 850.972 375.826 851.709 376.138C852.446 376.451 853.179 376.872 853.932 377.418C854.539 377.858 855.11 378.347 855.587 378.916C856.082 379.46 856.451 380.025 856.677 380.633C856.944 381.235 857.026 381.888 856.976 382.519C856.95 383.167 856.666 383.814 856.208 384.445L850.852 391.826C850.711 392.02 850.618 392.25 850.634 392.483C850.625 392.7 850.767 392.913 851.009 393.09C851.107 393.16 851.246 393.224 851.385 393.288C851.506 393.376 851.645 393.44 851.784 393.503L850.692 395.009C850.486 394.934 850.257 394.842 850.069 394.743C849.864 394.668 849.628 394.533 849.385 394.357C848.997 394.075 848.716 393.798 848.484 393.555C848.246 393.271 848.098 393.015 848.009 392.729C847.945 392.46 847.94 392.16 847.995 391.829C848.057 391.54 848.22 391.213 848.418 390.838C847.939 390.936 847.454 390.991 846.986 391.023C846.501 391.078 846.003 391.05 845.491 390.938C844.986 390.868 844.467 390.714 843.918 390.501C843.386 390.263 842.841 389.941 842.258 389.519C841.773 389.166 841.364 388.759 841.026 388.254C840.671 387.773 840.41 387.213 840.257 386.658C840.122 386.078 840.113 385.478 840.229 384.858C840.303 384.245 840.594 383.64 841.034 383.033C841.51 382.377 842.012 381.89 842.608 381.58C843.179 381.253 843.752 381.076 844.321 381.007C844.932 380.932 845.503 381.013 846.105 381.153C846.69 381.318 847.222 381.556 847.736 381.818L851.622 383.971C851.98 384.193 852.353 384.241 852.705 384.164C853.076 384.062 853.42 383.793 853.79 383.283C854.354 382.506 854.498 381.795 854.235 381.085C853.972 380.375 853.391 379.695 852.444 379.007C851.473 378.302 850.611 378.01 849.843 378.046C849.082 378.124 848.35 378.52 847.703 379.31L845.663 377.83ZM851.768 385.967C851.51 385.965 851.221 385.903 850.907 385.824C850.587 385.703 850.243 385.565 849.917 385.402C849.548 385.246 849.173 385.047 848.815 384.825L847.666 384.213C847.224 384.004 846.825 383.788 846.397 383.663C846.011 383.531 845.614 383.465 845.265 383.435C844.875 383.411 844.546 383.506 844.242 383.619C843.944 383.773 843.678 383.988 843.449 384.303C843.184 384.667 843.004 385.018 842.914 385.398C842.841 385.753 842.811 386.101 842.906 386.43C842.959 386.765 843.096 387.087 843.293 387.378C843.514 387.687 843.794 387.964 844.134 388.211C844.352 388.37 844.613 388.521 844.933 388.642C845.259 388.805 845.562 388.951 845.941 389.041C846.327 389.173 846.7 389.221 847.097 389.287C847.488 389.31 847.896 389.31 848.273 389.25C848.668 389.166 849.014 389.046 849.388 388.837C849.721 388.633 850.023 388.37 850.288 388.006L851.768 385.967ZM707.439 330.176L713.364 334.475L717.082 329.352L719.267 330.938L710.051 343.637L707.866 342.051L711.989 336.369L706.065 332.07L701.942 337.751L699.756 336.165L708.972 323.467L711.157 325.053L707.439 330.176ZM719.673 337.053C720.261 336.293 720.882 335.743 721.537 335.403C722.192 335.063 722.873 334.89 723.564 334.909C724.272 334.904 724.982 335.049 725.719 335.361C726.456 335.674 727.189 336.094 727.941 336.641C728.548 337.081 729.12 337.57 729.597 338.139C730.092 338.683 730.461 339.247 730.686 339.856C730.954 340.458 731.036 341.111 730.986 341.741C730.96 342.39 730.676 343.037 730.218 343.668L724.861 351.049C724.72 351.243 724.628 351.473 724.644 351.706C724.635 351.922 724.776 352.136 725.019 352.313C725.116 352.383 725.255 352.447 725.394 352.511C725.516 352.599 725.655 352.663 725.794 352.726L724.701 354.232C724.496 354.157 724.267 354.065 724.079 353.965C723.874 353.891 723.638 353.756 723.395 353.58C723.006 353.298 722.726 353.021 722.494 352.778C722.256 352.494 722.108 352.238 722.019 351.952C721.955 351.683 721.95 351.383 722.005 351.052C722.066 350.763 722.229 350.436 722.427 350.061C721.949 350.158 721.464 350.214 720.996 350.245C720.511 350.301 720.012 350.273 719.501 350.161C718.995 350.091 718.477 349.937 717.928 349.724C717.396 349.486 716.851 349.164 716.268 348.742C715.782 348.389 715.374 347.981 715.036 347.477C714.68 346.996 714.42 346.436 714.267 345.881C714.132 345.301 714.122 344.701 714.238 344.081C714.313 343.468 714.603 342.863 715.044 342.256C715.52 341.6 716.022 341.112 716.617 340.803C717.188 340.476 717.762 340.299 718.331 340.23C718.941 340.154 719.513 340.236 720.115 340.376C720.7 340.541 721.231 340.779 721.746 341.041L725.632 343.194C725.99 343.416 726.362 343.464 726.715 343.387C727.086 343.285 727.429 343.016 727.799 342.506C728.363 341.729 728.508 341.018 728.245 340.308C727.982 339.598 727.401 338.917 726.454 338.23C725.483 337.525 724.62 337.233 723.853 337.269C723.092 337.347 722.36 337.742 721.712 338.533L719.673 337.053ZM725.777 345.19C725.519 345.188 725.23 345.126 724.917 345.047C724.597 344.926 724.253 344.788 723.926 344.625C723.558 344.468 723.183 344.27 722.825 344.048L721.675 343.436C721.234 343.227 720.835 343.011 720.406 342.886C720.02 342.754 719.623 342.688 719.275 342.658C718.884 342.634 718.556 342.729 718.252 342.842C717.954 342.996 717.687 343.211 717.458 343.526C717.194 343.89 717.013 344.241 716.923 344.621C716.851 344.976 716.82 345.324 716.916 345.653C716.969 345.988 717.106 346.31 717.302 346.601C717.523 346.91 717.804 347.187 718.144 347.434C718.362 347.592 718.623 347.744 718.943 347.865C719.269 348.028 719.571 348.174 719.951 348.264C720.337 348.396 720.71 348.444 721.107 348.509C721.497 348.533 721.905 348.533 722.282 348.473C722.677 348.389 723.023 348.269 723.398 348.059C723.731 347.856 724.033 347.593 724.297 347.229L725.777 345.19ZM735.682 362.238L733.497 360.652L742.712 347.954L753.007 355.425L743.791 368.123L741.606 366.537L749.447 355.733L743.523 351.434L735.682 362.238ZM756.999 360.991L757.047 361.026C757.405 360.841 757.786 360.673 758.181 360.588C758.593 360.48 759.019 360.455 759.493 360.466C759.908 360.507 760.371 360.584 760.854 360.786C761.331 360.947 761.827 361.233 762.337 361.603C763.017 362.097 763.584 362.694 764.022 363.419C764.459 364.144 764.712 364.92 764.827 365.783C764.925 366.669 764.838 367.607 764.541 368.577C764.251 369.59 763.745 370.594 762.987 371.638C762.035 372.949 761.121 373.954 760.184 374.683C759.248 375.411 758.355 375.876 757.422 376.088C756.514 376.319 755.631 376.308 754.758 376.082C753.86 375.838 753.019 375.413 752.169 374.797C751.756 374.497 751.403 374.167 751.127 373.781C750.833 373.419 750.599 373.027 750.473 372.639C750.281 372.24 750.179 371.869 750.143 371.51C750.108 371.15 750.096 370.809 750.14 370.544L750.092 370.509L745.422 376.943L743.237 375.357L756.082 357.657L758.268 359.243L756.999 360.991ZM753.567 365.617C753.056 366.322 752.688 366.981 752.387 367.652C752.11 368.341 751.934 368.992 751.908 369.64C751.876 370.247 751.993 370.851 752.254 371.411C752.491 371.953 752.888 372.427 753.471 372.85C754.078 373.29 754.676 373.539 755.313 373.631C755.926 373.705 756.513 373.612 757.104 373.411C757.713 373.185 758.277 372.816 758.845 372.339C759.39 371.845 759.903 371.291 760.414 370.587C760.943 369.858 761.328 369.174 761.647 368.479C761.942 367.766 762.118 367.115 762.144 366.467C762.169 365.818 762.076 365.232 761.815 364.672C761.53 364.094 761.108 363.603 760.501 363.162C759.919 362.739 759.345 362.508 758.756 362.452C758.143 362.377 757.532 362.453 756.948 362.696C756.339 362.922 755.775 363.291 755.189 363.792C754.627 364.311 754.096 364.889 753.567 365.617ZM766.904 371.331C767.493 370.571 768.114 370.021 768.769 369.681C769.424 369.341 770.105 369.168 770.795 369.187C771.503 369.182 772.214 369.327 772.951 369.639C773.688 369.952 774.42 370.372 775.173 370.919C775.78 371.359 776.352 371.848 776.829 372.417C777.323 372.961 777.692 373.525 777.918 374.134C778.185 374.736 778.268 375.389 778.217 376.02C778.192 376.668 777.908 377.315 777.45 377.946L772.093 385.327C771.952 385.521 771.86 385.751 771.875 385.984C771.867 386.201 772.008 386.414 772.251 386.591C772.348 386.661 772.487 386.725 772.626 386.789C772.747 386.877 772.886 386.941 773.025 387.004L771.933 388.51C771.728 388.435 771.498 388.343 771.311 388.244C771.105 388.169 770.869 388.034 770.626 387.858C770.238 387.576 769.958 387.299 769.726 387.056C769.487 386.772 769.339 386.516 769.251 386.23C769.187 385.961 769.182 385.661 769.237 385.33C769.298 385.041 769.461 384.714 769.659 384.339C769.181 384.437 768.695 384.492 768.228 384.523C767.743 384.579 767.244 384.551 766.732 384.439C766.227 384.369 765.709 384.215 765.159 384.002C764.627 383.764 764.082 383.442 763.5 383.02C763.014 382.667 762.606 382.26 762.268 381.755C761.912 381.274 761.651 380.714 761.498 380.159C761.363 379.579 761.354 378.979 761.47 378.359C761.545 377.746 761.835 377.141 762.276 376.534C762.751 375.878 763.254 375.39 763.849 375.081C764.42 374.754 764.993 374.577 765.562 374.508C766.173 374.433 766.744 374.514 767.347 374.654C767.931 374.819 768.463 375.057 768.977 375.319L772.864 377.472C773.221 377.694 773.594 377.742 773.947 377.665C774.317 377.563 774.661 377.294 775.031 376.784C775.595 376.007 775.74 375.296 775.477 374.586C775.213 373.876 774.633 373.196 773.686 372.508C772.715 371.803 771.852 371.511 771.084 371.547C770.324 371.625 769.592 372.021 768.944 372.811L766.904 371.331ZM773.009 379.468C772.751 379.466 772.462 379.404 772.149 379.325C771.829 379.204 771.485 379.066 771.158 378.903C770.789 378.747 770.414 378.548 770.057 378.326L768.907 377.714C768.466 377.505 768.066 377.289 767.638 377.164C767.252 377.032 766.855 376.966 766.506 376.936C766.116 376.912 765.787 377.007 765.483 377.12C765.186 377.274 764.919 377.489 764.69 377.804C764.426 378.168 764.245 378.519 764.155 378.899C764.083 379.254 764.052 379.602 764.147 379.931C764.2 380.266 764.338 380.588 764.534 380.879C764.755 381.188 765.035 381.465 765.375 381.712C765.594 381.871 765.854 382.022 766.174 382.143C766.501 382.306 766.803 382.452 767.183 382.542C767.569 382.674 767.941 382.722 768.339 382.788C768.729 382.811 769.137 382.811 769.514 382.751C769.909 382.667 770.255 382.547 770.63 382.338C770.963 382.134 771.265 381.871 771.529 381.507L773.009 379.468ZM780.914 385.056L791.782 383.565L794.647 385.645L784.603 386.919L785.528 398.413L782.712 396.369L781.935 387.02L779.363 387.193L776.156 391.612L773.971 390.026L783.187 377.328L785.372 378.914L780.914 385.056ZM795.493 386.259L806.419 394.188L805.044 396.082L800.674 392.91L792.833 403.715L790.647 402.129L798.489 391.324L794.118 388.153L795.493 386.259ZM803.747 407.114L803.796 407.149L817.102 401.941L819.603 403.756L810.387 416.455L808.177 414.851L815.243 405.115L815.195 405.08L801.913 410.305L799.412 408.49L808.628 395.792L810.813 397.378L803.747 407.114ZM820.511 413.793L831.378 412.303L834.243 414.382L824.2 415.656L825.125 427.151L822.308 425.107L821.532 415.758L818.96 415.93L815.753 420.349L813.568 418.763L822.783 406.065L824.969 407.651L820.511 413.793ZM840.617 432.203C840.138 432.709 839.557 433.102 838.878 433.425C838.199 433.747 837.475 433.927 836.69 433.987C835.912 434.089 835.107 434.024 834.299 433.809C833.45 433.6 832.633 433.193 831.856 432.629C831.006 432.012 830.335 431.303 829.801 430.507C829.284 429.687 828.952 428.816 828.865 427.863C828.736 426.917 828.834 425.913 829.16 424.852C829.461 423.773 830.055 422.648 830.883 421.507C831.447 420.73 832.031 420.079 832.683 419.588C833.312 419.08 833.935 418.68 834.579 418.406C835.223 418.132 835.88 417.942 836.509 417.842C837.161 417.76 837.761 417.75 838.374 417.825C838.946 417.906 839.506 418.053 840.031 418.249C840.556 418.444 841.029 418.713 841.442 419.013C842.316 419.647 843.004 420.332 843.539 421.128C844.074 421.924 844.399 422.753 844.545 423.674C844.667 424.579 844.562 425.54 844.314 426.546C843.982 427.566 843.441 428.618 842.665 429.687L841.872 430.779L832.598 424.048C832.157 424.655 831.849 425.284 831.649 425.917C831.424 426.533 831.368 427.122 831.419 427.715C831.446 428.291 831.641 428.84 831.937 429.351C832.233 429.863 832.648 430.312 833.206 430.717C833.765 431.123 834.303 431.402 834.815 431.514C835.309 431.651 835.766 431.685 836.227 431.612C836.67 431.563 837.058 431.437 837.44 431.269C837.839 431.077 838.171 430.873 838.504 430.67L840.617 432.203ZM840.956 427.445C841.372 426.821 841.68 426.192 841.887 425.6C842.045 424.974 842.084 424.409 842.04 423.858C841.977 423.331 841.765 422.806 841.493 422.312C841.18 421.825 840.771 421.417 840.237 421.03C839.751 420.677 839.22 420.44 838.666 420.334C838.088 420.211 837.53 420.214 836.968 420.325C836.405 420.436 835.863 420.672 835.334 420.993C834.787 421.337 834.296 421.759 833.866 422.3L840.956 427.445Z" fill="white"/>
</svg>
