<svg width="21" height="22" viewBox="0 0 21 22" fill="none" xmlns="http://www.w3.org/2000/svg">
<g id="facebook-fill">
<path id="Vector" d="M14.883 3.90268C14.883 3.78997 14.8382 3.68186 14.7585 3.60216C14.6788 3.52246 14.5707 3.47768 14.458 3.47768H12.333C11.2629 3.42438 10.2153 3.79676 9.41892 4.51348C8.62258 5.23019 8.14228 6.23295 8.08296 7.30268V9.59768H5.95796C5.84524 9.59768 5.73714 9.64246 5.65744 9.72216C5.57774 9.80187 5.53296 9.90997 5.53296 10.0227V12.2327C5.53296 12.3454 5.57774 12.4535 5.65744 12.5332C5.73714 12.6129 5.84524 12.6577 5.95796 12.6577H8.08296V18.3527C8.08296 18.4654 8.12774 18.5735 8.20744 18.6532C8.28714 18.7329 8.39524 18.7777 8.50796 18.7777H11.058C11.1707 18.7777 11.2788 18.7329 11.3585 18.6532C11.4382 18.5735 11.483 18.4654 11.483 18.3527V12.6577H13.71C13.8045 12.659 13.8967 12.6289 13.9722 12.5719C14.0476 12.5149 14.1019 12.4345 14.1265 12.3432L14.7385 10.1332C14.7554 10.0704 14.7576 10.0045 14.7451 9.94073C14.7326 9.87692 14.7055 9.81684 14.6661 9.76511C14.6267 9.71338 14.576 9.67138 14.5178 9.64236C14.4596 9.61333 14.3955 9.59805 14.3305 9.59768H11.483V7.30268C11.5041 7.09229 11.6029 6.89733 11.7601 6.75587C11.9173 6.61442 12.1215 6.53662 12.333 6.53768H14.458C14.5707 6.53768 14.6788 6.49291 14.7585 6.4132C14.8382 6.3335 14.883 6.2254 14.883 6.11268V3.90268Z" fill="white"/>
</g>
</svg>
