<svg width="52" height="52" viewBox="0 0 52 52" fill="none" xmlns="http://www.w3.org/2000/svg">
<path d="M26 51.0844C40.0833 51.0844 51.5 39.6677 51.5 25.5844C51.5 11.5012 40.0833 0.0844116 26 0.0844116C11.9167 0.0844116 0.5 11.5012 0.5 25.5844C0.5 39.6677 11.9167 51.0844 26 51.0844Z" fill="#101010"/>
<path d="M33.9688 12.0376C33.9688 11.8263 33.8848 11.6236 33.7354 11.4741C33.5859 11.3247 33.3832 11.2407 33.1719 11.2407H29.1875C27.1812 11.1408 25.2168 11.839 23.7237 13.1829C22.2305 14.5267 21.33 16.4069 21.2188 18.4126V22.7157H17.2344C17.023 22.7157 16.8203 22.7997 16.6709 22.9491C16.5215 23.0986 16.4375 23.3013 16.4375 23.5126V27.6564C16.4375 27.8677 16.5215 28.0704 16.6709 28.2198C16.8203 28.3693 17.023 28.4532 17.2344 28.4532H21.2188V39.1314C21.2188 39.3427 21.3027 39.5454 21.4521 39.6948C21.6016 39.8443 21.8043 39.9282 22.0156 39.9282H26.7969C27.0082 39.9282 27.2109 39.8443 27.3604 39.6948C27.5098 39.5454 27.5938 39.3427 27.5938 39.1314V28.4532H31.7694C31.9466 28.4558 32.1196 28.3992 32.261 28.2924C32.4025 28.1856 32.5043 28.0347 32.5503 27.8636L33.6978 23.7198C33.7295 23.6021 33.7338 23.4786 33.7103 23.359C33.6868 23.2393 33.6361 23.1267 33.5622 23.0297C33.4883 22.9327 33.3931 22.8539 33.284 22.7995C33.1749 22.7451 33.0547 22.7164 32.9328 22.7157H27.5938V18.4126C27.6334 18.0181 27.8187 17.6526 28.1134 17.3874C28.408 17.1221 28.791 16.9763 29.1875 16.9782H33.1719C33.3832 16.9782 33.5859 16.8943 33.7354 16.7448C33.8848 16.5954 33.9688 16.3927 33.9688 16.1814V12.0376Z" fill="white"/>
</svg>
