<svg width="28" height="26" viewBox="0 0 28 26" fill="none" xmlns="http://www.w3.org/2000/svg">
<rect y="16.9472" width="2.79994" height="2.79995" fill="black"/>
<rect y="19.7466" width="2.79994" height="2.79995" fill="black"/>
<rect x="2.80078" y="22.5467" width="2.79994" height="2.79995" fill="black"/>
<rect x="5.59961" y="22.5467" width="2.79994" height="2.79995" fill="black"/>
<rect x="8.39941" y="22.5467" width="2.79994" height="2.79995" fill="black"/>
<rect x="11.1992" y="22.5467" width="2.79994" height="2.79995" fill="black"/>
<rect x="14" y="22.5467" width="2.79994" height="2.79995" fill="black"/>
<rect x="16.7988" y="22.5467" width="2.79994" height="2.79995" fill="black"/>
<rect x="19.5996" y="22.5467" width="2.79994" height="2.79995" fill="black"/>
<rect x="22.3994" y="22.5467" width="2.79994" height="2.79995" fill="black"/>
<rect x="25.2002" y="16.9472" width="2.79994" height="2.79995" fill="black"/>
<rect x="25.2002" y="14.1471" width="2.79994" height="2.79995" fill="black"/>
<rect x="8.39941" y="19.7466" width="2.79994" height="2.79995" fill="#474444"/>
<rect x="5.59961" y="16.947" width="2.79994" height="2.79995" fill="#474444"/>
<rect x="2.80078" y="16.9468" width="2.79994" height="2.79995" fill="#474444"/>
<rect x="2.80078" y="19.7466" width="2.79994" height="2.79995" fill="#474444"/>
<rect x="22.3994" y="19.7466" width="2.79994" height="2.79995" fill="#474444"/>
<rect x="22.3994" y="16.9468" width="2.79994" height="2.79995" fill="#474444"/>
<rect x="5.59961" y="19.7466" width="2.79994" height="2.79995" fill="#474444"/>
<rect x="2.80078" y="14.1468" width="2.79994" height="2.79995" fill="#474444"/>
<rect x="5.59961" y="11.3467" width="2.79994" height="2.79995" fill="#474444"/>
<rect x="5.59961" y="14.1469" width="2.79994" height="2.79995" fill="#474444"/>
<rect x="8.39941" y="16.9471" width="2.79994" height="2.79995" fill="#474444"/>
<rect x="11.1992" y="19.7466" width="2.79994" height="2.79995" fill="#474444"/>
<rect x="14" y="19.7466" width="2.79994" height="2.79995" fill="#474444"/>
<rect x="16.7988" y="16.9471" width="2.79994" height="2.79995" fill="#474444"/>
<rect x="19.5996" y="14.1471" width="2.79994" height="2.79995" fill="#474444"/>
<rect x="16.7988" y="14.147" width="2.79994" height="2.79995" fill="#474444"/>
<rect x="14" y="14.1469" width="2.79994" height="2.79995" fill="#474444"/>
<rect x="11.1992" y="14.147" width="2.79994" height="2.79995" fill="#474444"/>
<rect x="8.39941" y="14.147" width="2.79994" height="2.79995" fill="#474444"/>
<rect x="11.1992" y="16.9471" width="2.79994" height="2.79995" fill="#474444"/>
<rect x="14" y="16.947" width="2.79994" height="2.79995" fill="#474444"/>
<rect x="8.39941" y="11.3467" width="2.79994" height="2.79995" fill="#474444"/>
<rect x="11.1992" y="11.3467" width="2.79994" height="2.79995" fill="#474444"/>
<rect x="14" y="11.3467" width="2.79994" height="2.79995" fill="#474444"/>
<rect x="16.7988" y="11.3467" width="2.79994" height="2.79995" fill="#474444"/>
<rect x="19.5996" y="11.3467" width="2.79994" height="2.79995" fill="#474444"/>
<rect x="22.3994" y="11.3467" width="2.79994" height="2.79995" fill="#474444"/>
<rect x="19.5996" y="16.9472" width="2.79994" height="2.79995" fill="#474444"/>
<rect x="19.5996" y="19.7466" width="2.79994" height="2.79995" fill="#474444"/>
<rect x="22.3994" y="14.1468" width="2.79994" height="2.79995" fill="#474444"/>
<rect x="2.80078" y="11.3467" width="2.79994" height="2.79995" fill="#474444"/>
<rect x="16.7988" y="19.7466" width="2.79994" height="2.79995" fill="#474444"/>
<rect x="25.2002" y="11.3467" width="2.79994" height="2.79995" fill="black"/>
<rect x="25.2002" y="8.54712" width="2.79994" height="2.79995" fill="black"/>
<rect x="25.2002" y="5.74725" width="2.79994" height="2.79995" fill="black"/>
<rect x="22.3994" y="5.74713" width="2.79994" height="2.79995" fill="black"/>
<rect x="19.5996" y="5.74725" width="2.79994" height="2.79995" fill="black"/>
<rect x="16.7988" y="5.74713" width="2.79994" height="2.79995" fill="black"/>
<rect x="14" y="5.74725" width="2.79994" height="2.79995" fill="black"/>
<rect x="11.1992" y="5.74713" width="2.79994" height="2.79995" fill="black"/>
<rect x="11.1992" y="2.94708" width="2.79994" height="2.79995" fill="black"/>
<rect x="11.1992" y="0.147278" width="2.79994" height="2.79995" fill="black"/>
<rect x="8.39941" y="0.147278" width="2.79994" height="2.79995" fill="black"/>
<rect x="5.59961" y="0.147278" width="2.79994" height="2.79995" fill="black"/>
<rect x="25.2002" y="19.7466" width="2.79994" height="2.79995" fill="black"/>
<rect y="14.1471" width="2.79994" height="2.79995" fill="black"/>
<rect y="11.3467" width="2.79994" height="2.79995" fill="black"/>
<rect y="8.54712" width="2.79994" height="2.79995" fill="black"/>
<rect y="5.74725" width="2.79994" height="2.79995" fill="black"/>
<rect y="2.94714" width="2.79994" height="2.79995" fill="black"/>
<rect x="2.80078" y="0.147278" width="2.79994" height="2.79995" fill="black"/>
</svg>
