<svg width="50" height="45" viewBox="0 0 50 45" fill="none" xmlns="http://www.w3.org/2000/svg">
<g id="folder">
<rect id="Rectangle 909" y="29.9995" width="5.00002" height="5.00001" fill="black"/>
<rect id="Rectangle 915" y="35.0005" width="5.00002" height="5.00001" fill="black"/>
<rect id="Rectangle 916" x="5.00024" y="39.9998" width="5.00002" height="5.00001" fill="black"/>
<rect id="Rectangle 917" x="10.0005" y="39.9998" width="5.00002" height="5.00001" fill="black"/>
<rect id="Rectangle 918" x="14.9998" y="39.9998" width="5.00002" height="5.00001" fill="black"/>
<rect id="Rectangle 919" x="19.9998" y="39.9998" width="5.00002" height="5.00001" fill="black"/>
<rect id="Rectangle 920" x="25.0002" y="39.9998" width="5.00002" height="5.00001" fill="black"/>
<rect id="Rectangle 921" x="30.0002" y="39.9998" width="5.00002" height="5.00001" fill="black"/>
<rect id="Rectangle 922" x="35.0005" y="39.9998" width="5.00002" height="5.00001" fill="black"/>
<rect id="Rectangle 923" x="39.9998" y="39.9998" width="5.00002" height="5.00001" fill="black"/>
<rect id="Rectangle 924" x="45" y="29.9995" width="5.00002" height="5.00001" fill="black"/>
<rect id="Rectangle 926" x="45" y="25" width="5.00002" height="5.00001" fill="black"/>
<rect id="Rectangle 940" x="14.9998" y="35.0005" width="5.00002" height="5.00001" fill="#2313DB"/>
<rect id="Rectangle 941" x="10.0005" y="29.9995" width="5.00002" height="5.00001" fill="#2313DB"/>
<rect id="Rectangle 968" x="5.00024" y="29.9995" width="5.00002" height="5.00001" fill="#2313DB"/>
<rect id="Rectangle 969" x="5.00024" y="35.0005" width="5.00002" height="5.00001" fill="#2313DB"/>
<rect id="Rectangle 970" x="39.9998" y="35.0005" width="5.00002" height="5.00001" fill="#2313DB"/>
<rect id="Rectangle 971" x="39.9998" y="29.9995" width="5.00002" height="5.00001" fill="#2313DB"/>
<rect id="Rectangle 967" x="10.0005" y="35.0005" width="5.00002" height="5.00001" fill="#2313DB"/>
<rect id="Rectangle 942" x="5.00024" y="25" width="5.00002" height="5.00001" fill="#2313DB"/>
<rect id="Rectangle 943" x="10.0005" y="20.0007" width="5.00002" height="5.00001" fill="#2313DB"/>
<rect id="Rectangle 954" x="10.0005" y="25" width="5.00002" height="5.00001" fill="#2313DB"/>
<rect id="Rectangle 955" x="14.9998" y="29.9995" width="5.00002" height="5.00001" fill="#2313DB"/>
<rect id="Rectangle 956" x="19.9998" y="35.0005" width="5.00002" height="5.00001" fill="#2313DB"/>
<rect id="Rectangle 957" x="25.0002" y="35.0005" width="5.00002" height="5.00001" fill="#2313DB"/>
<rect id="Rectangle 958" x="30.0002" y="29.9995" width="5.00002" height="5.00001" fill="#2313DB"/>
<rect id="Rectangle 959" x="35.0005" y="25" width="5.00002" height="5.00001" fill="#2313DB"/>
<rect id="Rectangle 960" x="30.0002" y="25" width="5.00002" height="5.00001" fill="#2313DB"/>
<rect id="Rectangle 961" x="25.0002" y="25" width="5.00002" height="5.00001" fill="#2313DB"/>
<rect id="Rectangle 962" x="19.9998" y="25" width="5.00002" height="5.00001" fill="#2313DB"/>
<rect id="Rectangle 963" x="14.9998" y="25" width="5.00002" height="5.00001" fill="#2313DB"/>
<rect id="Rectangle 964" x="19.9998" y="29.9995" width="5.00002" height="5.00001" fill="#2313DB"/>
<rect id="Rectangle 965" x="25.0002" y="29.9995" width="5.00002" height="5.00001" fill="#2313DB"/>
<rect id="Rectangle 948" x="14.9998" y="20.0007" width="5.00002" height="5.00001" fill="#2313DB"/>
<rect id="Rectangle 949" x="19.9998" y="20.0007" width="5.00002" height="5.00001" fill="#2313DB"/>
<rect id="Rectangle 950" x="25.0002" y="20.0007" width="5.00002" height="5.00001" fill="#2313DB"/>
<rect id="Rectangle 951" x="30.0002" y="20.0007" width="5.00002" height="5.00001" fill="#2313DB"/>
<rect id="Rectangle 952" x="35.0005" y="20.0007" width="5.00002" height="5.00001" fill="#2313DB"/>
<rect id="Rectangle 953" x="39.9998" y="20.0007" width="5.00002" height="5.00001" fill="#2313DB"/>
<rect id="Rectangle 944" x="35.0005" y="29.9995" width="5.00002" height="5.00001" fill="#2313DB"/>
<rect id="Rectangle 966" x="35.0005" y="35.0005" width="5.00002" height="5.00001" fill="#2313DB"/>
<rect id="Rectangle 945" x="39.9998" y="25" width="5.00002" height="5.00001" fill="#2313DB"/>
<rect id="Rectangle 946" x="5.00024" y="20.0007" width="5.00002" height="5.00001" fill="#2313DB"/>
<rect id="Rectangle 947" x="30.0002" y="35.0005" width="5.00002" height="5.00001" fill="#2313DB"/>
<rect id="Rectangle 927" x="45" y="20.0007" width="5.00002" height="5.00001" fill="black"/>
<rect id="Rectangle 928" x="45" y="14.9998" width="5.00002" height="5.00001" fill="black"/>
<rect id="Rectangle 929" x="45" y="10.0002" width="5.00002" height="5.00001" fill="black"/>
<rect id="Rectangle 930" x="39.9998" y="10.0002" width="5.00002" height="5.00001" fill="black"/>
<rect id="Rectangle 931" x="35.0005" y="10.0002" width="5.00002" height="5.00001" fill="black"/>
<rect id="Rectangle 932" x="30.0002" y="10.0002" width="5.00002" height="5.00001" fill="black"/>
<rect id="Rectangle 933" x="25.0002" y="10.0002" width="5.00002" height="5.00001" fill="black"/>
<rect id="Rectangle 934" x="19.9998" y="10.0002" width="5.00002" height="5.00001" fill="black"/>
<rect id="Rectangle 935" x="19.9998" y="4.99951" width="5.00002" height="5.00001" fill="black"/>
<rect id="Rectangle 936" x="19.9998" width="5.00002" height="5.00001" fill="black"/>
<rect id="Rectangle 937" x="14.9998" width="5.00002" height="5.00001" fill="black"/>
<rect id="Rectangle 938" x="10.0005" width="5.00002" height="5.00001" fill="black"/>
<rect id="Rectangle 925" x="45" y="35.0005" width="5.00002" height="5.00001" fill="black"/>
<rect id="Rectangle 910" y="25" width="5.00002" height="5.00001" fill="black"/>
<rect id="Rectangle 911" y="20.0007" width="5.00002" height="5.00001" fill="black"/>
<rect id="Rectangle 912" y="14.9998" width="5.00002" height="5.00001" fill="black"/>
<rect id="Rectangle 913" y="10.0002" width="5.00002" height="5.00001" fill="black"/>
<rect id="Rectangle 914" y="4.99951" width="5.00002" height="5.00001" fill="black"/>
<rect id="Rectangle 939" x="5.00024" width="5.00002" height="5.00001" fill="black"/>
</g>
</svg>
