<svg width="32" height="48" viewBox="0 0 32 48" fill="none" xmlns="http://www.w3.org/2000/svg">
<path d="M8.69119 2.59836C8.69119 1.14236 7.25119 0.742364 5.76319 0.742364C4.27519 0.742364 2.82719 1.14236 2.82719 2.59836C2.82719 4.05436 4.27519 4.45436 5.76319 4.45436C7.25119 4.45436 8.69119 4.05436 8.69119 2.59836ZM8.08319 2.59836C8.08319 2.86236 7.99519 3.07836 7.81919 3.24636L4.11519 1.67036C4.51519 1.48636 5.08319 1.39836 5.76319 1.39836C7.17119 1.39836 8.08319 1.77436 8.08319 2.59836ZM5.76319 3.79836C4.35519 3.79836 3.43519 3.42236 3.43519 2.59836C3.43519 2.37436 3.49919 2.18236 3.62719 2.03036L7.29119 3.57436C6.89919 3.72636 6.37919 3.79836 5.76319 3.79836Z" fill="black"/>
<path d="M2.97119 47.0095V47.7135H8.62719V47.1855C7.69119 46.9455 7.61119 46.8335 7.55519 45.5135H7.02719V47.0095H2.97119Z" fill="black"/>
<path d="M15.9712 2.58716L31.7712 2.58716" stroke="black" stroke-miterlimit="10"/>
<path d="M26.5212 44.3585L26.5212 2.58716L21.2212 2.58716L21.2212 44.3585H26.5212Z" fill="black"/>
<path d="M15.9712 44.3585H31.7712" stroke="black" stroke-miterlimit="10"/>
</svg>
