<svg width="137" height="136" viewBox="0 0 137 136" fill="none" xmlns="http://www.w3.org/2000/svg">
<path d="M69.5947 0.0999756H67.5947V49.5H69.5947V0.0999756Z" fill="black"/>
<path d="M69.5947 85.7H67.5947V135.1H69.5947V85.7Z" fill="black"/>
<path d="M50.4946 66.6H1.09473V68.6H50.4946V66.6Z" fill="black"/>
<path d="M136.095 66.6H86.6948V68.6H136.095V66.6Z" fill="black"/>
<path d="M68.5948 113.9C42.9948 113.9 22.1948 93.1 22.1948 67.5C22.1948 41.9 42.9948 21.1 68.5948 21.1C94.1948 21.1 114.995 41.9 114.995 67.5C114.995 93.1 94.0948 113.9 68.5948 113.9ZM68.5948 23.2C44.0948 23.2 24.1948 43.1 24.1948 67.6C24.1948 92.1 44.0948 112 68.5948 112C93.0948 112 112.995 92.1 112.995 67.6C112.995 43.1 92.9949 23.2 68.5948 23.2Z" fill="black"/>
<path d="M69.5947 66.6H86.6947C86.1947 57.4 78.7947 50 69.5947 49.5V66.6Z" fill="black"/>
<path d="M67.5947 66.6V49.5C58.3947 50 50.9946 57.4 50.4946 66.6H67.5947Z" fill="black"/>
<path d="M67.5947 68.6H50.4946C50.9946 77.8 58.3947 85.2 67.5947 85.7V68.6Z" fill="black"/>
<path d="M69.5947 68.6V85.7C78.7947 85.2 86.1947 77.8 86.6947 68.6H69.5947Z" fill="black"/>
</svg>
