<svg width="28" height="28" viewBox="0 0 28 28" fill="none" xmlns="http://www.w3.org/2000/svg">
<g id="Instagram">
<g id="back">
<path id="path-1" d="M0.23291 14.1277C0.23291 6.61664 6.32184 0.52771 13.8329 0.52771C21.344 0.52771 27.4329 6.61664 27.4329 14.1277C27.4329 21.6388 21.344 27.7277 13.8329 27.7277C6.32184 27.7277 0.23291 21.6388 0.23291 14.1277Z" fill="#101010"/>
</g>
<g id="Shape Clipped">
<mask id="mask0_1150_7083" style="mask-type:alpha" maskUnits="userSpaceOnUse" x="0" y="0" width="28" height="28">
<path id="path-1_2" fill-rule="evenodd" clip-rule="evenodd" d="M0.23291 14.1277C0.23291 6.61664 6.32184 0.52771 13.8329 0.52771C21.344 0.52771 27.4329 6.61664 27.4329 14.1277C27.4329 21.6388 21.344 27.7277 13.8329 27.7277C6.32184 27.7277 0.23291 21.6388 0.23291 14.1277Z" fill="white"/>
</mask>
<g mask="url(#mask0_1150_7083)">
<path id="Shape" fill-rule="evenodd" clip-rule="evenodd" d="M13.8331 6.8739C11.8632 6.8739 11.616 6.88251 10.8423 6.91772C10.0701 6.95308 9.54303 7.07533 9.08183 7.25471C8.60477 7.43997 8.20009 7.68779 7.79692 8.09111C7.39345 8.49428 7.14562 8.89896 6.95975 9.37587C6.77993 9.83722 6.65753 10.3645 6.62277 11.1363C6.58817 11.91 6.5791 12.1574 6.5791 14.1273C6.5791 16.0972 6.58787 16.3437 6.62292 17.1174C6.65844 17.8896 6.78069 18.4166 6.95991 18.8778C7.14532 19.3549 7.39315 19.7596 7.79647 20.1627C8.19948 20.5662 8.60416 20.8146 9.08092 20.9999C9.54242 21.1793 10.0697 21.3015 10.8417 21.3369C11.6154 21.3721 11.8625 21.3807 13.8322 21.3807C15.8023 21.3807 16.0487 21.3721 16.8224 21.3369C17.5946 21.3015 18.1223 21.1793 18.5838 20.9999C19.0607 20.8146 19.4648 20.5662 19.8678 20.1627C20.2713 19.7596 20.5191 19.3549 20.705 18.878C20.8833 18.4166 21.0057 17.8894 21.0419 17.1175C21.0767 16.3438 21.0858 16.0972 21.0858 14.1273C21.0858 12.1574 21.0767 11.9102 21.0419 11.1365C21.0057 10.3643 20.8833 9.83722 20.705 9.37602C20.5191 8.89896 20.2713 8.49428 19.8678 8.09111C19.4643 7.68764 19.0609 7.43982 18.5833 7.25471C18.1209 7.07533 17.5936 6.95308 16.8214 6.91772C16.0477 6.88251 15.8014 6.8739 13.8308 6.8739H13.8331ZM13.5917 8.18163H13.5918L13.8336 8.1817C15.7703 8.1817 15.9998 8.18866 16.7646 8.22341C17.4718 8.25575 17.8556 8.37392 18.1113 8.4732C18.4498 8.60467 18.6911 8.76183 18.9448 9.01569C19.1987 9.26956 19.3559 9.51134 19.4876 9.84984C19.5869 10.1052 19.7052 10.489 19.7374 11.1963C19.7722 11.9609 19.7797 12.1906 19.7797 14.1263C19.7797 16.0621 19.7722 16.2918 19.7374 17.0564C19.7051 17.7636 19.5869 18.1474 19.4876 18.4028C19.3562 18.7413 19.1987 18.9823 18.9448 19.236C18.691 19.4899 18.4499 19.6471 18.1113 19.7785C17.8559 19.8783 17.4718 19.9961 16.7646 20.0285C15.9999 20.0632 15.7703 20.0708 13.8336 20.0708C11.8968 20.0708 11.6672 20.0632 10.9026 20.0285C10.1954 19.9958 9.81158 19.8777 9.55574 19.7784C9.21725 19.6469 8.97547 19.4898 8.7216 19.2359C8.46773 18.982 8.31057 18.7409 8.1788 18.4022C8.07952 18.1468 7.9612 17.763 7.92901 17.0558C7.89426 16.2912 7.88731 16.0615 7.88731 14.1245C7.88731 12.1875 7.89426 11.9591 7.92901 11.1944C7.96135 10.4872 8.07952 10.1034 8.1788 9.84772C8.31027 9.50923 8.46773 9.26745 8.7216 9.01358C8.97547 8.75971 9.21725 8.60255 9.55574 8.47078C9.81143 8.37105 10.1954 8.25318 10.9026 8.22069C11.5717 8.19047 11.831 8.1814 13.1829 8.17989V8.1817C13.3092 8.18151 13.445 8.18157 13.5915 8.18163H13.5916H13.5917ZM16.8345 10.2554C16.8345 9.77474 17.2244 9.38533 17.7049 9.38533V9.38503C18.1855 9.38503 18.5753 9.7749 18.5753 10.2554C18.5753 10.736 18.1855 11.1258 17.7049 11.1258C17.2244 11.1258 16.8345 10.736 16.8345 10.2554ZM13.8323 10.4023C11.7752 10.4024 10.1075 12.0702 10.1075 14.1272C10.1075 16.1843 11.7753 17.8514 13.8324 17.8514C15.8895 17.8514 17.5567 16.1843 17.5567 14.1272C17.5567 12.0701 15.8894 10.4023 13.8323 10.4023ZM16.2513 14.1272C16.2513 12.7918 15.1687 11.7094 13.8335 11.7094C12.4981 11.7094 11.4157 12.7918 11.4157 14.1272C11.4157 15.4624 12.4981 16.545 13.8335 16.545C15.1687 16.545 16.2513 15.4624 16.2513 14.1272Z" fill="white"/>
</g>
</g>
</g>
</svg>
