<svg width="34" height="34" viewBox="0 0 34 34" fill="none" xmlns="http://www.w3.org/2000/svg">
<g id="Group">
<path id="Vector" d="M17.3941 3.89017C21.8113 3.89017 22.3344 3.90955 24.0716 3.98704C25.6861 4.05808 26.5579 4.32931 27.1391 4.55534C27.9076 4.8524 28.463 5.21404 29.0377 5.78879C29.6189 6.37 29.9741 6.91893 30.2712 7.68742C30.4972 8.26863 30.7684 9.1469 30.8395 10.7549C30.917 12.4985 30.9363 13.0216 30.9363 17.4324C30.9363 21.8496 30.917 22.3727 30.8395 24.1098C30.7684 25.7243 30.4972 26.5961 30.2712 27.1773C29.9741 27.9458 29.6125 28.5012 29.0377 29.076C28.4565 29.6572 27.9076 30.0124 27.1391 30.3094C26.5579 30.5354 25.6796 30.8067 24.0716 30.8777C22.328 30.9552 21.8049 30.9746 17.3941 30.9746C12.9769 30.9746 12.4539 30.9552 10.7167 30.8777C9.10221 30.8067 8.23039 30.5354 7.64918 30.3094C6.88069 30.0124 6.32532 29.6507 5.75056 29.076C5.16935 28.4947 4.81417 27.9458 4.51711 27.1773C4.29108 26.5961 4.01985 25.7179 3.94881 24.1098C3.87132 22.3662 3.85194 21.8431 3.85194 17.4324C3.85194 13.0152 3.87132 12.4921 3.94881 10.7549C4.01985 9.14044 4.29108 8.26863 4.51711 7.68742C4.81417 6.91893 5.17581 6.36355 5.75056 5.78879C6.33177 5.20758 6.88069 4.8524 7.64918 4.55534C8.23039 4.32931 9.10867 4.05808 10.7167 3.98704C12.4539 3.90955 12.9769 3.89017 17.3941 3.89017ZM17.3941 0.913086C12.9059 0.913086 12.3441 0.93246 10.5811 1.00995C8.82452 1.08745 7.61689 1.3716 6.57072 1.77844C5.47933 2.20466 4.55585 2.7665 3.63883 3.68998C2.71535 4.607 2.15352 5.53048 1.7273 6.61541C1.32045 7.66804 1.0363 8.86921 0.958807 10.6258C0.881312 12.3952 0.861938 12.9571 0.861938 17.4453C0.861938 21.9335 0.881312 22.4954 0.958807 24.2584C1.0363 26.0149 1.32045 27.2225 1.7273 28.2687C2.15352 29.3601 2.71535 30.2836 3.63883 31.2006C4.55585 32.1176 5.47933 32.6859 6.56426 33.1057C7.61689 33.5125 8.81806 33.7967 10.5746 33.8742C12.3376 33.9517 12.8994 33.971 17.3877 33.971C21.8759 33.971 22.4378 33.9517 24.2008 33.8742C25.9573 33.7967 27.1649 33.5125 28.2111 33.1057C29.296 32.6859 30.2195 32.1176 31.1365 31.2006C32.0536 30.2836 32.6219 29.3601 33.0416 28.2752C33.4485 27.2225 33.7326 26.0214 33.8101 24.2648C33.8876 22.5018 33.907 21.94 33.907 17.4517C33.907 12.9635 33.8876 12.4017 33.8101 10.6387C33.7326 8.88212 33.4485 7.6745 33.0416 6.62832C32.6348 5.53048 32.0729 4.607 31.1495 3.68998C30.2324 2.77296 29.309 2.20466 28.224 1.7849C27.1714 1.37805 25.9702 1.09391 24.2137 1.01641C22.4442 0.93246 21.8824 0.913086 17.3941 0.913086Z" fill="black"/>
<path id="Vector_2" d="M17.3961 8.95312C12.7076 8.95312 8.90393 12.7568 8.90393 17.4453C8.90393 22.1337 12.7076 25.9374 17.3961 25.9374C22.0845 25.9374 25.8882 22.1337 25.8882 17.4453C25.8882 12.7568 22.0845 8.95312 17.3961 8.95312ZM17.3961 22.9538C14.3544 22.9538 11.8875 20.4869 11.8875 17.4453C11.8875 14.4036 14.3544 11.9367 17.3961 11.9367C20.4377 11.9367 22.9046 14.4036 22.9046 17.4453C22.9046 20.4869 20.4377 22.9538 17.3961 22.9538Z" fill="black"/>
<path id="Vector_3" d="M28.2044 8.6171C28.2044 9.71494 27.3132 10.5997 26.2218 10.5997C25.124 10.5997 24.2393 9.70848 24.2393 8.6171C24.2393 7.51925 25.1304 6.63452 26.2218 6.63452C27.3132 6.63452 28.2044 7.52571 28.2044 8.6171Z" fill="black"/>
</g>
</svg>
