<svg width="300" height="95" viewBox="0 0 300 95" fill="none" xmlns="http://www.w3.org/2000/svg">
<path fill-rule="evenodd" clip-rule="evenodd" d="M23.4503 5.25316C19.8542 5.25316 16.4154 6.72777 13.9365 9.33285L8.87228 14.6547C6.54892 17.0962 5.25316 20.3376 5.25316 23.7079V76.1709C5.25316 83.424 11.133 89.3038 18.3861 89.3038H39.3987V94.557H18.3861C8.23173 94.557 0 86.3252 0 76.1709V23.7079C0 18.9894 1.81406 14.4516 5.06676 11.0334L10.1309 5.71156C13.6015 2.06444 18.4158 0 23.4503 0H39.3987V5.25316H23.4503Z" fill="black"/>
<path fill-rule="evenodd" clip-rule="evenodd" d="M17.2825 91.2305L23.8489 75.7993L28.6826 77.8562L22.1162 93.2874L17.2825 91.2305Z" fill="black"/>
<path fill-rule="evenodd" clip-rule="evenodd" d="M2.4035 76.432L16.1932 66.4887L19.2656 70.7497L5.47594 80.693L2.4035 76.432Z" fill="black"/>
<path fill-rule="evenodd" clip-rule="evenodd" d="M31.5189 5.20975C24.2658 5.20975 18.386 11.041 18.386 18.2341V60.5633C18.386 67.7565 24.2658 73.5877 31.5189 73.5877H39.3986V78.7975H31.5189C21.3645 78.7975 13.1328 70.6338 13.1328 60.5633V18.2341C13.1328 8.1637 21.3645 0 31.5189 0H39.3986V5.20975H31.5189Z" fill="black"/>
<path fill-rule="evenodd" clip-rule="evenodd" d="M260.399 5.25316H39.3987V0H260.399V5.25316Z" fill="black"/>
<path d="M50.714 37.5354C51.1553 37.5354 51.565 37.4723 51.9748 37.3462C52.353 37.2202 52.6997 37.0626 53.0149 36.7789C53.2986 36.5268 53.5192 36.2431 53.7083 35.8649C53.8659 35.4866 53.9605 35.0769 53.9605 34.5726C53.9605 33.9422 53.8344 33.4379 53.5822 33.0281C53.3301 32.5869 53.0149 32.2717 52.6367 32.0511C52.2584 31.8304 51.8172 31.6413 51.3129 31.5468C50.8401 31.4522 50.3673 31.4207 49.8945 31.4207C49.2326 31.4207 48.6968 31.4837 48.2555 31.6098C47.7827 31.7359 47.373 31.8935 47.0578 32.1141C46.7111 32.3032 46.4274 32.5238 46.2068 32.776C45.9861 33.0597 45.8286 33.2803 45.7025 33.5325C45.5764 33.8161 45.4818 34.0368 45.4188 34.2574C45.3873 34.478 45.3558 34.6356 45.3558 34.7932H41.0062C41.0062 34.478 41.0377 34.0683 41.1322 33.5955C41.1953 33.1227 41.3529 32.6184 41.5735 32.1141C41.7941 31.5783 42.1093 31.074 42.5506 30.5381C42.9603 30.0023 43.4962 29.5295 44.1896 29.1198C44.883 28.71 45.7025 28.3633 46.7111 28.0797C47.6882 27.8275 48.8859 27.7014 50.2412 27.7014C51.6911 27.7014 52.9518 27.8906 53.992 28.2688C55.0321 28.647 55.8831 29.1513 56.545 29.7502C57.2069 30.349 57.7112 31.0425 58.0264 31.7674C58.3416 32.5238 58.4992 33.2173 58.4992 33.9422C58.4992 34.3519 58.4362 34.7617 58.3731 35.203C58.247 35.6442 58.0894 36.0855 57.8058 36.4952C57.5536 36.905 57.2069 37.3147 56.7656 37.6614C56.3244 38.0081 55.7255 38.3233 55.0321 38.544V38.607L55.8201 38.8276C56.1037 38.9222 56.4189 39.0483 56.7341 39.2059C57.0493 39.395 57.333 39.6156 57.6482 39.8678C57.9318 40.1514 58.2155 40.4666 58.4362 40.8764C58.6883 41.2861 58.8774 41.7589 59.035 42.3262C59.1611 42.8936 59.2556 43.524 59.2556 44.2804C59.2556 45.2575 59.035 46.2031 58.6253 47.0541C58.2155 47.9366 57.5851 48.6931 56.7972 49.355C55.9777 50.0169 55.0006 50.5212 53.8029 50.8994C52.6051 51.2776 51.2498 51.4668 49.7369 51.4668C48.9489 51.4668 48.161 51.4352 47.4045 51.3407C46.6165 51.2461 45.9231 51.0885 45.2297 50.8994C44.5363 50.6788 43.8744 50.3636 43.2755 50.0169C42.6767 49.6702 42.1724 49.2289 41.7311 48.6931C41.2898 48.1888 40.9431 47.5584 40.7225 46.8335C40.4703 46.1085 40.3443 45.2575 40.3443 44.3119H44.6939C44.6939 44.6902 44.7884 45.0684 44.9775 45.4781C45.1351 45.8879 45.4188 46.2661 45.8286 46.5813C46.2383 46.928 46.7426 47.2117 47.4045 47.4323C48.0349 47.6214 48.8229 47.7475 49.7684 47.7475C50.6194 47.7475 51.3444 47.6214 51.9432 47.4323C52.5421 47.2432 53.0464 46.9595 53.4246 46.6444C53.8344 46.2976 54.0865 45.9194 54.2756 45.5097C54.4332 45.0684 54.5278 44.6271 54.5278 44.1859C54.5278 43.4925 54.4017 42.9251 54.1811 42.4838C53.9289 42.0741 53.6137 41.7274 53.2355 41.5068C52.8888 41.2861 52.4791 41.1285 52.0378 41.0655C51.628 41.0025 51.2183 40.9709 50.8401 40.9709H46.8056V37.5354H50.714ZM82.7634 50.8994H77.6258L76.1759 46.2346H67.8234L66.2474 50.8994H61.2674L69.3678 28.2688H74.7576L82.7634 50.8994ZM72.0469 33.3749H71.9839L69.0841 42.3262H74.8521L72.0469 33.3749ZM103.934 50.8994H99.2062V32.1771H90.3179V50.8994H85.59V28.2688H103.934V50.8994ZM112.875 43.6816H112.938L121.89 28.2688H126.681V50.8994H122.142V35.5812H122.079L113.128 50.8994H108.337V28.2688H112.875V43.6816ZM145.487 34.9508C145.393 34.6671 145.267 34.415 145.109 34.0998C144.952 33.8161 144.731 33.5325 144.51 33.2488C144.258 32.9966 143.974 32.7445 143.596 32.5238C143.25 32.3032 142.808 32.1456 142.304 31.988C141.8 31.8619 141.232 31.7989 140.539 31.7989C140.255 31.7989 139.909 31.8304 139.53 31.8935C139.152 31.988 138.742 32.1141 138.333 32.3032C137.923 32.5238 137.513 32.8075 137.103 33.1542C136.725 33.5009 136.347 33.9737 136.063 34.5411C135.717 35.1399 135.464 35.8333 135.275 36.6528C135.086 37.4723 134.992 38.4494 134.992 39.5841C134.992 40.8133 135.118 41.885 135.37 42.8621C135.622 43.8392 136 44.6587 136.473 45.3206C136.946 45.9825 137.545 46.4868 138.238 46.8335C138.9 47.1802 139.688 47.3693 140.539 47.3693C141.548 47.3693 142.336 47.2117 142.966 46.928C143.596 46.6128 144.101 46.2346 144.479 45.7933C144.857 45.3521 145.141 44.8793 145.298 44.4065C145.487 43.9337 145.645 43.4925 145.74 43.1457H150.436C150.184 44.5641 149.774 45.7933 149.175 46.8335C148.576 47.8736 147.851 48.7246 147 49.418C146.149 50.1114 145.204 50.6157 144.132 50.9625C143.06 51.3092 141.926 51.4668 140.728 51.4668C139.058 51.4668 137.545 51.1831 136.252 50.6157C134.96 50.0799 133.857 49.2604 132.974 48.2518C132.092 47.2117 131.43 45.9509 130.957 44.4695C130.484 43.0197 130.264 41.3807 130.264 39.5841C130.264 38.1973 130.39 36.9365 130.673 35.8018C130.926 34.6671 131.304 33.6585 131.777 32.776C132.249 31.8935 132.817 31.1685 133.479 30.5066C134.109 29.8762 134.802 29.3404 135.59 28.9307C136.347 28.5209 137.135 28.2057 137.986 27.9851C138.837 27.796 139.688 27.7014 140.539 27.7014C141.768 27.7014 142.871 27.8275 143.817 28.0797C144.762 28.3633 145.613 28.6785 146.338 29.1198C147.063 29.5611 147.662 30.0338 148.167 30.6012C148.671 31.1685 149.112 31.7359 149.427 32.3032C149.742 32.9021 149.963 33.5009 150.152 34.0683C150.31 34.6671 150.404 35.203 150.436 35.7073H145.708L145.487 34.9508ZM173.75 50.8994H168.612L167.162 46.2346H158.81L157.234 50.8994H152.254L160.354 28.2688H165.744L173.75 50.8994ZM163.033 33.3749H162.97L160.071 42.3262H165.839L163.033 33.3749ZM193.282 32.1771H186.379V50.8994H181.651V32.1771H174.748V28.2688H193.282V32.1771ZM200.982 37.1887H205.489C205.836 37.1887 206.245 37.1887 206.813 37.2202C207.317 37.2202 207.884 37.3147 208.483 37.4408C209.082 37.5669 209.713 37.756 210.311 38.0397C210.91 38.3233 211.446 38.7016 211.95 39.2059C212.455 39.7417 212.833 40.3721 213.148 41.16C213.463 41.948 213.621 42.9251 213.621 44.0598C213.621 45.1945 213.463 46.1716 213.148 46.9595C212.833 47.716 212.455 48.3464 211.982 48.8822C211.509 49.3865 210.973 49.7647 210.406 50.0484C209.807 50.3006 209.24 50.5212 208.704 50.6473C208.137 50.7733 207.632 50.8679 207.191 50.8679C206.75 50.8994 206.403 50.8994 206.182 50.8994H196.254V28.2688H200.982V37.1887ZM204.985 46.9911C205.426 46.9911 205.867 46.9595 206.308 46.8965C206.781 46.8335 207.191 46.7074 207.569 46.4868C207.979 46.2976 208.263 45.9825 208.515 45.5727C208.767 45.163 208.893 44.6271 208.893 43.9652C208.893 43.2403 208.767 42.7045 208.546 42.2947C208.294 41.885 207.979 41.5698 207.569 41.3807C207.191 41.16 206.75 41.034 206.277 41.0025C205.773 40.9394 205.3 40.9079 204.796 40.9079H200.982V46.9911H204.985ZM231.303 34.9508C231.208 34.6671 231.082 34.415 230.925 34.0998C230.767 33.8161 230.546 33.5325 230.326 33.2488C230.074 32.9966 229.79 32.7445 229.412 32.5238C229.065 32.3032 228.624 32.1456 228.119 31.988C227.615 31.8619 227.048 31.7989 226.354 31.7989C226.071 31.7989 225.724 31.8304 225.346 31.8935C224.967 31.988 224.558 32.1141 224.148 32.3032C223.738 32.5238 223.328 32.8075 222.919 33.1542C222.54 33.5009 222.162 33.9737 221.879 34.5411C221.532 35.1399 221.28 35.8333 221.091 36.6528C220.902 37.4723 220.807 38.4494 220.807 39.5841C220.807 40.8133 220.933 41.885 221.185 42.8621C221.437 43.8392 221.816 44.6587 222.288 45.3206C222.761 45.9825 223.36 46.4868 224.053 46.8335C224.715 47.1802 225.503 47.3693 226.354 47.3693C227.363 47.3693 228.151 47.2117 228.781 46.928C229.412 46.6128 229.916 46.2346 230.294 45.7933C230.672 45.3521 230.956 44.8793 231.114 44.4065C231.303 43.9337 231.46 43.4925 231.555 43.1457H236.251C235.999 44.5641 235.589 45.7933 234.99 46.8335C234.392 47.8736 233.667 48.7246 232.816 49.418C231.965 50.1114 231.019 50.6157 229.947 50.9625C228.876 51.3092 227.741 51.4668 226.543 51.4668C224.873 51.4668 223.36 51.1831 222.068 50.6157C220.775 50.0799 219.672 49.2604 218.79 48.2518C217.907 47.2117 217.245 45.9509 216.773 44.4695C216.3 43.0197 216.079 41.3807 216.079 39.5841C216.079 38.1973 216.205 36.9365 216.489 35.8018C216.741 34.6671 217.119 33.6585 217.592 32.776C218.065 31.8935 218.632 31.1685 219.294 30.5066C219.924 29.8762 220.618 29.3404 221.406 28.9307C222.162 28.5209 222.95 28.2057 223.801 27.9851C224.652 27.796 225.503 27.7014 226.354 27.7014C227.584 27.7014 228.687 27.8275 229.632 28.0797C230.578 28.3633 231.429 28.6785 232.154 29.1198C232.879 29.5611 233.478 30.0338 233.982 30.6012C234.486 31.1685 234.927 31.7359 235.243 32.3032C235.558 32.9021 235.778 33.5009 235.968 34.0683C236.125 34.6671 236.22 35.203 236.251 35.7073H231.523L231.303 34.9508ZM253.482 41.9795H249.258C248.534 41.9795 247.903 41.9795 247.304 42.0426C246.705 42.0741 246.201 42.2002 245.76 42.4208C245.319 42.673 244.94 43.0512 244.688 43.5555C244.405 44.0598 244.215 44.7847 244.152 45.7303L243.995 47.8736C243.963 48.3464 243.932 48.7876 243.869 49.1028C243.837 49.4495 243.774 49.7017 243.711 49.9223C243.68 50.1745 243.617 50.3321 243.554 50.4897C243.522 50.6473 243.459 50.7733 243.427 50.8994H238.511L238.889 50.1745C238.952 49.9538 239.046 49.7332 239.109 49.5126C239.141 49.2919 239.204 49.0083 239.235 48.7246L239.362 47.5584L239.582 45.4151C239.645 44.7532 239.74 44.1544 239.866 43.6185C239.96 43.0827 240.118 42.6099 240.37 42.2002C240.591 41.7589 240.906 41.4122 241.316 41.097C241.725 40.7818 242.261 40.5297 242.955 40.309C242.671 40.2145 242.324 40.0884 242.009 39.8993C241.631 39.7417 241.284 39.458 240.906 39.0798C240.402 38.5755 240.023 37.9766 239.74 37.2517C239.425 36.5583 239.298 35.7703 239.298 34.9193C239.298 34.3835 239.362 33.8792 239.456 33.3749C239.582 32.9021 239.74 32.4608 239.96 32.0195C240.15 31.5783 240.402 31.2 240.685 30.8218C240.969 30.4751 241.284 30.1599 241.599 29.8762C242.072 29.4665 242.576 29.1828 243.144 28.9622C243.711 28.7416 244.278 28.584 244.877 28.4894C245.476 28.3633 246.107 28.3003 246.737 28.3003C247.367 28.2688 247.966 28.2688 248.597 28.2688H258.052V50.8994H253.482V41.9795ZM247.777 32.2402C247.588 32.2717 247.399 32.2717 247.178 32.2717L246.453 32.3663C246.233 32.3978 246.012 32.4293 245.854 32.4923C245.665 32.5554 245.445 32.6814 245.224 32.8075C245.003 32.9651 244.814 33.1542 244.657 33.3749C244.468 33.5955 244.31 33.8476 244.184 34.1944C244.089 34.5095 244.026 34.8878 244.026 35.329C244.026 35.8018 244.089 36.2431 244.247 36.5583C244.373 36.905 244.562 37.1571 244.783 37.3778C245.035 37.6299 245.287 37.7875 245.571 37.8821C245.886 38.0081 246.17 38.1027 246.485 38.1657L247.367 38.2603C247.651 38.2603 247.935 38.2603 248.155 38.2603H253.482V32.2402H247.777Z" fill="black"/>
<path fill-rule="evenodd" clip-rule="evenodd" d="M260.399 78.7991H39.3987V73.5459H260.399V78.7991Z" fill="black"/>
<path fill-rule="evenodd" clip-rule="evenodd" d="M260.399 94.5586H39.3987V89.3054H260.399V94.5586Z" fill="black"/>
<path fill-rule="evenodd" clip-rule="evenodd" d="M276.347 5.25316C279.943 5.25316 283.382 6.72777 285.861 9.33285L290.925 14.6547C293.248 17.0962 294.544 20.3376 294.544 23.7079V76.1709C294.544 83.424 288.664 89.3038 281.411 89.3038H260.399V94.557H281.411C291.566 94.557 299.797 86.3252 299.797 76.1709V23.7079C299.797 18.9894 297.983 14.4516 294.731 11.0334L289.666 5.71156C286.196 2.06444 281.382 0 276.347 0H260.399V5.25316H276.347Z" fill="black"/>
<path fill-rule="evenodd" clip-rule="evenodd" d="M282.515 91.2305L275.948 75.7993L271.115 77.8562L277.681 93.2874L282.515 91.2305Z" fill="black"/>
<path fill-rule="evenodd" clip-rule="evenodd" d="M297.394 76.432L283.604 66.4887L280.532 70.7497L294.321 80.693L297.394 76.432Z" fill="black"/>
<path fill-rule="evenodd" clip-rule="evenodd" d="M268.278 5.20975C275.532 5.20975 281.411 11.041 281.411 18.2341V60.5633C281.411 67.7565 275.532 73.5877 268.278 73.5877H260.399V78.7975H268.278C278.433 78.7975 286.665 70.6338 286.665 60.5633V18.2341C286.665 8.1637 278.433 0 268.278 0H260.399V5.20975H268.278Z" fill="black"/>
</svg>
