<svg width="19" height="19" viewBox="0 0 19 19" fill="none" xmlns="http://www.w3.org/2000/svg">
<path d="M11.4796 6.40768C10.9005 6.40569 10.3267 6.51791 9.791 6.73792C9.25532 6.95792 8.76828 7.28139 8.35774 7.68982C7.94721 8.09825 7.62124 8.58362 7.39848 9.11816C7.17573 9.6527 7.06056 10.2259 7.05957 10.805V15.2477C7.05957 15.428 7.13121 15.601 7.25874 15.7285C7.38626 15.856 7.55922 15.9277 7.73957 15.9277H9.32624C9.50658 15.9277 9.67954 15.856 9.80707 15.7285C9.93459 15.601 10.0062 15.428 10.0062 15.2477V10.805C10.0061 10.5991 10.0493 10.3954 10.1332 10.2072C10.217 10.0191 10.3396 9.85078 10.4929 9.71319C10.6461 9.57561 10.8267 9.47187 11.0227 9.40873C11.2188 9.3456 11.4259 9.3245 11.6307 9.34679C11.9979 9.39304 12.3354 9.57245 12.5791 9.85098C12.8228 10.1295 12.9558 10.4878 12.9529 10.8579V15.2477C12.9529 15.428 13.0245 15.601 13.1521 15.7285C13.2796 15.856 13.4526 15.9277 13.6329 15.9277H15.2196C15.3999 15.9277 15.5729 15.856 15.7004 15.7285C15.8279 15.601 15.8996 15.428 15.8996 15.2477V10.805C15.8986 10.2259 15.7834 9.6527 15.5607 9.11816C15.3379 8.58362 15.0119 8.09825 14.6014 7.68982C14.1909 7.28139 13.7038 6.95792 13.1681 6.73792C12.6325 6.51791 12.0587 6.40569 11.4796 6.40768Z" fill="white"/>
<path d="M5.01932 7.08771H2.97932C2.60376 7.08771 2.29932 7.39215 2.29932 7.76771V15.2477C2.29932 15.6233 2.60376 15.9277 2.97932 15.9277H5.01932C5.39487 15.9277 5.69932 15.6233 5.69932 15.2477V7.76771C5.69932 7.39215 5.39487 7.08771 5.01932 7.08771Z" fill="white"/>
<path d="M3.99932 5.7277C4.9382 5.7277 5.69932 4.96658 5.69932 4.0277C5.69932 3.08881 4.9382 2.3277 3.99932 2.3277C3.06043 2.3277 2.29932 3.08881 2.29932 4.0277C2.29932 4.96658 3.06043 5.7277 3.99932 5.7277Z" fill="white"/>
</svg>
