<svg width="34" height="34" viewBox="0 0 34 34" fill="none" xmlns="http://www.w3.org/2000/svg">
<g id="Group">
<path id="Vector" d="M30.9463 0.913086H2.77055C1.42085 0.913086 0.329468 1.97864 0.329468 3.29605V31.5881C0.329468 32.9055 1.42085 33.9775 2.77055 33.9775H30.9463C32.296 33.9775 33.3939 32.9055 33.3939 31.5945V3.29605C33.3939 1.97864 32.296 0.913086 30.9463 0.913086ZM10.139 29.0889H5.23101V13.3058H10.139V29.0889ZM7.68501 11.1553C6.10928 11.1553 4.83708 9.8831 4.83708 8.31383C4.83708 6.74456 6.10928 5.47236 7.68501 5.47236C9.25427 5.47236 10.5265 6.74456 10.5265 8.31383C10.5265 9.87664 9.25427 11.1553 7.68501 11.1553ZM28.5052 29.0889H23.6037V21.4169C23.6037 19.5893 23.5714 17.2322 21.0528 17.2322C18.502 17.2322 18.1145 19.2277 18.1145 21.2877V29.0889H13.2194V13.3058H17.9208V15.4627H17.9853C18.6376 14.2228 20.2392 12.9118 22.6221 12.9118C27.5882 12.9118 28.5052 16.1795 28.5052 20.4288V29.0889Z" fill="black"/>
</g>
</svg>
