<svg width="52" height="52" viewBox="0 0 52 52" fill="none" xmlns="http://www.w3.org/2000/svg">
<circle cx="26" cy="25.5844" r="25.5" fill="#101010"/>
<path d="M30.4624 20.4844C29.3766 20.4807 28.3007 20.6911 27.2964 21.1036C26.292 21.5161 25.3788 22.1226 24.609 22.8884C23.8392 23.6542 23.2281 24.5643 22.8104 25.5666C22.3927 26.5688 22.1768 27.6436 22.1749 28.7294V37.0594C22.1749 37.3976 22.3093 37.7219 22.5484 37.961C22.7875 38.2001 23.1118 38.3344 23.4499 38.3344H26.4249C26.7631 38.3344 27.0874 38.2001 27.3265 37.961C27.5656 37.7219 27.6999 37.3976 27.6999 37.0594V28.7294C27.6996 28.3432 27.7808 27.9613 27.938 27.6086C28.0952 27.2559 28.325 26.9402 28.6124 26.6823C28.8997 26.4243 29.2382 26.2298 29.6058 26.1114C29.9734 25.993 30.3618 25.9535 30.7458 25.9953C31.4343 26.082 32.067 26.4184 32.524 26.9406C32.981 27.4629 33.2304 28.1347 33.2249 28.8286V37.0594C33.2249 37.3976 33.3593 37.7219 33.5984 37.961C33.8375 38.2001 34.1618 38.3344 34.4999 38.3344H37.4749C37.8131 38.3344 38.1374 38.2001 38.3765 37.961C38.6156 37.7219 38.7499 37.3976 38.7499 37.0594V28.7294C38.7481 27.6436 38.5321 26.5688 38.1145 25.5666C37.6968 24.5643 37.0856 23.6542 36.3159 22.8884C35.5461 22.1226 34.6329 21.5161 33.6285 21.1036C32.6241 20.6911 31.5482 20.4807 30.4624 20.4844Z" fill="white"/>
<path d="M18.35 21.7593H14.525C13.8208 21.7593 13.25 22.3301 13.25 23.0343V37.0593C13.25 37.7634 13.8208 38.3343 14.525 38.3343H18.35C19.0542 38.3343 19.625 37.7634 19.625 37.0593V23.0343C19.625 22.3301 19.0542 21.7593 18.35 21.7593Z" fill="white"/>
<path d="M16.4375 19.2094C18.1979 19.2094 19.625 17.7823 19.625 16.0219C19.625 14.2615 18.1979 12.8344 16.4375 12.8344C14.6771 12.8344 13.25 14.2615 13.25 16.0219C13.25 17.7823 14.6771 19.2094 16.4375 19.2094Z" fill="white"/>
</svg>
