<svg width="205" height="47" viewBox="0 0 205 47" fill="none" xmlns="http://www.w3.org/2000/svg">
<g style="mix-blend-mode:luminosity" clip-path="url(#clip0_3572_1626)">
<path d="M31.6806 0.191932C30.0806 6.08016 27.1365 11.2644 22.9763 15.7445C18.3681 20.6727 12.7999 24.1289 6.27164 25.9849C4.28757 26.561 2.30349 27.073 0.191406 27.073C0.191406 18.3046 0.191406 9.5363 0.191406 0.767955C0.191406 0.255935 0.319411 0.12793 0.831431 0.12793C11.0718 0.191932 21.3762 0.191932 31.6806 0.191932Z" fill="#2B7AF5"/>
<path d="M16.8319 46.2736C15.9998 45.8896 15.1038 45.8896 14.2078 45.6976C8.44755 44.0975 4.35139 40.5774 1.79129 35.1371C1.59929 34.6891 1.53528 34.4971 2.17531 34.3691C7.74353 33.6011 12.9277 31.873 17.7919 29.0569C18.2399 28.8009 18.5599 28.7369 18.88 29.3129C21.8241 33.9211 24.7682 38.5293 27.7123 43.1375C28.0323 43.6495 27.9043 43.7775 27.4563 44.0335C25.4082 45.1215 23.2321 45.8256 20.928 46.0816C20.736 46.0816 20.544 46.0176 20.416 46.2736C19.264 46.2736 18.0479 46.2736 16.8319 46.2736Z" fill="#2B7AF5"/>
<path d="M204.999 19.2006C204.039 19.2006 203.143 19.1366 202.183 19.1366C201.671 19.1366 201.351 18.9446 201.095 18.4966C199.111 14.9765 197.127 11.5203 195.143 8.0002C195.015 7.8082 194.887 7.55219 194.759 7.36018C194.567 7.61619 194.631 7.8722 194.631 8.12821C194.631 11.5203 194.631 14.9765 194.631 18.3686C194.631 18.9446 194.503 19.2646 193.863 19.2006C193.031 19.0726 191.943 19.5206 191.495 19.0086C191.111 18.5606 191.367 17.4726 191.367 16.7045C191.367 12.0964 191.367 7.55219 191.367 2.94401C191.367 2.30398 191.559 2.11198 192.199 2.17598C192.647 2.23998 193.159 2.23998 193.607 2.17598C194.759 1.98397 195.271 2.49599 195.783 3.45603C197.511 6.72015 199.367 9.85627 201.159 13.0564C201.287 13.2484 201.415 13.4404 201.543 13.6324C201.863 13.5044 201.735 13.3124 201.735 13.1204C201.735 9.72827 201.735 6.27214 201.735 2.88001C201.735 2.23998 201.863 2.04797 202.503 2.11198C203.335 2.17598 204.167 2.11198 204.999 2.04797C204.999 7.8082 204.999 13.5044 204.999 19.2006Z" fill="#010519"/>
<path d="M37.3129 6.72021C37.3129 8.19227 37.3129 9.47232 37.3129 10.6884C37.3129 16.6406 37.3769 22.6568 37.2489 28.6091C37.1849 32.1292 35.9048 35.2653 33.9847 38.1454C33.4727 38.9135 33.3447 38.8495 32.8967 38.0814C30.1446 33.7933 27.3925 29.4411 24.6404 25.1529C24.3203 24.6409 24.4484 24.3849 24.8324 24.0649C30.2726 19.3927 34.3047 13.6965 37.0568 7.10423C37.0568 7.04023 37.1208 7.04023 37.3129 6.72021Z" fill="#2B7AF5"/>
<path d="M99.3952 6.01621C98.4991 10.1764 97.5391 14.4005 96.643 18.5607C96.515 19.0087 96.323 19.1367 95.875 19.1367C95.171 19.0727 94.403 19.0727 93.6989 19.1367C93.1869 19.1367 93.0589 18.9447 92.9309 18.4967C92.0349 14.4005 91.1388 10.3044 90.2428 6.20822C90.1788 5.95221 90.1148 5.7602 89.9868 5.50419C89.9868 6.78424 89.9868 8.06429 89.9868 9.34433C89.9868 12.3524 89.9868 15.3606 89.9868 18.3687C89.9868 19.0087 89.7948 19.2007 89.1548 19.1367C88.5787 19.0727 88.0027 19.0727 87.4267 19.1367C86.8507 19.2007 86.7227 18.9447 86.7227 18.4327C86.7227 13.2485 86.7227 8.06429 86.7227 2.81609C86.7227 2.24007 86.8507 2.11206 87.4267 2.11206C88.6427 2.17606 89.8588 2.17606 91.0108 2.11206C91.6508 2.11206 91.8429 2.30407 91.9709 2.94409C92.8669 6.97624 93.7629 10.9444 94.659 14.9125C94.659 14.9765 94.723 15.0406 94.787 15.4246C95.107 14.0805 95.363 12.9285 95.619 11.8404C96.323 8.83231 97.0271 5.8242 97.6671 2.81609C97.7951 2.30407 97.9231 2.17606 98.4351 2.17606C99.7152 2.24007 100.995 2.17606 102.275 2.17606C102.723 2.17606 102.851 2.30407 102.851 2.75208C102.851 8.00028 102.851 13.3125 102.851 18.5607C102.851 19.0727 102.659 19.2007 102.211 19.1367C101.571 19.1367 100.931 19.0727 100.291 19.1367C99.7152 19.2007 99.5872 18.9447 99.5872 18.4327C99.5872 14.2725 99.5872 10.1764 99.6512 6.01621C99.6512 5.7602 99.6512 5.44019 99.6512 5.18418H99.5872C99.5232 5.50419 99.4592 5.7602 99.3952 6.01621Z" fill="#010519"/>
<path d="M67.2665 10.4323C67.2025 12.6724 66.8825 14.5924 65.6665 16.3205C65.4745 16.5765 65.5385 16.7045 65.7305 16.8965C66.1145 17.2805 66.4985 17.6646 66.8825 17.9846C67.2665 18.3046 67.3305 18.4966 66.9465 18.8806C66.4345 19.3286 66.0505 20.1607 65.5385 20.2247C65.0265 20.2887 64.5144 19.4566 64.0664 19.0086C63.6824 18.5606 63.3624 18.5606 62.7864 18.8166C57.9222 21.4407 51.9699 18.1766 51.3299 12.5444C51.0739 10.3043 51.1379 8.06418 52.1619 5.9521C53.57 2.87998 56.8341 1.21592 60.2903 1.66394C63.8104 2.17596 66.4345 4.60805 67.0745 7.93618C67.2025 8.83221 67.2665 9.66425 67.2665 10.4323ZM62.8504 14.4644C63.9384 12.2243 64.0664 9.40824 63.2344 7.36016C62.5304 5.56809 61.1863 4.60805 59.2662 4.60805C57.3461 4.60805 55.8741 5.63209 55.2341 7.42416C55.0421 8.00018 54.85 8.5762 54.786 9.21623C54.658 11.1363 54.53 13.1204 55.7461 14.8484C56.9621 16.5765 59.3942 17.1525 61.0583 16.1285C60.9943 16.0645 60.9303 15.9365 60.8663 15.8725C59.4582 14.4004 59.4582 14.4644 60.9303 12.9924C61.3143 12.6724 61.5063 12.7364 61.7623 12.9924C62.0823 13.4404 62.4023 13.8884 62.8504 14.4644Z" fill="#010519"/>
<path d="M71.5542 30.6571C71.5542 30.9131 71.5542 31.1691 71.5542 31.4251C71.5542 34.8173 71.5542 38.2734 71.5542 41.6655C71.5542 42.2415 71.4902 42.4976 70.8501 42.4335C70.2101 42.3695 69.5061 42.3695 68.8661 42.4335C68.482 42.4335 68.29 42.3695 68.29 41.9215C68.29 36.6093 68.29 31.2331 68.29 25.9209C68.29 25.4729 68.482 25.4089 68.8021 25.4089C69.6981 25.4089 70.5941 25.4089 71.4902 25.4089C71.9382 25.4089 72.0662 25.6649 72.2582 25.9849C74.1783 29.441 76.0983 32.8332 78.0824 36.2893C78.2104 36.4813 78.2744 36.8013 78.5944 36.9933C78.5944 36.6733 78.5944 36.4813 78.5944 36.2253C78.5944 32.8972 78.5944 29.5051 78.5944 26.1769C78.5944 25.6009 78.7225 25.3449 79.3625 25.4089C80.0025 25.4729 80.6425 25.4729 81.2826 25.4089C81.7946 25.4089 81.9226 25.5369 81.9226 26.0489C81.9226 31.2971 81.9226 36.6093 81.9226 41.8575C81.9226 42.2415 81.7946 42.4335 81.4106 42.3695H81.3466C80.3865 42.3695 79.2345 42.6256 78.5304 42.2415C77.8264 41.8575 77.5064 40.7055 77.0584 39.9375C75.4583 37.0573 73.8583 34.2412 72.1942 31.3611C72.0662 31.1051 71.8742 30.8491 71.7462 30.5931C71.6182 30.6571 71.5542 30.6571 71.5542 30.6571Z" fill="#010519"/>
<path d="M133.892 34.3053C135.364 34.9453 135.876 36.1614 135.876 37.6334C135.876 38.4654 135.876 39.3615 135.94 40.1935C135.94 40.8335 136.004 41.4096 136.516 41.9216C136.772 42.1776 136.772 42.4336 136.26 42.4336C135.236 42.4336 134.212 42.4336 133.252 42.4336C132.868 42.4336 132.804 42.2416 132.676 41.9216C132.42 40.9615 132.42 40.0015 132.42 39.0415C132.42 36.1614 131.972 35.7133 129.028 35.7133C128.324 35.7133 127.62 35.7773 126.98 35.7133C126.212 35.6493 126.084 35.9693 126.084 36.6734C126.148 38.4014 126.084 40.0655 126.084 41.7936C126.084 42.3056 125.956 42.4976 125.444 42.4336C124.74 42.3696 123.972 42.3696 123.268 42.4336C122.756 42.4976 122.692 42.2416 122.692 41.7936C122.692 36.5454 122.692 31.2972 122.692 26.049C122.692 25.6649 122.692 25.4089 123.204 25.4089C126.084 25.4729 128.9 25.3449 131.78 25.4729C135.428 25.6009 137.476 29.2491 135.876 32.5132C135.428 33.3452 134.788 33.8573 133.892 34.3053ZM128.644 28.353C127.876 28.353 127.236 28.353 126.532 28.353C126.212 28.353 126.02 28.4171 126.084 28.8011C126.084 30.0171 126.084 31.2332 126.084 32.4492C126.084 32.7052 126.084 32.9612 126.468 32.8972C128.068 32.8332 129.668 33.0252 131.268 32.7692C132.356 32.5772 132.868 31.9372 132.868 30.7211C132.868 29.4411 132.356 28.6731 131.268 28.4171C130.372 28.225 129.476 28.4171 128.644 28.353Z" fill="#010519"/>
<path d="M168.134 10.6243C168.134 8.00018 168.134 5.37607 168.134 2.81598C168.134 2.49596 168.006 2.11195 168.582 2.11195C171.014 2.11195 173.51 2.04795 175.942 2.17595C179.206 2.36796 181.126 4.03202 181.894 7.29615C182.534 9.92025 182.406 12.5444 181.382 15.0405C180.294 17.6646 178.31 19.1366 175.366 19.1366C173.126 19.1366 170.95 19.1366 168.71 19.1366C168.198 19.1366 168.07 18.9446 168.07 18.4326C168.198 15.8725 168.198 13.2484 168.134 10.6243ZM171.526 10.6243C171.526 12.2243 171.526 13.7604 171.526 15.3605C171.526 16.0005 171.654 16.2565 172.358 16.1925C173.126 16.1285 173.894 16.1925 174.662 16.1925C176.454 16.1925 177.606 15.4245 178.182 13.7604C178.95 11.7123 178.95 9.60024 178.374 7.48816C177.926 5.9521 176.966 5.24807 175.302 5.18407C174.214 5.12006 173.19 5.18407 172.102 5.18407C171.59 5.18407 171.526 5.37607 171.526 5.82409C171.59 7.36015 171.526 9.02422 171.526 10.6243Z" fill="#010519"/>
<path d="M150.085 30.465C149.893 30.465 149.701 30.465 149.509 30.465C148.805 30.529 148.293 30.465 148.229 29.569C148.165 29.057 147.717 28.609 147.269 28.353C145.989 27.7129 144.645 27.6489 143.365 28.2249C142.597 28.545 142.149 29.185 142.149 30.017C142.149 30.8491 142.725 31.2971 143.493 31.5531C145.093 32.0011 146.693 32.3851 148.293 32.8331C148.549 32.8971 148.805 32.9611 149.061 33.0251C150.917 33.6652 152.197 34.8172 152.389 36.8653C152.581 38.9774 151.749 40.7054 149.957 41.7935C148.357 42.8175 146.629 42.9455 144.773 42.8175C143.365 42.7535 142.021 42.3695 140.869 41.6015C139.525 40.6414 138.821 39.2974 138.693 37.6973C138.629 37.3133 138.693 37.1213 139.141 37.1853C139.589 37.1853 139.973 37.2493 140.421 37.1853C141.445 37.0573 142.213 37.1213 142.341 38.4013C142.341 38.7214 142.661 38.9774 142.853 39.1694C144.005 40.1934 147.205 40.2574 148.357 39.2334C149.381 38.3373 149.189 36.8653 147.973 36.2893C146.629 35.6492 145.221 35.5212 143.813 35.1372C143.237 34.9452 142.661 34.8172 142.021 34.6252C140.165 34.0492 139.077 32.8331 138.885 30.9131C138.693 28.737 139.397 26.8809 141.317 25.9209C144.069 24.5128 146.885 24.5768 149.509 26.2409C150.853 27.0729 151.493 28.417 151.685 29.953C151.749 30.465 151.557 30.593 151.109 30.529C150.853 30.465 150.469 30.465 150.085 30.465Z" fill="#010519"/>
<path d="M107.203 33.9212C107.203 31.2971 107.203 28.673 107.203 26.1129C107.203 25.6009 107.331 25.4729 107.843 25.4729C111.491 25.4729 115.14 25.4729 118.788 25.4729C119.3 25.4729 119.492 25.6009 119.492 26.1129C119.428 26.6889 119.428 27.265 119.492 27.777C119.556 28.353 119.3 28.481 118.788 28.481C116.292 28.481 113.86 28.481 111.363 28.481C110.851 28.481 110.595 28.609 110.659 29.185C110.723 29.9531 110.723 30.6571 110.659 31.4251C110.659 31.9371 110.787 32.1292 111.299 32.1292C113.539 32.1292 115.78 32.1292 118.02 32.1292C118.596 32.1292 118.852 32.1932 118.788 32.8332C118.66 33.5372 119.108 34.5612 118.596 34.9453C118.148 35.3293 117.252 35.0733 116.484 35.0733C114.756 35.0733 113.027 35.0733 111.299 35.0733C110.787 35.0733 110.595 35.2013 110.595 35.7133C110.659 36.6733 110.659 37.6334 110.595 38.5934C110.531 39.3614 110.851 39.4254 111.491 39.4254C114.052 39.3614 116.612 39.4254 119.172 39.4254C119.748 39.4254 119.94 39.5534 119.876 40.1295C119.812 40.7695 119.876 41.4095 119.876 42.0495C119.876 42.4336 119.748 42.4976 119.428 42.4976C115.524 42.4976 111.619 42.4976 107.651 42.4976C107.139 42.4976 107.203 42.2415 107.203 41.9215C107.203 39.1694 107.203 36.5453 107.203 33.9212Z" fill="#010519"/>
<path d="M64.9614 31.8732C64.8974 33.6013 65.0894 35.7773 64.8334 37.8894C64.4494 40.7055 62.6573 42.4336 59.8412 42.7536C58.6252 42.8816 57.4731 42.8816 56.3211 42.6896C53.249 42.1136 51.6489 40.2575 51.5849 36.8654C51.4569 33.2172 51.5209 29.5691 51.5209 25.921C51.5209 25.4729 51.7129 25.4089 52.0969 25.4089C52.8649 25.4089 53.697 25.4729 54.465 25.4089C54.977 25.4089 55.041 25.601 55.041 26.049C55.041 29.2491 55.041 32.5132 55.041 35.7133C55.041 36.2894 55.105 36.8014 55.169 37.3774C55.361 38.9775 56.3211 39.8095 57.9851 39.8095C59.9052 39.8735 60.9292 39.1695 61.2493 37.5054C61.3773 36.9294 61.3773 36.4174 61.3773 35.8413C61.3773 32.6412 61.3773 29.3771 61.3773 26.177C61.3773 25.601 61.4413 25.3449 62.0813 25.4089C62.9773 25.5369 64.1934 25.0249 64.7694 25.601C65.2814 26.113 64.8974 27.329 64.8974 28.2251C64.9614 29.3131 64.9614 30.4011 64.9614 31.8732Z" fill="#010519"/>
<path d="M164.102 19.1365C162.246 19.1365 162.246 19.1365 161.734 17.4085C161.222 15.6804 161.222 15.6804 159.366 15.6804C158.086 15.6804 156.87 15.6804 155.59 15.6804C155.142 15.6804 154.95 15.8084 154.822 16.2564C154.566 17.0245 154.31 17.7925 154.054 18.6245C153.926 19.0085 153.733 19.2646 153.285 19.2006C152.517 19.1365 151.685 19.1365 150.917 19.2006C150.341 19.2646 150.277 19.0725 150.469 18.5605C152.197 13.7603 153.862 8.96016 155.526 4.15998C156.23 2.1759 156.23 2.1759 158.342 2.1759C160.134 2.1759 160.134 2.1759 160.774 3.90397C162.502 8.76815 164.166 13.6323 165.894 18.4965C166.15 19.1365 165.958 19.2646 165.382 19.2006C164.87 19.1365 164.486 19.1365 164.102 19.1365ZM158.15 6.27206C158.086 6.27206 158.022 6.27206 157.958 6.27206C157.318 8.25613 156.678 10.2402 156.038 12.2243C155.91 12.6723 156.102 12.6723 156.422 12.6723C157.51 12.6723 158.534 12.6723 159.622 12.6723C160.006 12.6723 160.134 12.6083 160.006 12.1603C159.366 10.2402 158.79 8.25613 158.15 6.27206Z" fill="#010519"/>
<path d="M118.852 19.1366C117.06 19.1366 117.06 19.1366 116.484 17.3446C115.972 15.6165 115.972 15.6165 114.116 15.6165C112.964 15.6165 111.812 15.6805 110.66 15.6165C109.892 15.5525 109.636 15.8725 109.444 16.5125C109.252 17.2166 108.995 17.9206 108.739 18.6246C108.611 19.0086 108.419 19.1366 108.035 19.1366C107.203 19.1366 106.371 19.0726 105.539 19.1366C104.899 19.2006 104.899 18.9446 105.091 18.4326C106.563 14.3365 107.971 10.1763 109.444 6.08013C109.828 4.92809 110.276 3.84004 110.596 2.688C110.724 2.23998 110.916 2.04797 111.428 2.04797C112.324 2.11198 113.22 2.11198 114.116 2.04797C114.564 2.04797 114.756 2.17598 114.948 2.624C116.804 7.8722 118.596 13.1844 120.452 18.4326C120.644 18.9446 120.516 19.1366 119.94 19.0726C119.684 19.1366 119.236 19.1366 118.852 19.1366ZM112.836 6.01613C112.132 8.25622 111.428 10.3043 110.788 12.3524C110.66 12.6724 110.916 12.6724 111.108 12.6724C112.196 12.6724 113.348 12.6724 114.436 12.6724C114.756 12.6724 114.884 12.5444 114.756 12.2244C114.18 10.3043 113.54 8.25622 112.836 6.01613Z" fill="#010519"/>
<path d="M76.7387 2.11206C78.7227 2.11206 78.7227 2.11206 79.3628 4.03214C81.0268 8.83232 82.6909 13.5685 84.355 18.3687C84.611 19.1367 84.419 19.2007 83.7789 19.2007C83.0109 19.1367 82.1789 19.1367 81.4108 19.2007C80.9628 19.2007 80.8348 19.0727 80.7068 18.6887C80.4508 17.8567 80.1948 17.0246 79.9388 16.1926C79.8748 15.8726 79.6828 15.7446 79.2988 15.7446C77.5707 15.7446 75.8426 15.7446 74.1146 15.7446C73.7305 15.7446 73.5385 15.8726 73.4745 16.2566C73.2185 17.0886 72.8985 17.8567 72.7065 18.6887C72.5785 19.2007 72.3225 19.2647 71.8105 19.2647C71.0424 19.2007 70.3384 19.2007 69.5704 19.2647C68.8664 19.3287 68.8664 19.0727 69.0584 18.4967C70.4664 14.5285 71.8105 10.6244 73.2185 6.65624C73.6665 5.44019 74.1146 4.22414 74.4986 2.94409C74.6906 2.36807 74.9466 2.11206 75.5866 2.17606C75.9066 2.17606 76.3546 2.11206 76.7387 2.11206ZM76.7387 6.27222C76.6747 6.27222 76.6107 6.27222 76.6107 6.27222C75.9706 8.2563 75.3306 10.2404 74.6906 12.2245C74.5626 12.6725 74.7546 12.6725 75.0746 12.6725C76.1626 12.6725 77.1867 12.6725 78.2747 12.6725C78.7227 12.6725 78.7867 12.5445 78.6587 12.1604C78.0187 10.2404 77.3787 8.2563 76.7387 6.27222Z" fill="#010519"/>
<path d="M97.7955 38.0175C98.2436 36.4174 98.7556 34.7534 99.2036 33.1533C99.9076 30.7852 100.612 28.4171 101.252 25.985C101.38 25.473 101.572 25.345 102.084 25.409C102.852 25.409 103.62 25.473 104.388 25.409C104.964 25.345 105.028 25.537 104.836 26.049C103.492 30.0172 102.148 34.0493 100.804 38.0175C100.356 39.2975 99.9076 40.5776 99.5236 41.8576C99.3956 42.2417 99.2036 42.4337 98.8196 42.3697C97.9235 42.3057 96.8355 42.6257 96.1315 42.2417C95.4915 41.8576 95.4915 40.7056 95.1714 39.8736C93.6354 35.2654 92.0993 30.6572 90.5633 26.113C90.3713 25.473 90.4993 25.345 91.1393 25.409C92.0993 25.473 93.3154 25.025 94.0194 25.601C94.6594 26.113 94.6594 27.3291 94.9154 28.2891C95.8115 31.5532 96.7715 34.8174 97.6675 38.0175C97.6675 38.0175 97.7315 38.0175 97.7955 38.0175Z" fill="#010519"/>
<path d="M174.406 25.4089C175.558 25.4089 176.774 25.4089 177.99 25.4089C178.374 25.4089 178.438 25.7289 178.566 25.9849C179.526 27.969 180.422 29.9531 181.382 32.0012C181.51 32.2572 181.574 32.5132 181.83 32.7052C182.79 30.5291 183.75 28.417 184.711 26.3049C184.967 25.6649 185.351 25.3449 186.055 25.4089C186.823 25.4729 187.591 25.4729 188.359 25.4089C189.063 25.3449 188.999 25.6009 188.743 26.0489C187.143 29.057 185.607 32.0012 184.006 35.0093C183.622 35.6493 183.494 36.2893 183.494 37.0573C183.558 38.6574 183.494 40.1935 183.494 41.7935C183.494 42.2415 183.43 42.4335 182.918 42.4335C182.15 42.3695 181.318 42.3695 180.55 42.4335C180.102 42.4335 180.038 42.3055 180.038 41.8575C180.038 40.1295 180.038 38.4014 180.038 36.6733C180.038 36.2253 179.91 35.7773 179.718 35.3933C177.99 32.2572 176.262 29.121 174.534 25.9209C174.47 25.7929 174.342 25.6649 174.406 25.4089Z" fill="#010519"/>
<path d="M164.998 35.3292C164.998 33.2172 164.998 31.1051 164.998 28.993C164.998 28.545 164.87 28.353 164.358 28.353C163.078 28.417 161.798 28.353 160.518 28.353C160.07 28.353 159.942 28.225 159.942 27.7769C160.006 27.1369 160.006 26.4969 159.942 25.8569C159.942 25.4089 160.07 25.3448 160.518 25.3448C164.678 25.3448 168.774 25.3448 172.934 25.3448C173.446 25.3448 173.574 25.4729 173.574 25.9849C173.51 26.5609 173.51 27.1369 173.574 27.6489C173.638 28.161 173.446 28.417 172.87 28.353C171.654 28.289 170.438 28.353 169.286 28.353C168.71 28.353 168.518 28.481 168.518 29.121C168.518 33.2812 168.518 37.4413 168.518 41.6015C168.518 42.2415 168.326 42.4335 167.75 42.3695C166.854 42.3055 165.638 42.7535 165.126 42.1775C164.678 41.6655 164.998 40.5134 164.998 39.6174C164.998 38.2093 164.998 36.8013 164.998 35.3292Z" fill="#010519"/>
<path d="M137.157 10.5602C137.157 8.00009 137.157 5.37598 137.157 2.81589C137.157 2.23986 137.285 2.04786 137.861 2.11186C138.565 2.17586 139.269 2.17586 139.909 2.11186C140.549 2.04786 140.677 2.30387 140.677 2.87989C140.677 6.97605 140.677 11.0722 140.613 15.1684C140.613 15.9364 140.869 16.0644 141.509 16.0644C143.749 16.0004 145.989 16.0644 148.229 16.0644C148.741 16.0644 148.933 16.1924 148.933 16.7044C148.869 17.4725 149.253 18.4325 148.805 18.9445C148.357 19.4565 147.333 19.0725 146.565 19.1365C143.685 19.1365 140.741 19.1365 137.861 19.1365C137.285 19.1365 137.093 19.0085 137.093 18.3685C137.157 15.8084 137.157 13.1843 137.157 10.5602Z" fill="#010519"/>
<path d="M122.948 10.5603C122.948 8.00019 122.948 5.37609 122.948 2.81599C122.948 2.30397 123.076 2.11196 123.588 2.11196C124.292 2.17596 125.06 2.17596 125.764 2.11196C126.34 2.04796 126.468 2.30397 126.468 2.81599C126.468 6.97615 126.468 11.1363 126.468 15.2965C126.468 15.9365 126.66 16.0645 127.3 16.0645C129.54 16.0005 131.78 16.0645 134.02 16.0645C134.596 16.0645 134.916 16.1285 134.852 16.8325C134.788 17.4085 134.788 17.9846 134.852 18.5606C134.852 18.9446 134.724 19.1366 134.34 19.1366C130.756 19.1366 127.172 19.1366 123.652 19.1366C123.076 19.1366 123.076 18.8806 123.076 18.4326C122.948 15.8085 122.948 13.1844 122.948 10.5603Z" fill="#010519"/>
<path d="M188.167 10.6244C188.167 13.1845 188.167 15.7446 188.167 18.3047C188.167 19.0087 187.975 19.2007 187.271 19.1367C186.567 19.0727 185.863 19.0727 185.223 19.1367C184.774 19.1367 184.646 19.0087 184.646 18.5607C184.646 13.2485 184.646 7.93629 184.646 2.68808C184.646 2.24007 184.838 2.11206 185.287 2.11206C186.055 2.17606 186.759 2.17606 187.527 2.11206C188.039 2.11206 188.167 2.24007 188.167 2.81609C188.167 5.44019 188.167 8.00029 188.167 10.6244Z" fill="#010519"/>
<path d="M84.8662 33.8573C84.8662 31.2972 84.8662 28.6731 84.8662 26.113C84.8662 25.6009 84.9942 25.4089 85.5062 25.4089C86.2743 25.4729 86.9783 25.4729 87.7463 25.4089C88.2583 25.4089 88.3863 25.6009 88.3863 26.049C88.3863 31.2972 88.3863 36.5454 88.3863 41.7936C88.3863 42.2416 88.3223 42.4336 87.8103 42.4336C87.0423 42.3696 86.3383 42.3696 85.5702 42.4336C85.0582 42.4976 84.9302 42.3056 84.9302 41.7936C84.8662 39.1055 84.8662 36.4814 84.8662 33.8573Z" fill="#010519"/>
<path d="M158.086 33.9212C158.086 36.5453 158.086 39.1694 158.086 41.7295C158.086 42.2415 158.022 42.4335 157.446 42.4335C156.742 42.3695 156.037 42.3695 155.269 42.4335C154.693 42.4975 154.565 42.2415 154.565 41.7295C154.565 36.5453 154.565 31.3611 154.565 26.1769C154.565 25.5369 154.757 25.4089 155.333 25.4729C155.973 25.5369 156.614 25.5369 157.254 25.4729C157.83 25.4089 158.086 25.6009 158.086 26.2409C158.086 28.737 158.086 31.3611 158.086 33.9212Z" fill="#010519"/>
</g>
<defs>
<clipPath id="clip0_3572_1626">
<rect width="205" height="46.2738" fill="white"/>
</clipPath>
</defs>
</svg>
