<svg width="121" height="121" viewBox="0 0 121 121" fill="none" xmlns="http://www.w3.org/2000/svg">
<path d="M60.2605 120.521L0 60.2605L60.2605 0L120.521 60.2605L60.2605 120.521ZM9.76759 60.2605L60.2605 110.752L110.753 60.2605L60.2605 9.76759L9.76759 60.2605Z" fill="#E84137"/>
<path d="M39.7021 42.2934L38.4214 43.5753L38.4225 43.5776L38.4179 43.5822L38.4397 43.5936L41.4899 46.6439L42.3804 45.7523L46.5934 41.5392L46.6312 41.5014L43.5661 38.4386L43.5295 38.4764L43.5249 38.4706L42.2751 39.7205L28.5988 26.0591L31.0207 23.6396L29.7251 23.2493L25.3552 21.9353L20.3936 20.444L21.8883 25.4044L23.2046 29.7743L23.5914 31.0597L26.0247 28.6298L39.7021 42.2934Z" fill="#EAEAEA"/>
<path d="M14.0252 32.0371C12.5121 33.5502 12.3839 35.9194 13.6326 37.5824C10.7552 43.5009 9.06703 49.8566 8.56915 56.2878C8.00145 56.4927 7.46695 56.8189 7.01142 57.2744C5.35297 58.9329 5.35297 61.6214 7.01142 63.2799C7.46466 63.7331 7.99573 64.0582 8.56114 64.263C9.04757 70.7274 10.7381 77.1163 13.6281 83.0645C12.3885 84.7276 12.519 87.0888 14.0287 88.5996C14.9935 89.5644 16.3052 89.9639 17.5607 89.8059C18.4649 89.6926 19.3394 89.2932 20.0341 88.5996C20.326 88.3077 20.564 87.9838 20.7517 87.6405C21.3377 86.5726 21.4293 85.3056 21.0276 84.1748L33.2811 71.9212L34.5458 73.1859L37.6144 70.1174L36.3497 68.8527L33.7756 66.2786L32.5108 65.0139L29.4423 68.0824L30.707 69.3471L18.4535 81.5995C18.0128 81.4427 17.5516 81.3706 17.0892 81.3637C14.3915 75.807 12.8234 69.8358 12.3897 63.7961C12.6106 63.6461 12.8212 63.4756 13.0169 63.2799C14.6753 61.6214 14.6753 58.9329 13.0169 57.2744C12.8234 57.081 12.6151 56.9127 12.3977 56.7651C12.8406 50.7516 14.4086 44.8068 17.0995 39.2741C17.5573 39.2661 18.0151 39.1928 18.4512 39.0383L30.7047 51.2919L29.44 52.5566L32.5085 55.6251L33.7733 54.3604L36.3474 51.7863L37.6121 50.5216L34.5436 47.453L33.2788 48.7178L21.0253 36.4631C21.4259 35.3357 21.3366 34.0755 20.7575 33.01C20.5675 32.6609 20.326 32.3324 20.0307 32.0371C19.3405 31.3469 18.4718 30.9486 17.5733 30.833C16.3132 30.6705 14.9935 31.0688 14.0252 32.0371Z" fill="#EAEAEA"/>
<path d="M36.462 21.0265L48.7155 33.28L47.4508 34.5448L50.5193 37.6133L51.7841 36.3486L54.3582 33.7745L55.6229 32.5098L52.5544 29.4412L51.2896 30.7059L39.0372 18.4513C39.1917 18.0175 39.2638 17.5642 39.273 17.1087C44.8126 14.4179 50.7654 12.851 56.7869 12.4126C56.9311 12.6221 57.0936 12.8235 57.2802 13.0101C58.9387 14.6685 61.6272 14.6685 63.2856 13.0101C63.4734 12.8224 63.637 12.6198 63.7824 12.408C69.8199 12.8418 75.7887 14.4098 81.3432 17.1064C81.3501 17.5688 81.4222 18.0301 81.579 18.4719L69.3266 30.7265L68.0619 29.4618L64.9933 32.5304L66.258 33.7951L68.8321 36.3692L70.0969 37.6339L73.1665 34.5654L71.9018 33.3006L84.1554 21.0471C85.2873 21.4488 86.5532 21.3573 87.6222 20.7713C87.9656 20.5824 88.2895 20.3443 88.5813 20.0536C89.2761 19.3589 89.6755 18.4844 89.7877 17.5803C89.9445 16.3247 89.5451 15.0119 88.5813 14.0482C87.0717 12.5385 84.7093 12.408 83.0463 13.6476C77.1095 10.7622 70.7321 9.07396 64.2803 8.58409C64.0754 8.00838 63.748 7.46701 63.2868 7.0069C61.6283 5.34845 58.9398 5.34845 57.2813 7.0069C56.8201 7.46815 56.4916 8.01182 56.2867 8.58867C49.8589 9.08426 43.5067 10.7679 37.5905 13.6407C35.9263 12.3863 33.5525 12.5122 32.0372 14.0276C31.0677 14.997 30.6694 16.319 30.8331 17.5814C30.9498 18.4776 31.3481 19.3451 32.0372 20.0342C32.3336 20.3306 32.6632 20.5732 33.0146 20.7632C34.0779 21.3378 35.3369 21.4259 36.462 21.0265Z" fill="#EAEAEA"/>
<path d="M97.3749 29.7262L98.6877 25.3574L100.174 20.4153L95.2312 21.9043L90.8613 23.2206L89.5576 23.6143L91.9887 26.0465L78.325 39.7238L77.0431 38.4431L77.0409 38.4454L77.0363 38.4397L77.0248 38.4614L73.9746 41.5116L74.8662 42.4021L79.0782 46.6152L79.1171 46.6529L82.1787 43.5878L82.1421 43.5512L82.1467 43.5466L80.898 42.2968L94.5593 28.6206L96.9789 31.0424L97.3749 29.7262Z" fill="#EAEAEA"/>
<path d="M103.06 30.8525C102.156 30.9658 101.28 31.3653 100.587 32.0589C100.295 32.3507 100.058 32.6746 99.8692 33.018C99.2832 34.0859 99.1916 35.3529 99.5933 36.4848L87.3386 48.7384L86.0739 47.4737L83.0054 50.5422L84.2701 51.8069L86.8442 54.381L88.1089 55.6457L91.1775 52.5772L89.9127 51.3125L102.166 39.0589C102.607 39.2157 103.069 39.2878 103.532 39.2947C106.147 44.6798 107.697 50.4552 108.184 56.3039C107.865 56.487 107.562 56.7102 107.288 56.9837C105.63 58.6422 105.63 61.3307 107.288 62.9892C107.577 63.2776 107.897 63.5122 108.237 63.6999C107.813 69.7798 106.241 75.7921 103.521 81.3844C103.064 81.3924 102.607 81.4656 102.17 81.6202L89.915 69.3678L91.1798 68.103L88.1112 65.0345L86.8465 66.2992L84.2724 68.8733L83.0077 70.138L86.0762 73.2066L87.3409 71.9418L99.5945 84.1954C99.1939 85.3216 99.2832 86.5829 99.8623 87.6485C100.052 87.9976 100.294 88.3261 100.589 88.6214C101.279 89.3115 102.148 89.7098 103.046 89.8254C104.308 89.988 105.626 89.5897 106.595 88.6214C108.108 87.1083 108.236 84.7391 106.987 83.076C109.946 76.9916 111.647 70.4459 112.09 63.8293C112.524 63.6255 112.934 63.3486 113.292 62.9903C114.951 61.3319 114.951 58.6433 113.292 56.9849C112.918 56.6106 112.49 56.3256 112.036 56.1207C111.522 49.7502 109.842 43.4586 106.992 37.5951C108.231 35.932 108.101 33.5708 106.591 32.06C105.627 31.094 104.316 30.6946 103.06 30.8525Z" fill="#EAEAEA"/>
<path d="M80.9174 78.365L82.1993 77.0831L82.197 77.082L82.2016 77.0763L82.181 77.0648L79.1307 74.0157L78.2391 74.9062L74.0272 79.1193L73.9883 79.1571L77.0534 82.2199L77.0912 82.1833L77.0957 82.1878L78.3444 80.938L92.0218 94.6005L89.5988 97.0201L90.8944 97.4092L95.2643 98.7231L100.226 100.214L98.7312 95.2529L97.4149 90.883L97.0281 89.5988L94.5959 92.0287L80.9174 78.365Z" fill="#EAEAEA"/>
<path d="M84.1578 99.632L71.9043 87.3784L73.169 86.1137L70.1005 83.0451L68.8357 84.3099L66.2617 86.884L64.9969 88.1487L68.0655 91.2172L69.3302 89.9525L81.5837 102.207C81.4292 102.641 81.3571 103.094 81.348 103.549C75.7797 106.253 69.7949 107.822 63.7425 108.252C63.5514 107.898 63.3087 107.566 63.01 107.267C61.3515 105.609 58.663 105.609 57.0045 107.267C56.7195 107.552 56.4872 107.869 56.3006 108.203C50.4463 107.718 44.6663 106.167 39.2766 103.55C39.2697 103.087 39.1965 102.626 39.0408 102.185L51.2944 89.9319L52.5591 91.1966L55.6276 88.1281L54.3629 86.8634L51.7888 84.2893L50.5241 83.0245L47.4555 86.0931L48.7203 87.3578L36.4656 99.6113C35.3336 99.2096 34.0678 99.3012 32.9999 99.8872C32.6565 100.076 32.3315 100.314 32.0408 100.605C31.3472 101.298 30.9466 102.174 30.8344 103.078C30.6776 104.334 31.077 105.647 32.0408 106.61C33.5504 108.12 35.9128 108.25 37.5758 107.011C43.4576 109.869 49.771 111.552 56.1621 112.059C56.3659 112.498 56.644 112.91 57.0057 113.272C58.6641 114.93 61.3527 114.93 63.0111 113.272C63.3602 112.922 63.6303 112.526 63.8329 112.106C70.4324 111.662 76.9609 109.965 83.0316 107.018C84.6958 108.272 87.0696 108.146 88.5849 106.631C89.5544 105.661 89.9527 104.339 89.789 103.077C89.6723 102.181 89.274 101.313 88.5849 100.625C88.2885 100.329 87.9589 100.086 87.6075 99.8963C86.5419 99.3206 85.2829 99.2325 84.1578 99.632Z" fill="#EAEAEA"/>
<path d="M23.2459 90.9322L21.9319 95.301L20.4463 100.243L25.3885 98.7541L29.7583 97.4379L31.062 97.0453L28.6321 94.612L42.2957 80.9346L43.5765 82.2153L43.5788 82.2131L43.5834 82.2188L43.5959 82.197L46.645 79.1468L45.7546 78.2563L41.5415 74.0433L41.5026 74.0055L38.4409 77.0706L38.4775 77.1072L38.4729 77.1118L39.7228 78.3616L26.0603 92.0379L23.6407 89.616L23.2459 90.9322Z" fill="#EAEAEA"/>
<path d="M60.3089 32.1671L32.1465 60.3295L60.3089 88.4919L88.4713 60.3295L60.3089 32.1671Z" fill="#E84137"/>
<path d="M49.4525 65.8587L46.7765 63.185L47.6384 62.3231L52.0003 63.3132L54.0318 61.2827L48.1935 60.0054L46.994 54.4509L44.9624 56.4814L46.0131 60.6796L45.141 61.5506L42.5142 58.9273L40.6807 60.7597L47.6189 67.6911L49.4525 65.8587Z" fill="#EAEAEA"/>
<path d="M56.0557 59.2626L55.3621 57.777L58.2372 54.9053L59.7239 55.5989L61.6079 53.7173L51.9433 49.5088L49.9609 51.4889L54.174 61.1431L56.0557 59.2626ZM53.1313 53.034C53.0215 52.8062 52.9127 52.5785 52.606 52.1527C53.0318 52.4594 53.2595 52.5682 53.4884 52.6769L56.2045 53.9645L54.4201 55.7466L53.1313 53.034Z" fill="#EAEAEA"/>
<path d="M67.6936 47.6363L66.058 46.0019L62.946 49.1116L61.9056 42.0314L60.666 40.7942L55.353 46.1015L56.9886 47.7359L59.8236 44.9043L60.8743 51.9741L62.1127 53.2114L67.6936 47.6363Z" fill="#EAEAEA"/>
<path d="M51.7737 65.6389L53.6794 67.5434L51.8298 69.3907L49.9241 67.4862L48.6079 68.8013L53.5867 73.7744L54.9018 72.4604L53.003 70.5639L54.8514 68.7166L56.7502 70.6131L58.0665 69.298L53.0877 64.325L51.7737 65.6389Z" fill="#EAEAEA"/>
<path d="M60.039 67.3282L59.5411 66.2626L61.6036 64.2025L62.6703 64.6992L64.0221 63.3498L57.0872 60.3304L55.6646 61.752L58.6873 68.6788L60.039 67.3282ZM57.9411 62.861C57.8632 62.6974 57.7854 62.5337 57.5645 62.2281C57.8701 62.4479 58.0338 62.5268 58.1974 62.6047L60.1466 63.5283L58.8659 64.8068L57.9411 62.861Z" fill="#EAEAEA"/>
<path d="M61.7395 60.7998C63.5181 62.5761 65.623 61.9649 66.9884 60.6006C67.5149 60.0753 67.8983 59.4778 68.1261 58.8391L66.8454 57.5607C66.8385 58.1215 66.5249 58.7464 66.0133 59.2581C65.2384 60.0329 64.0572 60.4163 63.0901 59.4503C62.0096 58.3699 62.3576 57.1555 63.1473 56.3669C63.6028 55.9125 64.2072 55.6069 64.7691 55.5566L63.525 54.3136C62.8852 54.5414 62.2729 54.9385 61.7681 55.4433C60.4233 56.7847 59.8624 58.9238 61.7395 60.7998Z" fill="#EAEAEA"/>
<path d="M70.5159 56.8625L68.5953 54.9443L69.2145 54.3262L72.3437 55.037L73.8019 53.58L69.6128 52.6632L68.7521 48.6779L67.294 50.1337L68.0482 53.1462L67.4233 53.7711L65.5382 51.8883L64.2231 53.2023L69.2008 58.1753L70.5159 56.8625Z" fill="#EAEAEA"/>
<path d="M56.4656 76.2122C58.3816 78.127 60.9122 75.0791 61.6859 75.8528C61.9538 76.1206 61.8084 76.4503 61.2487 77.0088C60.6352 77.6211 59.762 78.1568 58.6884 78.3571L60.0298 79.6973C60.9111 79.4444 61.8084 78.9007 62.5821 78.127C63.7553 76.955 64.3608 75.6147 63.088 74.3443C61.1869 72.4455 58.6105 75.4476 57.9135 74.7506C57.7143 74.5514 57.7372 74.2527 58.2511 73.7251C58.8646 73.0967 59.6383 72.6607 60.443 72.5451L59.1405 71.2426C58.4045 71.4417 57.577 71.9476 56.9097 72.6137C55.8064 73.7159 55.3921 75.1397 56.4656 76.2122Z" fill="#EAEAEA"/>
<path d="M59.6011 70.1542L60.8658 71.4177L62.3835 69.9024L66.4844 73.9987L67.9025 72.5817L63.8004 68.4843L65.3112 66.9757L64.0454 65.7122L59.6011 70.1542Z" fill="#EAEAEA"/>
<path d="M70.4952 69.9928L69.9584 68.8437L72.1811 66.6233L73.3314 67.1589L74.7872 65.7042L67.3133 62.4491L65.7808 63.9805L69.0382 71.4464L70.4952 69.9928ZM68.2347 65.1766C68.1511 65.0003 68.0664 64.824 67.8284 64.4944C68.158 64.7313 68.3343 64.816 68.5105 64.9007L70.6108 65.8965L69.2304 67.2745L68.2347 65.1766Z" fill="#EAEAEA"/>
<path d="M76.8751 63.6199L74.6832 61.4292C74.3914 61.1385 74.0469 60.8089 73.771 60.5788L78.9455 61.5517L80.287 60.2114L74.9202 54.8503L73.5021 56.2673L75.695 58.458C75.9937 58.7567 76.3394 59.0863 76.6152 59.3152L71.4327 58.3355L70.0913 59.6758L75.457 65.0368L76.8751 63.6199Z" fill="#EAEAEA"/>
<path d="M60.2976 21.6987L57.2295 24.7668L60.2976 27.8349L63.3657 24.7668L60.2976 21.6987Z" fill="#EAEAEA"/>
<path d="M24.7463 57.249L21.6782 60.3171L24.7463 63.3852L27.8144 60.3171L24.7463 57.249Z" fill="#EAEAEA"/>
<path d="M95.8718 57.2737L92.8037 60.3418L95.8718 63.4099L98.9399 60.3418L95.8718 57.2737Z" fill="#EAEAEA"/>
<path d="M60.3205 92.824L57.2524 95.8921L60.3205 98.9602L63.3886 95.8921L60.3205 92.824Z" fill="#EAEAEA"/>
</svg>
