<svg width="93" height="23" viewBox="0 0 93 23" fill="none" xmlns="http://www.w3.org/2000/svg">
<path d="M19.9002 18.3293H19.2088C19.144 18.3293 19.036 18.3293 18.9063 18.3293C18.5174 18.3293 18.2149 18.3293 18.042 18.3293C17.5411 18.3293 17.0378 18.2678 16.5584 18.1226C16.548 18.1194 16.5383 18.1164 16.5294 18.1134C16.3998 18.0702 16.2053 18.0055 16.0758 17.9407C16.0494 17.9274 16.0211 17.9133 15.9917 17.8983C15.738 17.7693 15.5263 17.5737 15.3411 17.3578C15.233 17.2066 15.1381 16.9495 15.125 16.818C15.1034 16.6021 15.1035 16.4726 15.1035 16.1919C15.125 15.8464 15.1251 15.609 15.1899 15.2419C15.2547 14.8965 15.3411 14.4863 15.4492 14.0545L15.7733 12.7807C15.9461 12.0898 16.1622 11.4853 16.4215 11.0103C16.6808 10.5354 16.9401 10.1683 17.221 9.88767C17.5018 9.62859 17.8908 9.41269 18.3661 9.28315C18.8415 9.15361 19.2952 9.06725 19.7274 9.02407C20.1595 8.98089 20.7429 8.9809 21.4776 8.9809H22.5363C22.843 8.9809 23.0507 9.00248 23.2926 9.00248C23.5387 9.00248 23.7174 9.00248 23.9624 9.00248C24.2073 9.00248 24.2 9.00248 24.4593 9.00248C24.7401 9.00248 24.7401 9.00248 25.0211 9.00248C25.3331 9.00248 25.4964 9.00248 25.6044 9.00248C25.7463 8.73316 25.8623 8.44082 25.8761 8.13676C25.8917 7.79147 25.83 7.53766 25.6909 7.38325C25.4965 7.16735 25.0859 7.0594 24.4593 7.0594L18.6254 7.10258L19.3384 4.08003C21.391 4.08001 23.7678 4.08001 26.3607 4.08001C28.1109 4.08001 29.2561 4.23114 29.8827 4.83565C30.5093 5.44017 30.6174 6.58443 30.1852 8.26843L27.7651 18.3293H23.4654M24.9995 11.7012C23.9624 11.7012 23.0981 11.7012 22.4499 11.7012H21.6072C21.0886 11.7012 20.7213 11.766 20.4836 11.9171C20.2676 12.0682 20.0947 12.3921 19.9651 12.9102L19.6626 14.1193C19.5545 14.5511 19.5761 14.8749 19.749 15.0692C19.9218 15.2635 20.246 15.3499 20.7213 15.3499H21.3047C21.5424 15.3499 21.8232 15.3499 22.1042 15.3499C22.3634 15.3499 22.7564 15.3499 23.2493 15.3499C23.7678 15.3499 24.0638 15.3499 24.3081 15.3499L24.9995 11.7012Z" fill="black"/>
<path d="M32.7348 7.38323L33.5774 4.0584H45.7855L45.0292 7.16733L36.2999 14.8965H43.0846L42.2419 18.3293H29.6017L30.358 15.1124L39.2817 7.38323H32.7348Z" fill="black"/>
<path d="M72.5997 15.026L71.8003 18.3293C69.4669 18.3293 66.9388 18.3293 64.2812 18.3293C62.5526 18.3293 61.4288 18.0918 60.8239 17.4657C60.1972 16.8396 60.0892 15.6953 60.4997 13.9897L61.8394 8.54908C62.1635 7.2321 62.8765 6.15261 63.9785 5.31061C65.0804 4.4686 66.4201 4.0584 67.9974 4.0584H71.2169C72.8158 4.0584 73.9394 4.4686 74.5876 5.31061C75.2358 6.15261 75.387 7.2321 75.0629 8.54908L74.069 12.5648C74.0474 12.6727 74.0258 12.7375 74.0258 12.7807C74.0042 12.8239 73.9826 12.8454 73.9394 12.8886C73.8962 12.9102 73.8313 12.9318 73.7449 12.9318H65.1021L64.886 13.7738C64.7347 14.3351 64.7347 14.6806 64.8644 14.8317C64.994 14.9828 65.3397 15.0692 65.9015 15.0692H72.5997V15.026ZM70.6551 10.0604L70.9144 8.95928C71.0872 8.26841 71.0872 7.79343 70.8928 7.55594C70.6983 7.31846 70.3094 7.21051 69.726 7.21051H68.2135C67.6085 7.21051 67.1331 7.31846 66.809 7.55594C66.4849 7.79343 66.2256 8.26841 66.0528 8.98087L65.7503 10.1467L70.6551 10.0604Z" fill="black"/>
<path d="M92.2625 4.0584L85.1969 17.7895C85.0241 18.1565 84.7648 18.3293 84.4407 18.3293H77.8289C77.6344 18.3293 77.5048 18.2861 77.44 18.2213C77.3752 18.1565 77.3319 18.0054 77.3103 17.7895L77.0078 4.0584H81.891L81.6534 14.6806H82.388L87.3792 4.0584H92.2625Z" fill="black"/>
<path d="M49.5171 18.3293H48.8905C47.2051 18.3293 46.0599 18.1134 45.4765 17.4873C44.8715 16.8612 44.7851 15.7169 45.1956 14.0545L46.6217 8.24684C47.0322 6.58443 47.6805 5.44017 48.588 4.83565C49.4955 4.23114 50.7703 4.08001 52.4556 4.08001H53.0822C53.9681 4.08001 54.9901 4.08001 56.7187 4.08001L57.6245 0.193848H61.8115L57.3669 18.3293H53.1038M51.4644 14.9181C51.7021 14.9181 51.7073 14.9181 52.0029 14.9181C52.2986 14.9181 52.5053 14.9181 53.039 14.9181C53.5339 14.9181 53.8665 14.9181 54.0762 14.9181L55.8544 7.4912C55.6664 7.4912 55.1267 7.4912 54.6812 7.4912C54.2175 7.4912 53.9097 7.4912 53.644 7.4912C53.3561 7.4912 53.1255 7.4912 52.8662 7.4912H52.3908C51.9155 7.4912 51.5481 7.57756 51.3105 7.77187C51.0512 7.96618 50.8783 8.29002 50.7487 8.74341L49.5171 13.6875C49.409 14.1193 49.4306 14.4431 49.5819 14.6374C49.7547 14.8317 50.0572 14.9181 50.5326 14.9181H51.4644Z" fill="black"/>
<path d="M11.6398 4.08001H15.918L11.4669 22.1938H7.38414L8.2107 18.3508C5.98517 18.3508 5.43856 18.3508 4.57427 18.3508H3.94767C2.26231 18.3508 1.11714 18.1134 0.533743 17.4873C-0.0712558 16.8612 -0.157684 15.7169 0.252851 14.0545L1.67892 8.24684C2.08946 6.58443 2.73767 5.44017 3.64517 4.83565C4.55267 4.23114 5.82749 4.08001 7.51284 4.08001H8.13945M9.11177 14.8749L10.8036 7.46961C10.5939 7.46961 10.2289 7.46961 9.75998 7.46961C9.29106 7.46961 8.96695 7.46961 8.72284 7.46961C8.42677 7.46961 8.20427 7.46961 7.94498 7.46961H7.46963C6.99427 7.46961 6.62695 7.55597 6.38927 7.75028C6.12998 7.94459 5.95713 8.26843 5.82749 8.72182L4.59588 13.6659C4.48784 14.1193 4.50945 14.4431 4.6607 14.6158C4.83356 14.7886 5.13606 14.8749 5.61141 14.8749H6.08677C6.32445 14.8749 6.59017 14.8749 6.90784 14.8749C7.22551 14.8749 7.56249 14.8749 8.03141 14.8749C8.53481 14.8749 8.85892 14.8749 9.11177 14.8749Z" fill="black"/>
</svg>
