<svg width="50" height="32" viewBox="0 0 50 32" fill="none" xmlns="http://www.w3.org/2000/svg">
<g id="sent mail">
<rect id="Rectangle 505" width="4.54545" height="4.54545" fill="black"/>
<rect id="Rectangle 506" x="4.54553" width="4.54545" height="4.54545" fill="black"/>
<rect id="Rectangle 507" x="9.09082" width="4.54545" height="4.54545" fill="black"/>
<rect id="Rectangle 508" x="13.6364" width="4.54545" height="4.54545" fill="black"/>
<rect id="Rectangle 509" x="18.1819" width="4.54545" height="4.54545" fill="black"/>
<rect id="Rectangle 510" x="22.7273" width="4.54545" height="4.54545" fill="black"/>
<rect id="Rectangle 511" x="27.2727" width="4.54545" height="4.54545" fill="black"/>
<rect id="Rectangle 512" x="31.8181" width="4.54545" height="4.54545" fill="black"/>
<rect id="Rectangle 513" x="36.3636" width="4.54545" height="4.54545" fill="black"/>
<rect id="Rectangle 514" x="36.3636" y="4.54546" width="4.54545" height="4.54545" fill="black"/>
<rect id="Rectangle 515" x="36.3636" y="9.09091" width="4.54545" height="4.54545" fill="black"/>
<rect id="Rectangle 516" x="45.4545" y="13.6364" width="4.54545" height="4.54545" fill="#2313DB"/>
<rect id="Rectangle 517" x="36.3636" y="22.7273" width="4.54545" height="4.54545" fill="#2313DB"/>
<rect id="Rectangle 519" x="40.9092" y="18.1818" width="4.54545" height="4.54545" fill="#2313DB"/>
<rect id="Rectangle 520" x="27.2727" y="22.7273" width="4.54545" height="4.54545" fill="#2313DB"/>
<rect id="Rectangle 521" x="31.8181" y="27.2727" width="4.54545" height="4.54545" fill="#2313DB"/>
<rect id="Rectangle 522" x="22.7273" y="27.2727" width="4.54545" height="4.54545" fill="black"/>
<rect id="Rectangle 523" x="18.1819" y="27.2727" width="4.54545" height="4.54545" fill="black"/>
<rect id="Rectangle 524" x="13.6364" y="27.2727" width="4.54545" height="4.54545" fill="black"/>
<rect id="Rectangle 525" x="9.09082" y="27.2727" width="4.54545" height="4.54545" fill="black"/>
<rect id="Rectangle 526" x="4.54553" y="27.2727" width="4.54545" height="4.54545" fill="black"/>
<rect id="Rectangle 527" y="27.2727" width="4.54545" height="4.54545" fill="black"/>
<rect id="Rectangle 528" y="22.7273" width="4.54545" height="4.54545" fill="black"/>
<rect id="Rectangle 529" y="18.1818" width="4.54545" height="4.54545" fill="black"/>
<rect id="Rectangle 530" y="13.6364" width="4.54545" height="4.54545" fill="black"/>
<rect id="Rectangle 531" y="9.09091" width="4.54545" height="4.54545" fill="black"/>
<rect id="Rectangle 532" y="4.54546" width="4.54545" height="4.54545" fill="black"/>
<rect id="Rectangle 533" x="4.54553" y="4.54546" width="4.54545" height="4.54545" fill="black"/>
<rect id="Rectangle 534" x="9.09082" y="9.09091" width="4.54545" height="4.54545" fill="black"/>
<rect id="Rectangle 535" x="13.6364" y="13.6364" width="4.54545" height="4.54545" fill="black"/>
<rect id="Rectangle 536" x="18.1819" y="18.1818" width="4.54545" height="4.54545" fill="black"/>
<rect id="Rectangle 537" x="22.7273" y="13.6364" width="4.54545" height="4.54545" fill="black"/>
<rect id="Rectangle 538" x="27.2727" y="9.09091" width="4.54545" height="4.54545" fill="black"/>
<rect id="Rectangle 539" x="31.8181" y="4.54546" width="4.54545" height="4.54545" fill="black"/>
</g>
</svg>
