<svg width="362" height="298" viewBox="0 0 362 298" fill="none" xmlns="http://www.w3.org/2000/svg">
<g opacity="0.08">
<path d="M259.617 213.946C260.267 210.207 258.154 209.882 255.228 209.882C228.567 210.044 202.069 210.044 175.408 210.044C170.856 210.044 165.492 208.581 165.167 215.897C165.167 212.483 165.329 209.069 159.965 209.882C158.176 210.207 157.526 210.694 157.526 212.483C157.526 214.271 157.526 215.734 159.965 215.571C161.753 215.409 163.541 215.734 165.329 215.734C162.566 218.01 159.477 216.384 156.551 216.709C155.088 216.872 155.9 215.734 156.063 215.084C157.363 210.694 155.575 209.557 151.186 209.719C143.708 210.044 136.23 209.882 128.752 209.719C125.826 209.719 122.9 210.044 119.811 208.419C117.86 207.281 114.446 207.281 112.983 210.857C111.195 207.118 112.333 206.143 115.584 206.793C119.486 207.443 121.274 206.468 121.112 201.916C120.786 192.162 121.112 192.162 131.028 192.162C131.678 192.162 132.328 192.162 133.466 192.325C129.402 183.546 125.338 175.093 121.437 166.802C120.461 164.851 120.136 162.9 120.136 160.787C120.136 150.382 119.974 139.978 120.299 129.574C120.461 125.835 118.998 124.209 115.747 125.022C111.195 125.998 108.431 123.071 105.018 121.446C108.919 121.608 112.496 123.071 116.235 123.559C119.486 123.884 120.461 122.909 121.437 120.145C127.452 102.588 133.629 85.0309 139.644 67.4738C141.107 63.0845 143.058 58.6953 144.196 54.306C145.171 50.8921 146.472 49.7541 150.211 49.7541C177.522 49.9167 204.832 49.9167 231.981 49.9167C233.444 49.9167 235.557 51.0547 236.045 48.6162C236.37 47.4782 236.695 45.8525 235.395 45.0397C233.932 44.2269 232.306 44.0643 231.493 46.0151C230.843 46.0151 230.03 46.0151 229.38 46.1777C229.867 44.2269 228.242 44.552 227.266 44.552C202.394 44.552 177.359 44.552 152.487 44.552C152.487 44.0643 152.487 43.5766 152.324 43.0889C153.462 41.951 154.6 41.1381 156.226 41.1381C156.388 41.3007 156.551 41.6258 156.713 41.7884C156.713 42.2761 154.6 42.9263 156.551 43.2515C159.152 43.7392 161.753 43.414 164.354 43.414C186.95 43.414 209.384 43.414 231.981 43.414C235.232 43.414 236.695 42.7638 236.37 39.1873C236.045 34.9606 235.882 30.7339 236.37 26.5072C236.858 21.7928 234.907 21.1425 231.005 21.9553C228.242 22.443 225.316 23.7436 222.389 22.6056C224.34 20.3297 234.257 18.5414 236.533 20.0045C237.833 20.8174 237.508 22.2805 237.508 23.581C237.508 30.7339 237.833 37.8868 237.345 45.0397C237.183 49.1039 238.483 50.7295 242.385 50.0793C242.385 50.8921 242.06 51.3798 241.247 51.3798C238.646 50.7295 237.508 51.3798 237.508 54.306C237.671 97.7111 237.671 141.116 237.671 184.521C237.508 184.846 237.183 185.334 237.02 185.659C236.858 185.334 236.533 184.846 236.37 184.521C236.37 141.116 236.37 97.8737 236.533 54.4685C236.533 51.5423 235.232 51.0547 232.794 51.0547C205.158 51.0547 177.522 51.0547 149.886 51.0547C149.073 51.0547 147.61 50.2418 147.284 52.3552C148.91 52.3552 150.536 52.3552 152.161 52.3552C168.255 52.3552 184.349 52.3552 200.443 52.3552C208.409 52.3552 210.197 54.1434 210.197 62.1091C210.197 94.4598 210.197 126.81 210.197 159.161C210.197 166.802 210.035 174.442 210.197 182.083C210.197 185.497 208.571 189.723 211.01 191.837C212.961 193.462 217.187 193.137 220.276 191.512C220.439 191.512 220.601 191.512 220.601 191.512C232.143 193.3 243.848 191.837 255.553 192.325C257.016 192.325 258.804 191.349 259.942 193.3C254.577 193.3 249.375 193.625 244.011 193.462C231.818 193.3 219.463 194.113 207.271 192.975C207.433 192.65 207.433 192.487 207.271 192.162C207.271 178.832 207.271 165.501 207.271 152.333C206.783 152.333 206.133 152.333 205.645 152.333C205.645 165.501 205.645 178.832 205.645 191.999C205.483 192.487 205.483 192.812 205.32 193.3C196.867 193.3 188.576 193.462 180.123 193.462C179.31 193.462 178.659 193.462 177.847 193.462C170.206 193.462 162.728 193.3 155.088 193.462C149.723 193.625 144.196 192.65 138.831 194.113C136.393 193.137 133.792 192.812 131.353 194.113C130.865 194.113 130.378 194.275 129.89 194.113C122.575 193.3 122.575 193.3 122.737 200.453C122.737 200.941 122.737 201.428 122.737 201.916C122.412 204.192 123.387 205.005 125.663 204.842C143.383 204.68 161.102 204.68 178.985 204.517C193.778 204.68 208.734 204.842 223.527 204.68C233.769 204.68 244.173 205.167 254.415 204.354C258.967 205.655 260.592 203.704 259.942 199.315C259.617 197.201 259.942 195.088 259.942 193.137C262.055 194.275 261.08 196.064 261.08 197.689C261.242 202.566 261.242 207.606 261.405 212.483C260.917 213.458 260.43 213.946 259.617 213.946ZM125.013 166.964C124.85 169.565 125.663 171.516 127.939 172.817C127.452 175.905 129.89 178.019 130.865 180.62C131.028 180.945 131.028 181.27 131.191 181.595C131.516 182.245 131.678 182.896 132.003 183.383C133.466 186.147 134.93 189.073 136.393 191.837C137.205 192.65 137.531 191.999 137.856 191.187C139.481 191.837 140.944 192.325 142.733 192.325C154.437 192.162 165.979 192.162 177.684 192.162C178.009 192.162 178.334 192.162 178.822 192.162C186.137 192.162 193.453 192.162 200.606 192.325C203.369 192.325 204.182 191.349 204.182 188.748C204.02 177.531 204.182 166.477 204.182 155.259C204.182 154.121 204.507 152.984 203.207 152.171C204.995 149.732 204.02 146.969 204.02 144.53C205.32 144.53 204.832 147.131 206.296 146.318C207.759 145.668 206.946 144.042 206.946 142.742C206.946 115.756 206.946 88.6074 206.946 61.6214C206.946 55.9316 205.483 54.4685 199.468 54.4685C183.049 54.4685 166.792 54.306 150.373 54.4685C149.073 54.4685 146.959 53.3306 146.472 55.9316L146.309 56.0942H146.472C164.191 56.0942 182.073 56.0942 199.793 56.0942C199.793 56.4193 199.793 56.7445 199.793 57.0696C198.167 57.0696 196.704 57.0696 195.079 57.0696C182.236 57.0696 169.393 57.0696 156.551 57.0696C154.925 57.0696 152.487 55.7691 152.487 59.3455C152.487 62.922 155.088 61.6214 156.551 61.6214C169.231 61.784 181.911 61.784 194.591 61.6214C198.33 61.6214 199.305 62.5968 199.143 66.3359C198.98 82.5925 198.818 98.6865 199.143 114.943C199.143 119.17 197.517 119.82 194.103 119.82C183.862 119.82 173.62 120.145 163.541 120.145C162.078 120.145 160.29 120.958 158.989 119.332C159.152 119.17 159.477 119.007 159.639 118.845C159.477 118.845 159.314 118.682 159.314 118.845C159.314 119.007 159.152 119.332 159.152 119.495C156.876 119.332 153.462 119.658 153.95 122.096C154.762 125.998 151.511 126.648 150.211 128.599C149.235 130.062 147.284 129.574 145.821 129.086C145.009 128.761 145.009 127.786 145.171 126.973C145.496 124.697 147.284 125.51 148.585 125.347C149.235 125.185 150.048 125.672 150.536 124.86C142.082 123.884 133.629 125.672 125.338 125.51C122.575 125.51 122.249 126.81 122.249 129.249C122.249 139.978 122.249 150.708 122.249 161.437C122.249 163.063 122.412 164.688 123.713 165.826C124.038 165.989 123.713 167.127 125.013 166.964ZM158.827 111.529C159.314 98.0362 159.314 84.7058 158.827 71.2128C158.827 68.9369 158.989 66.661 158.989 64.3851C161.265 65.523 160.127 67.6364 160.127 69.0995C160.29 81.4545 160.127 93.6469 160.127 106.002C160.127 109.578 160.127 113.155 160.127 117.544C161.915 116.081 161.59 114.943 161.59 113.805C161.59 103.401 161.59 92.9967 161.59 82.755C161.59 76.9026 161.59 71.0503 161.59 65.1979C161.59 64.0599 162.078 62.7594 160.29 62.7594C159.152 62.7594 159.965 64.2225 159.152 64.3851C157.201 65.3605 153.299 62.5968 153.462 67.7989C153.787 80.8042 153.787 93.6469 153.625 106.652C153.625 109.416 154.762 110.391 157.201 110.229C157.201 110.554 157.038 110.879 157.038 111.042C154.925 111.204 153.137 111.367 153.625 114.293C154.112 116.894 156.226 116.081 157.363 115.756C160.127 115.431 158.501 112.992 158.827 111.529ZM147.61 118.52C146.472 118.032 144.521 118.52 144.683 116.406C152.161 116.081 152.161 116.081 151.999 110.716C151.999 99.6619 152.161 88.4448 152.161 77.3903C152.161 75.7647 152.812 73.8139 151.349 72.3508C151.999 71.2128 152.487 70.0749 152.161 68.7743C151.836 67.1487 153.299 64.7102 151.023 64.0599C148.26 63.2471 148.26 66.1733 147.772 67.7989C143.22 81.2919 138.669 94.9475 134.117 108.44C131.353 116.731 131.353 116.731 139.481 116.569C139.806 116.569 140.132 116.569 140.457 116.569C140.619 117.869 136.718 118.357 139.806 120.145C138.181 120.795 136.555 120.633 134.767 120.795C131.353 120.958 129.077 120.145 128.752 116.406C134.442 99.8244 140.132 83.2427 145.821 66.4984C146.634 64.2225 146.959 61.4589 150.536 61.2963C147.447 59.1829 146.309 59.8332 145.009 62.922C142.245 68.7743 140.132 74.7893 138.343 80.9668C136.23 88.4448 133.629 95.7603 131.191 103.238C129.727 107.628 126.801 111.692 126.639 116.569C125.988 117.544 125.501 118.52 124.85 119.332C123.875 120.47 122.737 121.608 123.713 123.234C124.525 124.534 125.988 123.559 127.289 123.559C134.117 123.397 141.107 123.397 147.935 123.071C149.398 123.071 151.999 124.372 152.161 121.771C151.999 119.007 150.048 118.032 147.61 118.52ZM162.891 89.9079C162.891 97.386 163.053 104.864 162.891 112.342C162.891 115.268 163.541 116.244 166.63 116.244C175.571 115.918 184.512 115.756 193.453 115.756C196.217 115.756 197.029 114.943 197.029 112.179C196.867 97.386 196.867 82.5924 197.029 67.7989C197.029 64.7102 196.054 63.8974 193.128 63.8974C184.349 64.0599 175.571 64.0599 166.792 63.8974C163.378 63.7348 162.728 65.0353 162.891 68.1241C163.053 75.277 162.891 82.5925 162.891 89.9079ZM122.575 206.143C122.575 206.63 122.575 207.118 122.575 207.606C123.875 208.419 125.338 208.744 126.964 208.581C130.865 208.093 134.767 207.931 138.506 208.093C153.787 209.069 169.068 208.093 184.349 208.581C207.108 209.231 229.867 208.744 252.627 208.744C254.415 208.744 256.203 208.744 257.991 208.581C258.967 208.581 259.617 208.256 259.454 207.281C259.454 206.468 258.804 206.143 258.154 206.143C257.178 206.143 256.203 206.143 255.228 206.143C217.513 206.143 179.797 206.143 142.082 206.143C135.58 206.143 129.077 206.143 122.575 206.143ZM177.847 119.007C177.847 118.845 177.847 118.682 177.684 118.357C172.645 118.357 167.605 118.357 162.566 118.357C162.566 118.52 162.566 118.682 162.566 119.007C167.768 119.007 172.807 119.007 177.847 119.007ZM183.049 118.52C182.236 118.032 181.423 117.707 180.448 118.357L180.61 119.007C181.423 119.332 182.236 119.495 183.049 118.52Z" fill="black"/>
<path d="M240.921 51.2165C241.733 51.2165 242.221 50.7288 242.059 49.916C243.847 51.3791 243.034 53.4925 243.034 55.2807C243.034 96.0848 243.034 137.051 243.034 177.855C243.034 185.171 243.847 185.821 251.65 183.708C251.975 183.708 252.463 183.708 252.788 183.708C253.276 184.033 253.926 184.521 254.413 184.521C268.882 184.521 283.35 184.521 297.818 184.521C300.582 184.521 301.882 183.058 302.858 179.969C303.671 187.447 309.035 183.545 312.287 184.358C316.676 185.659 314.888 181.594 316.513 178.018C316.188 185.171 320.09 184.358 323.504 184.358C350.652 184.358 377.8 184.358 404.949 184.358C406.737 184.358 408.688 183.87 410.476 185.496C406.249 185.334 402.998 188.585 398.121 186.959C394.219 185.659 388.692 184.846 385.929 190.373C385.766 190.048 385.441 189.56 385.278 189.235C385.928 187.447 385.929 186.471 383.327 186.471C362.357 186.634 341.223 186.634 320.252 186.471C317.326 186.471 317.001 187.935 317.326 190.048C317.001 190.048 316.513 190.048 316.188 190.048C316.513 187.772 316.188 186.309 313.262 186.471C310.986 186.634 308.71 186.634 306.597 186.471C303.671 186.309 303.508 187.935 303.833 190.048C303.508 190.048 303.02 190.048 302.695 190.048C303.02 187.772 302.695 186.471 299.769 186.471C274.572 186.634 249.374 186.634 224.339 186.634C224.014 186.471 223.851 186.146 223.526 185.984C224.339 184.033 225.965 184.358 227.59 184.196C230.516 184.196 233.443 184.196 236.206 184.196C236.369 184.521 236.694 185.008 236.856 185.333C237.019 185.008 237.344 184.521 237.507 184.196C241.408 185.008 241.083 182.407 241.083 179.806C240.921 137.051 240.921 94.134 240.921 51.2165Z" fill="black"/>
<path d="M11.3798 211.345C11.2172 207.606 11.0546 203.867 10.8921 200.128C10.8921 197.852 9.91668 195.25 13.8182 194.925C15.4439 194.763 14.7936 192.812 14.9562 191.674C15.4439 181.27 15.6065 171.028 18.3701 160.787C19.508 156.397 20.1583 151.52 21.6214 146.968C22.7593 143.392 24.8727 140.628 28.9368 140.141C29.0993 140.303 29.2619 140.466 29.587 140.791C22.2716 143.717 22.4342 151.033 19.6706 157.535C27.7988 156.885 35.2768 155.747 42.9174 156.072C43.2425 156.235 43.5676 156.56 43.8928 156.722C43.5676 158.836 43.4051 161.112 43.0799 163.225V163.062C41.4543 164.038 42.2671 165.663 42.1045 167.127C40.3163 168.915 40.804 170.866 41.1291 172.979L40.9666 172.654L40.6415 172.816C39.1784 172.816 39.3409 171.678 39.5035 170.703C40.1538 166.476 40.9666 162.087 41.7794 157.535C38.6907 157.535 35.7645 157.698 33.0009 157.535C29.4245 157.21 28.124 158.673 27.4737 161.924C26.4983 166.476 25.848 171.028 24.5475 175.255C23.0844 180.294 22.4342 180.132 27.3111 180.294C29.587 180.457 31.8629 180.294 34.1389 180.457C37.2276 180.782 38.8532 179.644 38.0404 176.393C37.5527 174.279 38.0404 173.629 40.1538 174.117C38.6907 176.555 41.1291 180.457 37.065 181.758C31.2127 181.758 25.3604 181.758 19.3454 181.432C16.907 181.432 15.9316 182.408 16.5818 184.684C17.5572 187.935 17.7198 190.861 16.7444 194.113C16.0941 196.063 17.0695 197.039 19.0203 196.388C23.7347 194.438 28.7742 194.275 33.8137 194.275C36.7399 194.275 37.8779 193.137 38.0404 190.374C38.3655 189.398 39.1784 189.398 40.1538 189.398C40.4789 191.837 39.5035 195.738 44.8681 192.324C43.0799 200.615 41.4543 208.093 39.9912 215.734C39.8286 216.709 38.3655 217.685 39.8286 218.66C41.4543 219.635 41.7794 217.685 43.5676 216.384C41.1291 226.788 41.942 236.217 47.7943 245.646C43.7302 242.232 41.942 238.005 41.1291 231.503C40.6415 226.951 35.1142 224.187 31.5378 226.951C30.3999 227.764 28.9368 227.764 28.4491 226.788C26.4983 222.399 22.5967 224.838 19.6706 224.187C17.5572 223.7 13.9808 225.65 14.1434 221.749C14.3059 218.497 17.7198 219.798 19.6706 219.635C19.6706 221.911 15.769 219.635 16.2567 222.399C33.4886 223.7 37.7153 220.611 40.9666 204.029C41.2917 202.729 41.4543 201.428 41.7794 200.29C42.4297 197.526 41.4543 196.551 38.5281 196.551C30.8876 196.714 23.247 196.551 15.769 196.714C14.4685 196.714 12.6803 196.226 12.6803 199.152C19.508 196.388 18.8577 201.753 19.508 205.492C20.1583 208.906 20.4834 212.482 20.646 216.059C20.646 217.197 21.7839 218.985 19.508 219.635C18.8577 214.108 18.2075 208.418 17.5572 202.891C17.3947 201.428 17.5572 199.965 15.2813 200.128C13.168 200.29 12.5177 201.428 12.6803 203.379C13.0054 206.142 13.168 208.906 13.3305 211.507C12.8428 211.507 12.1926 211.507 11.3798 211.345ZM25.5229 161.112C22.7593 158.023 21.2962 158.185 19.9957 161.762C19.3454 163.388 18.8578 165.013 18.3701 166.801C17.8824 168.265 16.7444 170.053 19.508 170.54C21.4588 170.866 24.0598 171.353 24.385 168.265C24.5475 165.826 26.0106 163.55 25.5229 161.112C26.3357 161.112 26.4983 160.461 26.3357 159.811C26.3357 159.649 25.848 159.486 25.6855 159.486C25.0352 159.974 25.3603 160.461 25.5229 161.112ZM23.0844 173.467C23.5721 171.678 22.2716 171.841 21.2962 171.841C19.0203 171.678 18.0449 172.654 17.8824 174.767C17.7198 176.23 18.2075 176.718 19.6706 177.043C22.2716 177.531 22.5967 175.417 23.0844 173.467ZM40.9666 224.025C40.9666 222.399 39.6661 222.724 38.5281 222.562C37.5527 222.562 36.4148 222.074 36.2522 223.537C36.0896 225.488 37.7153 225.163 38.8532 225.325C39.9912 225.65 40.9666 225.488 40.9666 224.025Z" fill="black"/>
<path d="M252.789 183.708C252.464 183.708 251.976 183.708 251.651 183.708C251.651 128.761 251.651 73.8132 251.488 19.0285C251.488 13.5012 254.902 15.2895 257.503 14.8018C257.828 14.8018 258.316 14.8018 258.641 14.8018C261.892 14.8018 265.144 14.9643 268.395 14.9643C365.446 14.9643 462.335 14.9643 559.386 14.9643C561.825 14.9643 564.263 15.1269 566.702 15.1269C566.702 15.452 566.864 15.7772 567.027 16.1023C567.027 69.7491 567.027 123.233 567.027 176.88C567.027 177.53 567.027 178.343 567.027 178.993C566.377 181.432 568.165 184.358 565.726 186.471C565.726 185.821 565.564 185.171 565.564 184.521C565.726 179.806 565.726 175.092 565.726 170.377C565.726 120.957 565.726 71.5373 565.889 22.2798C565.889 17.4028 564.914 16.2649 559.711 16.2649C492.247 16.4274 424.945 16.2649 357.481 16.2649C324.155 16.2649 290.829 16.4274 257.666 16.2649C253.602 16.2649 252.951 17.4028 252.951 21.1418C252.951 75.1138 252.951 129.411 252.789 183.708Z" fill="black"/>
<path d="M302.371 190.211C302.696 190.211 303.184 190.211 303.509 190.211C307.736 190.211 311.8 190.211 316.027 190.211C316.352 190.211 316.839 190.211 317.165 190.211C317.977 190.374 319.115 190.374 319.278 191.674C318.14 191.674 317.002 191.674 316.027 191.674C314.238 191.837 311.637 190.374 311.637 193.625C311.637 196.226 310.337 196.389 308.386 196.551C300.746 196.714 293.105 196.714 285.464 197.364C282.538 197.527 280.913 196.714 279.937 194.113C279.287 192.487 278.637 191.024 276.523 191.674C274.573 192.325 275.548 194.113 275.385 195.413C275.223 196.551 275.385 197.689 275.385 198.827C275.06 201.266 275.873 202.241 278.474 202.241C290.992 202.078 303.672 202.078 316.189 202.078C317.652 202.078 318.953 202.078 320.416 202.078C339.111 202.078 357.643 202.241 376.338 202.241C377.476 202.241 379.264 201.428 379.752 203.054C380.077 204.354 379.264 205.492 378.126 206.305C377.964 206.143 377.639 205.818 377.476 205.655C377.964 203.867 377.151 203.379 375.525 203.379C369.348 203.379 363.17 203.379 356.993 203.379C356.018 203.379 354.392 202.891 354.717 204.842C355.042 206.305 354.229 208.419 356.505 208.744C358.456 208.906 360.082 209.719 362.195 210.369C353.254 211.995 353.091 211.995 357.643 218.335C347.564 214.759 337.648 213.133 328.219 209.231C333.421 210.369 338.623 211.507 343.825 212.808C350.003 214.271 350.003 214.271 349.84 207.931C352.279 203.216 348.377 205.492 346.751 205.167C346.101 204.842 345.613 204.517 344.963 204.192C342.85 202.404 340.249 203.216 337.81 203.379C338.948 204.029 339.761 204.68 339.924 205.818C334.559 204.354 329.194 203.054 323.505 203.704C322.529 203.867 321.066 203.379 320.741 204.842C320.253 206.305 320.904 207.118 322.204 207.931C323.992 209.069 321.229 210.207 322.042 211.507C321.554 211.507 321.066 211.507 320.578 211.507C318.628 211.507 319.441 210.044 319.115 209.069C317.815 205.492 316.352 203.216 311.637 203.379C304.81 203.542 298.145 204.517 291.317 203.542C287.903 203.054 284.164 203.542 280.75 203.704C279.124 203.704 277.011 202.404 276.361 205.005C275.711 207.606 275.385 210.694 276.523 213.133C277.336 214.921 280.1 213.783 281.888 213.946C284.977 214.271 282.538 210.369 284.977 210.044C284.489 213.133 285.79 214.271 288.878 214.108C294.893 213.783 300.746 214.108 306.76 213.946C308.061 213.946 310.499 214.921 310.337 212.158C310.174 209.719 308.061 210.369 306.598 210.369C299.282 210.207 292.13 210.207 284.814 210.207C285.139 208.906 286.277 209.231 287.253 209.231C293.593 209.231 299.77 209.231 306.11 209.231C308.874 209.231 311.8 208.744 312.125 212.808C312.288 214.271 313.426 213.946 314.238 214.108C317.002 214.759 318.79 212.645 320.904 211.67C321.391 211.67 321.879 211.67 322.367 211.67C322.529 211.995 322.692 212.32 322.854 212.645C323.505 212.97 323.83 212.645 323.992 211.995C326.431 213.133 328.382 215.409 331.308 215.897C332.121 216.059 333.259 216.872 332.608 218.01C331.958 219.31 330.658 219.31 329.682 218.66C327.731 217.522 325.781 216.384 323.992 215.084C322.204 213.621 320.578 213.783 318.953 215.409C318.14 215.409 317.49 215.571 316.677 215.571C302.696 215.409 288.878 215.409 274.898 215.246C274.573 214.596 274.247 213.946 273.76 213.296C275.385 211.67 274.41 209.557 274.573 207.768C274.735 203.216 274.573 198.827 274.573 194.275C274.573 193.137 274.41 191.349 275.548 191.349C279.124 191.512 282.376 188.586 285.79 189.723C290.992 190.861 296.681 190.049 302.371 190.211ZM299.445 195.251C302.371 195.251 305.297 195.251 308.061 195.251C309.361 195.251 310.337 195.088 310.174 193.462C310.174 192.325 309.687 191.674 308.386 191.674C302.371 191.674 296.519 191.674 290.504 191.674C288.553 191.674 288.553 193.3 288.553 194.438C288.391 195.901 289.854 195.251 290.667 195.251C293.593 195.251 296.519 195.251 299.445 195.251ZM286.765 192.162C285.952 191.512 284.977 190.699 283.676 191.024C282.863 191.349 281.563 191.674 281.888 192.812C282.213 194.438 283.839 194.113 284.977 194.113C285.79 193.95 286.765 193.625 286.765 192.162Z" fill="black"/>
<path d="M260.593 21.3047C357.319 21.3047 454.045 21.3047 550.771 21.3047C560.525 21.3047 560.363 21.3047 560.363 31.3838C560.363 77.8777 560.363 124.372 560.363 170.865C560.363 172.816 560.363 174.767 560.363 176.718C559.875 177.205 559.387 177.205 559.062 176.718C559.062 175.092 559.225 173.466 559.225 171.841C559.225 124.209 559.225 76.5771 559.225 28.9453C559.225 27.8073 559.062 26.6694 559.225 25.5314C559.55 23.0929 557.924 21.955 556.136 22.7678C553.047 24.0683 550.284 22.6052 547.52 22.6052C451.932 22.6052 356.344 22.6052 260.755 22.6052C260.593 22.1175 260.593 21.7924 260.593 21.3047Z" fill="black"/>
<path d="M260.592 21.3041C260.592 21.7918 260.592 22.117 260.592 22.6046C258.966 24.0677 259.779 26.0185 259.779 27.6442C259.779 77.2268 259.617 126.809 259.617 176.392C259.454 176.88 259.292 177.205 259.129 177.693C256.691 177.53 257.503 175.579 257.503 174.279C257.503 122.42 257.503 70.7242 257.503 18.3779C258.641 19.6785 259.617 20.4913 260.592 21.3041Z" fill="black"/>
<path d="M261.893 1.14566C356.831 1.14566 451.769 1.14566 546.707 1.14566C549.145 1.14566 551.584 1.63336 553.859 0.332834C554.672 -0.154864 555.81 -0.154866 556.461 0.657965C556.623 0.820531 556.623 1.30823 556.461 1.47079C555.81 2.28362 554.997 2.60875 553.859 2.60875C552.071 2.44619 550.283 1.95849 548.657 1.95849C454.207 1.95849 359.919 1.95849 265.469 1.95849C264.169 2.12106 262.543 2.93389 261.893 1.14566Z" fill="black"/>
<path d="M552.72 178.02C474.039 178.02 395.357 178.02 316.839 178.02C316.513 177.532 316.676 177.044 317.164 176.719C318.627 176.719 320.09 176.882 321.553 176.882C395.683 176.882 469.812 176.882 543.942 176.882C546.868 176.882 549.794 176.719 552.72 176.557C552.72 176.882 552.72 177.532 552.72 178.02Z" fill="black"/>
<path d="M258.967 238.168C259.13 231.828 260.593 225.487 258.967 219.147C258.805 218.335 258.642 217.522 259.455 217.034C259.78 216.871 260.43 216.871 260.755 217.034C261.406 217.522 261.243 218.335 261.243 219.31C260.268 229.877 260.105 240.606 261.243 251.173C261.406 251.986 261.406 252.799 260.755 253.286C260.43 253.449 259.78 253.611 259.455 253.286C258.642 252.799 258.642 251.823 258.967 251.173C259.78 249.547 259.455 247.759 259.617 245.971C259.943 241.907 258.642 239.956 254.09 240.118C249.538 240.281 251.164 236.217 250.676 233.941C250.026 230.69 252.952 231.34 254.74 231.177C257.829 230.852 258.967 231.828 257.992 235.079C257.829 236.054 258.642 237.192 258.967 238.168Z" fill="black"/>
<path d="M66.3279 210.693C67.6284 208.092 70.392 208.58 72.6679 207.929C74.6187 207.442 75.269 207.767 75.1064 204.841C74.9438 202.077 75.269 198.826 75.5941 195.899C75.7567 193.461 75.1064 192.486 72.1802 192.973C67.9535 193.623 64.052 195.249 60.313 196.225C65.1899 189.884 85.9983 189.722 93.4762 196.712C88.7619 195.249 84.6977 193.623 80.471 192.973C77.7074 192.486 77.0572 193.298 77.0572 195.899C77.0572 201.752 75.269 208.417 84.21 209.718C84.0475 209.88 83.8849 210.043 83.7223 210.205C78.0326 208.254 72.3428 208.58 66.8156 211.181C66.653 211.018 66.4905 210.856 66.3279 210.693Z" fill="black"/>
<path d="M385.931 190.372C385.443 194.599 389.019 190.86 390.157 193.136C387.231 195.411 383.492 197.037 381.541 200.939C381.054 200.614 380.729 200.126 380.241 199.801C380.891 198.012 381.541 196.224 382.517 193.786C361.546 193.786 340.9 193.786 320.254 193.786C319.117 193.461 319.117 192.485 319.279 191.51C320.254 191.835 321.067 192.323 322.043 192.323C341.713 192.323 361.383 192.323 381.054 192.485C383.492 192.485 384.468 191.185 385.443 189.396C385.443 189.722 385.768 190.047 385.931 190.372Z" fill="black"/>
<path d="M103.391 182.733C87.4599 182.733 71.5285 182.733 55.5972 182.733C56.8977 180.132 58.5233 180.62 60.149 180.62C73.4793 180.62 86.6471 180.62 99.9774 180.62C101.278 180.62 102.578 180.295 103.716 181.108C103.554 181.595 103.391 182.083 103.391 182.733Z" fill="black"/>
<path d="M229.217 46.0156C229.867 46.0156 230.68 46.0156 231.33 45.853C230.843 48.2915 228.892 47.9664 227.104 47.9664C214.261 47.9664 201.418 47.9664 188.413 47.8038C188.413 47.3161 188.576 46.8284 188.576 46.3407C189.388 46.1781 190.039 45.6904 190.852 45.6904C203.532 45.853 216.374 46.0156 229.217 46.0156Z" fill="black"/>
<path d="M88.5977 107.952C92.3367 100.799 95.9131 93.6461 99.6521 86.4932C100.14 86.6557 100.465 86.9809 100.953 87.1434C98.189 92.3455 95.5879 97.5477 92.6618 102.425C90.5484 105.839 91.0361 106.976 95.1003 107.464C101.115 107.952 106.805 111.203 112.982 109.578C110.706 111.853 109.731 111.853 105.179 111.041C99.8146 110.065 94.6126 107.952 88.9228 108.44C88.9228 108.44 88.7602 108.277 88.5977 107.952Z" fill="black"/>
<path d="M188.577 46.5028C188.577 46.9905 188.414 47.4782 188.414 47.9659C176.222 47.9659 164.03 47.9659 151.837 47.9659C149.561 47.9659 146.635 48.9413 146.147 45.2023C146.147 44.8772 145.172 44.3895 144.522 44.3895C139.97 44.8772 141.596 41.951 142.083 39.8376C142.246 39.6751 142.408 39.3499 142.571 39.1874C146.31 38.6997 149.074 39.6751 149.399 44.0644C149.074 44.2269 149.074 44.3895 149.074 44.5521C146.96 46.828 149.074 46.6654 150.374 46.6654C163.217 46.6654 175.897 46.5028 188.577 46.5028ZM146.31 42.2761C145.172 41.6259 144.684 41.3007 144.522 41.3007C144.197 41.3007 143.872 41.951 143.872 42.1136C143.872 42.4387 144.359 42.7638 144.684 42.7638C145.009 42.9264 145.497 42.6013 146.31 42.2761Z" fill="black"/>
<path d="M86.8096 159.324C76.2428 159.161 65.5136 158.348 55.272 161.925C61.1243 157.373 94.9378 156.235 112.657 159.974C109.244 160.299 105.992 160.949 102.578 160.299C97.3763 158.186 92.1742 159.324 86.8096 159.324Z" fill="black"/>
<path d="M121.761 92.5081C125.013 83.2418 128.264 73.9756 131.515 64.8719C132.978 60.9703 134.279 57.0687 130.215 53.8174C133.791 55.1179 135.092 57.719 134.116 60.9703C130.702 71.6996 126.801 82.2664 123.224 92.9958C122.574 92.6707 122.249 92.5081 121.761 92.5081Z" fill="black"/>
<path d="M28.938 140.141C39.5047 134.938 50.234 129.736 60.8007 124.534C60.9633 125.022 61.2884 125.51 61.451 125.997C50.7217 130.874 40.155 135.914 29.4257 140.791C29.4257 140.628 29.1006 140.303 28.938 140.141Z" fill="black"/>
<path d="M79.1693 119.171C78.8442 117.545 77.056 118.846 76.2432 117.708C79.4945 114.944 84.0463 114.294 86.9725 111.205C87.135 111.368 87.2976 111.53 87.4601 111.693C86.9725 113.644 89.2484 113.481 89.8986 114.944C86.4848 116.57 83.0709 118.033 79.8196 119.659C79.4945 119.496 79.3319 119.333 79.1693 119.171Z" fill="black"/>
<path d="M133.303 220.609C140.619 220.446 147.609 219.146 154.274 216.707C147.934 221.584 141.594 225.323 133.303 220.609Z" fill="black"/>
<path d="M113.795 154.612C112.82 152.173 113.633 148.922 108.756 149.247C104.692 149.409 101.928 149.735 102.416 154.937C101.44 152.336 100.465 148.922 102.253 148.271C105.505 147.133 109.731 147.133 113.145 148.109C116.071 148.922 113.633 152.173 113.795 154.612Z" fill="black"/>
<path d="M107.131 72.9993C111.032 65.8464 114.771 58.856 118.673 51.7031C118.998 51.8657 119.486 52.1908 119.811 52.3534C115.909 59.5063 112.17 66.4966 108.269 73.6495C107.944 73.3244 107.619 73.1618 107.131 72.9993Z" fill="black"/>
<path d="M113.471 211.342C115.585 214.918 115.91 218.495 117.048 221.746C117.535 223.047 117.21 224.185 115.747 224.185C112.496 224.185 111.846 225.485 111.846 228.574C111.846 230.525 112.171 233.288 109.245 235.402C110.545 230.199 110.545 225.648 110.22 220.771C111.846 221.746 111.846 224.185 114.122 223.209C116.397 222.234 115.26 220.445 115.097 219.145C114.447 216.706 112.984 214.593 113.471 211.342Z" fill="black"/>
<path d="M316.026 215.082C316.839 215.082 317.489 214.92 318.302 214.92C317.652 216.383 317.164 217.846 317.164 219.634C317.164 231.989 317.327 244.182 317.327 256.537C316.839 256.537 316.514 256.537 316.026 256.537C316.026 242.719 316.026 228.901 316.026 215.082Z" fill="black"/>
<path d="M259.129 177.69C259.292 177.202 259.454 176.877 259.617 176.39C273.923 176.39 288.228 176.552 302.534 176.552C302.697 177.04 302.697 177.365 302.859 177.853C288.391 177.853 273.76 177.853 259.129 177.69Z" fill="black"/>
<path d="M319.279 191.511C319.117 192.486 319.117 193.299 320.254 193.787C319.117 196.55 321.718 199.314 320.254 201.915C318.791 201.915 317.491 201.915 316.028 201.915C316.028 198.501 316.028 195.087 315.865 191.673C317.166 191.673 318.141 191.673 319.279 191.511Z" fill="black"/>
<path d="M12.0298 251.663C11.3795 251.825 10.8919 251.988 10.2416 252.15C10.2416 251.988 10.079 251.825 10.079 251.663C9.10364 242.234 8.94107 242.071 0 240.608C7.80312 239.308 7.96569 239.47 10.4042 244.347C12.3549 243.372 11.217 240.608 13.6555 239.633C13.3303 243.86 10.8919 247.436 12.0298 251.663Z" fill="black"/>
<path d="M37.0664 181.758C40.968 180.295 38.6921 176.556 40.1551 174.118C40.3177 173.63 40.4803 173.142 40.6428 172.655L40.968 172.492L41.1305 172.817C41.1305 175.418 41.1305 178.019 41.1305 180.62C40.968 180.783 40.8054 180.783 40.8054 180.946C40.8054 181.271 40.968 181.433 41.1305 181.758C40.8054 184.36 41.9434 187.123 40.1551 189.562C39.3423 189.562 38.3669 189.562 38.0418 190.537C36.7413 187.611 38.5295 184.522 37.0664 181.758Z" fill="black"/>
<path d="M41.1304 180.619C41.1304 178.018 41.1304 175.417 41.1304 172.816C42.9186 171.028 42.2683 168.914 42.1058 166.964C43.5688 165.988 42.9186 164.363 43.0812 162.899V163.062C44.3817 159.811 45.5196 156.397 46.8201 153.146C46.9827 153.308 47.1453 153.471 47.3078 153.633C45.1945 162.574 43.2437 171.678 41.1304 180.619Z" fill="black"/>
<path d="M86.8101 159.322C92.0121 159.322 97.3768 158.184 102.579 160.135C98.3522 161.435 93.8004 161.598 89.4111 162.086C87.4603 162.248 86.9726 160.948 86.8101 159.322Z" fill="black"/>
<path d="M303.021 254.259C303.201 254.259 303.346 244.652 303.346 232.801C303.346 220.949 303.201 211.342 303.021 211.342C302.842 211.342 302.696 220.949 302.696 232.801C302.696 244.652 302.842 254.259 303.021 254.259Z" fill="black"/>
<path d="M11.3803 211.342C12.0305 211.342 12.8433 211.504 13.4936 211.504C11.0551 218.82 12.0305 226.623 11.2177 234.101C11.2177 226.623 10.2423 218.982 11.3803 211.342Z" fill="black"/>
<path d="M69.2534 244.179C72.017 243.529 74.6181 245.154 77.3817 244.504C79.8201 243.854 82.4212 243.529 84.8597 243.366C79.8201 246.292 74.6181 246.943 69.2534 244.179Z" fill="black"/>
<path d="M273.109 212.807C273.434 213.457 273.76 214.108 274.247 214.758C269.695 215.083 265.144 214.27 260.754 215.408C259.454 215.733 259.616 214.758 259.616 213.945C260.592 214.108 260.917 213.62 261.079 212.645C264.981 212.645 269.045 212.645 273.109 212.807Z" fill="black"/>
<path d="M119.649 184.846C115.097 183.058 113.146 179.156 114.122 174.279C116.398 175.092 113.797 180.294 118.186 178.831C117.536 180.945 115.91 183.383 119.649 184.846Z" fill="black"/>
<path d="M84.8598 247.271C79.1701 250.197 73.4803 250.197 67.7905 247.271C73.4803 248.408 79.1701 248.246 84.8598 247.271Z" fill="black"/>
<path d="M184.512 31.7087C179.798 33.3344 175.083 34.9601 170.369 36.5857C170.206 36.2606 170.044 35.7729 170.044 35.4477C174.758 33.8221 179.472 32.1964 184.187 30.4082C184.187 30.7333 184.349 31.221 184.512 31.7087Z" fill="black"/>
<path d="M96.0771 216.385C99.4909 222.075 99.6535 228.09 96.8899 234.104C98.5155 228.09 97.3776 222.4 95.5894 216.872C95.7519 216.71 95.9145 216.547 96.0771 216.385Z" fill="black"/>
<path d="M121.761 47.6404C122.086 47.3153 122.412 46.665 122.737 46.665C127.776 47.3153 132.653 47.9656 137.53 49.7538C132.491 49.2661 127.451 48.7784 122.411 48.2907C122.086 47.9656 121.924 47.803 121.761 47.6404Z" fill="black"/>
<path d="M370.81 226.462C370.81 226.787 370.973 227.112 370.81 227.437C366.909 227.437 363.007 227.6 359.268 227.437C356.992 227.275 355.204 227.762 354.229 230.201C353.416 228.25 352.115 226.462 355.854 226.462C360.731 226.462 365.771 226.462 370.81 226.462Z" fill="black"/>
<path d="M17.7199 225.487C19.8333 226.3 22.1092 226.625 21.784 227.926C21.4589 229.714 19.8333 231.502 18.6953 233.128C18.5327 233.29 17.7199 233.29 17.3948 232.965C16.4194 232.478 16.7445 231.665 17.2322 231.015C18.2076 229.551 19.0204 228.088 17.7199 225.487Z" fill="black"/>
<path d="M124.037 226.138C124.849 225.65 126.312 225.325 126.312 224.838C126.638 222.724 123.711 224.512 123.549 222.237C125.012 221.099 126.475 221.586 127.938 222.724C129.076 223.537 129.239 224.675 128.913 225.65C128.101 227.926 125.987 227.764 124.037 227.439C124.037 226.951 124.037 226.626 124.037 226.138Z" fill="black"/>
<path d="M354.554 251.008C353.903 244.342 354.716 238.165 354.554 231.987C354.554 238.165 354.554 244.505 354.554 251.008Z" fill="black"/>
<path d="M167.117 29.1063C170.856 28.1309 174.433 26.993 178.172 26.0176C175.083 28.9438 171.182 29.1063 167.605 30.4069C167.443 29.9192 167.28 29.594 167.117 29.1063Z" fill="black"/>
<path d="M192.802 28.7814C195.729 27.3183 198.817 26.0178 202.394 26.6681C199.143 27.806 196.216 28.944 192.802 28.7814Z" fill="black"/>
<path d="M339.435 205.654C339.272 204.516 338.459 203.866 337.322 203.216C339.923 203.053 342.361 202.24 344.474 204.029C343.499 206.955 341.873 207.442 339.435 205.654Z" fill="black"/>
<path d="M105.667 207.768C108.431 210.369 108.919 213.945 109.406 217.684C107.943 214.595 106.48 211.507 105.18 208.418C105.342 208.093 105.505 207.93 105.667 207.768Z" fill="black"/>
<path d="M73.4797 163.225C69.0905 164.525 64.5386 164.85 59.9868 164.688C64.2135 162.574 68.7653 163.062 73.1546 162.899C73.1546 162.899 73.3171 163.062 73.4797 163.225Z" fill="black"/>
<path d="M54.4595 232.639C52.8338 227.925 53.4841 223.373 55.4349 218.821C54.622 223.211 54.7846 227.6 55.1097 232.152C54.7846 232.314 54.622 232.477 54.4595 232.639Z" fill="black"/>
<path d="M56.2474 164.363C53.6463 165.826 51.0453 166.314 47.9565 165.826C49.9073 160.624 53.6463 165.338 56.2474 164.363Z" fill="black"/>
<path d="M81.1206 148.269C83.3965 148.594 85.0222 145.18 85.9976 146.155C87.7858 147.944 89.8991 146.968 92.3376 148.269C88.2735 148.269 84.697 148.269 81.1206 148.269Z" fill="black"/>
<path d="M78.5206 143.881C75.1068 143.718 78.8457 149.245 74.6191 148.27C73.8062 148.107 73.4811 147.62 73.8062 146.969C74.9442 145.506 75.4319 143.068 78.5206 143.881Z" fill="black"/>
<path d="M61.613 215.731C60.3125 218.658 59.1745 221.584 57.874 224.51C57.874 220.934 58.1992 217.52 61.2879 215.406L61.613 215.731Z" fill="black"/>
<path d="M102.416 81.7778C103.879 79.1767 105.342 76.5757 106.643 73.9746C106.643 77.3885 104.854 79.827 102.416 81.7778Z" fill="black"/>
<path d="M73.1538 162.736C77.2179 161.273 81.4446 162.248 85.5087 161.436C81.7697 163.874 77.5431 163.061 73.4789 163.061C73.3164 163.061 73.1538 162.899 73.1538 162.736Z" fill="black"/>
<path d="M124.037 226.14C124.037 226.627 124.037 226.952 124.037 227.44C121.111 227.928 117.86 226.952 115.096 228.903C114.283 229.391 113.471 229.554 113.145 228.578C112.658 227.44 113.633 227.44 114.446 227.115C117.535 225.977 120.786 226.627 124.037 226.14Z" fill="black"/>
<path d="M43.73 215.569C43.4048 212.48 44.2177 209.879 47.6315 206.953C46.0059 210.692 44.8679 213.131 43.73 215.569Z" fill="black"/>
<path d="M122.575 186.959C124.525 187.934 126.151 187.609 128.264 184.846C126.151 190.048 125.826 190.21 122.575 186.959Z" fill="black"/>
<path d="M316.677 178.017C312.125 178.017 307.574 178.017 303.022 178.017C303.184 177.53 303.347 177.204 303.347 176.717C307.574 176.717 311.963 176.717 316.189 176.717C316.84 177.042 317.002 177.367 316.677 178.017Z" fill="black"/>
<path d="M46.1697 147.617C45.3569 150.543 44.5441 153.632 43.7313 156.558C43.4061 156.395 43.081 156.07 42.7559 155.907C43.4061 152.819 44.0564 149.893 45.5195 147.129C45.8446 147.291 46.0072 147.454 46.1697 147.617Z" fill="black"/>
<path d="M69.7404 121.609C67.9522 123.072 65.8389 124.048 63.4004 124.048C65.1886 122.585 66.9768 121.447 69.2527 120.959C69.4153 121.122 69.5779 121.284 69.7404 121.609Z" fill="black"/>
<path d="M258.803 14.6406C258.478 14.6406 257.991 14.6406 257.666 14.6406C258.153 10.4138 257.015 6.02457 258.478 1.79785C258.641 1.96042 258.803 2.12298 258.966 2.28555C258.803 6.3497 258.803 10.5764 258.803 14.6406Z" fill="black"/>
<path d="M109.894 196.551C108.919 194.6 108.106 192.649 107.131 190.698C109.569 191.999 110.382 194.112 109.894 196.551Z" fill="black"/>
<path d="M93.9639 223.376C96.7275 226.79 94.7767 229.391 93.9639 231.992C93.9639 229.391 93.9639 226.79 93.9639 223.376Z" fill="black"/>
<path d="M346.264 205.166C347.727 205.491 351.791 203.215 349.353 207.93C347.402 208.092 346.102 207.442 346.264 205.166Z" fill="black"/>
<path d="M165.979 38.049C163.866 38.8619 161.753 39.5121 159.477 40.325C160.94 37.8865 163.378 37.7239 165.979 38.049Z" fill="black"/>
<path d="M134.117 42.4383C135.905 43.9014 138.181 42.6009 140.457 43.5763C138.018 44.8768 135.58 44.064 133.466 44.3891C132.654 44.3891 131.841 44.2266 131.841 43.0886C131.841 42.1132 132.816 41.9507 133.629 41.7881C133.629 41.9507 133.954 42.2758 134.117 42.4383Z" fill="black"/>
<path d="M63.0767 208.418C64.5397 206.792 66.328 206.305 68.4413 205.979C67.1408 207.443 65.6777 208.743 63.7269 209.068C63.5644 208.906 63.2392 208.581 63.0767 208.418Z" fill="black"/>
<path d="M103.392 182.734C103.392 182.246 103.555 181.596 103.555 181.108C105.343 182.897 106.156 185.01 106.643 187.774C104.53 186.311 104.53 184.197 103.392 182.734Z" fill="black"/>
<path d="M69.2534 120.956C70.8791 119.492 72.9924 118.842 75.1058 118.354C73.8052 120.305 71.8545 120.956 69.7411 121.443C69.5785 121.281 69.416 121.118 69.2534 120.956Z" fill="black"/>
<path d="M47.7941 245.805C48.1192 246.78 48.2818 247.755 48.6069 248.893C46.9813 248.243 47.1438 247.105 47.7941 245.805Z" fill="black"/>
<path d="M62.1006 130.223C63.076 129.41 64.2139 128.597 65.8396 127.297C65.0268 129.735 63.8888 130.386 62.4257 130.873C62.4257 130.711 62.2632 130.548 62.1006 130.223Z" fill="black"/>
<path d="M15.7687 236.216C15.4435 236.703 15.1184 237.354 14.6307 237.516C14.143 237.841 13.8179 237.191 13.8179 236.703C13.8179 235.89 14.143 235.078 14.9558 234.915C15.281 235.078 15.6061 235.728 15.7687 236.216Z" fill="black"/>
<path d="M120.625 99.0102C119.324 96.5718 121.437 95.5964 121.437 93.9707C122.738 95.9215 121.437 97.222 120.625 99.0102Z" fill="black"/>
<path d="M66.8145 211.182C66.0017 212.32 64.8637 213.295 63.4007 213.783V213.946C62.7504 211.67 64.8637 211.507 66.1643 210.694C66.4894 210.857 66.652 211.019 66.8145 211.182Z" fill="black"/>
<path d="M95.5877 216.871C94.6123 215.571 92.9867 214.758 93.7995 212.645V212.807C95.4252 213.457 95.5877 214.92 96.238 216.384C95.9129 216.546 95.7503 216.709 95.5877 216.871Z" fill="black"/>
<path d="M94.2876 238.656C94.7753 237.355 95.1004 236.054 96.4009 235.079C97.0512 237.03 95.9132 238.168 94.7753 239.143C94.7753 239.143 94.6127 238.818 94.2876 238.656Z" fill="black"/>
<path d="M116.559 106.979C117.534 104.703 118.022 103.565 118.51 102.265C120.136 104.378 118.998 105.353 116.559 106.979Z" fill="black"/>
<path d="M149.234 44.5534C149.072 44.2283 149.234 44.0657 149.56 44.0657C150.372 43.7406 151.348 43.4154 152.161 42.9277C152.161 43.4154 152.161 43.9031 152.323 44.3908C151.185 45.3662 150.21 45.0411 149.234 44.5534Z" fill="black"/>
<path d="M79.8191 119.657C78.8437 120.469 78.0309 121.445 76.4053 120.957C77.0555 119.657 78.0309 119.332 79.1689 119.169C79.3314 119.332 79.494 119.494 79.8191 119.657Z" fill="black"/>
<path d="M101.605 250.848C101.28 252.148 100.304 252.636 98.0283 253.612C99.4914 251.661 99.9791 250.36 101.605 250.848Z" fill="black"/>
<path d="M115.422 108.926C115.097 109.088 114.934 109.251 114.609 109.251C114.121 109.251 113.959 108.763 114.284 108.438C114.446 108.275 114.934 108.113 115.097 108.275C115.259 108.275 115.422 108.763 115.422 108.926Z" fill="black"/>
<path d="M61.4502 215.57C61.6128 214.432 61.9379 213.131 63.7261 213.944V213.782C63.401 214.757 62.9133 215.57 61.7753 215.733C61.6128 215.733 61.4502 215.57 61.4502 215.57Z" fill="black"/>
<path d="M133.954 224.022C135.092 223.209 136.23 223.047 137.693 223.86C136.23 224.835 135.092 224.998 133.954 224.022Z" fill="black"/>
<path d="M142.082 39.837C141.431 39.6744 140.619 39.6744 139.806 39.5119C139.643 39.3493 139.481 39.1867 139.318 39.0242C139.968 38.0488 141.106 38.2113 141.919 37.7236C142.082 37.8862 142.244 38.0488 142.407 38.3739C142.244 38.699 142.244 38.8616 142.407 39.1867C142.407 39.3493 142.244 39.5119 142.082 39.837Z" fill="black"/>
<path d="M142.245 50.0784C142.082 50.0784 141.594 49.9158 141.269 49.5907C141.594 49.4281 141.757 48.9404 142.082 48.9404C142.57 48.9404 143.22 49.103 143.22 49.2656C143.545 49.9158 143.058 50.0784 142.245 50.0784Z" fill="black"/>
<path d="M47.3063 144.853C47.1437 145.828 47.3063 146.966 46.1683 147.617C46.0058 147.454 45.8432 147.291 45.5181 147.129C45.8432 146.153 45.5181 144.853 46.8186 144.365C46.9811 144.528 47.1437 144.69 47.3063 144.853Z" fill="black"/>
<path d="M54.9476 232.151C55.7604 232.964 56.0856 233.777 55.5979 234.915C54.1348 234.59 54.6225 233.452 54.2974 232.639C54.6225 232.477 54.7851 232.314 54.9476 232.151Z" fill="black"/>
<path d="M92.6616 234.427C92.8242 234.102 93.1493 233.777 93.3119 233.289C93.4744 233.452 93.7996 233.777 93.7996 233.939C93.7996 234.427 93.4744 234.752 93.3119 235.077C93.1493 234.915 92.9868 234.752 92.6616 234.427Z" fill="black"/>
<path d="M144.196 36.746C144.683 36.0957 145.496 35.9332 146.309 36.0957C146.471 36.2583 146.634 36.4209 146.797 36.5834C146.309 37.3963 145.496 37.3963 144.683 37.3963C144.521 37.2337 144.358 37.0711 144.196 36.746Z" fill="black"/>
<path d="M168.742 36.9115C168.254 37.074 167.929 37.2366 167.442 37.2366C167.279 37.2366 167.116 36.9115 166.954 36.5863C167.279 36.4238 167.767 36.2612 168.092 36.0986C168.417 36.2612 168.58 36.5863 168.742 36.9115Z" fill="black"/>
<path d="M142.082 37.7234C142.733 37.3983 143.545 37.0732 144.196 36.748C144.358 36.9106 144.521 37.2357 144.683 37.3983C144.196 38.2111 143.545 38.3737 142.57 38.2111C142.407 38.0486 142.245 37.886 142.082 37.7234Z" fill="black"/>
<path d="M137.367 39.6751C138.017 39.35 138.83 39.1874 139.48 38.8623C139.643 39.0249 139.805 39.1874 139.968 39.35C139.48 40.1628 138.667 40.1628 138.017 40.3254C137.692 40.1628 137.53 40.0003 137.367 39.6751Z" fill="black"/>
<path d="M135.418 40.8137C136.068 40.4886 136.718 40.1635 137.369 39.6758C137.531 39.8383 137.694 40.1635 137.856 40.326C137.206 40.6512 136.556 40.9763 135.906 41.3014C135.906 41.3014 135.581 40.9763 135.418 40.8137Z" fill="black"/>
<path d="M156.062 40.9744C156.55 40.3242 157.526 39.6739 157.851 40.4867C158.501 41.6247 157.038 41.2996 156.55 41.6247C156.388 41.2996 156.225 41.137 156.062 40.9744Z" fill="black"/>
<path d="M133.466 41.7879C134.117 41.4628 134.767 41.1376 135.417 40.8125C135.58 40.9751 135.742 41.3002 135.905 41.4628C135.255 41.7879 134.604 42.113 133.954 42.4382C133.954 42.2756 133.629 41.9505 133.466 41.7879Z" fill="black"/>
<path d="M119.649 99.6611C119.974 99.9863 120.299 100.311 120.137 100.474C120.137 100.962 119.811 101.287 119.649 101.612C119.486 101.449 119.161 101.124 119.161 100.962C119.161 100.474 119.486 100.149 119.649 99.6611Z" fill="black"/>
<path d="M62.588 130.874C62.2628 131.687 61.6126 132.012 60.7997 132.012C60.6372 131.849 60.4746 131.687 60.4746 131.687C60.9623 131.199 61.6126 130.711 62.1003 130.224C62.2628 130.549 62.4254 130.711 62.588 130.874Z" fill="black"/>
<path d="M69.5786 131.037C69.4161 131.849 68.6033 132.012 67.7904 132.174C67.6279 132.012 67.4653 131.849 67.3027 131.687C67.953 131.362 68.4407 130.874 69.0909 130.549C69.0909 130.549 69.2535 130.711 69.5786 131.037Z" fill="black"/>
<path d="M61.4502 135.589C61.9379 135.264 62.5881 134.776 63.0758 134.451C63.2384 134.614 63.401 134.776 63.5635 134.939C63.2384 135.752 62.5882 135.914 61.7753 136.077C61.7753 135.914 61.6128 135.752 61.4502 135.589Z" fill="black"/>
<path d="M49.258 148.756C48.9329 149.243 49.0955 150.707 47.9575 150.056C47.1447 149.569 47.795 148.593 48.6078 148.105C48.9329 148.431 49.0955 148.593 49.258 148.756Z" fill="black"/>
<path d="M46.8198 153.146C46.9824 152.658 47.145 152.008 47.3075 151.521C47.3075 151.521 47.7952 151.521 47.9578 151.683C48.2829 152.496 48.1203 153.146 47.3075 153.471C47.145 153.471 46.9824 153.309 46.8198 153.146Z" fill="black"/>
<path d="M121.438 180.132C121.275 180.132 121.275 180.294 121.113 180.294C120.95 180.132 120.95 179.969 120.788 179.807C120.95 179.807 121.113 179.807 121.113 179.807C121.275 179.969 121.275 180.132 121.438 180.132Z" fill="black"/>
<path d="M87.4607 208.746C86.8105 208.421 85.6725 208.096 85.9976 207.445C86.6479 206.47 87.4607 206.958 88.111 207.771C87.9484 208.096 87.6233 208.421 87.4607 208.746Z" fill="black"/>
<path d="M59.9875 212.318C59.8249 212.968 59.4998 213.618 58.6869 213.781C58.5244 213.618 58.5244 213.456 58.3618 213.293C58.5244 212.48 58.8495 211.993 59.6623 211.83C59.8249 211.993 59.8249 212.155 59.9875 212.318Z" fill="black"/>
<path d="M106.643 188.748C106.806 188.585 106.806 188.585 106.968 188.423C107.131 188.585 107.131 188.911 107.293 189.073C107.293 189.236 107.131 189.236 106.968 189.398C106.806 189.236 106.806 188.911 106.643 188.748Z" fill="black"/>
<path d="M41.1298 181.592C40.9672 181.267 40.9673 181.104 40.8047 180.779C40.8047 180.779 40.9672 180.617 41.1298 180.454C41.1298 180.942 41.1298 181.267 41.1298 181.592Z" fill="black"/>
<path d="M316.677 178.02C317.003 177.532 316.84 177.044 316.352 176.719L316.677 176.557L317.003 176.719C316.515 177.044 316.352 177.369 316.677 178.02Z" fill="black"/>
<path d="M303.509 176.719C303.346 177.207 303.184 177.532 303.184 178.02H303.021C302.859 177.532 302.859 177.207 302.696 176.719L303.184 176.557L303.509 176.719Z" fill="black"/>
<path d="M48.77 148.269C49.0951 147.944 49.5828 147.456 49.5828 147.456C50.2331 147.944 49.908 148.431 49.4203 148.919C49.0952 148.594 48.9326 148.431 48.77 148.269Z" fill="black"/>
<path d="M50.7211 145.829C50.5585 145.992 50.5585 146.154 50.3959 146.479C50.2334 146.317 50.0708 146.317 50.0708 146.154C50.0708 145.992 50.2334 145.666 50.3959 145.504C50.5585 145.666 50.7211 145.829 50.7211 145.829Z" fill="black"/>
<path d="M46.9824 144.529C47.3076 144.204 47.6327 143.879 47.9578 143.554C48.1204 143.716 48.2829 143.879 48.4455 144.041C48.1204 144.367 47.7952 144.692 47.4701 145.017C47.145 144.692 46.9824 144.529 46.9824 144.529Z" fill="black"/>
<path d="M49.258 142.903C48.9329 143.228 48.6077 143.553 48.2826 143.878C48.1201 143.716 47.9575 143.553 47.7949 143.39C48.1201 143.065 48.4452 142.74 48.7703 142.415C48.9329 142.578 49.0954 142.74 49.258 142.903Z" fill="black"/>
<path d="M48.77 142.417C49.0951 142.254 49.5828 141.767 49.5828 141.767C50.2331 142.254 49.7454 142.579 49.2577 142.905C49.0951 142.742 48.9326 142.579 48.77 142.417Z" fill="black"/>
<path d="M58.0364 139.004C57.7113 139.166 57.061 139.491 56.8985 139.329C56.5733 138.841 56.8985 138.516 57.3861 138.354C57.7113 138.679 57.8738 138.841 58.0364 139.004Z" fill="black"/>
<path d="M57.5483 138.514C57.8735 138.026 58.1986 137.538 58.8489 138.188C58.8489 138.188 58.3612 138.839 58.1986 139.001C57.8735 138.839 57.7109 138.676 57.5483 138.514Z" fill="black"/>
<path d="M60.8 136.887C60.4749 137.374 60.3123 138.025 59.4995 137.374C59.4995 137.374 59.9872 136.887 60.3123 136.562C60.4749 136.562 60.6375 136.724 60.8 136.887Z" fill="black"/>
<path d="M60.313 136.399C60.6381 136.074 60.9632 135.749 61.4509 135.424C61.6135 135.586 61.7761 135.749 61.9386 135.912C61.6135 136.237 61.1258 136.399 60.8007 136.724C60.6381 136.724 60.4756 136.562 60.313 136.399Z" fill="black"/>
<path d="M64.8634 134.124C64.5383 134.45 64.0506 134.612 63.7255 134.937C63.5629 134.775 63.4004 134.612 63.2378 134.45C63.5629 134.124 64.0506 133.962 64.3757 133.637C64.5383 133.799 64.7009 133.962 64.8634 134.124Z" fill="black"/>
<path d="M64.3765 133.637C64.7016 133.149 65.0267 132.661 65.677 133.311C65.677 133.311 65.1893 133.799 64.8642 134.124C64.7016 133.962 64.539 133.799 64.3765 133.637Z" fill="black"/>
<path d="M67.7908 132.172C67.4656 132.66 66.9779 133.148 66.4902 132.497C66.4902 132.497 66.9779 132.01 67.3031 131.685C67.4656 131.847 67.6282 132.01 67.7908 132.172Z" fill="black"/>
<path d="M60.9627 132.172C60.6375 132.66 60.475 133.31 59.8247 132.497C59.8247 132.497 60.3124 132.01 60.6375 131.685C60.6375 131.847 60.8001 132.01 60.9627 132.172Z" fill="black"/>
<path d="M68.9277 130.386C69.4154 129.898 69.7406 129.573 70.3908 130.224C70.0657 130.386 69.7406 130.711 69.578 130.874C69.2529 130.711 69.0903 130.549 68.9277 130.386Z" fill="black"/>
<path d="M68.2778 125.833C68.603 125.345 68.9281 124.857 69.5784 125.508C69.5784 125.508 69.0907 126.158 68.9281 126.321C68.603 126.158 68.4404 125.995 68.2778 125.833Z" fill="black"/>
<path d="M70.8788 124.045C71.0414 124.37 71.204 124.533 71.204 124.695C71.204 124.695 71.0414 124.858 70.8788 125.02C70.7163 124.858 70.5537 124.533 70.5537 124.37C70.5537 124.207 70.7163 124.207 70.8788 124.045Z" fill="black"/>
<path d="M103.23 248.735C103.067 248.573 102.905 248.573 102.58 248.41C102.742 248.248 102.742 248.085 102.905 248.085C103.067 248.085 103.23 248.248 103.555 248.41C103.392 248.573 103.392 248.573 103.23 248.735Z" fill="black"/>
<path d="M86.8101 111.203C86.9726 110.878 87.2978 110.553 87.4603 110.228C88.1106 110.878 87.7855 111.203 87.2978 111.691C87.1352 111.691 86.9726 111.365 86.8101 111.203Z" fill="black"/>
<path d="M89.0866 108.601C88.7615 108.926 88.5989 109.251 88.2738 109.576C87.6236 108.926 87.9487 108.601 88.4364 108.113C88.7615 108.276 88.9241 108.438 89.0866 108.601Z" fill="black"/>
<path d="M100.79 85.3544C100.953 85.1919 100.953 85.1919 101.115 85.0293C101.278 85.1919 101.44 85.517 101.44 85.6796C101.44 85.6796 101.278 85.8421 101.115 86.0047C100.953 85.8421 100.953 85.517 100.79 85.3544Z" fill="black"/>
<path d="M101.767 83.4062C101.93 83.2436 101.93 83.2436 102.092 83.0811C102.255 83.2436 102.417 83.5688 102.417 83.7313C102.417 83.8939 102.255 83.8939 102.092 84.0564C101.93 83.8939 101.93 83.5688 101.767 83.4062Z" fill="black"/>
<path d="M122.25 48.1288C121.925 48.2913 121.438 48.779 121.438 48.779C120.625 48.1288 121.438 47.9662 121.763 47.4785C121.925 47.8036 122.088 47.9662 122.25 48.1288Z" fill="black"/>
<path d="M146.309 36.0966C146.471 35.934 146.796 35.4463 146.959 35.4463C147.609 35.7714 147.284 36.0966 146.796 36.4217C146.634 36.4217 146.471 36.2591 146.309 36.0966Z" fill="black"/>
<path d="M258.317 1.79701C258.642 1.47187 258.967 1.14674 259.292 1.63444C259.292 1.63444 258.967 1.95957 258.804 2.2847C258.642 2.12214 258.479 1.95957 258.317 1.79701Z" fill="black"/>
<path d="M86.6483 246.785C86.4857 246.622 86.3232 246.622 85.998 246.46C86.1606 246.297 86.1606 246.135 86.3232 246.135C86.4857 246.135 86.8109 246.297 86.9734 246.46C86.8109 246.622 86.8109 246.622 86.6483 246.785Z" fill="black"/>
<path d="M101.766 250.845C101.441 250.519 101.441 250.032 101.766 249.869C101.928 249.869 102.091 249.869 102.254 250.032C101.928 250.194 101.766 250.519 101.766 250.845Z" fill="black"/>
<path d="M88.7606 245.481C88.7606 245.644 88.5981 245.644 88.5981 245.807C88.4355 245.644 88.2729 245.644 88.1104 245.481C88.2729 245.319 88.2729 245.156 88.4355 245.156C88.598 245.156 88.598 245.319 88.7606 245.481Z" fill="black"/>
<path d="M68.7658 126.324C68.4407 126.649 67.953 126.811 67.6278 127.136C67.4653 126.974 67.3027 126.811 67.1401 126.649C67.4653 126.324 67.953 126.161 68.2781 125.836C68.4407 125.999 68.6032 126.161 68.7658 126.324Z" fill="black"/>
<path d="M96.564 254.587C96.8891 254.099 97.2142 253.449 97.8645 254.262C97.8645 254.262 97.3768 254.912 97.0517 255.237C96.8891 254.912 96.7265 254.749 96.564 254.587Z" fill="black"/>
<path d="M56.7361 217.199C56.5736 217.362 56.411 217.362 56.0859 217.524C56.0859 217.524 55.9233 217.362 55.7607 217.199C55.9233 217.037 56.0859 217.037 56.411 216.874C56.411 216.874 56.5736 217.037 56.7361 217.199Z" fill="black"/>
<path d="M86.6478 212.157C86.3227 211.832 85.835 211.345 85.835 211.345C86.4852 210.694 86.8104 211.182 87.1355 211.67C86.9729 211.832 86.8104 211.995 86.6478 212.157Z" fill="black"/>
<path d="M60.9621 211.183C60.637 211.508 60.3119 211.833 59.9868 212.321C59.8242 212.158 59.8242 211.995 59.6616 211.833C59.9868 211.508 60.3119 211.183 60.637 210.857C60.7996 211.02 60.7996 211.02 60.9621 211.183Z" fill="black"/>
<path d="M92.012 210.858C91.6869 211.183 91.1992 211.346 91.0366 210.858C91.0366 210.695 91.0366 210.533 91.0366 210.37C91.1992 210.533 91.5243 210.695 92.012 210.858Z" fill="black"/>
<path d="M84.2093 209.716C84.5345 210.041 84.8596 210.204 85.0222 210.529C84.3719 211.179 84.0468 210.691 83.5591 210.204C83.8842 210.041 84.0468 209.878 84.2093 209.716Z" fill="black"/>
<path d="M60.6382 210.856C60.9633 210.531 61.451 210.043 61.451 210.043C62.2638 210.693 61.451 210.856 60.9633 211.181C60.8007 211.018 60.8007 211.018 60.6382 210.856Z" fill="black"/>
<path d="M57.8733 214.922C57.5481 215.247 57.3856 215.573 57.0604 215.898C56.4102 215.247 56.7353 214.922 57.223 214.435C57.5481 214.597 57.7107 214.76 57.8733 214.922Z" fill="black"/>
<path d="M89.2479 208.58C89.573 208.905 90.0607 209.393 89.8982 209.393C89.2479 210.043 88.9228 209.555 88.5977 209.068C88.9228 208.905 89.0853 208.743 89.2479 208.58Z" fill="black"/>
<path d="M63.7264 209.068C63.4013 209.231 62.9136 209.719 62.751 209.719C61.9382 209.231 62.751 208.906 62.9136 208.418C63.2387 208.581 63.5638 208.906 63.7264 209.068Z" fill="black"/>
<path d="M57.3867 214.432C57.7118 214.107 58.037 213.782 58.5247 213.457C58.6872 213.62 58.6872 213.782 58.8498 213.945C58.5247 214.27 58.3621 214.758 58.037 215.083C57.7119 214.758 57.5493 214.595 57.3867 214.432Z" fill="black"/>
<path d="M88.1117 207.768C88.4368 208.093 88.9245 208.255 89.2496 208.58C89.0871 208.743 88.9245 208.906 88.762 209.068C88.2743 208.906 87.9491 208.743 87.4614 208.743C87.624 208.418 87.9491 208.093 88.1117 207.768Z" fill="black"/>
<path d="M105.179 208.256C104.691 207.768 104.366 207.443 105.016 206.793C105.342 207.118 105.504 207.443 105.829 207.606C105.504 207.931 105.342 208.094 105.179 208.256Z" fill="black"/>
<path d="M104.369 205.655C104.206 205.818 104.206 205.818 104.043 205.98C103.881 205.818 103.718 205.493 103.718 205.33C103.718 205.33 103.881 205.167 104.043 205.005C104.206 205.167 104.206 205.493 104.369 205.655Z" fill="black"/>
<path d="M323.017 211.669C322.854 212.319 322.529 212.644 321.879 212.319C322.366 212.157 322.691 211.994 323.017 211.669Z" fill="black"/>
<path d="M93.802 212.644C92.9891 213.457 92.8266 212.644 92.3389 212.157C92.5014 211.994 92.664 211.832 92.664 211.669C93.1517 212.157 93.4768 212.482 93.802 212.644Z" fill="black"/>
<path d="M87.1346 211.669C87.4598 211.994 87.9475 212.482 87.7849 212.482C87.2972 213.132 86.8095 212.644 86.4844 212.157C86.8095 211.994 86.9721 211.832 87.1346 211.669Z" fill="black"/>
<path d="M67.6282 127.136C67.303 127.624 66.9779 128.274 66.3276 127.461C66.3276 127.461 66.8153 126.811 67.1405 126.648C67.303 126.811 67.4656 126.974 67.6282 127.136Z" fill="black"/>
<path d="M94.9385 239.308C94.6134 239.633 94.2883 240.121 94.1257 240.121C93.4754 239.633 93.9631 239.145 94.2883 238.82C94.6134 238.82 94.776 239.145 94.9385 239.308Z" fill="black"/>
<path d="M323.018 211.831C322.692 211.993 322.205 212.156 321.88 212.318C321.717 211.668 321.554 211.18 322.367 211.018C322.53 210.855 322.855 211.506 323.018 211.831Z" fill="black"/>
<path d="M91.8504 210.857C92.1755 211.183 92.5007 211.508 92.8258 211.833C92.6632 211.995 92.5006 212.158 92.5006 212.321C92.013 211.833 91.2001 211.67 91.8504 210.857Z" fill="black"/>
<path d="M159.152 119.167C160.29 120.793 162.078 119.98 163.704 119.98C173.946 119.98 184.187 119.655 194.266 119.655C197.68 119.655 199.468 119.004 199.306 114.778C198.981 98.521 199.143 82.4269 199.306 66.1703C199.306 62.4313 198.33 61.4559 194.754 61.4559C182.074 61.6185 169.394 61.6185 156.714 61.4559C155.088 61.4559 152.65 62.7565 152.65 59.18C152.65 55.6036 155.251 56.9041 156.714 56.9041C169.556 56.7415 182.399 56.9041 195.242 56.9041C196.867 56.9041 198.33 56.9041 199.956 56.9041C199.956 56.579 199.956 56.2538 199.956 55.9287C182.237 55.9287 164.354 55.9287 146.635 55.9287C147.122 53.3276 149.236 54.4656 150.536 54.4656C166.955 54.303 183.212 54.4656 199.631 54.4656C205.646 54.4656 207.109 55.9287 207.109 61.6185C207.109 88.6045 207.109 115.753 207.109 142.739C207.109 143.877 207.759 145.503 206.459 146.315C204.833 147.128 205.321 144.527 204.183 144.527C202.557 143.227 202.395 144.527 202.232 145.665C202.069 146.966 202.557 148.266 201.419 149.242C199.956 150.705 198.981 153.143 199.306 154.281C197.68 154.119 196.217 154.769 194.917 155.744C196.867 156.394 198.33 156.069 199.306 154.281C201.094 154.444 201.744 152.493 203.37 152.168C204.508 152.981 204.345 154.119 204.345 155.257C204.345 166.474 204.345 177.528 204.345 188.745C204.345 191.346 203.695 192.484 200.769 192.322C193.453 192.159 186.138 192.159 178.985 192.159C180.448 186.307 179.635 185.656 173.458 186.957C178.01 187.607 178.01 187.607 177.847 192.159C166.143 192.159 154.6 192.159 142.896 192.322C141.108 192.322 139.482 191.834 138.019 191.184V191.346C139.157 190.371 138.181 189.395 138.019 188.42C136.881 185.819 137.206 181.592 132.166 183.38C131.841 182.73 131.679 182.08 131.354 181.592C132.004 181.43 132.492 181.43 133.142 181.267C132.979 180.942 132.817 180.292 132.492 180.129C131.841 179.641 131.354 179.967 131.029 180.617C130.053 178.016 127.615 175.902 128.102 172.814C128.428 172.814 128.753 172.814 128.915 172.976C128.915 173.789 128.915 174.602 129.728 174.927C129.891 175.415 129.565 176.715 130.703 176.228C131.354 175.902 131.029 174.927 130.216 174.439C129.891 173.789 129.728 172.976 129.403 172.326C129.078 171.676 129.403 170.375 127.94 170.7V170.863C128.102 169.887 128.265 168.912 126.964 168.75V168.912C124.038 159.646 125.339 150.217 125.339 140.788C150.861 140.788 176.222 140.788 201.744 140.788C202.72 140.788 204.67 141.764 204.67 139.65C204.67 138.187 202.882 138.512 201.907 138.675C195.079 138.837 188.251 138.35 181.261 138.512C169.556 138.837 157.852 138.35 146.147 138.512C139.157 138.512 132.004 137.699 125.014 139.325C123.713 140.138 124.038 141.601 124.038 142.902C124.038 150.38 124.038 157.695 124.201 165.173L123.876 165.336C122.575 164.198 122.413 162.572 122.413 160.946C122.413 150.217 122.575 139.488 122.413 128.758C122.413 126.482 122.738 125.019 125.501 125.019C133.955 125.182 142.246 123.556 150.699 124.369C150.211 125.182 149.398 124.857 148.748 124.857C147.448 125.019 145.659 124.369 145.334 126.482C145.172 127.295 145.009 128.271 145.985 128.596C147.448 129.083 149.561 129.571 150.374 128.108C151.674 126.157 154.926 125.507 154.113 121.605C153.625 119.492 156.876 119.004 159.152 119.167ZM184.675 122.256C178.66 122.256 172.483 121.28 166.468 123.556C172.483 123.881 178.498 124.857 184.512 123.719C189.227 123.556 194.104 123.231 198.818 123.068C198.818 122.743 198.818 122.581 198.818 122.256C194.104 122.256 189.389 122.256 184.675 122.256ZM203.045 59.9928C202.72 59.9928 202.557 59.9928 202.232 59.9928C202.232 79.6633 202.232 99.1712 202.232 118.842C202.557 118.842 202.72 118.842 203.045 118.842C203.045 99.3338 203.045 79.6633 203.045 59.9928ZM205.483 129.571C205.483 127.945 205.321 126.645 205.321 125.344C205.321 124.044 204.67 123.719 203.533 123.719C201.419 123.881 199.631 124.044 198.005 125.832C197.03 126.807 197.03 127.458 198.168 128.108C199.956 129.083 198.981 130.709 199.143 132.01C199.143 133.96 199.794 134.773 201.907 134.936C207.109 135.586 204.67 131.522 205.483 129.571ZM148.423 162.897C149.724 163.71 150.211 165.498 151.512 166.474C153.625 162.572 157.364 165.823 160.453 164.685C157.364 162.084 157.364 162.084 152.65 162.897C151.349 163.06 149.886 162.897 148.423 162.897ZM145.822 161.271C145.009 157.695 144.684 154.444 148.911 151.355C142.896 153.306 142.083 156.72 145.822 161.271ZM127.452 129.083C126.964 128.433 126.802 127.295 125.664 127.295C124.689 127.295 123.551 127.62 123.713 128.758C123.713 129.571 124.038 130.872 125.339 130.709C125.989 130.546 126.964 130.059 127.452 129.083ZM149.073 151.68C151.024 151.192 151.837 151.03 152.487 150.705C152.65 150.705 152.65 150.054 152.487 149.892C151.512 149.567 150.861 150.217 149.073 151.68ZM200.606 121.118C200.444 121.28 200.281 121.28 200.281 121.443C200.281 121.605 200.444 121.93 200.606 122.093C200.769 121.93 200.931 121.93 200.931 121.768C200.931 121.605 200.769 121.28 200.606 121.118Z" fill="#EAEAEA"/>
<path d="M273.11 212.808C269.046 212.808 264.982 212.645 260.918 212.645C260.918 207.768 260.755 202.729 260.593 197.852C260.593 196.226 261.406 194.438 259.455 193.3C258.317 191.349 256.529 192.487 255.066 192.324C243.361 191.837 231.819 193.3 220.114 191.511C219.952 191.511 219.789 191.349 219.789 191.511C216.7 192.975 212.474 193.462 210.523 191.837C208.084 189.723 209.71 185.497 209.71 182.083C209.547 174.442 209.71 166.801 209.71 159.161C209.71 126.81 209.71 94.4596 209.71 62.1089C209.71 54.3058 207.922 52.5175 199.956 52.355C183.862 52.355 167.768 52.355 151.674 52.355C150.049 52.355 148.423 52.355 146.797 52.355C147.122 50.0791 148.586 51.0545 149.398 51.0545C177.034 51.0545 204.67 51.0545 232.307 51.0545C234.908 51.0545 236.046 51.3796 236.046 54.4683C235.883 97.8735 235.883 141.116 235.883 184.521C232.957 184.521 230.031 184.521 227.267 184.521C225.641 184.521 224.016 184.359 223.203 186.309C222.715 186.797 222.227 187.285 222.553 188.098C222.227 188.585 221.902 188.91 221.415 189.398C220.764 189.886 219.789 190.699 220.602 191.186C221.577 191.999 221.577 190.536 221.902 189.886C222.228 189.398 222.715 189.073 223.04 188.585C223.853 188.26 224.016 187.61 224.016 186.96C249.213 186.96 274.411 186.96 299.446 186.797C302.372 186.797 302.697 188.098 302.372 190.374C296.682 190.211 290.83 191.186 285.14 189.236C281.889 188.098 278.475 191.024 274.899 190.861C273.761 190.861 273.923 192.649 273.923 193.787C273.923 198.339 274.086 202.891 273.923 207.28C273.923 209.069 274.899 211.019 273.11 212.808ZM217.838 105.514C218.976 101.125 218.488 99.3366 217.188 100.149C214.099 102.1 213.124 99.6617 211.336 98.036C211.173 110.066 210.36 121.933 211.336 133.963C211.336 135.264 211.336 136.564 211.336 137.865C211.498 141.441 211.986 141.929 214.099 142.091C217.351 142.254 218.163 140.791 218.001 137.865C217.838 126.973 217.838 116.243 217.838 105.514Z" fill="#EAEAEA"/>
<path d="M162.891 89.9075C162.891 82.592 163.054 75.2766 162.891 67.9611C162.891 64.8723 163.541 63.7344 166.793 63.7344C175.571 63.8969 184.35 63.8969 193.128 63.7344C196.054 63.7344 197.03 64.5472 197.03 67.636C196.867 82.4295 196.867 97.223 197.03 112.016C197.03 114.78 196.217 115.593 193.453 115.593C184.512 115.593 175.571 115.756 166.63 116.081C163.541 116.243 162.729 115.268 162.891 112.179C163.054 104.864 163.054 97.3856 162.891 89.9075Z" fill="#EAEAEA"/>
<path d="M259.616 193.301C259.616 195.414 259.454 197.528 259.616 199.478C260.267 204.03 258.641 205.818 254.089 204.518C253.439 203.055 255.715 201.917 254.739 200.291C252.463 199.966 253.276 202.567 251.813 203.055C211.335 203.055 170.856 203.055 130.377 203.055C130.377 203.542 130.377 203.868 130.377 204.355C146.471 204.355 162.403 204.355 178.496 204.355V204.68C160.777 204.68 143.057 204.843 125.175 205.006C122.899 205.006 121.924 204.355 122.249 202.079C122.249 201.592 122.249 201.104 122.249 200.616C122.249 193.463 122.249 193.463 129.402 194.276C129.89 194.276 130.377 194.276 130.865 194.276C130.865 194.601 130.865 194.926 130.702 195.414C129.727 195.739 128.101 194.601 127.776 196.552C127.776 196.877 127.776 197.04 127.776 197.365C128.589 199.316 130.377 198.34 131.515 198.34C171.344 198.34 211.009 198.34 250.838 198.34C251.651 198.34 252.463 198.34 253.276 198.34C254.252 198.34 254.739 197.69 254.739 196.877C254.739 195.902 253.927 195.577 253.114 195.577C251.813 195.577 250.513 195.577 249.212 195.577C225.965 195.577 202.719 195.577 179.634 195.577C179.634 195.089 179.634 194.601 179.797 193.951C188.25 193.951 196.541 193.788 204.994 193.788C205.807 194.926 206.458 194.601 206.945 193.463C219.138 194.439 231.493 193.626 243.685 193.951C249.05 193.626 254.252 193.301 259.616 193.301Z" fill="#EAEAEA"/>
<path d="M151.836 110.717C152.162 116.082 152.162 116.082 144.521 116.407C143.058 116.407 141.595 116.57 140.132 116.57C139.807 116.57 139.482 116.57 139.156 116.57C130.866 116.732 130.866 116.732 133.792 108.441C138.344 94.9483 142.895 81.2927 147.447 67.7997C147.935 66.1741 147.935 63.2479 150.698 64.0607C152.974 64.711 151.511 67.1495 151.836 68.7752C152.162 70.0757 151.674 71.2136 151.024 72.3516H151.186C150.536 72.6767 150.211 73.1644 150.211 73.8147C150.211 85.682 150.211 97.3868 150.048 109.254C150.048 110.229 150.536 110.717 151.511 110.392L151.836 110.717Z" fill="#EAEAEA"/>
<path d="M240.922 51.215C240.922 94.1324 240.922 137.05 240.922 180.13C240.922 182.731 241.247 185.332 237.345 184.519C237.345 141.114 237.345 97.7089 237.183 54.3038C237.183 51.0525 238.321 50.4022 240.922 51.215Z" fill="#EAEAEA"/>
<path d="M122.574 206.141C129.077 206.141 135.579 206.141 142.244 206.141C179.959 206.141 217.675 206.141 255.39 206.141C256.365 206.141 257.34 206.141 258.316 206.141C258.966 206.141 259.616 206.466 259.616 207.279C259.779 208.417 258.966 208.579 258.153 208.579C256.365 208.579 254.577 208.742 252.789 208.742C230.029 208.742 207.27 209.229 184.511 208.579C169.23 208.254 153.949 209.067 138.668 208.091C134.929 207.929 131.027 207.929 127.126 208.579C125.5 208.904 124.037 208.579 122.737 207.604C122.412 207.116 122.411 206.628 122.574 206.141Z" fill="#EAEAEA"/>
<path d="M157.201 110.391C154.763 110.391 153.625 109.578 153.625 106.814C153.787 93.8092 153.625 80.9665 153.462 67.9612C153.3 62.7591 157.201 65.5227 159.152 64.5473V64.3848C159.152 66.6607 158.989 68.9366 158.989 71.2125C158.827 71.5377 158.502 72.0254 158.339 72.3505C156.876 72.5131 157.201 73.651 157.201 74.6264C157.039 86.6563 157.039 98.5236 157.201 110.391Z" fill="#EAEAEA"/>
<path d="M126.477 116.405C126.64 111.528 129.728 107.464 131.029 103.075C133.467 95.7591 136.068 88.281 138.182 80.803C139.97 74.788 142.083 68.6105 144.847 62.7582C146.147 59.832 147.285 59.0191 150.374 61.1325C146.798 61.2951 146.473 63.8961 145.66 66.3346C139.97 82.9164 134.28 99.4981 128.59 116.242C127.778 116.242 127.127 116.405 126.477 116.405Z" fill="black"/>
<path d="M149.235 44.5516C150.21 45.0393 151.348 45.3644 152.323 44.5516C177.196 44.5516 202.231 44.5516 227.103 44.5516C228.079 44.5516 229.704 44.2264 229.216 46.1772C216.374 46.1772 203.694 46.0147 190.851 46.0147C190.038 46.0147 189.388 46.3398 188.575 46.6649C175.895 46.8275 163.215 46.8275 150.535 46.9901C149.235 46.6649 147.121 46.8275 149.235 44.5516Z" fill="#EAEAEA"/>
<path d="M126.477 116.403C127.127 116.403 127.778 116.24 128.59 116.24C128.916 119.979 131.191 120.792 134.605 120.63C136.394 120.63 138.019 120.63 139.645 119.979C142.246 119.329 145.497 121.605 147.611 118.354C150.049 117.866 152 118.841 152 121.442C151.837 124.206 149.236 122.743 147.773 122.743C140.945 123.068 133.955 123.068 127.127 123.231C125.989 123.231 124.364 124.369 123.551 122.905C122.576 121.442 123.713 120.304 124.689 119.004C125.339 118.354 125.827 117.378 126.477 116.403Z" fill="#EAEAEA"/>
<path d="M251.814 203.051C253.277 202.564 252.464 199.963 254.74 200.288C255.715 201.913 253.277 203.051 254.09 204.515C243.848 205.327 233.444 204.84 223.202 204.84C208.409 205.002 193.453 204.677 178.659 204.677V204.352C198.33 204.189 218.163 204.352 237.833 204.027C242.385 203.864 247.262 205.327 251.814 203.051Z" fill="black"/>
<path d="M138.344 194.111C143.708 192.648 149.236 193.623 154.6 193.461C162.241 193.298 169.719 193.461 177.359 193.461C177.359 193.948 177.359 194.436 177.522 195.086C164.517 195.086 151.674 194.924 138.669 194.924C138.669 194.761 138.506 194.436 138.344 194.111Z" fill="#EAEAEA"/>
<path d="M205.321 192.161C205.321 178.993 205.321 165.663 205.321 152.495C205.808 152.495 206.459 152.495 206.946 152.495C206.946 165.826 206.946 179.156 206.946 192.324C206.459 192.324 205.808 192.161 205.321 192.161Z" fill="#EAEAEA"/>
<path d="M159.151 64.5464C159.964 64.2213 159.151 62.7582 160.289 62.9208C162.077 62.9208 161.589 64.3839 161.589 65.3593C161.589 71.2116 161.589 77.064 161.589 82.9164C161.589 93.3206 161.589 103.725 161.589 113.966C161.589 115.104 161.914 116.08 160.126 117.706C160.126 113.316 160.126 109.74 160.126 106.163C160.126 93.8083 160.126 81.6159 160.126 69.2608C160.126 67.6352 161.264 65.5218 159.151 64.5464Z" fill="#EAEAEA"/>
<path d="M165.004 215.731C163.216 215.731 161.427 215.406 159.639 215.569C157.201 215.731 157.201 214.106 157.201 212.48C157.201 210.692 157.851 210.204 159.639 209.879C165.166 208.904 164.841 212.318 165.004 215.731Z" fill="#EAEAEA"/>
<path d="M158.176 72.5149C158.339 72.1898 158.664 71.7021 158.826 71.377C159.314 84.8699 159.314 98.2003 158.826 111.693C158.176 111.531 157.688 111.531 157.038 111.368C157.038 111.043 157.038 110.718 157.201 110.555C158.826 109.092 158.013 107.141 158.176 105.516C158.176 94.4613 158.176 83.4068 158.176 72.5149Z" fill="black"/>
<path d="M151.836 110.713L151.673 110.551C150.698 97.8705 151.511 85.0278 151.186 72.3477H151.023C152.486 73.8108 151.836 75.7615 151.836 77.3872C151.999 88.4417 151.999 99.4962 151.836 110.713Z" fill="black"/>
<path d="M203.206 152.168C201.743 152.493 200.93 154.444 199.142 154.281C198.817 153.143 199.793 150.705 201.256 149.242C202.231 148.104 201.906 146.803 202.068 145.665C202.231 144.527 202.394 143.227 204.019 144.527C203.857 147.128 204.832 149.729 203.206 152.168Z" fill="black"/>
<path d="M157.038 111.205C157.689 111.368 158.176 111.368 158.826 111.53C158.339 112.993 160.127 115.432 157.526 115.919C156.225 116.245 154.275 117.057 153.787 114.456C153.137 111.53 155.087 111.368 157.038 111.205Z" fill="#EAEAEA"/>
<path d="M132.003 183.386C136.88 181.598 136.718 185.825 137.856 188.426C136.23 188.913 136.88 190.051 137.205 191.027C137.043 191.352 136.718 191.515 136.555 191.84C134.93 189.076 133.467 186.15 132.003 183.386ZM135.417 186.963L135.255 186.8V187.125L135.417 186.963Z" fill="black"/>
<path d="M147.609 118.521C145.496 121.772 142.245 119.496 139.644 120.146C136.717 118.358 140.456 117.87 140.294 116.57C141.757 116.57 143.22 116.407 144.683 116.407C144.521 118.521 146.471 118.033 147.609 118.521Z" fill="black"/>
<path d="M177.684 192.323C177.684 187.933 177.684 187.933 173.295 187.121C179.472 185.657 180.285 186.47 178.822 192.323C178.334 192.323 178.009 192.323 177.684 192.323Z" fill="black"/>
<path d="M177.847 119.005C172.808 119.005 167.768 119.005 162.729 119.005C162.729 118.842 162.729 118.68 162.729 118.354C167.768 118.354 172.808 118.354 177.847 118.354C177.847 118.68 177.847 118.842 177.847 119.005Z" fill="black"/>
<path d="M138.344 194.11C138.506 194.435 138.669 194.597 138.669 194.923C136.068 194.923 133.304 195.085 130.703 195.085C130.703 194.76 130.703 194.435 130.866 193.947C133.467 192.972 135.905 193.297 138.344 194.11Z" fill="black"/>
<path d="M127.939 172.817C125.663 171.517 124.85 169.403 125.013 166.965C125.663 167.615 126.313 168.265 126.964 168.916V168.753C126.964 169.566 126.801 170.541 127.939 170.866V170.704C127.939 171.517 127.939 172.167 127.939 172.817Z" fill="#EAEAEA"/>
<path d="M130.865 180.618C131.19 179.968 131.84 179.643 132.328 180.13C132.653 180.293 132.816 180.943 132.978 181.268C132.328 181.431 131.84 181.431 131.19 181.593C131.027 181.268 131.027 180.943 130.865 180.618Z" fill="black"/>
<path d="M183.048 118.52C182.235 119.332 181.422 119.17 180.772 119.007C180.609 119.007 180.447 118.357 180.609 118.357C181.422 117.869 182.072 118.032 183.048 118.52Z" fill="black"/>
<path d="M177.684 195.085C177.684 194.597 177.684 194.109 177.521 193.459C178.334 193.459 178.984 193.459 179.797 193.459C179.797 193.947 179.797 194.434 179.635 195.085C178.984 195.085 178.334 195.085 177.684 195.085Z" fill="black"/>
<path d="M205.321 192.161C205.808 192.161 206.459 192.324 206.946 192.324C207.109 192.486 207.109 192.811 206.946 193.137C206.459 194.275 205.808 194.6 204.996 193.462C205.158 192.974 205.158 192.486 205.321 192.161Z" fill="black"/>
<path d="M125.013 166.965C123.55 167.128 123.875 165.99 123.712 165.339L124.038 165.177C125.013 165.339 125.013 166.152 125.013 166.965Z" fill="#EAEAEA"/>
<path d="M137.694 191.184C137.531 191.997 137.206 192.485 136.23 191.834C136.393 191.509 136.718 191.347 136.881 191.021C137.368 191.184 137.531 191.184 137.694 191.184Z" fill="black"/>
<path d="M159.152 119.172C159.152 119.009 159.152 118.684 159.314 118.521H159.64C159.477 118.847 159.314 119.009 159.152 119.172Z" fill="#EAEAEA"/>
<path d="M146.471 55.7676L146.309 55.9301L146.471 55.7676Z" fill="#EAEAEA"/>
<path d="M319.278 191.51C319.278 190.372 318.14 190.372 317.327 190.209C317.002 187.933 317.327 186.633 320.253 186.633C341.224 186.795 362.357 186.795 383.328 186.633C385.929 186.633 385.929 187.608 385.279 189.396C384.466 191.185 383.491 192.485 380.89 192.485C361.219 192.323 341.549 192.485 321.879 192.323C321.066 192.323 320.253 191.835 319.278 191.51Z" fill="#EAEAEA"/>
<path d="M316.026 190.21C311.799 190.21 307.735 190.21 303.508 190.21C303.183 187.934 303.508 186.471 306.272 186.633C308.548 186.796 310.823 186.796 312.937 186.633C316.026 186.308 316.351 187.934 316.026 190.21Z" fill="#EAEAEA"/>
<path d="M19.6705 219.637C21.9464 218.987 20.8085 217.199 20.8085 216.061C20.6459 212.484 20.3208 208.908 19.6705 205.494C19.0202 201.755 19.8331 196.39 12.8428 199.154C12.8428 196.065 14.7936 196.715 15.9315 196.715C23.5721 196.715 31.2126 196.715 38.6906 196.553C41.4542 196.553 42.5922 197.528 41.9419 200.292C41.6168 201.592 41.2916 202.73 41.1291 204.031C37.7152 220.45 33.4885 223.701 16.4192 222.401C15.7689 219.637 19.6705 221.75 19.6705 219.637ZM33.4885 208.745C33.4885 207.932 33.6511 207.445 33.4885 206.957C32.8383 205.006 35.4393 201.755 30.3998 201.592C25.5228 201.43 26.1731 204.193 26.3357 207.12C26.3357 208.257 26.4982 209.395 26.3357 210.533C25.3603 215.41 28.449 215.736 31.7003 214.923C35.6019 214.11 32.5131 210.533 33.4885 208.745Z" fill="#EAEAEA"/>
<path d="M40.6416 172.651C40.479 173.139 40.3165 173.626 40.1539 174.114C38.2031 173.626 37.5529 174.439 38.0406 176.39C38.8534 179.641 37.2277 180.779 34.139 180.454C31.8631 180.292 29.5872 180.292 27.3113 180.292C22.4343 180.129 23.0846 180.292 24.5477 175.252C25.6856 170.863 26.4985 166.311 27.4739 161.922C28.1241 158.67 29.4246 157.045 33.0011 157.532C35.9272 157.858 38.8534 157.532 41.7796 157.532C40.9667 162.084 40.1539 166.474 39.5037 170.7C39.3411 171.513 39.016 172.489 40.6416 172.651ZM39.8288 161.922C39.9913 161.759 39.9913 161.759 40.1539 161.597C39.9913 161.434 39.6662 161.271 39.5037 161.271C39.5037 161.271 39.3411 161.434 39.1785 161.597C39.3411 161.759 39.6662 161.759 39.8288 161.922Z" fill="#EAEAEA"/>
<path d="M37.0653 181.757C38.5284 184.52 36.7402 187.609 38.0407 190.373C38.0407 193.136 36.7402 194.274 33.814 194.274C28.7745 194.274 23.735 194.437 19.0206 196.388C17.2324 197.201 16.0944 196.225 16.7447 194.112C17.7201 190.86 17.5575 187.934 16.5821 184.683C15.9319 182.57 16.9073 181.432 19.3457 181.432C25.3606 181.757 31.213 181.757 37.0653 181.757Z" fill="#EAEAEA"/>
<path d="M25.5227 161.109C26.0104 163.547 24.5473 165.823 24.2222 168.099C23.8971 171.188 21.296 170.538 19.3453 170.375C16.7442 170.05 17.7196 168.099 18.2073 166.636C18.695 165.011 19.1827 163.222 19.8329 161.597C21.296 158.183 22.7591 158.02 25.5227 161.109Z" fill="#EAEAEA"/>
<path d="M23.0849 173.467C22.5972 175.418 22.4346 177.368 19.5084 177.043C18.0453 176.881 17.7202 176.231 17.7202 174.767C17.8828 172.492 18.8582 171.516 21.1341 171.841C22.272 172.004 23.5726 171.679 23.0849 173.467Z" fill="#EAEAEA"/>
<path d="M40.9679 224.024C40.9679 225.488 39.9925 225.65 39.0171 225.488C37.8792 225.325 36.2535 225.65 36.4161 223.699C36.5787 222.236 37.7166 222.561 38.692 222.724C39.6674 222.724 40.9679 222.399 40.9679 224.024Z" fill="#EAEAEA"/>
<path d="M42.1052 166.965C42.2678 169.078 42.9181 171.192 41.1298 172.817C40.8047 170.704 40.317 168.753 42.1052 166.965Z" fill="black"/>
<path d="M43.0809 163.062C42.7557 164.363 43.5686 165.989 42.1055 167.127C42.4306 165.664 41.4552 164.038 43.0809 163.062Z" fill="#EAEAEA"/>
<path d="M25.5238 161.113C25.3612 160.463 25.0361 159.975 25.6864 159.487C25.8489 159.487 26.3366 159.65 26.3366 159.812C26.4992 160.463 26.3366 161.113 25.5238 161.113Z" fill="#EAEAEA"/>
<path d="M319.929 211.342C317.815 212.318 316.027 214.431 313.263 213.781C312.451 213.618 311.15 213.943 311.15 212.48C310.825 208.416 307.899 208.904 305.135 208.904C298.795 208.904 292.618 208.904 286.278 208.904C285.465 208.904 284.327 208.579 283.839 209.879L284.002 209.717C281.726 210.042 284.002 213.943 280.913 213.618C279.125 213.456 276.361 214.594 275.548 212.805C274.41 210.367 274.736 207.441 275.386 204.677C276.036 202.076 278.312 203.539 279.775 203.377C283.352 203.214 286.928 202.726 290.342 203.214C297.17 204.19 303.997 203.214 310.662 203.052C315.377 202.889 316.84 205.327 318.14 208.741C318.791 209.879 318.14 211.505 319.929 211.342Z" fill="#EAEAEA"/>
<path d="M316.027 191.673C316.027 195.087 316.027 198.501 316.19 201.915C303.672 201.915 290.992 201.915 278.475 202.077C275.711 202.077 275.061 201.102 275.386 198.663C275.548 197.526 275.386 196.388 275.386 195.25C275.548 193.949 274.573 192.161 276.524 191.511C278.637 190.86 279.287 192.323 279.938 193.949C280.913 196.55 282.539 197.363 285.465 197.2C293.105 196.713 300.746 196.55 308.386 196.388C310.337 196.388 311.638 196.062 311.638 193.461C311.638 190.373 314.239 191.836 316.027 191.673Z" fill="#EAEAEA"/>
<path d="M284.002 209.882C291.317 209.882 298.47 209.882 305.785 210.044C307.248 210.044 309.362 209.394 309.524 211.833C309.687 214.596 307.248 213.621 305.948 213.621C299.933 213.783 294.081 213.458 288.066 213.783C284.815 213.946 283.514 212.971 284.002 209.882Z" fill="#EAEAEA"/>
<path d="M299.445 195.252C296.519 195.252 293.593 195.252 290.829 195.252C290.017 195.252 288.554 195.903 288.716 194.439C288.879 193.301 288.716 191.676 290.667 191.676C296.682 191.676 302.534 191.676 308.549 191.676C309.687 191.676 310.175 192.326 310.337 193.464C310.5 195.09 309.524 195.252 308.224 195.252C305.298 195.252 302.372 195.252 299.445 195.252Z" fill="#EAEAEA"/>
<path d="M286.766 192.164C286.766 193.79 285.953 193.952 284.978 194.115C283.677 194.277 282.214 194.44 281.889 192.814C281.564 191.676 282.864 191.351 283.677 191.026C284.978 190.701 285.953 191.514 286.766 192.164Z" fill="#EAEAEA"/>
<path d="M303.509 176.719L303.022 176.556L302.534 176.719C288.228 176.719 273.922 176.556 259.617 176.556C259.617 126.974 259.617 77.391 259.779 27.8084C259.779 26.1827 259.129 24.2319 260.592 22.7688C356.18 22.7688 451.768 22.7688 547.357 22.7688C550.283 22.7688 553.046 24.2319 555.973 22.9314C557.923 22.1186 559.386 23.094 559.061 25.695C558.899 26.833 559.061 27.9709 559.061 29.1089C559.061 76.7407 559.061 124.373 559.061 172.004C559.061 173.63 558.899 175.256 558.899 176.881C556.785 176.881 554.672 176.719 552.721 176.719H552.559C549.633 176.881 546.706 177.044 543.78 177.044C469.651 177.044 395.521 177.044 321.391 177.044C319.928 177.044 318.465 177.044 317.002 176.881L316.677 176.719L316.352 176.881C311.963 176.719 307.736 176.719 303.509 176.719ZM297.494 143.718C298.145 144.206 298.632 144.856 299.283 145.344C299.933 145.831 300.746 146.969 301.396 145.669C301.884 144.693 301.558 143.88 300.258 143.718C299.445 143.555 298.795 143.393 297.982 143.068C296.519 140.629 301.071 141.605 299.933 139.166C298.307 139.004 296.194 136.728 294.893 139.329C294.243 140.629 293.43 144.043 297.494 143.718ZM321.229 164.201C325.13 161.438 325.13 158.837 321.066 154.772C318.303 152.496 315.376 150.546 312.288 154.285C310.5 155.423 309.849 157.211 309.199 159.162C304.972 159.975 303.022 158.837 303.347 153.96C303.834 145.669 303.509 137.378 303.509 129.087C302.534 135.752 302.534 142.255 302.371 148.92C302.371 150.221 302.859 152.659 300.908 152.334C297.169 151.846 296.519 155.26 293.755 156.398C298.145 158.186 303.672 158.024 301.721 164.689C301.558 165.502 302.696 165.989 303.347 165.989C304.485 165.989 304.322 164.852 304.322 164.201C303.672 159.324 306.273 160.137 309.199 161.113C310.012 162.413 310.662 164.039 311.637 165.177C314.889 168.265 318.79 167.778 321.229 164.201ZM553.046 25.8576C550.608 27.9709 552.234 30.0843 552.234 32.1976C552.071 46.3409 552.071 60.4841 552.234 74.6274C552.234 78.529 551.258 80.1546 547.194 79.0167C546.219 78.6915 544.756 78.0413 544.43 79.6669C543.618 83.0808 544.918 86.4947 544.43 90.0711C544.268 91.2091 547.844 93.1599 550.933 93.1599C547.519 89.5835 552.396 87.145 551.908 85.5193C551.908 114.781 551.908 145.344 551.908 176.069C552.234 176.069 552.721 176.069 553.046 176.069C553.046 125.998 553.046 75.9279 553.046 25.8576Z" fill="#EAEAEA"/>
<path d="M146.309 42.2781C145.496 42.6032 145.008 42.9284 144.683 42.9284C144.358 42.9284 143.87 42.4407 143.87 42.2781C143.87 41.953 144.195 41.4653 144.52 41.4653C144.683 41.3027 145.171 41.6278 146.309 42.2781Z" fill="#EAEAEA"/>
<path d="M125.013 139.163C132.003 137.537 139.156 138.512 146.147 138.35C157.851 138.187 169.556 138.675 181.261 138.35C188.088 138.187 194.916 138.675 201.906 138.512C203.044 138.512 204.67 138.025 204.67 139.488C204.833 141.601 202.882 140.626 201.744 140.626C176.221 140.626 150.861 140.626 125.338 140.626C125.176 140.301 125.176 139.65 125.013 139.163Z" fill="black"/>
<path d="M203.044 59.9971C203.044 79.6676 203.044 99.1755 203.044 118.846C202.719 118.846 202.556 118.846 202.231 118.846C202.231 99.1755 202.231 79.6676 202.231 59.9971C202.556 59.9971 202.719 59.9971 203.044 59.9971Z" fill="black"/>
<path d="M205.482 129.574C204.832 131.525 207.108 135.589 201.743 134.939C199.63 134.776 198.98 133.963 198.98 132.013C198.98 130.712 199.792 129.086 198.004 128.111C197.029 127.461 196.866 126.973 197.842 125.835C199.467 124.047 201.255 123.884 203.369 123.722C204.507 123.722 205.157 124.047 205.157 125.347C205.32 126.648 205.32 127.948 205.482 129.574ZM200.28 130.875C200.605 131.525 199.467 133.638 201.906 133.638C203.856 133.638 203.694 132.175 203.694 130.875C203.694 129.737 204.507 128.274 202.231 128.111C200.28 127.948 200.118 129.086 200.28 130.875Z" fill="black"/>
<path d="M184.512 123.561C178.497 124.699 172.482 123.724 166.468 123.399C172.482 121.285 178.497 122.098 184.675 122.098C184.512 122.748 184.512 123.073 184.512 123.561Z" fill="black"/>
<path d="M148.423 162.899C149.886 162.899 151.349 163.062 152.65 162.899C157.364 162.086 157.202 162.086 160.453 164.688C157.527 165.825 153.625 162.574 151.512 166.476C150.211 165.5 149.724 163.712 148.423 162.899Z" fill="black"/>
<path d="M125.012 139.165C125.175 139.653 125.175 140.14 125.338 140.791C125.338 150.22 124.037 159.811 126.963 168.915C126.313 168.264 125.663 167.614 125.012 166.964C125.012 166.151 125.012 165.338 124.037 165.013C124.037 157.535 124.037 150.22 123.875 142.741C124.037 141.441 123.712 140.14 125.012 139.165Z" fill="black"/>
<path d="M145.82 161.274C142.081 156.56 142.894 153.308 148.909 151.357C144.682 154.446 144.845 157.697 145.82 161.274Z" fill="black"/>
<path d="M184.511 123.56C184.511 123.072 184.511 122.584 184.673 122.097C189.388 122.097 194.265 122.097 198.979 122.097C198.979 122.422 198.979 122.584 198.979 122.91C194.102 123.235 189.225 123.397 184.511 123.56Z" fill="black"/>
<path d="M127.45 129.085C126.963 130.223 125.987 130.711 125.174 130.711C124.037 130.711 123.549 129.573 123.549 128.76C123.549 127.622 124.524 127.297 125.5 127.297C126.8 127.297 126.963 128.435 127.45 129.085Z" fill="black"/>
<path d="M199.143 154.284C198.168 156.072 196.705 156.397 194.754 155.747C196.217 154.771 197.518 154.121 199.143 154.284Z" fill="black"/>
<path d="M149.073 151.683C150.698 150.057 151.511 149.57 152.486 150.057C152.649 150.057 152.486 150.708 152.486 150.87C151.836 151.033 151.186 151.195 149.073 151.683Z" fill="black"/>
<path d="M137.693 191.349C137.53 191.186 137.205 191.024 137.043 191.024C136.718 190.049 136.23 188.911 137.693 188.423C137.855 189.398 138.993 190.374 137.693 191.349Z" fill="black"/>
<path d="M127.939 170.865C126.801 170.54 126.801 169.727 126.963 168.752C128.426 169.077 128.264 169.89 127.939 170.865Z" fill="black"/>
<path d="M127.938 172.818C127.938 172.167 127.938 171.517 127.938 170.867C129.402 170.542 128.914 171.842 129.402 172.492C129.239 172.655 129.076 172.818 128.914 172.98C128.589 172.818 128.264 172.818 127.938 172.818Z" fill="black"/>
<path d="M129.726 174.931C128.751 174.606 128.913 173.63 128.913 172.98C129.076 172.817 129.239 172.655 129.401 172.492C129.726 173.142 129.889 173.955 130.214 174.606C130.051 174.606 129.889 174.768 129.726 174.931Z" fill="black"/>
<path d="M130.216 174.442C131.029 174.93 131.354 175.905 130.703 176.231C129.565 176.718 130.053 175.418 129.728 174.93C129.891 174.768 130.053 174.605 130.216 174.442Z" fill="black"/>
<path d="M200.605 121.117C200.768 121.28 200.93 121.605 200.93 121.767C200.93 121.767 200.768 121.93 200.605 122.093C200.443 121.93 200.28 121.605 200.28 121.442C200.28 121.28 200.443 121.28 200.605 121.117Z" fill="black"/>
<path d="M211.335 133.8C210.197 121.933 211.173 110.065 211.335 97.873C213.286 99.4987 214.099 101.937 217.187 99.9864C218.488 99.1736 218.976 100.962 217.838 105.351C217.513 105.351 217.025 105.351 216.7 105.351C215.399 105.676 214.261 105.026 213.123 104.376C213.611 114.13 213.774 123.884 212.961 133.475C212.311 133.638 211.823 133.8 211.335 133.8Z" fill="black"/>
<path d="M216.699 105.515C217.024 105.515 217.512 105.515 217.837 105.515C217.837 116.244 217.837 126.973 218 137.54C218 140.466 217.187 142.092 214.098 141.767C211.985 141.604 211.497 141.117 211.334 137.54C211.334 136.24 211.334 134.939 211.334 133.639C211.822 133.476 212.472 133.476 212.96 133.313C216.049 134.289 216.862 132.988 216.862 130.062C216.537 121.934 216.699 113.806 216.699 105.515Z" fill="black"/>
<path d="M222.552 187.933C222.227 187.12 222.715 186.632 223.203 186.145C223.528 186.307 223.69 186.632 224.015 186.795C224.015 187.445 223.853 188.095 223.04 188.42C223.04 188.258 222.715 187.933 222.552 187.933Z" fill="black"/>
<path d="M221.902 189.725C221.577 190.213 221.577 191.676 220.602 191.026C219.789 190.538 220.764 189.725 221.414 189.237C221.577 189.4 221.74 189.562 221.902 189.725Z" fill="black"/>
<path d="M223.039 188.423C222.714 188.911 222.227 189.236 221.902 189.724C221.739 189.561 221.576 189.399 221.414 189.236C221.739 188.748 222.064 188.423 222.552 187.936C222.714 187.936 223.039 188.261 223.039 188.423Z" fill="black"/>
<path d="M177.684 195.086C178.335 195.086 179.147 195.086 179.798 195.086C203.044 195.086 226.291 195.086 249.375 195.086C250.676 195.086 251.976 195.086 253.277 195.086C254.252 195.086 254.903 195.411 254.903 196.386C254.903 197.199 254.252 197.849 253.44 197.849C252.627 197.849 251.814 197.849 251.001 197.849C211.173 197.849 171.507 197.849 131.678 197.849C130.378 197.849 128.752 198.825 127.939 196.874C144.358 196.874 160.94 196.874 177.359 196.874C177.359 196.549 177.359 196.386 177.359 196.061C160.778 196.061 144.358 196.061 127.777 196.061C128.102 194.11 129.728 195.248 130.703 194.923C133.304 194.923 136.068 194.761 138.669 194.761C151.674 195.086 164.679 195.086 177.684 195.086Z" fill="black"/>
<path d="M251.813 203.055C247.261 205.331 242.384 203.868 237.67 204.03C217.999 204.355 198.167 204.355 178.496 204.355C162.402 204.355 146.471 204.355 130.377 204.355C130.377 203.868 130.377 203.542 130.377 203.055C170.856 203.055 211.334 203.055 251.813 203.055Z" fill="black"/>
<path d="M127.777 196.388C144.358 196.388 160.778 196.388 177.359 196.388C177.359 196.713 177.359 196.875 177.359 197.201C160.94 197.201 144.358 197.201 127.939 197.201C127.777 196.875 127.777 196.55 127.777 196.388Z" fill="black"/>
<path d="M151.347 72.3477C151.673 85.0278 150.697 97.8705 151.835 110.551C150.697 110.876 150.372 110.226 150.372 109.413C150.372 97.5454 150.372 85.8406 150.535 73.9733C150.372 73.1605 150.697 72.5102 151.347 72.3477Z" fill="black"/>
<path d="M158.175 72.5146C158.175 83.5691 158.175 94.4611 158.012 105.516C158.012 107.141 158.663 109.092 157.037 110.555C157.037 98.6878 156.875 86.6579 156.875 74.7906C157.037 73.6526 156.712 72.6772 158.175 72.5146Z" fill="black"/>
<path d="M135.418 186.961L135.093 187.124V186.799L135.418 186.961Z" fill="#EAEAEA"/>
<path d="M33.4897 208.742C32.3518 210.367 35.6031 213.944 31.5389 214.919C28.4502 215.57 25.1989 215.407 26.1743 210.53C26.3369 209.392 26.1743 208.254 26.1743 207.116C26.1743 204.19 25.3615 201.426 30.2384 201.589C35.1154 201.751 32.6769 205.003 33.3272 206.954C33.6523 207.441 33.4897 207.929 33.4897 208.742ZM27.6374 208.254C27.6374 209.229 27.6374 210.205 27.6374 211.18C27.6374 212.481 27.4748 213.781 29.4256 213.781C31.3764 213.781 31.3764 212.643 31.3764 211.18C31.3764 209.067 31.3764 206.954 31.3764 204.84C31.3764 203.377 30.7261 202.889 29.263 202.889C27.9625 202.889 27.6374 203.54 27.6374 204.678C27.6374 205.978 27.6374 207.116 27.6374 208.254Z" fill="black"/>
<path d="M39.8295 161.926C39.6669 161.763 39.3418 161.763 39.1792 161.601C39.3418 161.438 39.3418 161.275 39.5043 161.275C39.6669 161.275 39.992 161.438 40.1546 161.601C39.992 161.763 39.992 161.763 39.8295 161.926Z" fill="black"/>
<path d="M309.363 161.113C306.436 160.138 303.835 159.325 304.486 164.202C304.648 164.852 304.648 165.99 303.51 165.99C302.697 165.99 301.559 165.503 301.885 164.69C303.673 158.025 298.308 158.025 293.919 156.399C296.683 155.261 297.333 151.847 301.072 152.335C303.185 152.497 302.535 150.221 302.535 148.921C302.535 142.256 302.535 135.753 303.673 129.088C303.673 137.379 303.998 145.67 303.51 153.96C303.185 158.837 305.136 159.975 309.363 159.163C309.363 159.813 309.363 160.463 309.363 161.113Z" fill="black"/>
<path d="M312.288 154.284C315.376 150.545 318.303 152.496 321.066 154.772C321.391 157.861 322.692 160.949 321.229 164.201C318.628 164.038 315.376 167.452 313.426 163.063C314.076 163.063 314.726 163.063 315.214 163.225C317.165 164.201 318.79 163.388 319.928 161.925C320.904 160.624 320.741 159.161 319.928 157.861C318.953 156.235 317.49 156.072 315.701 156.235C314.889 156.397 314.238 156.235 313.426 156.235C312.938 155.585 312.613 154.934 312.288 154.284Z" fill="black"/>
<path d="M313.263 163.063C315.377 167.452 318.465 163.876 321.066 164.201C318.628 167.777 314.889 168.265 311.8 165.176C310.662 164.038 310.175 162.412 309.362 161.112C309.362 160.462 309.362 159.811 309.199 159.161C309.687 157.21 310.337 155.422 312.288 154.284C312.613 154.934 312.938 155.585 313.263 156.235C310.337 158.511 310.175 160.787 313.263 163.063Z" fill="black"/>
<path d="M297.494 143.718C293.429 144.043 294.242 140.466 294.893 139.166C296.193 136.565 298.306 138.841 299.932 139.003C301.233 141.442 296.518 140.466 297.981 142.905C297.819 143.393 297.656 143.555 297.494 143.718Z" fill="black"/>
<path d="M321.229 164.199C322.692 161.111 321.554 157.859 321.066 154.771C325.13 158.672 325.13 161.436 321.229 164.199Z" fill="black"/>
<path d="M297.981 143.063C298.794 143.226 299.444 143.551 300.257 143.714C301.558 143.876 301.883 144.852 301.395 145.665C300.582 146.965 299.932 145.827 299.282 145.339C298.632 144.852 298.144 144.364 297.494 143.714C297.656 143.551 297.819 143.389 297.981 143.063Z" fill="black"/>
<path d="M200.281 130.877C200.119 129.088 200.444 127.95 202.232 128.113C204.508 128.276 203.695 129.739 203.695 130.877C203.695 132.177 204.02 133.64 201.907 133.64C199.469 133.64 200.606 131.527 200.281 130.877Z" fill="#EAEAEA"/>
<path d="M216.7 105.513C216.7 113.804 216.7 121.932 216.862 130.223C216.862 133.312 216.049 134.45 212.961 133.474C213.611 123.883 213.448 114.129 213.123 104.375C214.261 105.188 215.399 105.838 216.7 105.513Z" fill="#EAEAEA"/>
<path d="M27.6366 208.257C27.6366 207.119 27.6366 205.981 27.6366 204.843C27.6366 203.705 28.1243 203.055 29.2623 203.055C30.7254 203.055 31.3756 203.542 31.3756 205.005C31.3756 207.119 31.3756 209.232 31.3756 211.346C31.3756 212.646 31.3756 213.947 29.4248 213.947C27.4741 213.947 27.6366 212.646 27.6366 211.346C27.6366 210.208 27.6366 209.232 27.6366 208.257Z" fill="#EAEAEA"/>
<path d="M313.263 156.233C314.076 156.233 314.889 156.396 315.539 156.233C317.327 156.071 318.79 156.233 319.766 157.859C320.578 159.159 320.741 160.785 319.766 161.923C318.628 163.386 317.002 164.199 315.051 163.224C314.563 163.061 313.751 163.061 313.263 163.061C313.263 160.785 313.263 158.509 313.263 156.233Z" fill="black"/>
<path d="M313.262 156.234C313.262 158.51 313.262 160.786 313.262 163.062C310.174 160.786 310.336 158.51 313.262 156.234Z" fill="black"/>
</g>
</svg>
