<svg width="396" height="526" viewBox="0 0 396 526" fill="none" xmlns="http://www.w3.org/2000/svg">
<g opacity="0.08">
<path d="M240.01 126.191C239.075 126.502 237.829 127.126 237.829 125.256C237.829 124.321 238.452 123.387 238.763 122.452C244.372 113.728 251.85 107.184 261.509 103.445C265.559 101.887 269.922 101.887 273.661 104.38C274.907 105.003 275.53 105.003 276.776 104.692C298.276 97.8369 307.935 113.416 309.804 127.126C310.427 132.734 309.804 138.031 307.623 143.328C304.507 151.429 302.326 159.53 297.652 167.008C296.718 168.254 296.406 171.993 292.979 169.501C292.667 169.501 291.732 170.124 291.421 170.747C289.551 171.993 288.305 174.175 285.501 174.798C284.254 172.617 286.435 170.436 285.501 168.566C275.218 175.421 273.349 186.326 282.696 196.297C291.732 206.268 301.08 215.927 304.196 229.636C304.819 232.129 306.688 234.622 307.623 237.114C311.674 248.954 318.217 259.86 320.709 272.323C323.202 285.409 325.695 298.496 327.876 311.582C328.499 315.321 329.745 317.814 333.173 319.372C353.114 329.654 368.693 345.545 383.961 361.747C386.765 364.551 389.258 367.667 392.373 370.16C405.148 381.377 416.365 393.84 426.647 407.55C427.271 408.173 427.271 409.108 428.517 409.419C428.517 411.912 428.517 414.405 428.517 416.897C427.894 417.209 427.582 417.832 427.582 418.455C427.271 421.883 425.09 422.817 421.662 422.506C411.068 422.194 400.475 422.506 389.881 422.194C387.388 422.194 386.453 422.817 386.453 425.31C386.453 429.984 385.83 434.346 385.83 439.02C385.83 441.201 384.895 442.135 382.714 442.135C375.86 442.135 368.693 442.447 361.838 442.759C358.723 443.07 358.099 444.005 358.099 446.809C358.099 470.801 358.099 495.104 358.723 519.096C358.723 522.524 359.657 524.705 362.15 526.886C372.744 535.922 383.338 545.269 394.243 554.305C397.982 557.421 400.163 561.16 401.098 565.834C401.721 569.884 401.098 570.507 397.047 569.884C392.685 569.261 388.634 569.884 384.895 573C383.961 573 383.338 573 382.403 573C381.468 570.819 379.599 569.573 378.041 568.015C375.548 565.522 373.055 563.029 372.432 559.29C372.121 557.421 370.563 556.175 369.316 554.928C361.838 547.45 354.672 539.972 347.194 532.494C345.013 530.313 342.52 528.132 342.832 524.393C342.832 523.147 342.52 522.524 340.962 522.835C337.223 523.77 334.108 521.901 331.303 519.719C327.876 517.227 324.76 514.422 321.333 511.618C320.398 513.488 320.71 515.98 318.84 517.538C317.594 518.785 319.463 520.343 320.398 521.277C324.449 525.328 328.499 529.378 332.55 533.429C336.912 537.48 336.912 542.465 336.912 547.45C336.912 549.943 334.731 550.878 332.861 551.812C322.579 555.863 312.608 555.24 303.572 548.385C298.899 544.958 294.848 541.219 289.551 538.726C285.501 536.856 283.008 533.741 283.631 528.755C283.943 524.393 283.32 520.031 281.45 515.669C280.204 512.241 279.269 508.191 278.957 504.452C278.646 499.155 277.088 494.17 274.907 489.496C272.414 484.199 272.726 478.591 272.103 472.982C271.479 467.997 270.233 463.635 267.117 459.584C264.001 455.222 262.755 450.237 261.509 444.94C260.886 442.135 259.639 440.889 256.835 440.266C245.618 438.085 234.09 437.773 222.561 437.462C220.692 437.462 220.692 438.396 221.003 439.643C222.249 442.759 223.184 445.563 224.119 448.679C225.365 452.418 225.988 455.845 224.742 459.584C222.873 465.504 223.496 471.113 226.612 476.409C227.546 478.279 228.793 480.148 229.416 482.018C230.039 483.576 233.155 485.445 229.727 487.315C229.727 487.315 230.351 488.873 230.662 489.496C232.22 493.547 232.22 497.285 229.104 500.713C227.235 502.894 227.858 504.763 229.104 506.321C231.597 509.749 230.974 512.241 228.17 515.357C222.873 520.966 218.199 527.197 217.264 535.61C216.641 540.595 213.214 543.4 209.475 543.4C211.967 541.219 212.902 538.103 214.148 534.987C216.329 527.509 219.134 520.031 225.054 514.423C226.923 512.553 226.923 512.241 225.054 511.618C224.742 511.307 224.742 511.307 224.431 510.995C224.742 510.684 224.742 510.372 225.054 510.06C225.677 509.126 227.235 508.191 225.988 506.945C224.742 505.698 223.807 507.568 223.184 508.191C218.199 512.865 213.214 518.161 206.67 520.654C205.424 521.277 204.178 521.901 202.308 521.277C211.344 517.227 218.51 510.372 225.054 502.894C227.546 500.09 228.793 497.285 225.365 494.481L225.054 494.17C224.119 492.3 221.315 490.119 223.496 488.561C225.365 487.315 225.988 490.742 227.235 491.989C227.546 492.3 227.546 492.3 228.481 492.612C226.923 482.33 220.068 474.852 214.771 466.127C217.264 466.75 217.576 468.931 219.757 469.555C220.068 466.75 219.757 464.258 218.51 461.765C217.887 460.83 217.264 459.584 216.953 458.338C216.641 457.715 216.641 457.091 217.264 456.78C218.199 456.157 218.51 456.78 219.134 457.715C219.445 458.338 219.757 458.649 220.068 459.272C220.38 459.896 220.692 460.207 221.626 460.207C222.561 460.207 222.873 459.272 222.873 458.649C222.873 457.091 222.873 455.222 222.561 453.976C221.315 448.679 219.757 443.693 218.199 438.708C217.576 436.839 216.641 436.215 214.46 436.215C201.997 436.215 189.533 436.215 177.07 436.215C174.889 436.215 174.577 437.15 174.889 439.02C175.824 447.121 177.07 455.222 180.186 463.011C180.497 464.258 181.744 465.504 179.874 466.127C178.316 466.75 178.316 464.881 178.005 463.946C174.889 456.468 174.577 448.367 173.331 440.266C172.708 436.839 169.28 434.657 165.853 435.904C164.295 436.527 164.918 437.462 165.23 438.396C165.541 444.005 166.165 449.613 166.788 455.222C167.723 463.011 167.099 470.801 168.657 478.591C169.28 481.395 171.462 483.576 171.462 486.38C171.462 487.938 172.085 489.496 169.904 490.742C168.969 489.184 169.592 487.626 169.592 486.069C169.592 484.199 168.657 482.953 166.788 484.199C164.918 485.445 163.36 484.511 161.491 484.511C160.245 484.511 158.375 482.641 158.064 485.134C157.752 487.626 158.375 490.119 161.179 490.742C163.36 491.054 165.853 491.054 168.346 491.365C168.034 491.989 167.723 492.3 167.723 492.3C160.245 495.416 156.817 493.546 156.506 485.445C156.506 480.148 157.752 474.852 157.129 469.555C156.194 459.584 155.571 449.613 154.636 439.331C154.325 436.839 153.39 435.904 150.897 435.904C129.086 435.592 107.276 434.657 85.4648 435.592C83.2837 435.592 82.6605 436.215 82.6605 438.396C83.2837 458.961 83.5953 479.214 85.7764 499.467C86.3995 503.829 86.7111 504.14 90.7617 502.582C97.6165 499.467 103.848 495.728 110.08 491.365C111.326 490.431 112.261 489.184 112.884 487.938C116 481.083 124.724 475.475 132.202 476.409C135.318 476.721 137.811 478.902 139.057 482.018C139.992 484.199 139.992 486.38 137.499 487.938C136.253 485.134 138.745 481.706 135.63 479.525C133.76 478.279 131.579 477.967 129.71 478.279C125.347 478.902 123.166 481.083 123.478 484.199C121.92 484.822 120.05 482.641 118.493 484.822C120.05 485.757 122.543 485.445 123.166 488.561C118.493 487.003 116 490.119 112.884 492.3C107.899 496.039 102.913 499.778 97.6165 502.894C96.0586 503.829 94.1891 504.763 92.6312 505.387C86.088 507.879 82.349 505.387 82.0374 498.22C82.0374 478.591 81.1026 458.961 79.8563 439.331C79.5447 435.904 78.2984 434.657 75.1826 434.969C74.2478 434.969 73.3131 434.969 72.6899 434.657C70.1973 434.034 69.8857 435.281 69.8857 437.462C70.8204 448.99 71.4436 460.83 72.3784 472.359C73.6247 487.003 74.2478 501.648 76.4289 516.292C77.0521 520.343 77.9868 520.966 82.0374 519.719C88.8922 517.538 95.1239 513.488 101.044 509.437C107.276 505.387 113.819 501.024 119.739 496.351C124.413 492.612 126.594 491.677 132.825 491.677C130.333 493.235 129.398 497.285 124.724 495.728C123.789 495.416 122.543 496.662 121.608 497.285C111.326 504.14 101.044 511.307 90.4501 518.161C87.6459 520.031 84.5301 523.147 81.4142 522.835C76.1173 522.212 74.871 526.263 72.0668 528.755C67.393 533.117 62.0961 536.545 56.7992 539.661C46.8286 545.581 38.1043 552.436 30.9379 561.16C28.1337 564.587 25.0178 566.457 20.3441 564.276C18.163 563.341 15.3588 563.653 12.8661 563.653C10.3735 563.653 9.43872 562.095 9.12714 559.914C8.81556 556.174 10.0619 552.747 12.5545 550.255C16.6051 546.516 20.9672 542.153 27.5105 544.023C28.7568 544.334 29.38 543.4 30.3147 542.465C36.858 537.168 43.0896 532.183 50.256 528.132C55.8645 525.016 57.1108 519.408 57.4224 513.799C58.0456 504.452 56.7992 494.793 56.176 485.445C54.9297 471.113 54.9297 456.468 54.6181 442.135C54.6181 432.788 54.3065 432.788 45.2707 432.788C33.1189 432.788 20.9673 432.476 9.12714 432.476C5.69973 432.476 4.76496 431.23 4.76496 428.114C4.45338 424.064 3.83022 420.013 4.1418 415.962C4.45338 412.223 2.58389 410.977 -0.531933 410.666C-3.95934 410.354 -7.38675 410.042 -10.8142 409.731C-15.1763 409.419 -19.5385 409.419 -23.9006 409.731C-27.6396 410.042 -29.1975 408.173 -30.4438 404.746C-31.067 402.876 -30.7554 401.007 -32.6249 399.449C-33.8713 398.514 -31.6902 397.268 -30.7554 396.644C-23.589 392.282 -16.111 387.608 -8.63305 383.246C9.12715 372.964 25.3294 360.189 43.0896 349.907C57.734 341.494 72.0667 332.458 86.7111 324.046C90.1385 322.176 93.8775 321.241 97.9281 320.93C120.985 320.618 144.042 319.372 167.099 320.307C170.215 320.307 171.462 319.684 171.15 316.256C170.838 312.829 171.15 309.401 170.527 305.974C170.215 303.481 169.28 301.3 166.788 300.365C164.918 299.431 164.607 297.561 164.607 296.003C164.607 290.083 164.607 284.163 164.607 278.243C164.295 273.881 164.607 269.519 162.737 265.468C161.179 262.041 162.426 259.86 164.607 257.679C167.411 254.874 170.838 254.251 174.577 253.94C183.613 253.316 192.649 253.316 201.685 251.759C205.424 251.135 206.67 249.577 206.982 245.839C208.54 227.144 212.279 208.76 219.445 191.623C220.068 190.377 220.068 189.131 219.757 187.573C218.822 183.834 217.264 179.783 214.771 176.667C212.279 173.551 211.967 168.878 208.228 166.385C206.982 165.45 208.851 164.827 209.475 164.515C212.902 162.646 212.902 160.465 210.721 157.349C206.047 150.183 201.997 142.705 197.011 135.538C189.845 124.945 187.975 113.104 187.352 100.641C186.729 89.4241 187.664 77.8956 189.222 66.6786C189.845 61.3817 189.533 56.3964 186.729 51.4111C185.171 48.2953 184.86 44.8679 184.548 41.752C183.613 36.7667 182.367 31.7814 179.251 27.7308C177.693 25.8613 175.201 22.7455 177.382 20.876C179.563 19.0065 181.121 22.7455 183.302 23.9918C184.86 24.9266 185.483 28.0424 187.352 26.7961C188.599 25.8613 186.729 23.6803 186.106 22.1224C184.86 19.0065 183.613 15.8907 182.99 12.4633C182.679 11.217 182.055 9.65905 183.613 9.03589C184.86 8.41272 185.794 9.65905 186.417 10.5938C188.599 13.398 190.468 16.5139 192.649 19.3181C193.584 20.5644 194.207 22.4339 196.388 23.3687C197.011 19.9413 196.388 16.8254 196.077 13.7096C195.765 9.03589 194.83 4.67374 196.388 0C197.323 0 198.258 0 199.504 0C202.62 6.54323 205.112 13.398 206.359 20.876C208.54 19.6297 208.851 17.7602 209.475 16.2023C211.344 12.4633 212.59 8.41272 214.771 4.67374C215.083 4.05057 215.706 3.11582 216.641 3.11582C218.51 4.98532 218.51 6.23165 218.51 7.16639C218.822 12.1517 218.199 16.8254 216.641 21.4992C215.083 26.4845 215.395 31.4698 215.706 36.4551C215.706 38.3246 216.641 38.9478 218.199 37.7015C220.38 36.4551 222.561 35.2088 224.742 33.9625C225.988 33.0277 227.546 32.7162 229.104 33.0277C230.351 33.3393 231.908 33.6509 232.22 35.2088C232.532 36.4551 231.285 37.0783 230.662 38.0131C225.677 43.3099 220.38 48.2953 216.018 53.9037C214.148 56.0848 213.525 58.2659 213.837 61.0701C215.083 72.5987 216.018 84.4388 216.953 95.9674C217.576 102.199 216.953 108.431 216.329 114.662C216.329 115.597 216.018 116.532 216.329 117.467C219.134 124.945 222.561 132.423 226.923 139.277C227.235 139.9 227.858 140.524 228.17 140.524C232.532 140.524 232.843 144.263 234.713 147.067C235.647 139.9 238.14 133.357 240.944 126.814C241.256 126.502 241.568 125.879 240.944 125.568C240.633 125.568 240.321 125.879 240.01 126.191ZM180.186 25.8613C180.497 26.1729 180.497 26.4845 180.809 26.7961C187.352 39.2594 192.338 51.7227 191.714 66.0555C191.091 80.3883 190.78 94.4095 191.091 108.742C191.403 117.155 193.584 125.256 197.946 132.423C203.243 140.835 208.228 149.56 213.525 157.972C213.837 158.595 214.148 159.842 215.395 160.153C218.822 155.168 222.561 150.183 225.988 145.509C226.612 144.574 227.235 143.639 226.612 142.393C222.561 135.227 219.134 128.06 214.771 121.206C213.214 122.14 213.214 124.01 212.279 124.945C211.656 125.568 211.656 126.814 210.409 126.502C209.163 125.879 210.098 124.945 210.409 124.321C212.279 119.336 213.214 114.351 213.837 109.054C215.706 93.4747 213.214 78.2072 211.344 62.9396C210.721 58.2659 211.967 55.4617 214.771 52.3458C216.329 50.7879 217.887 49.23 219.445 47.3605C222.249 44.5563 224.742 41.4405 227.546 38.6362C228.169 38.0131 228.793 37.0783 228.17 36.4551C227.546 35.5204 226.3 36.4551 225.988 37.0783C221.003 42.3752 214.46 42.3752 208.228 43.9331C208.54 42.3752 209.786 41.4405 211.033 41.4405C214.148 40.8173 214.46 38.9478 214.148 36.4551C213.837 32.7161 213.837 29.2887 214.46 25.5498C215.395 20.876 216.329 16.2023 216.953 11.5285C216.953 11.217 216.953 10.5938 216.953 10.2822C215.706 9.97064 215.706 10.2822 215.395 10.2822C213.525 14.3328 211.656 18.6949 209.786 22.7455C209.163 23.9918 208.54 25.8613 206.67 25.8613C204.801 25.8613 204.489 23.9918 204.178 22.4339C202.931 18.0718 201.685 13.7096 200.75 9.03589C200.439 7.78956 200.439 6.23165 198.258 5.2969C198.569 7.16639 198.569 8.72431 198.881 9.97064C199.504 14.0212 200.127 17.7602 200.439 21.8108C200.75 23.6803 200.75 26.1729 198.569 26.7961C196.388 27.4193 195.142 25.8613 193.895 24.3034C192.026 22.1223 190.78 19.6297 189.222 17.137C188.287 15.8907 188.287 14.0212 186.106 12.7749C186.106 15.5791 187.352 17.7602 188.287 19.6297C189.845 22.7455 191.403 25.8613 192.338 29.2887C192.649 30.5351 192.961 32.093 191.403 33.0277C190.156 33.6509 188.91 33.0277 187.975 32.093C185.483 30.2235 183.925 27.4193 181.432 25.2382C181.121 24.9266 181.121 24.615 180.809 24.3034C180.497 23.9918 180.186 23.3687 179.874 23.0571C179.563 23.0571 179.563 22.7455 179.251 22.7455C179.251 23.0571 179.251 23.3687 179.251 23.6803C179.563 24.9266 179.874 25.2382 180.186 25.8613ZM244.06 136.161C244.995 140.212 243.437 144.574 246.241 148.313C247.176 144.886 246.864 141.147 246.553 137.719C246.241 136.161 244.995 136.161 244.06 136.161C243.437 135.85 243.749 135.227 244.06 134.915C246.864 132.734 247.799 130.865 247.488 127.126C247.488 126.814 247.799 126.814 247.799 126.502C251.538 129.307 251.538 129.307 253.719 124.633C253.719 124.321 254.342 124.321 254.654 123.698C256.524 125.879 256.212 128.684 258.081 131.176C259.639 128.372 260.886 126.191 262.444 123.698C262.755 123.075 263.378 121.829 264.313 122.14C265.248 122.452 265.248 123.387 265.248 124.01C265.871 126.191 266.183 128.372 266.806 130.553C267.117 131.176 266.806 132.423 268.052 132.734C268.987 133.046 269.61 132.111 270.233 131.488C271.791 129.618 273.037 127.749 274.595 125.879C274.907 125.256 275.53 124.633 276.465 124.945C277.088 125.256 277.088 125.879 277.088 126.502C277.4 128.372 277.4 130.241 277.711 132.111C277.711 132.734 277.711 133.669 278.334 133.98C279.269 134.292 279.892 133.357 280.204 132.734C282.385 130.553 283.631 127.437 286.435 125.568C287.682 129.307 287.682 132.734 287.37 136.161C287.059 138.654 288.305 138.966 290.174 138.343C290.798 138.343 291.421 137.408 292.044 138.343C291.109 140.212 288.928 140.524 287.682 142.705C291.109 143.016 293.602 147.067 296.406 145.821C298.587 144.574 297.652 140.212 297.652 137.408C297.652 136.473 297.652 135.538 296.094 136.161C295.783 135.85 295.783 135.85 295.471 135.538C295.783 135.227 296.094 134.604 296.406 134.292C297.341 133.357 297.652 131.799 299.21 132.111C300.768 132.734 300.457 134.292 300.457 135.538C300.457 137.719 299.833 140.524 300.768 142.082C303.572 147.378 300.457 151.741 298.899 156.103C297.964 158.595 296.094 160.465 293.29 161.088C289.551 161.711 289.551 164.516 288.928 167.32C288.928 167.631 289.24 168.254 289.551 168.566C290.174 168.878 290.486 168.566 291.109 167.943C292.355 166.697 292.979 164.515 294.537 164.827C297.652 165.45 298.276 163.269 299.522 161.4C302.326 155.791 303.261 149.871 304.819 143.951C305.754 140.212 303.884 135.538 308.558 133.046C308.869 133.046 308.869 132.111 308.869 131.488C310.739 114.351 296.406 102.199 279.892 106.561C277.711 107.184 275.53 107.807 273.972 106.25C269.922 102.511 265.871 103.757 261.82 105.938C256.212 109.054 251.227 113.416 246.553 118.09C249.357 118.09 249.669 119.336 248.111 121.206C240.01 130.241 238.763 141.458 239.386 152.987C239.698 160.153 243.437 165.762 249.357 169.501C249.98 170.124 250.915 171.059 251.85 170.124C252.785 169.501 253.096 168.254 252.785 167.008C252.785 166.385 252.473 165.762 252.161 165.139C249.669 161.711 248.734 157.972 247.799 154.233C247.488 152.987 247.176 151.741 246.241 150.806C242.502 147.69 242.191 143.328 242.814 138.654C242.191 138.343 241.879 136.161 244.06 136.161ZM34.6769 411.912C34.6769 412.223 34.6769 412.535 34.6769 412.847C25.9526 412.535 17.5398 412.535 8.81554 411.912C6.63446 411.912 5.69973 412.224 6.01131 414.716C6.63448 418.144 6.63449 421.571 6.94607 424.998C7.56924 430.295 7.56922 430.295 12.8661 430.607C40.9085 431.542 68.9509 432.788 96.9933 433.411C153.39 434.346 210.098 435.592 266.494 437.462C291.421 438.085 316.347 438.085 341.274 440.578C354.049 441.824 366.824 441.512 379.599 439.954C381.156 439.643 383.026 440.266 383.026 437.773C383.337 433.411 383.649 429.049 383.338 424.687C383.338 422.506 382.403 421.259 379.91 421.571C378.664 421.883 377.729 421.571 376.483 421.571C338.781 421.883 301.08 422.817 263.378 422.506C196.388 421.571 129.71 417.52 62.7193 414.716C56.7992 414.405 50.5676 414.093 44.6475 413.47C44.6475 413.158 44.6475 412.847 44.6475 412.535C48.6981 412.224 52.7487 412.847 56.7992 412.847C118.804 415.028 180.809 417.52 242.814 419.701C302.015 421.883 361.527 418.767 420.727 419.701C424.778 419.701 425.09 418.767 423.843 415.028C423.22 413.47 422.597 413.158 421.039 413.158C419.169 413.158 416.988 413.158 415.119 413.158C372.432 415.028 329.745 413.158 287.059 411.289C249.046 409.731 211.033 407.238 172.708 406.615C109.768 405.369 47.1402 403.499 -15.4879 401.318C-19.2269 401.318 -23.2774 401.007 -27.0164 401.007C-27.6396 401.007 -28.8859 400.383 -28.8859 401.941C-29.1975 405.057 -26.0817 408.796 -22.6543 408.796C-9.25621 409.419 3.83021 410.042 17.2282 410.666C23.4599 410.977 29.0684 411.6 34.6769 411.912ZM343.143 345.233C342.832 344.922 342.832 344.299 342.209 344.61C341.897 344.922 341.897 345.545 342.52 345.856C343.455 350.53 344.39 355.204 345.013 359.878C345.324 361.436 345.948 363.928 344.39 364.551C342.52 365.175 341.586 362.993 340.651 361.436C338.158 357.385 335.977 353.023 333.796 348.661C333.173 347.414 332.861 345.545 330.68 344.61C330.992 347.726 330.992 350.53 331.303 353.023C331.615 355.516 331.615 357.697 330.992 360.189C330.68 361.124 330.369 362.37 329.434 362.37C328.187 362.682 327.564 361.747 326.941 360.812C326.006 359.254 325.383 357.697 324.448 356.139C321.956 350.842 320.086 344.922 316.971 339.936C315.101 336.821 312.92 336.197 309.804 337.755C307.311 339.002 305.13 340.871 302.949 342.741C301.703 343.675 300.145 345.233 298.276 343.675C296.406 342.117 297.029 340.248 297.964 338.69C298.587 337.444 299.833 336.197 300.457 334.951C303.261 331.524 305.754 327.785 308.558 324.357C310.116 322.488 309.804 321.553 307.311 321.553C301.391 321.553 295.16 321.553 289.24 321.865C227.546 322.488 166.165 323.111 104.471 323.423C96.6817 323.423 90.1386 325.292 83.2837 329.031C53.0603 346.168 24.0831 365.175 -5.51722 383.558C-12.372 387.92 -19.5384 392.594 -27.328 397.268C-25.1469 397.579 -23.9006 397.579 -22.3427 397.579C-8.63307 398.202 4.76498 398.825 18.4746 399.137C78.61 401.007 138.745 403.188 198.881 405.057C228.169 405.992 257.458 407.238 286.747 407.861C321.956 408.796 357.165 410.354 392.373 410.042C402.967 410.042 413.561 409.731 425.09 408.796C401.409 382.312 378.041 356.45 350.621 334.328C354.36 338.69 352.802 343.987 353.426 348.661C353.426 349.595 354.049 350.842 352.802 351.777C351.556 352.4 350.621 351.777 349.687 351.153C347.817 349.595 345.636 347.414 343.143 345.233ZM252.785 198.166C249.357 197.232 245.93 196.608 244.06 192.246C242.191 186.949 242.814 182.587 246.553 178.537C248.734 176.044 248.734 173.863 245.93 171.993C242.191 169.501 239.698 165.762 238.14 161.711C236.894 159.219 235.959 156.726 234.713 154.233C233.778 152.675 232.532 151.741 231.909 154.233C230.351 159.53 226.612 163.269 222.561 166.385C220.38 168.254 216.329 169.812 216.018 171.993C215.706 174.486 218.51 177.29 220.068 180.095C223.807 185.703 224.119 190.688 221.315 197.232C212.902 215.927 209.786 236.179 208.54 256.432C207.605 268.896 205.112 280.736 198.258 291.33C196.077 294.445 194.519 298.184 193.584 301.923C193.272 303.481 192.649 304.728 193.895 305.974C201.997 314.387 211.656 319.995 223.184 320.618C235.336 321.241 247.488 320.618 259.951 320.307C266.494 320.307 266.494 320.307 267.429 313.763C269.922 299.119 271.791 284.163 272.103 269.207C272.103 265.157 272.414 261.106 274.284 257.679C276.465 253.94 278.023 249.889 279.269 245.839C279.892 244.281 280.204 242.411 282.696 241.476C282.385 244.592 282.696 246.773 284.566 248.643C285.501 249.577 285.812 251.135 285.812 252.382C285.812 255.498 287.37 255.809 289.551 254.874C296.094 252.693 301.391 248.331 306.065 243.034C306.688 242.1 307.311 241.165 306.688 239.918C301.391 230.883 299.21 219.977 292.667 211.564C287.682 205.333 284.566 197.543 278.334 192.558C273.661 188.819 274.284 185.08 274.907 180.718C275.218 178.848 275.842 176.979 276.776 175.421C277.711 173.863 277.4 172.617 277.4 170.747C274.907 171.993 272.726 172.928 270.545 173.863C268.364 174.486 265.871 175.109 263.69 175.421C259.951 176.044 258.393 174.175 259.328 170.436C261.82 171.682 264.313 172.928 267.117 172.305C278.334 169.812 287.993 164.827 293.29 153.922C295.471 148.936 294.848 147.378 289.863 145.509C286.747 144.263 283.631 143.639 280.827 141.458C281.139 141.147 281.45 140.835 281.45 140.835C285.189 141.147 284.566 138.031 285.189 135.85C285.501 134.915 285.812 133.046 285.189 132.734C283.008 131.799 282.073 134.292 280.515 135.227C280.204 135.538 279.581 135.85 279.269 136.161C276.776 137.719 275.53 136.785 275.219 134.292C274.907 133.046 274.907 131.488 274.907 129.93C269.298 134.604 268.987 135.538 271.168 138.966C265.248 138.654 259.639 137.096 254.031 139.277C256.523 136.161 259.639 135.538 263.378 136.161C266.183 136.473 266.806 135.227 266.183 133.046C265.559 131.176 265.248 128.995 263.067 127.749C262.755 128.684 262.444 129.307 262.132 129.93C260.263 135.227 260.263 135.227 255.9 131.799C255.277 131.488 254.342 130.553 254.031 130.865C253.408 133.98 249.669 134.604 249.046 137.408C247.488 147.067 248.422 156.103 253.719 164.515C254.654 166.073 258.705 167.631 254.031 169.501C253.719 169.501 253.719 170.747 253.719 171.37C252.161 176.667 251.85 181.964 252.161 187.884C250.292 184.768 250.292 184.768 250.292 181.029C250.292 180.095 250.915 178.848 249.357 178.537C248.111 178.225 247.799 179.471 247.176 180.406C242.814 186.326 245.93 194.739 252.785 198.166ZM279.581 485.445C280.827 486.069 280.204 487.315 280.515 488.25C280.827 494.481 280.515 501.024 281.45 507.256C282.385 512.865 284.877 517.227 289.551 520.343C295.16 524.393 301.391 523.147 305.754 517.85C307.311 515.98 309.181 515.669 311.362 515.357C317.905 514.423 317.905 514.734 317.905 507.879C317.905 505.698 317.594 503.517 317.594 501.648C316.659 491.054 312.92 481.706 308.869 472.047C307 467.685 304.507 463.635 306.377 458.026C307.935 453.664 306.688 448.367 306.065 443.693C305.754 441.512 305.13 440.889 302.638 440.578C290.798 440.266 278.957 439.954 267.117 439.331C263.378 439.02 263.067 440.577 264.001 443.382C265.871 450.548 268.987 456.78 272.414 463.323C273.972 466.127 275.842 468.931 275.53 472.047C274.595 477.656 275.842 483.264 276.776 488.561C277.088 489.807 277.088 491.677 278.646 492.3C280.827 490.119 278.334 487.626 279.581 485.445ZM306.688 272.323C305.13 272.323 304.819 271.7 304.196 271.077C303.261 270.453 302.326 268.272 300.768 269.207C299.522 269.83 300.457 271.7 300.768 272.946C300.768 273.258 301.08 273.569 301.08 273.881C303.884 283.852 307 293.822 309.804 304.104C314.478 321.865 315.413 318.749 304.507 334.328C303.261 335.886 301.703 337.444 301.08 339.936C303.261 339.936 304.196 338.69 305.754 337.755C307 336.821 308.246 335.886 309.804 334.951C314.166 332.458 316.97 333.393 319.463 337.755C322.267 342.429 323.825 347.414 325.695 352.4C326.63 354.581 326.941 357.073 329.434 358.943C329.434 352.4 329.434 345.545 329.434 339.002C329.745 339.002 330.057 339.002 330.368 338.69C335.354 345.545 338.158 353.646 344.078 359.878C342.52 352.4 340.651 344.922 338.781 336.197C344.078 340.248 346.259 346.168 351.245 348.972C349.998 343.987 345.948 340.56 343.767 335.574C345.948 336.509 346.882 338.067 348.129 339.313C348.752 339.936 349.375 341.183 350.31 340.56C351.556 339.625 350.31 338.69 349.998 338.067C345.636 330.9 339.716 325.292 332.861 320.618C330.992 319.372 330.057 319.684 329.434 322.799C326.63 314.698 325.695 307.532 324.448 300.365C321.333 282.605 316.347 265.157 308.869 248.643C307.935 246.462 307.311 246.15 305.13 247.708C302.326 249.889 299.21 251.759 296.406 253.94C292.667 256.744 292.667 256.744 296.094 259.548C298.899 262.041 301.703 264.533 304.507 267.026C305.442 268.584 306.688 270.142 306.688 272.323ZM178.005 299.119C181.121 298.807 185.483 298.184 189.533 297.561C190.78 297.25 192.338 296.938 192.961 295.692C199.816 284.475 205.736 273.258 206.047 259.548C206.047 254.563 205.424 253.94 200.75 254.874C193.895 256.432 187.041 257.055 179.874 257.055C176.135 257.055 172.085 257.367 168.657 259.237C166.165 260.171 164.607 262.041 165.23 264.845C167.099 272.946 165.853 281.047 166.476 288.837C167.099 298.808 165.23 298.496 178.005 299.119ZM34.3653 553.993C35.3 553.37 35.9232 553.059 36.5464 552.436C44.0244 546.204 52.1255 540.284 60.5382 535.61C64.2772 533.741 67.393 531.248 70.5089 528.444C73.3131 525.951 74.5594 523.147 74.2478 519.096C73.0015 506.321 72.0668 493.858 70.8204 481.083C69.5741 466.75 66.1467 452.418 67.393 438.085C67.393 437.15 67.7046 436.215 66.7699 435.592C65.8351 434.969 57.734 434.034 56.7992 434.969C55.2413 436.527 56.1761 438.396 56.4876 440.266C57.734 465.193 59.2919 490.119 60.2266 515.357C60.5382 522.212 58.0456 526.886 52.7487 530.625C47.1402 534.675 41.5317 538.726 35.9232 542.776C30.6263 546.516 30.6263 546.827 33.4306 552.747C33.7421 553.059 34.0537 553.37 34.3653 553.993ZM282.696 298.184C286.747 297.561 290.798 296.938 294.848 296.315C298.276 296.003 299.522 294.445 299.522 291.018C299.522 284.163 299.21 277.62 298.899 270.765C298.276 265.157 294.537 261.729 291.421 257.679C289.863 255.809 285.501 258.302 282.696 258.613C282.073 258.613 281.138 258.925 280.515 258.925C276.776 258.925 276.153 261.106 275.842 264.222C275.218 273.569 274.595 283.228 273.661 292.576C273.349 297.561 273.037 297.561 278.334 297.873C278.957 297.873 279.581 298.184 281.45 298.184C278.334 298.808 276.465 299.119 274.595 299.431C273.661 299.742 272.726 299.742 272.414 300.989C271.168 305.662 269.61 310.336 268.987 315.01C268.364 319.684 268.675 319.684 273.349 319.684C274.595 319.684 275.53 319.684 276.776 319.684C280.515 319.06 285.812 321.553 287.993 318.437C289.863 315.633 288.616 310.336 287.993 306.285C287.37 303.481 287.993 299.119 282.696 298.184ZM381.156 547.139C373.99 540.595 366.824 534.364 359.969 528.132C357.165 525.639 355.918 523.147 355.918 519.408C355.607 496.351 354.984 473.605 354.672 450.548C354.672 443.693 354.672 443.693 347.817 444.005C344.701 444.005 343.767 444.94 344.078 448.055C344.701 472.982 345.013 497.909 345.325 522.835C345.325 524.082 345.324 525.639 346.259 526.886C353.737 536.856 362.15 545.581 371.809 553.682C372.744 554.305 373.367 554.928 374.302 553.682C376.171 550.878 378.664 549.32 381.156 547.139ZM323.825 546.827C325.383 546.827 326.006 546.827 326.63 546.827C328.811 546.516 331.615 546.827 332.861 544.334C334.108 541.53 333.173 539.037 331.303 536.545C330.369 535.299 329.745 534.364 328.499 533.429C324.76 530.002 321.333 526.263 318.217 522.212C314.478 517.538 311.05 517.227 306.377 521.277C302.015 525.016 297.341 525.639 292.356 524.082C291.109 523.77 289.551 523.458 288.305 522.835C286.124 521.901 285.812 523.147 285.812 524.705C285.501 529.378 287.682 532.494 292.044 534.052C296.406 535.61 300.768 536.856 304.196 539.972C310.116 545.581 317.594 545.892 323.825 546.827ZM333.796 504.14C333.796 502.271 333.796 501.336 333.796 500.401C333.484 483.887 333.484 467.374 333.173 450.86C333.173 441.824 333.173 442.135 323.825 442.447C321.333 442.447 321.021 443.382 321.021 445.563C321.333 456.157 321.644 467.062 322.267 477.656C322.267 479.837 321.956 482.641 323.202 484.511C325.072 487.315 325.072 489.807 324.448 492.923C324.137 494.793 323.202 497.285 325.383 498.843C327.876 500.401 330.369 501.959 333.796 504.14ZM320.398 498.532C321.333 509.437 322.891 511.618 332.55 517.85C335.042 519.408 337.535 522.212 340.651 520.654C343.767 519.096 343.143 515.357 343.143 512.241C342.832 490.742 342.52 469.243 342.209 447.744C342.209 447.121 342.209 446.498 342.209 445.874C341.897 442.447 339.093 443.693 337.223 443.382C334.731 442.759 335.665 444.94 335.665 446.186C335.977 453.041 336.289 459.584 336.6 466.439C337.223 477.967 337.846 489.808 336.6 501.336C335.977 506.633 333.484 507.879 329.122 504.763C326.006 503.206 323.514 501.024 320.398 498.532ZM312.92 441.512C308.869 441.201 308.869 441.201 309.181 445.251C309.493 449.613 309.804 453.976 310.116 458.338C310.739 466.127 312.297 473.917 315.724 481.083C316.347 482.33 316.971 483.576 318.84 482.953C320.086 482.641 320.398 481.706 320.398 480.46C318.84 469.243 319.152 458.026 318.528 446.809C317.905 441.824 317.905 441.824 312.92 441.512ZM166.476 479.214C165.541 474.54 165.541 469.243 164.607 463.946C163.36 455.845 162.737 447.744 162.114 439.331C161.802 436.527 160.868 436.215 158.375 436.838C156.194 437.15 156.506 438.708 156.506 440.266C157.44 453.664 158.375 467.374 159.31 480.772C159.621 483.576 160.868 484.511 163.672 484.511C167.411 484.199 166.476 481.706 166.476 479.214ZM302.949 291.641C301.703 294.134 301.703 296.626 299.522 297.561C296.718 298.807 296.718 300.989 296.718 303.481C296.718 305.662 296.718 307.843 296.718 309.713C297.341 322.799 294.537 320.618 308.246 318.749C308.869 318.749 309.181 318.749 309.804 318.437C310.739 318.126 311.05 317.502 310.739 316.568C308.558 308.467 306.377 300.054 302.949 291.641ZM185.171 300.365C184.236 300.677 183.302 300.677 182.055 300.365C179.563 300.054 178.316 300.677 178.628 303.793C179.251 308.467 179.563 313.14 180.186 317.814C180.497 319.372 180.186 321.241 182.678 321.241C184.86 321.241 186.729 321.553 187.664 318.749C189.533 313.763 191.091 308.778 190.78 303.17C190.78 300.677 190.468 299.742 187.975 300.054C187.352 300.365 186.417 300.365 185.171 300.365ZM232.532 149.248C232.22 147.69 232.532 145.821 230.662 145.509C228.793 144.886 228.481 146.755 227.546 147.69C223.184 153.299 219.134 159.53 214.148 164.515C213.525 165.45 211.967 166.073 212.902 167.631C213.837 169.189 215.395 168.254 216.641 167.631C222.249 164.827 226.612 161.088 229.416 155.48C230.662 153.61 232.532 151.741 232.532 149.248ZM394.555 558.979C392.997 555.863 390.816 553.993 388.634 552.436C383.961 549.32 378.664 550.566 376.171 555.551C375.236 557.109 373.99 558.667 375.236 560.225C377.106 562.406 379.599 563.964 382.091 565.21C382.714 565.522 383.026 564.587 383.338 564.276C385.519 559.602 389.258 558.356 394.555 558.979ZM289.551 536.545C289.863 538.103 290.798 538.414 291.732 538.726C296.718 540.595 301.703 543.088 305.754 546.827C311.05 551.189 323.202 553.37 331.926 547.762C319.775 550.254 309.804 546.827 300.768 540.907C298.587 539.349 295.783 538.414 293.602 537.168C292.355 536.856 291.109 535.922 289.551 536.545ZM209.475 320.307C205.424 317.814 201.685 317.191 198.569 315.321C197.011 314.387 195.142 311.582 193.895 312.829C192.338 314.387 192.026 317.191 191.714 319.684V319.995C191.714 320.93 192.026 321.865 193.272 321.865C198.258 321.553 203.555 321.865 209.475 320.307ZM31.5611 555.24C31.5611 552.747 30.6263 550.254 28.4452 549.008C25.9526 547.762 23.7715 548.073 21.2788 549.32C20.0325 549.943 19.7209 550.566 20.9673 551.812C23.1483 553.993 24.7063 556.486 25.641 559.29C25.9526 560.537 26.5757 561.471 27.8221 561.471C29.0684 561.471 30.0032 560.537 30.3147 559.602C31.2495 558.356 31.8726 556.798 31.5611 555.24ZM24.0831 563.029C23.1483 559.29 21.5904 555.863 18.7862 553.682C17.5398 552.747 15.982 552.436 14.7356 553.37C12.243 554.928 12.5545 557.421 12.5545 559.914C12.5545 561.471 13.4893 562.095 14.7356 562.095C17.8515 562.406 20.6557 563.341 24.0831 563.029ZM177.382 317.502C177.07 312.829 176.447 307.843 175.824 303.17C175.824 301.923 175.201 301.3 173.643 301.3C172.708 301.3 172.085 301.923 172.396 302.858C173.019 308.467 173.331 314.075 173.954 319.372C173.954 320.618 174.889 321.241 176.135 321.241C178.005 321.241 177.382 319.684 177.382 318.749C177.382 318.437 177.382 318.126 177.382 317.502ZM293.29 309.401C293.602 309.401 293.602 309.401 293.29 309.401C293.602 306.285 293.602 303.481 293.602 300.365C293.602 299.119 293.29 298.184 291.732 298.496C290.174 298.496 289.863 299.431 289.863 300.677C290.174 306.597 290.174 312.517 290.486 318.437C290.486 319.684 291.109 320.307 292.356 320.307C293.602 320.307 293.29 319.06 293.602 318.437C293.29 315.321 293.29 312.517 293.29 309.401ZM385.519 565.834C385.519 567.392 385.519 568.638 387.7 568.326C390.504 567.703 392.997 567.392 395.801 566.768C396.736 566.457 397.359 566.457 397.359 565.21C397.047 563.029 393.308 560.848 389.881 561.16C386.765 561.471 385.519 563.029 385.519 565.834ZM280.827 248.331C279.581 250.512 278.957 252.693 278.334 254.874C278.334 255.809 277.711 256.744 278.646 257.367C280.204 257.99 281.762 257.055 283.32 256.744C284.254 256.432 284.566 255.809 284.254 255.186C283.631 252.693 283.32 249.889 280.827 248.331ZM317.905 488.25C317.905 488.873 317.905 489.807 318.217 490.742C318.528 492.3 318.84 494.17 321.021 494.17C323.514 493.858 322.579 491.677 322.579 490.431C322.579 489.496 322.267 488.561 321.956 487.626C321.644 486.38 321.333 485.134 319.775 485.134C317.594 484.822 318.217 486.692 317.905 488.25ZM299.21 147.69C297.029 150.806 294.848 153.61 294.537 157.661C297.341 154.856 299.21 151.741 299.21 147.69ZM351.245 341.806C350.933 341.494 350.933 341.183 350.621 341.183C350.621 341.183 350.31 341.494 349.998 341.494C350.31 341.806 350.31 342.117 350.621 342.429C350.933 342.117 350.933 342.117 351.245 341.806ZM188.599 28.6656C188.287 28.6656 188.287 28.9772 187.975 28.9772L188.287 29.2887C188.287 29.2887 188.599 28.9772 188.599 28.6656Z" fill="black"/>
<path d="M225.055 512.865C220.381 517.227 216.642 522.213 214.772 528.133C210.41 542.154 205.425 545.893 190.781 547.451C187.353 547.762 184.237 548.074 180.498 548.074C183.303 549.632 183.303 549.632 193.585 549.009C197.947 548.697 201.997 547.762 206.36 546.516C206.36 548.074 205.113 548.074 204.179 548.697C197.947 551.501 191.404 553.683 184.549 553.683C177.382 553.683 175.825 552.125 174.89 545.27C174.267 541.842 174.578 538.415 176.136 534.988C177.382 531.872 179.564 529.379 183.302 528.444C188.911 527.198 190.78 521.59 186.73 517.539C184.237 515.046 184.237 512.865 185.795 510.061C187.041 507.568 186.73 504.764 185.795 501.96C184.86 499.467 184.237 496.663 184.237 493.859C184.237 492.924 183.926 491.989 185.172 491.989C186.418 491.989 186.418 492.924 186.418 493.859C186.73 495.728 186.73 497.598 187.353 499.467C187.665 500.09 186.418 503.206 189.534 501.337C190.157 501.025 189.846 502.271 189.846 502.583C189.534 504.453 189.534 506.322 189.223 508.192C187.353 513.8 190.157 518.162 192.65 522.524C193.273 523.771 194.519 524.082 195.766 524.082C197.324 524.082 198.57 523.771 200.751 523.771C198.258 526.263 195.143 525.64 193.273 527.51C193.585 529.068 195.766 529.068 196.077 531.249C193.585 531.872 191.404 530.937 189.223 530.937C182.368 530.625 178.006 534.364 178.317 540.596C178.317 543.089 179.252 544.958 182.368 544.958C189.534 545.581 196.701 544.958 203.867 542.466C207.606 541.219 210.099 538.415 211.657 534.988C212.903 532.183 213.838 529.379 214.461 526.575C216.019 520.343 219.758 515.981 225.055 512.865C224.743 512.554 224.743 512.554 225.055 512.865Z" fill="black"/>
<path d="M343.144 345.235C345.636 347.416 347.817 349.597 350.31 351.778C351.245 352.401 352.18 353.024 353.426 352.401C354.672 351.778 354.049 350.532 354.049 349.285C353.737 344.612 355.295 339.315 351.245 334.953C378.664 357.075 402.033 382.625 425.713 409.421C414.184 410.356 403.591 410.667 392.997 410.667C357.788 410.979 322.579 409.421 287.37 408.486C258.082 407.863 228.793 406.617 199.504 405.682C139.369 403.812 79.2334 401.631 19.098 399.762C5.38838 399.45 -8.00968 398.827 -21.7193 398.204C-22.9656 398.204 -24.2119 397.892 -26.7046 397.892C-18.915 392.907 -12.0602 388.545 -4.89383 384.183C24.3949 365.799 53.3721 346.793 83.9071 329.656C90.4504 325.917 97.3052 324.047 105.095 324.047C166.788 323.736 228.17 323.112 289.863 322.489C295.783 322.489 302.015 322.489 307.935 322.178C310.428 322.178 310.739 323.112 309.181 324.982C306.377 328.409 303.573 332.148 301.08 335.576C300.145 336.822 299.211 337.757 298.587 339.315C297.653 340.873 297.029 343.054 298.899 344.3C300.768 345.858 302.015 344.3 303.573 343.365C305.754 341.496 307.935 339.626 310.427 338.38C313.543 336.822 315.724 337.445 317.594 340.561C320.71 345.858 322.579 351.466 325.072 356.763C325.695 358.321 326.63 359.879 327.565 361.437C328.188 362.372 328.811 363.307 330.057 362.995C331.303 362.683 331.303 361.749 331.615 360.814C332.238 358.321 331.927 356.14 331.927 353.648C331.615 350.843 331.615 348.351 331.304 345.235C333.173 346.17 333.485 348.039 334.419 349.285C336.6 353.648 338.781 358.01 341.274 362.06C342.209 363.307 342.832 365.799 345.013 365.176C346.883 364.553 345.948 362.06 345.636 360.502C345.013 355.829 344.078 351.155 343.144 346.481C342.832 345.858 342.832 345.546 343.144 345.235ZM273.661 381.378C274.284 379.82 272.726 378.886 272.726 377.639C272.103 369.227 269.61 361.126 268.052 352.713C266.806 345.546 262.444 341.807 255.589 340.25C243.749 337.445 231.909 338.068 220.38 341.807C217.888 342.742 215.706 342.742 213.214 341.807C205.113 339.003 196.7 338.38 188.287 339.626C183.925 340.25 180.186 341.496 177.382 345.546C175.512 348.351 173.02 350.843 171.15 353.336C165.23 360.814 159.622 367.98 154.013 375.458C152.767 377.016 152.144 378.574 153.078 380.755C154.013 382.313 155.571 381.69 156.817 381.69C166.476 381.69 176.136 381.378 186.106 381.378C215.083 381.067 244.372 378.263 273.661 381.378ZM278.023 345.546C277.711 349.285 278.646 351.778 279.581 354.271C281.45 359.568 284.255 364.553 286.747 369.227C288.617 372.654 290.486 376.081 292.356 379.197C293.291 380.755 294.537 381.378 296.095 380.755C297.653 380.132 297.653 378.574 297.341 377.328C297.341 376.705 297.029 375.77 296.718 375.147C291.733 365.176 286.124 355.517 279.581 346.481C279.581 346.481 278.958 346.17 278.023 345.546Z" fill="#EAEAEA"/>
<path d="M252.786 198.166C245.931 194.738 242.815 186.326 246.554 180.405C247.177 179.782 247.489 178.224 248.735 178.536C249.981 178.848 249.67 180.094 249.67 181.029C249.67 184.768 249.67 184.768 251.539 187.883C251.228 181.652 251.539 176.355 253.097 171.37C253.409 170.746 253.097 169.812 253.409 169.5C258.083 167.631 254.032 166.073 253.097 164.515C247.8 156.102 246.866 147.066 248.423 137.407C249.047 134.291 252.786 133.668 253.409 130.864C253.409 130.552 254.655 131.175 255.278 131.799C259.64 135.226 259.64 135.226 261.51 129.929C261.821 129.306 262.133 128.683 262.445 127.748C264.626 128.994 264.937 131.175 265.56 133.045C266.184 135.226 265.872 136.784 262.756 136.161C259.329 135.849 255.901 136.161 253.409 139.277C259.017 137.096 264.937 138.965 270.546 138.965C268.365 135.538 268.676 134.603 274.285 129.929C274.285 131.487 274.596 133.045 274.596 134.291C274.908 136.784 276.154 138.03 278.647 136.161C278.958 135.849 279.582 135.538 279.893 135.226C281.451 134.291 282.386 132.11 284.567 132.733C285.502 133.045 284.879 134.914 284.567 135.849C283.944 137.719 284.567 141.146 280.828 140.835C280.828 140.835 280.516 141.146 280.205 141.458C283.009 143.639 286.125 144.262 289.241 145.508C294.226 147.378 295.161 149.247 292.668 153.921C287.371 164.826 277.712 169.812 266.495 172.304C263.691 172.927 261.198 171.681 258.706 170.435C258.082 174.174 259.329 175.732 263.068 175.42C265.249 175.109 267.742 174.485 269.923 173.862C272.104 173.239 274.285 171.993 276.777 170.746C276.777 172.616 276.777 173.862 276.154 175.42C275.22 176.978 274.596 178.848 274.285 180.717C273.662 185.079 273.038 188.818 277.712 192.557C283.944 197.231 287.06 205.332 292.045 211.564C298.9 219.976 300.769 230.57 306.066 239.918C306.689 241.164 306.378 242.099 305.443 243.034C301.081 248.33 295.472 252.693 288.929 254.874C286.748 255.497 284.879 255.497 285.19 252.381C285.19 251.135 284.879 249.577 283.944 248.642C282.074 246.772 281.451 244.591 282.074 241.476C279.893 242.41 279.27 244.28 278.647 245.838C277.089 249.888 275.531 253.939 273.662 257.678C271.792 261.417 271.481 265.156 271.481 269.206C271.169 284.162 269.611 298.807 266.807 313.763C265.56 320.306 265.56 320.306 259.329 320.306C247.177 320.618 235.025 321.241 222.562 320.618C211.034 319.994 201.063 314.697 193.273 305.973C192.027 304.727 192.339 303.169 192.962 301.923C193.897 298.184 195.766 294.756 197.636 291.329C204.49 280.735 206.983 268.895 207.918 256.432C209.164 236.179 212.591 215.926 220.693 197.231C223.497 190.688 223.185 185.702 219.446 180.094C217.888 177.601 215.084 174.485 215.396 171.993C215.707 169.812 219.758 168.254 221.939 166.384C225.99 162.957 229.729 159.529 231.286 154.233C232.221 151.74 233.467 152.675 234.091 154.233C235.337 156.725 236.272 159.218 237.518 161.711C239.388 165.761 241.569 169.5 245.308 171.993C248.112 173.862 248.423 176.043 245.931 178.536C242.503 182.587 241.569 186.949 243.438 192.246C245.931 196.608 249.358 197.231 252.786 198.166ZM292.98 151.428C289.552 148.312 285.813 147.378 282.074 145.82C281.451 145.508 281.14 145.82 280.828 146.131C279.893 148.624 279.582 151.428 279.582 154.233C279.582 155.479 286.125 158.283 287.371 157.972C288.618 157.66 287.994 157.037 288.306 156.414C288.618 153.921 289.552 151.74 292.98 151.428ZM255.278 141.769C255.59 143.016 256.213 143.95 256.525 144.573C258.083 149.559 259.329 150.182 264.314 149.559C267.43 149.247 268.676 146.443 268.988 143.95C269.299 141.146 266.807 141.458 264.937 141.458C261.51 141.146 258.706 140.835 255.278 141.769ZM261.821 157.972C261.821 161.711 262.133 164.515 263.691 167.007C265.249 169.5 268.053 170.435 270.234 168.877C271.792 167.942 272.727 166.696 274.285 166.073C275.219 165.761 276.154 163.58 274.596 163.58C269.923 163.268 266.184 160.153 261.821 157.972ZM273.35 157.972C272.727 156.725 270.546 157.348 269.611 156.102C268.988 155.479 268.365 156.414 268.365 157.037C268.365 158.906 269.299 159.529 270.857 159.841C271.792 159.841 272.727 159.529 273.35 157.972Z" fill="#EAEAEA"/>
<path d="M44.9588 413.157C50.8789 413.468 57.1105 414.091 63.0306 414.403C129.709 417.519 196.699 421.569 263.69 422.192C301.391 422.816 339.093 421.569 376.794 421.258C378.04 421.258 378.975 421.258 380.221 421.258C382.714 420.946 383.649 422.192 383.649 424.373C383.649 428.736 383.337 433.098 383.337 437.46C383.026 439.953 381.156 439.641 379.91 439.641C367.135 441.199 354.36 441.511 341.585 440.264C316.659 437.772 291.732 438.083 266.805 437.148C210.409 435.59 153.701 434.033 97.3047 433.098C69.2623 432.786 41.2198 431.228 13.1774 430.294C7.56895 429.982 7.56892 429.982 7.25734 424.685C6.94575 421.258 6.63416 417.83 6.32258 414.403C6.011 411.91 6.94577 411.599 9.12685 411.599C17.8512 411.91 26.2639 412.222 34.9882 412.533C38.104 412.845 41.5314 413.157 44.9588 413.157Z" fill="#EAEAEA"/>
<path d="M34.6755 411.91C29.0671 411.599 23.147 410.976 17.5385 410.664C4.14047 410.041 -8.946 409.418 -22.344 408.794C-25.4599 408.794 -28.5757 405.056 -28.5757 401.94C-28.5757 400.382 -27.3293 401.005 -26.7062 401.005C-22.9672 401.005 -18.9166 401.005 -15.1776 401.317C47.4504 403.498 110.39 405.056 173.018 406.613C211.031 407.237 249.044 409.729 287.369 411.287C330.056 413.157 372.742 415.026 415.429 413.157C417.299 413.157 419.48 413.157 421.349 413.157C422.907 413.157 423.53 413.468 424.153 415.026C425.4 418.765 425.088 419.7 421.038 419.7C361.837 418.765 302.325 421.881 243.124 419.7C181.119 417.519 119.114 415.338 57.1095 412.845C53.0589 412.845 49.0083 411.91 44.9578 412.534C41.5304 412.222 38.103 411.91 34.6755 411.91Z" fill="#EAEAEA"/>
<path d="M181.432 26.1727C183.613 28.3538 185.171 31.158 187.975 33.0275C188.91 33.6507 190.156 34.5854 191.403 33.9623C192.961 33.0275 192.649 31.4696 192.338 30.2233C191.403 26.7959 189.845 23.6801 188.287 20.5642C187.352 18.3832 186.106 16.5137 186.106 13.7094C188.287 14.9558 188.599 16.8252 189.222 18.0716C190.78 20.5642 192.026 23.0569 193.895 25.238C195.142 26.4843 196.388 28.3538 198.569 27.7306C201.062 26.7959 200.75 24.6148 200.439 22.7453C200.127 18.6947 199.504 14.9558 198.881 10.9052C198.569 9.34727 198.569 8.10094 198.258 6.23145C200.127 7.16619 200.439 8.7241 200.75 9.97043C201.997 14.3326 202.931 19.0063 204.178 23.3685C204.489 24.6148 204.801 26.4843 206.67 26.7959C208.54 26.7959 209.163 25.238 209.786 23.6801C211.656 19.6295 213.525 15.2673 215.395 11.2168C215.706 11.5283 215.706 11.5283 216.018 11.8399C215.083 16.5137 214.148 21.1874 213.525 25.8611C212.902 29.2885 212.902 33.0275 213.214 36.7665C213.525 39.2592 213.214 41.1287 210.098 41.7518C208.851 42.0634 207.605 42.6866 207.293 44.2445C213.525 42.6866 220.38 42.6866 225.054 37.3897C225.677 36.7665 226.612 36.1434 227.235 36.7665C227.858 37.7013 227.235 38.3244 226.612 38.9476C223.807 42.0634 221.315 44.8677 218.51 47.6719C216.953 49.2298 215.395 50.7877 213.837 52.6572C211.344 55.773 210.098 58.8889 210.409 63.251C212.279 78.5185 214.771 93.7861 212.902 109.365C212.279 114.662 211.344 119.647 209.475 124.633C209.163 125.256 208.54 126.502 209.475 126.814C210.721 127.437 210.721 125.879 211.344 125.256C212.279 124.321 212.59 122.452 213.837 121.517C218.199 128.372 221.938 135.538 225.677 142.705C226.3 143.951 225.677 144.886 225.054 145.82C221.315 150.806 217.887 155.791 214.46 160.465C212.902 160.465 212.902 159.218 212.59 158.284C207.294 149.871 202.308 141.147 197.011 132.734C192.649 125.567 190.468 117.466 190.156 109.054C189.845 94.7208 190.156 80.6996 190.78 66.3668C191.403 52.034 186.417 39.2592 179.874 27.1075C181.121 26.4843 181.121 26.1727 181.432 26.1727ZM190.78 40.5055C192.961 40.8171 194.519 41.1287 196.077 41.1287C197.634 41.4403 199.192 41.7518 200.75 42.6866C201.062 42.9982 201.685 42.9982 201.997 42.375C201.997 42.0634 201.997 41.7518 201.685 41.4403C199.816 37.7013 194.207 37.0781 190.78 40.5055ZM206.047 31.7812C202.931 32.0928 199.816 33.6507 197.011 35.2086C200.439 35.2086 203.243 33.6507 206.047 31.7812Z" fill="#EAEAEA"/>
<path d="M279.581 485.446C278.335 487.627 280.827 490.12 278.958 492.301C277.4 491.366 277.4 489.808 277.088 488.562C276.154 482.953 274.907 477.656 275.842 472.048C276.154 468.932 274.284 466.128 272.726 463.323C269.299 457.092 266.183 450.549 264.314 443.382C263.69 440.266 263.69 439.02 267.429 439.332C279.27 439.955 291.11 440.266 302.95 440.578C305.131 440.578 305.754 441.513 306.377 443.694C307 448.368 308.247 453.664 306.689 458.027C304.819 463.635 307.312 467.686 309.181 472.048C312.92 481.707 316.971 491.054 317.906 501.648C318.217 503.829 318.217 506.01 318.217 507.88C318.217 514.735 318.217 514.735 311.674 515.358C309.493 515.669 307.624 515.981 306.066 517.85C301.703 523.147 295.472 524.082 289.863 520.343C285.19 517.227 282.385 512.865 281.762 507.257C280.827 501.025 281.139 494.482 280.827 488.25C280.204 487.315 280.827 486.381 279.581 485.446Z" fill="#EAEAEA"/>
<path d="M306.687 272.322C306.687 270.141 305.44 268.583 304.194 267.337C301.39 264.844 298.586 262.351 295.781 259.859C292.354 257.054 292.354 257.055 296.093 254.25C298.897 252.069 302.013 250.2 304.817 248.019C306.687 246.461 307.31 246.772 308.556 248.953C316.034 265.467 321.02 282.604 324.135 300.676C325.382 307.842 326.628 315.009 329.121 323.11C329.744 319.994 330.679 319.683 332.548 320.929C339.403 325.603 345.323 330.9 349.685 338.377C349.997 339.001 351.243 340.247 349.997 340.87C349.062 341.493 348.439 340.247 347.816 339.624C346.569 338.377 345.635 336.82 343.454 335.885C345.635 340.87 349.685 344.298 350.932 349.283C345.946 346.479 344.077 340.559 338.468 336.508C340.338 345.232 342.207 352.71 343.765 360.188C337.845 353.957 335.041 345.855 330.055 339.001C329.744 339.001 329.432 339.001 329.121 339.312C329.121 345.855 329.121 352.71 329.121 359.253C326.628 357.384 326.316 354.891 325.382 352.71C323.512 347.725 321.954 342.428 319.15 338.066C316.657 333.704 313.853 333.081 309.491 335.262C307.933 335.885 306.687 337.131 305.44 338.066C304.194 339.001 302.948 340.247 300.767 340.247C301.39 337.754 302.948 336.508 304.194 334.638C315.411 319.059 314.476 322.175 309.491 304.415C306.687 294.444 303.883 284.474 300.767 274.192C300.767 273.88 300.455 273.568 300.455 273.257C300.144 272.01 299.209 270.141 300.455 269.518C301.701 268.583 302.636 270.453 303.883 271.387C304.817 271.387 305.129 272.322 306.687 272.322Z" fill="#EAEAEA"/>
<path d="M295.782 136.472C297.029 136.161 297.34 136.784 297.34 137.718C297.34 140.834 298.275 145.196 296.094 146.131C293.601 147.377 290.797 143.638 287.37 143.015C288.616 140.834 291.109 140.523 291.732 138.653C290.797 137.718 290.485 138.653 289.862 138.653C287.993 139.276 287.058 138.965 287.058 136.472C287.37 133.045 287.681 129.617 286.123 125.878C283.319 128.059 282.073 130.864 279.892 133.045C279.269 133.668 278.957 134.603 278.022 134.291C277.087 133.979 277.399 133.045 277.399 132.422C277.087 130.552 277.087 128.683 276.776 126.813C276.776 126.19 276.776 125.567 276.153 125.255C275.218 124.944 274.595 125.567 274.283 126.19C272.725 128.059 271.479 129.929 269.921 131.798C269.298 132.422 268.986 133.356 267.74 133.045C266.494 132.733 266.805 131.798 266.494 130.864C265.87 128.683 265.559 126.501 264.936 124.32C264.624 123.697 264.936 122.762 264.001 122.451C262.755 122.139 262.443 123.074 262.131 124.009C260.574 126.19 259.327 128.683 257.769 131.487C255.9 128.994 256.211 126.19 254.342 124.009C254.03 124.32 253.719 124.632 253.407 124.944C251.538 129.617 251.538 129.929 247.487 126.813C247.487 127.125 247.176 127.125 247.176 127.436C247.487 131.175 246.552 133.045 243.748 135.226C243.437 135.537 243.125 135.849 243.437 136.472C241.255 136.472 241.567 138.342 241.255 139.588C240.632 143.95 240.944 148.312 244.683 151.74C245.618 152.674 245.929 153.921 246.241 155.167C247.176 158.906 248.11 162.957 250.603 166.072C250.915 166.696 251.226 167.319 251.226 167.942C251.226 169.188 251.226 170.123 250.291 171.058C249.357 171.992 248.422 170.746 247.799 170.435C241.879 166.384 238.14 161.087 237.828 153.921C237.205 142.392 238.451 131.175 246.552 122.139C248.11 120.581 248.11 119.335 244.994 119.023C249.668 114.35 254.654 109.988 260.262 106.872C264.313 104.691 268.363 103.444 272.414 107.183C274.283 108.741 276.464 108.118 278.334 107.495C294.848 103.133 309.18 115.285 307.311 132.422C307.311 133.045 307.311 133.668 306.999 133.979C302.326 136.472 304.195 141.457 303.26 144.885C301.702 150.805 300.768 156.725 297.963 162.333C297.029 164.203 296.406 166.384 292.978 165.761C291.42 165.449 290.797 167.942 289.551 168.877C288.928 169.5 288.616 169.811 287.993 169.5C287.681 169.188 287.37 168.565 287.37 168.253C287.993 165.761 287.993 162.645 291.732 162.022C294.536 161.399 296.406 159.529 297.34 157.037C298.898 152.674 302.326 148.312 299.21 143.015C298.275 141.146 298.898 138.653 298.898 136.472C298.898 135.226 299.21 133.356 297.652 133.045C296.094 132.422 295.782 134.291 294.848 135.226C294.536 135.537 294.225 136.161 293.913 136.472C293.601 136.784 292.667 136.784 292.978 137.407C294.848 137.407 295.471 137.095 295.782 136.472Z" fill="#EAEAEA"/>
<path d="M178.004 299.121C165.229 298.497 167.41 298.497 166.475 289.15C165.852 281.049 166.787 272.948 165.229 265.158C164.606 262.666 166.475 260.796 168.656 259.55C172.395 257.992 176.134 257.369 179.873 257.369C186.728 257.369 193.895 256.745 200.749 255.188C205.423 254.253 206.358 254.876 206.046 259.861C205.735 273.259 200.126 284.788 192.96 296.005C192.025 297.251 190.779 297.563 189.532 297.874C185.482 298.186 181.12 298.809 178.004 299.121Z" fill="#EAEAEA"/>
<path d="M34.3645 553.992C34.0529 553.369 33.7413 553.057 33.4298 552.746C30.6255 546.826 30.9371 546.514 35.9224 542.775C41.5309 538.725 47.1394 534.674 52.7479 530.623C57.7332 526.885 60.2258 522.211 60.2258 515.356C59.2911 490.429 58.0447 465.191 56.4868 440.265C56.4868 438.395 55.5521 436.526 56.7984 434.968C57.4216 434.033 65.8343 434.968 66.7691 435.591C67.7038 436.214 67.3922 437.149 67.3922 438.084C65.8343 452.728 69.5733 466.749 70.8196 481.082C71.7544 493.857 73.0007 506.32 74.247 519.095C74.5586 522.834 73.3123 525.95 70.508 528.442C67.3922 531.247 64.2764 533.739 60.5374 535.609C51.8131 540.283 44.0236 546.203 36.5456 552.434C35.9224 552.746 34.9876 553.369 34.3645 553.992Z" fill="#EAEAEA"/>
<path d="M282.697 298.186C287.994 299.121 287.371 303.483 287.994 307.222C288.617 311.272 289.864 316.258 287.994 319.373C286.125 322.489 280.828 319.997 276.777 320.62C275.531 320.62 274.596 320.62 273.35 320.62C268.676 320.62 268.365 320.308 268.988 315.946C269.923 311.272 271.48 306.599 272.415 301.925C272.727 300.679 273.662 300.367 274.596 300.367C276.466 300.055 278.335 299.744 281.451 299.121C279.582 298.809 278.958 298.809 278.335 298.809C273.038 298.497 273.35 298.497 273.662 293.512C274.285 284.165 275.219 274.506 275.843 265.158C276.154 262.042 276.777 259.55 280.516 259.861C281.139 259.861 282.074 259.55 282.697 259.55C285.813 259.238 290.175 256.745 291.422 258.615C294.538 262.354 298.276 266.093 298.9 271.701C299.523 278.556 299.834 285.099 299.523 291.954C299.523 295.382 297.965 296.94 294.849 297.251C290.799 296.94 286.748 297.563 282.697 298.186Z" fill="#EAEAEA"/>
<path d="M381.155 547.139C378.662 549.32 375.858 550.878 373.988 553.371C373.053 554.617 372.43 553.994 371.495 553.371C362.148 545.581 353.424 536.545 345.946 526.575C345.011 525.328 345.011 524.082 345.011 522.524C344.699 497.597 344.388 472.671 343.765 447.744C343.765 444.628 344.699 443.694 347.504 443.694C354.358 443.382 354.358 443.382 354.358 450.237C354.67 473.294 355.293 496.039 355.605 519.097C355.605 522.836 356.851 525.328 359.655 527.821C367.133 534.364 373.988 540.907 381.155 547.139Z" fill="#EAEAEA"/>
<path d="M323.824 546.827C317.281 545.892 310.115 545.58 304.195 539.972C301.079 536.856 296.405 535.61 292.043 534.052C287.369 532.494 285.5 529.378 285.811 524.704C285.811 522.835 286.123 521.589 288.304 522.835C289.55 523.458 290.797 523.458 292.354 524.081C297.651 525.951 302.014 525.328 306.376 521.277C311.049 517.226 314.165 517.538 318.216 522.212C321.332 526.262 324.759 530.001 328.498 533.429C329.433 534.363 330.368 535.298 331.302 536.545C332.86 538.726 334.107 541.53 332.86 544.334C331.614 546.827 328.81 546.515 326.629 546.827C326.005 546.827 325.382 546.827 323.824 546.827Z" fill="#EAEAEA"/>
<path d="M333.796 504.139C330.369 501.958 327.876 500.4 325.072 498.531C322.891 496.973 323.826 494.48 324.137 492.611C324.76 489.495 324.76 486.691 322.891 484.198C321.645 482.328 321.956 479.524 321.956 477.343C321.333 466.749 321.333 455.844 320.71 445.25C320.71 443.069 321.021 442.134 323.514 442.134C332.862 441.823 332.862 441.511 332.862 450.547C333.173 467.061 333.173 483.575 333.485 500.089C333.796 501.335 333.796 502.27 333.796 504.139Z" fill="#EAEAEA"/>
<path d="M320.396 498.531C323.512 500.712 326.005 502.893 328.809 504.762C333.483 507.567 335.976 506.632 336.287 501.335C337.533 489.807 336.91 477.966 336.287 466.438C335.976 459.583 335.664 453.04 335.352 446.185C335.352 445.25 334.418 443.069 336.91 443.381C338.78 443.692 341.584 442.446 341.896 445.873C341.896 446.497 341.896 447.12 341.896 447.743C342.207 469.242 342.519 490.741 342.83 512.241C342.83 515.356 343.765 519.095 340.338 520.653C337.533 522.211 334.729 519.407 332.237 517.849C322.889 511.617 321.331 509.436 320.396 498.531Z" fill="#EAEAEA"/>
<path d="M312.921 441.513C317.906 441.824 317.906 441.824 318.218 446.81C318.841 458.027 318.53 469.244 320.088 480.46C320.399 481.707 320.088 482.642 318.53 482.953C316.66 483.576 316.037 482.33 315.414 481.084C311.986 473.917 310.428 466.439 309.805 458.338C309.494 453.976 309.182 449.614 308.871 445.252C308.871 441.513 308.871 441.513 312.921 441.513Z" fill="#EAEAEA"/>
<path d="M166.475 479.214C166.475 482.018 167.41 484.511 163.671 484.511C160.867 484.511 159.309 483.576 159.309 480.772C158.374 467.374 157.44 453.664 156.505 440.266C156.505 439.02 155.882 437.462 158.374 436.838C160.867 436.527 161.802 436.527 162.113 439.331C162.736 447.432 163.36 455.845 164.606 463.946C165.541 468.931 165.541 474.54 166.475 479.214Z" fill="#EAEAEA"/>
<path d="M302.95 291.64C306.689 300.052 308.559 308.465 311.052 316.566C311.363 317.813 311.052 318.124 310.117 318.436C309.805 318.436 309.182 318.747 308.559 318.747C294.849 320.617 297.654 322.486 297.03 309.711C297.03 307.53 297.03 305.349 297.03 303.48C297.03 300.987 296.719 298.806 299.835 297.56C301.704 296.625 301.704 294.132 302.95 291.64Z" fill="#EAEAEA"/>
<path d="M185.172 300.366C186.419 300.366 187.353 300.366 188.6 300.366C191.092 300.366 191.092 300.989 191.404 303.482C191.716 309.091 190.158 314.076 188.288 319.061C187.353 321.865 185.172 321.554 183.303 321.554C180.81 321.554 181.122 319.684 180.81 318.126C180.187 313.453 179.875 308.779 179.252 304.105C178.629 300.989 179.875 300.366 182.68 300.678C183.303 300.678 184.238 300.678 185.172 300.366Z" fill="#EAEAEA"/>
<path d="M232.531 149.246C232.531 151.739 230.974 153.608 229.727 155.79C226.611 161.086 222.249 165.137 216.952 167.941C215.706 168.564 214.46 169.188 213.213 167.941C212.279 166.383 213.525 165.76 214.46 164.825C219.445 159.529 223.496 153.608 227.858 148C228.481 147.065 229.104 145.196 230.974 145.819C232.22 145.819 232.22 147.688 232.531 149.246Z" fill="#EAEAEA"/>
<path d="M209.475 320.305C203.555 322.175 198.258 321.552 192.961 321.552C191.715 321.552 191.403 320.929 191.403 319.682V319.371C191.715 316.878 192.026 314.074 193.584 312.516C194.831 311.581 196.7 314.074 198.258 315.008C201.686 317.19 205.425 317.813 209.475 320.305Z" fill="#EAEAEA"/>
<path d="M177.38 317.502C177.38 318.125 177.38 318.437 177.38 319.06C177.38 319.995 178.003 321.552 176.134 321.552C174.887 321.552 173.953 320.929 173.953 319.683C173.33 314.074 173.018 308.466 172.395 303.169C172.395 301.923 172.706 301.611 173.641 301.611C175.199 301.3 175.822 302.234 175.822 303.481C176.445 308.154 177.069 312.828 177.38 317.502Z" fill="#EAEAEA"/>
<path d="M293.29 309.4C293.29 312.516 293.29 315.321 293.29 318.436C293.29 319.06 293.602 320.306 292.044 320.306C290.798 320.306 290.174 319.683 290.174 318.436C289.863 312.516 289.863 306.596 289.551 300.676C289.551 299.43 289.863 298.495 291.421 298.495C292.979 298.495 293.29 299.118 293.29 300.365C293.602 303.48 293.602 306.285 293.29 309.4C293.602 309.4 293.602 309.4 293.29 309.4Z" fill="#EAEAEA"/>
<path d="M280.826 248.332C283.319 249.89 283.631 252.694 284.254 254.875C284.565 255.81 284.254 256.433 283.319 256.433C281.761 256.745 280.203 257.679 278.645 257.056C277.711 256.745 278.022 255.498 278.334 254.564C278.645 252.694 279.58 250.513 280.826 248.332Z" fill="#EAEAEA"/>
<path d="M317.905 488.249C317.905 486.691 317.594 485.133 319.463 484.822C321.021 484.51 321.333 486.068 321.644 487.314C321.956 488.249 322.268 489.184 322.268 490.118C322.268 491.676 323.202 493.857 320.71 493.857C318.529 494.169 318.529 491.988 317.905 490.43C317.905 489.807 318.217 488.872 317.905 488.249Z" fill="#EAEAEA"/>
<path d="M244.059 136.162C245.305 136.162 246.24 136.162 246.552 137.72C246.863 141.147 247.175 144.575 246.24 148.314C243.436 144.575 244.994 140.213 244.059 136.162Z" fill="#EAEAEA"/>
<path d="M299.209 147.691C299.209 151.742 297.34 154.858 294.536 157.662C294.847 153.611 297.028 150.807 299.209 147.691Z" fill="#EAEAEA"/>
<path d="M34.6772 411.912C38.1047 411.912 41.5321 412.224 44.9595 412.224C44.9595 412.535 44.9595 412.847 44.9595 413.158C41.5321 413.158 38.1047 412.847 34.6772 412.847C34.6772 412.535 34.6772 412.224 34.6772 411.912Z" fill="black"/>
<path d="M179.873 23.9922C180.185 24.3038 180.497 24.9269 180.808 25.2385C180.497 25.5501 180.497 25.5501 180.185 25.8617C179.873 25.5501 179.562 24.9269 179.25 24.6154C179.562 24.3038 179.562 24.3038 179.873 23.9922Z" fill="#EAEAEA"/>
<path d="M351.245 341.806C350.934 342.117 350.934 342.117 350.934 342.429C350.622 342.117 350.622 341.806 350.31 341.494C350.622 341.494 350.934 341.183 350.934 341.183C350.622 341.183 350.934 341.494 351.245 341.806Z" fill="#EAEAEA"/>
<path d="M342.52 345.858C342.208 345.546 341.897 344.923 342.208 344.611C342.832 344.3 342.832 344.923 343.143 345.234C342.832 345.546 342.832 345.858 342.52 345.858Z" fill="#EAEAEA"/>
<path d="M240.008 126.191C240.32 126.191 240.631 125.568 240.943 125.879C241.566 126.191 241.255 126.814 240.943 127.126C240.32 126.502 240.32 126.191 240.008 126.191Z" fill="#EAEAEA"/>
<path d="M215.396 10.2814C215.707 9.96979 215.707 9.96979 216.019 9.6582C216.019 9.96979 216.019 10.593 216.019 10.9045C215.707 10.9045 215.707 10.593 215.396 10.2814Z" fill="#EAEAEA"/>
<path d="M180.807 25.2373C181.119 25.5489 181.119 25.8605 181.43 26.1721C181.119 26.4836 180.807 26.4836 180.807 26.7952C180.496 26.4836 180.496 26.1721 180.184 25.8605C180.496 25.5489 180.807 25.5489 180.807 25.2373Z" fill="#EAEAEA"/>
<path d="M179.25 24.6135C179.25 24.3019 179.25 23.9903 179.25 23.6787C179.562 23.6787 179.562 23.9903 179.873 23.9903C179.562 24.3019 179.562 24.3019 179.25 24.6135Z" fill="#EAEAEA"/>
<path d="M188.597 28.666C188.597 28.9776 188.597 28.9776 188.285 29.2892C188.285 29.2892 187.974 29.2892 187.974 28.9776C188.285 28.9776 188.285 28.666 188.597 28.666Z" fill="#EAEAEA"/>
<path d="M273.66 381.378C244.371 378.262 215.082 381.066 185.794 381.066C176.135 381.066 166.476 381.378 156.505 381.378C155.259 381.378 153.701 382.001 152.766 380.443C151.831 378.573 152.454 376.704 153.701 375.146C159.309 367.668 165.229 360.501 170.838 353.024C173.019 350.531 175.2 348.038 177.069 345.234C179.562 341.495 183.613 339.937 187.975 339.314C196.388 338.068 204.8 338.691 212.901 341.495C215.394 342.43 217.575 342.118 220.068 341.495C231.596 337.756 243.436 337.133 255.277 339.937C261.82 341.495 266.182 345.234 267.74 352.4C269.298 360.813 271.79 368.914 272.414 377.327C273.037 378.885 274.283 379.82 273.66 381.378ZM210.409 376.392C213.525 374.834 216.64 373.588 220.379 373.276C236.582 371.095 252.161 372.965 267.428 377.95C269.921 378.885 270.544 378.573 270.233 375.769C268.986 367.045 266.805 358.632 265.247 350.219C264.624 347.415 263.378 346.169 261.197 345.234C247.175 339.002 233.466 340.872 219.756 345.546C218.821 345.857 218.198 346.48 217.887 347.727C215.082 357.386 211.967 366.733 209.786 376.392C209.786 376.704 209.786 377.015 209.786 377.327C210.097 376.704 210.409 376.704 210.409 376.392ZM156.817 377.015C158.374 377.327 159.932 376.704 161.49 376.081C176.135 372.03 190.779 368.914 205.735 375.769C206.67 376.392 207.293 376.081 207.604 374.834C210.097 365.798 212.901 357.074 215.706 348.038C216.017 346.48 215.706 345.546 214.148 345.234C205.112 341.807 196.076 339.937 186.417 342.118C184.859 342.43 183.613 343.053 182.366 344.611C174.265 354.27 166.164 363.929 158.686 373.9C157.751 374.523 156.817 375.457 156.817 377.015ZM158.686 378.573C158.686 378.885 158.686 379.196 158.686 379.508C173.642 378.885 188.286 378.262 203.242 377.95C188.286 371.718 173.33 376.704 158.686 378.573ZM216.017 377.015C228.169 378.262 240.321 377.639 252.161 377.015C240.009 372.03 227.857 374.523 216.017 377.015Z" fill="black"/>
<path d="M278.023 345.546C278.958 346.169 279.269 346.481 279.581 346.792C286.124 355.828 292.044 365.487 296.718 375.458C297.029 376.081 297.341 377.016 297.341 377.639C297.652 378.885 297.964 380.443 296.095 381.066C294.537 381.689 293.29 381.066 292.356 379.508C290.486 376.081 288.617 372.654 286.747 369.538C284.254 364.552 281.45 359.567 279.581 354.582C278.646 351.778 277.711 349.285 278.023 345.546ZM285.189 360.502C285.189 359.879 284.878 358.944 284.254 359.256C283.32 359.879 284.566 360.19 284.566 360.813C287.682 366.734 290.174 372.965 294.537 377.95C292.667 371.719 289.24 366.11 285.189 360.502Z" fill="black"/>
<path d="M292.978 151.43C289.551 151.742 288.616 153.611 288.304 156.415C288.304 157.038 288.616 157.973 287.37 157.973C286.123 158.285 279.58 155.481 279.58 154.234C279.58 151.43 279.892 148.937 280.826 146.133C281.138 145.821 281.45 145.51 282.073 145.821C285.812 147.379 289.551 148.314 292.978 151.43Z" fill="#EAEAEA"/>
<path d="M255.277 141.77C258.705 140.835 261.82 141.146 264.936 141.77C266.806 142.081 269.298 141.77 268.987 144.262C268.675 146.755 267.429 149.248 264.313 149.871C259.328 150.494 258.081 149.559 256.524 144.885C255.9 143.639 255.589 142.704 255.277 141.77Z" fill="#EAEAEA"/>
<path d="M261.819 157.973C266.493 160.154 269.921 163.27 274.906 163.27C276.464 163.27 275.529 165.451 274.594 165.762C273.036 166.385 271.79 167.632 270.544 168.566C268.363 170.124 265.247 169.19 264 166.697C262.131 164.516 261.819 161.712 261.819 157.973Z" fill="black"/>
<path d="M273.348 157.972C273.036 159.841 271.79 160.153 270.544 159.841C268.986 159.529 268.051 158.906 268.051 157.037C268.051 156.102 268.674 155.167 269.297 156.102C270.544 157.037 272.725 156.414 273.348 157.972Z" fill="black"/>
<path d="M190.779 40.5055C194.207 37.0781 199.504 37.7013 201.685 41.4403C201.996 41.7519 201.996 42.0634 201.996 42.375C201.685 42.9982 201.373 42.9982 200.75 42.6866C199.192 42.0634 197.946 41.4403 196.076 41.1287C194.518 41.1287 192.96 40.8171 190.779 40.5055Z" fill="black"/>
<path d="M206.047 31.7822C203.243 33.3401 200.438 34.8981 197.011 35.2096C200.127 33.6517 202.931 32.4054 206.047 31.7822Z" fill="black"/>
<path d="M295.782 136.472C295.47 137.095 294.847 137.407 294.224 136.783C293.6 135.849 294.847 136.16 295.158 135.849C295.47 136.16 295.782 136.472 295.782 136.472Z" fill="black"/>
<path d="M209.785 376.08C211.966 366.421 215.082 357.074 217.886 347.415C218.197 346.169 218.821 345.545 219.755 345.234C233.465 340.56 247.486 338.691 261.196 344.922C263.688 345.857 264.935 347.415 265.246 349.908C266.804 358.32 268.985 367.045 270.232 375.457C270.543 378.262 269.92 378.573 267.427 377.638C252.16 372.653 236.269 371.095 220.378 372.965C216.951 373.276 213.524 374.834 210.408 376.08C210.408 376.392 210.096 376.08 209.785 376.08Z" fill="#EAEAEA"/>
<path d="M156.816 377.016C156.816 375.458 157.751 374.835 158.374 373.9C165.852 363.929 173.953 354.27 182.054 344.611C183.3 343.365 184.547 342.43 186.105 342.119C195.764 339.938 204.8 342.119 213.835 345.235C215.393 345.858 215.705 346.792 215.393 348.039C212.589 357.075 210.096 365.799 207.292 374.835C206.981 376.081 206.358 376.081 205.423 375.77C190.778 368.915 175.822 372.031 161.178 376.081C159.932 376.393 158.374 377.327 156.816 377.016Z" fill="#EAEAEA"/>
<path d="M158.687 378.573C173.643 376.392 188.287 371.718 203.555 377.95C188.599 378.573 173.955 379.196 158.999 379.508C158.687 379.196 158.687 378.885 158.687 378.573Z" fill="#EAEAEA"/>
<path d="M216.016 377.015C228.168 374.522 240.008 372.03 252.16 377.015C240.008 377.638 228.168 378.261 216.016 377.015Z" fill="#EAEAEA"/>
<path d="M210.408 376.39C210.096 376.39 210.096 376.701 209.785 376.701C209.785 376.39 209.785 376.078 209.785 375.767C210.096 376.078 210.408 376.39 210.408 376.39Z" fill="#EAEAEA"/>
<path d="M285.188 360.501C289.238 366.109 292.666 371.718 294.535 378.261C290.173 372.964 287.68 367.044 284.564 361.124C284.876 360.813 285.188 360.813 285.188 360.501Z" fill="#EAEAEA"/>
<path d="M284.877 361.124C284.877 360.501 283.631 359.877 284.565 359.566C285.189 359.254 285.5 360.189 285.5 360.812C285.189 360.812 284.877 360.812 284.877 361.124Z" fill="#EAEAEA"/>
</g>
</svg>
