<svg width="32" height="528" viewBox="0 0 32 528" fill="none" xmlns="http://www.w3.org/2000/svg">
<path fill-rule="evenodd" clip-rule="evenodd" d="M26.6235 12.8261C29.4902 12.1489 31.6235 9.57358 31.6235 6.5C31.6235 2.91015 28.7134 0 25.1235 0C21.5336 0 18.6235 2.91015 18.6235 6.5C18.6235 9.57358 20.7568 12.1489 23.6235 12.8261V515.174C20.7568 515.851 18.6235 518.426 18.6235 521.5C18.6235 524.574 20.7568 527.149 23.6235 527.826V528H25.1235H26.6235V527.826C29.4902 527.149 31.6235 524.574 31.6235 521.5C31.6235 518.426 29.4902 515.851 26.6235 515.174V12.8261ZM10.5575 269.528C10.0135 269.63 9.5375 269.698 9.1635 269.732L6.3415 270.106C2.2275 270.65 0.1875 272.418 0.1875 275.41C0.1875 276.26 0.3575 277.008 0.6635 277.62C0.9695 278.266 1.4115 278.776 1.9555 279.218C2.4995 279.66 3.1455 279.966 3.8595 280.17C4.5735 280.374 5.2875 280.476 6.0695 280.476C7.3615 280.476 8.5515 280.238 9.6735 279.728C10.7955 279.218 11.7815 278.504 12.6315 277.552C12.6315 277.858 12.6655 278.164 12.6995 278.436C12.7335 278.742 12.8355 278.98 12.9715 279.218C13.0735 279.456 13.2435 279.66 13.4475 279.83C13.6515 280.034 13.9235 280.136 14.2635 280.17C14.5695 280.238 14.8755 280.272 15.1815 280.272C15.4875 280.272 15.7935 280.238 16.0995 280.136C16.4055 280.034 16.6095 279.966 16.7795 279.932V278.334C15.9295 278.64 15.3515 278.708 15.0795 278.47C14.7735 278.266 14.6375 277.756 14.6375 276.974V267.386C14.6375 266.366 14.4675 265.516 14.1615 264.802C13.8215 264.088 13.3795 263.544 12.8015 263.102C12.2235 262.694 11.5435 262.388 10.7615 262.184C9.9795 262.014 9.1295 261.912 8.2455 261.912C7.2935 261.912 6.4095 262.014 5.5595 262.218C4.7095 262.456 3.9615 262.796 3.3155 263.238C2.6695 263.714 2.1255 264.326 1.7175 265.04C1.3095 265.788 1.0715 266.672 1.0035 267.726H3.0775C3.1795 266.944 3.3495 266.298 3.6555 265.788C3.9275 265.278 4.3015 264.87 4.7435 264.564C5.1855 264.258 5.6955 264.054 6.2735 263.918C6.8515 263.816 7.4975 263.748 8.2115 263.748C9.8095 263.748 10.9315 264.088 11.6115 264.734C12.2575 265.414 12.5975 266.264 12.5975 267.318C12.5975 267.624 12.5635 267.964 12.4955 268.338C12.3935 268.712 12.1895 268.984 11.8495 269.154C11.5095 269.324 11.0675 269.426 10.5575 269.528ZM9.9795 271.466C10.8635 271.364 11.7475 271.126 12.5975 270.752V273.506C12.5975 274.39 12.4275 275.138 12.0535 275.784C11.6795 276.43 11.2035 276.974 10.6255 277.382C10.0135 277.824 9.3335 278.13 8.5515 278.334C7.7695 278.538 6.9875 278.64 6.1715 278.64C5.6955 278.64 5.2195 278.572 4.7775 278.436C4.3015 278.334 3.8935 278.13 3.5535 277.858C3.1795 277.62 2.9075 277.28 2.7035 276.872C2.4655 276.498 2.3635 276.022 2.3635 275.478C2.3635 274.288 2.8055 273.37 3.6895 272.792C4.5395 272.214 5.7635 271.84 7.3275 271.738C8.21071 271.67 9.09392 271.568 9.97713 271.466L9.9795 271.466Z" fill="black"/>
</svg>
