<svg width="25" height="181" viewBox="0 0 25 181" fill="none" xmlns="http://www.w3.org/2000/svg">
<rect width="25" height="181" fill="#E5E5E5"/>
<g id="iPhone 13 Pro Max - Homepage" clip-path="url(#clip0_716_2267)">
<rect width="428" height="7929" transform="translate(-15 -4935)" fill="#EAEAEA"/>
<g id="Nav area">
<rect id="Area rectangle" x="1" y="1" width="23" height="179" stroke="black"/>
<path id="a" fill-rule="evenodd" clip-rule="evenodd" d="M16.0822 8.16867C17.0966 7.94629 17.8515 7.10043 17.8515 6.09092C17.8515 4.91187 16.8217 3.95605 15.5515 3.95605C14.2812 3.95605 13.2515 4.91187 13.2515 6.09092C13.2515 7.09392 13.9966 7.93537 15.0012 8.16429V173.164C13.9966 173.393 13.2515 174.235 13.2515 175.238C13.2515 176.241 13.9966 177.082 15.0012 177.311V177.373H15.5515H16.0822V177.315C17.0966 177.093 17.8515 176.247 17.8515 175.238C17.8515 174.228 17.0966 173.382 16.0822 173.16V8.16867ZM10.4746 93.2634C10.2786 93.3002 10.1071 93.3247 9.97234 93.3369L8.95549 93.4717C7.47311 93.6677 6.73804 94.3048 6.73804 95.3829C6.73804 95.6891 6.79929 95.9587 6.90955 96.1792C7.01981 96.4119 7.17908 96.5957 7.3751 96.755C7.57111 96.9142 7.80389 97.0245 8.06116 97.098C8.31843 97.1715 8.57571 97.2083 8.85748 97.2083C9.32303 97.2083 9.75182 97.1225 10.1561 96.9388C10.5604 96.755 10.9157 96.4977 11.222 96.1547C11.222 96.2649 11.2342 96.3752 11.2465 96.4732C11.2587 96.5835 11.2955 96.6692 11.3445 96.755C11.3812 96.8407 11.4425 96.9142 11.516 96.9755C11.5895 97.049 11.6875 97.0858 11.81 97.098C11.9203 97.1225 12.0305 97.1348 12.1408 97.1348C12.251 97.1348 12.3613 97.1225 12.4716 97.0858L12.4718 97.0857C12.5819 97.049 12.6554 97.0245 12.7166 97.0123V96.4365C12.4103 96.5467 12.202 96.5712 12.104 96.4855C11.9938 96.4119 11.9448 96.2282 11.9448 95.9464V92.4916C11.9448 92.1241 11.8835 91.8178 11.7733 91.5605C11.6507 91.3032 11.4915 91.1072 11.2832 90.9479C11.0749 90.8009 10.8299 90.6907 10.5481 90.6172C10.2664 90.5559 9.96009 90.5192 9.64156 90.5192C9.29852 90.5192 8.98 90.5559 8.67372 90.6294C8.36744 90.7152 8.09791 90.8377 7.86514 90.9969C7.63237 91.1685 7.43635 91.389 7.28934 91.6463C7.14232 91.9158 7.05657 92.2343 7.03206 92.6141H7.77938C7.81614 92.3323 7.87739 92.0995 7.98765 91.9158C8.08566 91.732 8.22042 91.585 8.37969 91.4747C8.53895 91.3645 8.72272 91.291 8.93099 91.242C9.13926 91.2052 9.37203 91.1807 9.62931 91.1807C10.2051 91.1807 10.6094 91.3032 10.8544 91.536C11.0872 91.781 11.2097 92.0873 11.2097 92.4671C11.2097 92.5773 11.1975 92.6999 11.1729 92.8346C11.1362 92.9694 11.0627 93.0674 10.9402 93.1286C10.8177 93.1899 10.6584 93.2267 10.4746 93.2634ZM10.2664 93.9617C10.5849 93.925 10.9034 93.8392 11.2097 93.7045V94.6968C11.2097 95.0153 11.1484 95.2848 11.0137 95.5176C10.8789 95.7504 10.7074 95.9464 10.4991 96.0934C10.2786 96.2527 10.0336 96.3629 9.75182 96.4365C9.47004 96.51 9.18826 96.5467 8.89424 96.5467C8.72272 96.5467 8.55121 96.5222 8.39194 96.4732C8.22042 96.4365 8.07341 96.3629 7.9509 96.2649C7.81614 96.1792 7.71813 96.0567 7.64462 95.9097C7.55886 95.7749 7.52211 95.6034 7.52211 95.4074C7.52211 94.9786 7.68137 94.6478 7.9999 94.4395C8.30618 94.2312 8.74722 94.0965 9.31078 94.0597C9.62911 94.0352 9.94744 93.9985 10.2658 93.9618L10.2664 93.9617Z" fill="black"/>
</g>
<g id="Area">
<rect id="Area rectangle_2" x="1" y="180" width="396" height="123" stroke="black"/>
</g>
<g id="Area_2">
<rect id="Area rectangle_3" x="24" y="1" width="373" height="179" stroke="black"/>
</g>
</g>
<defs>
<clipPath id="clip0_716_2267">
<rect width="428" height="7929" fill="white" transform="translate(-15 -4935)"/>
</clipPath>
</defs>
</svg>
