<svg width="60" height="48" viewBox="0 0 60 48" fill="none" xmlns="http://www.w3.org/2000/svg">
<g id="no comment">
<rect id="Rectangle 850" x="15" y="17" width="4.28571" height="4.28571" fill="#2313DB"/>
<rect id="Rectangle 851" x="40.7144" y="17" width="4.28571" height="4.28571" fill="#2313DB"/>
<rect id="Rectangle 852" x="23.5715" y="17" width="4.28571" height="4.28571" fill="#2313DB"/>
<rect id="Rectangle 853" x="32.1428" y="17" width="4.28571" height="4.28571" fill="#2313DB"/>
<g id="comment">
<rect id="Rectangle 814" x="25.7144" width="4.28571" height="4.28571" fill="black"/>
<rect id="Rectangle 815" x="21.4285" width="4.28571" height="4.28571" fill="black"/>
<rect id="Rectangle 816" x="17.1428" width="4.28571" height="4.28571" fill="black"/>
<rect id="Rectangle 817" x="12.8572" width="4.28571" height="4.28571" fill="black"/>
<rect id="Rectangle 818" x="8.57153" width="4.28571" height="4.28571" fill="black"/>
<rect id="Rectangle 819" x="4.28564" y="4.28577" width="4.28571" height="4.28571" fill="black"/>
<rect id="Rectangle 820" y="8.57141" width="4.28571" height="4.28571" fill="black"/>
<rect id="Rectangle 821" y="12.8572" width="4.28571" height="4.28571" fill="black"/>
<rect id="Rectangle 822" y="17.1428" width="4.28571" height="4.28571" fill="black"/>
<rect id="Rectangle 823" y="21.4286" width="4.28571" height="4.28571" fill="black"/>
<rect id="Rectangle 824" y="25.7142" width="4.28571" height="4.28571" fill="black"/>
<rect id="Rectangle 825" x="4.28564" y="30" width="4.28571" height="4.28571" fill="black"/>
<rect id="Rectangle 826" x="8.57153" y="34.2858" width="4.28571" height="4.28571" fill="black"/>
<rect id="Rectangle 827" x="17.1428" y="34.2858" width="4.28571" height="4.28571" fill="black"/>
<rect id="Rectangle 828" x="12.8572" y="34.2858" width="4.28571" height="4.28571" fill="black"/>
<rect id="Rectangle 829" x="21.4285" y="38.5714" width="4.28571" height="4.28571" fill="black"/>
<rect id="Rectangle 830" x="25.7144" y="34.2858" width="4.28571" height="4.28571" fill="black"/>
<rect id="Rectangle 831" x="34.2856" y="34.2858" width="4.28571" height="4.28571" fill="black"/>
<rect id="Rectangle 832" x="38.5715" y="34.2858" width="4.28571" height="4.28571" fill="black"/>
<rect id="Rectangle 833" x="42.8572" y="34.2858" width="4.28571" height="4.28571" fill="black"/>
<rect id="Rectangle 834" x="47.1428" y="34.2858" width="4.28571" height="4.28571" fill="black"/>
<rect id="Rectangle 849" x="47.1428" width="4.28571" height="4.28571" fill="black"/>
<rect id="Rectangle 847" x="51.4285" y="30" width="4.28571" height="4.28571" fill="black"/>
<rect id="Rectangle 848" x="42.8572" width="4.28571" height="4.28571" fill="black"/>
<rect id="Rectangle 835" x="25.7144" y="42.8572" width="4.28571" height="4.28571" fill="black"/>
<rect id="Rectangle 836" x="55.7144" y="25.7142" width="4.28571" height="4.28571" fill="black"/>
<rect id="Rectangle 837" x="55.7144" y="21.4286" width="4.28571" height="4.28571" fill="black"/>
<rect id="Rectangle 838" x="55.7144" y="17.1428" width="4.28571" height="4.28571" fill="black"/>
<rect id="Rectangle 839" x="55.7144" y="12.8572" width="4.28571" height="4.28571" fill="black"/>
<rect id="Rectangle 840" x="55.7144" y="8.57141" width="4.28571" height="4.28571" fill="black"/>
<rect id="Rectangle 841" x="51.4285" y="4.28577" width="4.28571" height="4.28571" fill="black"/>
<rect id="Rectangle 842" x="25.7144" y="38.5714" width="4.28571" height="4.28571" fill="black"/>
<rect id="Rectangle 843" x="38.5715" width="4.28571" height="4.28571" fill="black"/>
<rect id="Rectangle 844" x="34.2856" width="4.28571" height="4.28571" fill="black"/>
<rect id="Rectangle 845" x="30" width="4.28571" height="4.28571" fill="black"/>
<rect id="Rectangle 846" x="30" y="34.2858" width="4.28571" height="4.28571" fill="black"/>
</g>
</g>
</svg>
