<svg width="8" height="13" viewBox="0 0 8 13" fill="none" xmlns="http://www.w3.org/2000/svg">
<g clipPath="url(#clip0_1146_4445)">
<rect x="0.133301" y="0.530029" width="7.80373" height="11.94" rx="1.08679" fill="#EAEAEA"/>
<path d="M3.1384 2.59706C3.24334 2.68128 3.29893 2.79943 3.35245 2.92393C3.53256 3.33908 3.71674 3.75244 3.89836 4.16828C4.01345 4.43003 3.94126 4.65194 3.70756 4.75475C3.60596 4.79944 3.50284 4.84345 3.40071 4.88973C3.15328 5.00266 3.03026 5.25236 3.07622 5.54995C3.20876 6.40571 3.54654 7.17118 4.08701 7.84884C4.27471 8.08544 4.54133 8.16509 4.79177 8.05899C4.90047 8.01389 5.00717 7.96423 5.11487 7.91685C5.32773 7.82457 5.54661 7.9225 5.65221 8.15991C5.85488 8.6181 6.05756 9.0763 6.25668 9.53469C6.35876 9.76686 6.28757 9.99104 6.0833 10.0891C5.92882 10.1624 5.77387 10.232 5.6194 10.3053C5.31961 10.4454 5.00959 10.4242 4.69359 10.2929C4.32097 10.1377 4.00925 9.87551 3.72311 9.5722C3.23243 9.05192 2.8476 8.45247 2.52028 7.81007C2.13231 7.04903 1.83523 6.25479 1.66609 5.42057C1.56842 4.94471 1.51788 4.46848 1.56667 3.99203C1.57577 3.90517 1.59145 3.8195 1.6051 3.73472C1.6072 3.72293 1.61639 3.71074 1.60225 3.70066C1.64248 3.57702 1.68218 3.45498 1.72241 3.33134C1.74267 3.3333 1.74076 3.31241 1.74588 3.302C1.84479 3.10501 1.96842 2.92839 2.15899 2.83505C2.42729 2.70615 2.68306 2.55153 2.9913 2.53002C3.03983 2.55214 3.08987 2.57494 3.1384 2.59706Z" fill="black"/>
</g>
<defs>
<clipPath id="clip0_1146_4445">
<rect x="0.133301" y="0.530029" width="7.80373" height="11.94" rx="1.08679" fill="white"/>
</clipPath>
</defs>
</svg>
