<svg width="672" height="160" viewBox="0 0 672 160" fill="none" xmlns="http://www.w3.org/2000/svg">
<path d="M145.726 131.894H140.698C140.226 131.894 139.44 131.894 138.498 131.894C135.669 131.894 133.469 131.894 132.212 131.894C128.569 131.894 124.908 131.447 121.422 130.391C121.346 130.368 121.276 130.346 121.211 130.324C120.268 130.01 118.854 129.539 117.912 129.068C117.72 128.972 117.514 128.869 117.3 128.76C115.456 127.821 113.915 126.399 112.568 124.829C111.783 123.729 111.093 121.859 110.997 120.903C110.84 119.333 110.84 118.391 110.84 116.349C110.997 113.837 110.998 112.11 111.469 109.441C111.94 106.928 112.569 103.945 113.355 100.805L115.712 91.5407C116.969 86.5162 118.54 82.1197 120.426 78.6654C122.312 75.211 124.198 72.5417 126.24 70.5005C128.283 68.6163 131.112 67.0461 134.569 66.104C138.026 65.1619 141.326 64.5339 144.469 64.2198C147.612 63.9058 151.855 63.9058 157.198 63.9058H164.898C167.128 63.9058 168.639 64.0628 170.398 64.0628C172.188 64.0628 173.488 64.0628 175.269 64.0628C177.05 64.0628 176.997 64.0628 178.883 64.0628C180.925 64.0628 180.925 64.0628 182.969 64.0628C185.238 64.0628 186.425 64.0628 187.211 64.0628C188.243 62.1041 189.087 59.978 189.187 57.7667C189.301 55.2554 188.852 53.4095 187.84 52.2866C186.426 50.7164 183.44 49.9313 178.883 49.9313L136.455 50.2453L141.64 28.2631C156.568 28.263 173.854 28.263 192.711 28.263C205.44 28.263 213.769 29.3621 218.326 33.7586C222.883 38.1551 223.669 46.4769 220.526 58.7243L202.925 131.894H171.655M182.812 83.6899C175.269 83.6899 168.983 83.6899 164.269 83.6899H158.14C154.369 83.6899 151.698 84.1609 149.969 85.2601C148.398 86.3592 147.14 88.7144 146.198 92.4828L143.998 101.276C143.212 104.416 143.369 106.771 144.626 108.185C145.883 109.598 148.24 110.226 151.698 110.226H155.94C157.669 110.226 159.711 110.226 161.755 110.226C163.64 110.226 166.498 110.226 170.083 110.226C173.854 110.226 176.006 110.226 177.783 110.226L182.812 83.6899Z" fill="black"/>
<path d="M239.068 52.2864L245.197 28.1058H333.982L328.482 50.7162L264.997 106.928H314.34L308.211 131.894H216.283L221.783 108.498L286.682 52.2864H239.068Z" fill="black"/>
<path d="M528.995 107.87L523.181 131.894C506.211 131.894 487.825 131.894 468.497 131.894C455.925 131.894 447.753 130.167 443.353 125.613C438.795 121.06 438.01 112.738 440.995 100.333L450.738 60.7653C453.095 51.1873 458.281 43.3364 466.295 37.2128C474.31 31.0891 484.052 28.1058 495.524 28.1058H518.938C530.567 28.1058 538.738 31.0891 543.452 37.2128C548.167 43.3364 549.267 51.1873 546.91 60.7653L539.681 89.9704C539.524 90.7555 539.367 91.2265 539.367 91.5406C539.21 91.8546 539.052 92.0116 538.738 92.3256C538.424 92.4827 537.952 92.6397 537.324 92.6397H474.467L472.895 98.7633C471.795 102.846 471.795 105.358 472.738 106.457C473.681 107.556 476.195 108.184 480.281 108.184H528.995V107.87ZM514.852 71.7565L516.738 63.7486C517.995 58.7241 517.995 55.2697 516.581 53.5425C515.167 51.8153 512.338 51.0303 508.095 51.0303H497.095C492.695 51.0303 489.238 51.8153 486.881 53.5425C484.524 55.2697 482.638 58.7241 481.381 63.9056L479.181 72.3845L514.852 71.7565Z" fill="black"/>
<path d="M671.997 28.1058L620.611 127.968C619.354 130.638 617.468 131.894 615.111 131.894H567.026C565.611 131.894 564.669 131.58 564.197 131.109C563.726 130.638 563.411 129.539 563.254 127.968L561.054 28.1058H596.569L594.84 105.358H600.183L636.483 28.1058H671.997Z" fill="black"/>
<path d="M361.121 131.894H356.564C344.307 131.894 335.978 130.324 331.736 125.77C327.336 121.217 326.707 112.895 329.693 100.805L340.064 58.5672C343.05 46.4769 347.764 38.1551 354.364 33.7586C360.964 29.3621 370.236 28.263 382.493 28.263H387.05C393.493 28.263 400.925 28.263 413.497 28.263L420.085 0H450.536L418.211 131.894H387.207M375.284 107.085C377.013 107.085 377.05 107.085 379.2 107.085C381.35 107.085 382.854 107.085 386.736 107.085C390.335 107.085 392.754 107.085 394.278 107.085L407.211 53.0716C405.843 53.0716 401.918 53.0716 398.678 53.0716C395.306 53.0716 393.068 53.0716 391.136 53.0716C389.042 53.0716 387.364 53.0716 385.478 53.0716H382.021C378.564 53.0716 375.893 53.6997 374.164 55.1129C372.278 56.526 371.021 58.8813 370.078 62.1786L361.121 98.1354C360.336 101.276 360.493 103.631 361.593 105.044C362.85 106.457 365.05 107.085 368.507 107.085H375.284Z" fill="black"/>
<path d="M85.6502 28.263H116.764L84.393 160H54.6999L60.7113 132.05C44.5256 132.05 40.5502 132.05 34.2645 132.05H29.7074C17.4503 132.05 9.12169 130.324 4.87884 125.77C0.478846 121.217 -0.149725 112.895 2.83599 100.805L13.2074 58.5672C16.1931 46.477 20.9074 38.1551 27.5074 33.7586C34.1074 29.3621 43.3788 28.263 55.6359 28.263H60.1931M67.2645 106.771L79.5684 52.9147C78.0438 52.9147 75.3891 52.9147 71.9788 52.9147C68.5684 52.9147 66.2113 52.9147 64.4359 52.9147C62.2827 52.9147 60.6645 52.9147 58.7788 52.9147H55.3216C51.8645 52.9147 49.1931 53.5427 47.4645 54.9559C45.5788 56.369 44.3217 58.7243 43.3788 62.0216L34.4217 97.9784C33.636 101.276 33.7931 103.631 34.8931 104.887C36.1502 106.143 38.3502 106.771 41.8074 106.771H45.2645C46.9931 106.771 48.9256 106.771 51.2359 106.771C53.5463 106.771 55.997 106.771 59.4073 106.771C63.0684 106.771 65.4256 106.771 67.2645 106.771Z" fill="black"/>
</svg>
