<svg width="23" height="40" viewBox="0 0 23 40" fill="none" xmlns="http://www.w3.org/2000/svg">
<g id="right">
<rect id="Rectangle 487" y="40" width="4.44444" height="4.44444" transform="rotate(-90 0 40)" fill="black"/>
<rect id="Rectangle 488" x="4.44458" y="35.5555" width="4.44444" height="4.44444" transform="rotate(-90 4.44458 35.5555)" fill="black"/>
<rect id="Rectangle 489" x="8.88892" y="31.1111" width="4.44444" height="4.44444" transform="rotate(-90 8.88892 31.1111)" fill="black"/>
<rect id="Rectangle 490" x="13.3333" y="26.6666" width="4.44444" height="4.44444" transform="rotate(-90 13.3333 26.6666)" fill="black"/>
<rect id="Rectangle 491" x="17.7778" y="22.2222" width="4.44444" height="4.44444" transform="rotate(-90 17.7778 22.2222)" fill="black"/>
<rect id="Rectangle 492" x="13.3333" y="17.7778" width="4.44444" height="4.44444" transform="rotate(-90 13.3333 17.7778)" fill="black"/>
<rect id="Rectangle 493" x="8.88892" y="13.3334" width="4.44444" height="4.44444" transform="rotate(-90 8.88892 13.3334)" fill="black"/>
<rect id="Rectangle 494" x="4.44458" y="8.88885" width="4.44444" height="4.44444" transform="rotate(-90 4.44458 8.88885)" fill="black"/>
<rect id="Rectangle 495" y="4.44446" width="4.44444" height="4.44444" transform="rotate(-90 0 4.44446)" fill="black"/>
</g>
</svg>
