<svg width="23" height="40" viewBox="0 0 23 40" fill="none" xmlns="http://www.w3.org/2000/svg">
<g id="right">
<rect id="Rectangle 487" x="0.222168" y="40" width="4.44444" height="4.44444" transform="rotate(-90 0.222168 40)" fill="#2313DB"/>
<rect id="Rectangle 488" x="4.66675" y="35.5555" width="4.44444" height="4.44444" transform="rotate(-90 4.66675 35.5555)" fill="#2313DB"/>
<rect id="Rectangle 489" x="9.11108" y="31.1111" width="4.44444" height="4.44444" transform="rotate(-90 9.11108 31.1111)" fill="#2313DB"/>
<rect id="Rectangle 490" x="13.5554" y="26.6666" width="4.44444" height="4.44444" transform="rotate(-90 13.5554 26.6666)" fill="#2313DB"/>
<rect id="Rectangle 491" x="18" y="22.2222" width="4.44444" height="4.44444" transform="rotate(-90 18 22.2222)" fill="#2313DB"/>
<rect id="Rectangle 492" x="13.5554" y="17.7778" width="4.44444" height="4.44444" transform="rotate(-90 13.5554 17.7778)" fill="#2313DB"/>
<rect id="Rectangle 493" x="9.11108" y="13.3334" width="4.44444" height="4.44444" transform="rotate(-90 9.11108 13.3334)" fill="#2313DB"/>
<rect id="Rectangle 494" x="4.66675" y="8.88885" width="4.44444" height="4.44444" transform="rotate(-90 4.66675 8.88885)" fill="#2313DB"/>
<rect id="Rectangle 495" x="0.222168" y="4.44446" width="4.44444" height="4.44444" transform="rotate(-90 0.222168 4.44446)" fill="#2313DB"/>
</g>
</svg>
