<svg width="28" height="28" viewBox="0 0 28 28" fill="none" xmlns="http://www.w3.org/2000/svg">
<path d="M14.3664 27.7277C21.8774 27.7277 27.9664 21.6388 27.9664 14.1277C27.9664 6.61664 21.8774 0.52771 14.3664 0.52771C6.85528 0.52771 0.766357 6.61664 0.766357 14.1277C0.766357 21.6388 6.85528 27.7277 14.3664 27.7277Z" fill="#101010"/>
<path d="M11.8722 20.361C11.4316 20.361 11.5064 20.1947 11.3545 19.7752L10.0588 15.511L20.0322 9.59436" fill="#C8DAEA"/>
<path d="M11.874 20.3608C12.214 20.3608 12.3642 20.2053 12.554 20.0208L14.3674 18.2575L12.1055 16.8936" fill="#A9C9DD"/>
<path d="M12.105 16.8939L17.5858 20.9431C18.2113 21.2882 18.6626 21.1096 18.8184 20.3625L21.0494 9.84935C21.2778 8.93359 20.7003 8.51825 20.102 8.78988L7.0018 13.8413C6.10759 14.1999 6.1128 14.6988 6.8388 14.9211L10.2006 15.9704L17.9836 11.0602C18.351 10.8374 18.6882 10.9572 18.4114 11.2028" fill="url(#paint0_linear_1150_7099)"/>
<defs>
<linearGradient id="paint0_linear_1150_7099" x1="12.6647" y1="14.9628" x2="14.1178" y2="19.6633" gradientUnits="userSpaceOnUse">
<stop stop-color="#EFF7FC"/>
<stop offset="1" stop-color="white"/>
</linearGradient>
</defs>
</svg>
