<svg width="34" height="34" viewBox="0 0 34 34" fill="none" xmlns="http://www.w3.org/2000/svg">
<g clip-path="url(#clip0_694_1784)">
<path d="M10.7958 30.8778C23.2698 30.8778 30.0945 20.5406 30.0945 11.579C30.0945 11.2884 30.0881 10.9914 30.0752 10.7007C31.4028 9.74064 32.5485 8.55141 33.4585 7.18894C32.222 7.73906 30.9092 8.09833 29.565 8.2545C30.9804 7.40608 32.0402 6.07326 32.5479 4.50311C31.2163 5.29223 29.7602 5.84889 28.2418 6.14922C27.2187 5.06216 25.866 4.3424 24.3929 4.10121C22.9197 3.86003 21.4081 4.11086 20.0918 4.81492C18.7755 5.51898 17.7278 6.63705 17.1106 7.99628C16.4935 9.35552 16.3413 10.8802 16.6776 12.3346C13.9814 12.1993 11.3438 11.4989 8.93566 10.2788C6.52753 9.05873 4.40268 7.34619 2.69886 5.25222C1.8329 6.74525 1.56791 8.512 1.95776 10.1934C2.34761 11.8748 3.36304 13.3446 4.79768 14.3042C3.72064 14.2701 2.66719 13.9801 1.72437 13.4583V13.5422C1.7234 15.109 2.26507 16.6279 3.2573 17.8405C4.24952 19.0531 5.63106 19.8847 7.16708 20.1938C6.16937 20.4668 5.12223 20.5066 4.10669 20.3101C4.54012 21.6576 5.38343 22.8361 6.51891 23.6812C7.65439 24.5264 9.0254 24.9959 10.4406 25.0243C8.03802 26.9116 5.07014 27.9352 2.01497 27.9304C1.47316 27.9296 0.931889 27.8964 0.394043 27.8309C3.49777 29.8222 7.10823 30.8797 10.7958 30.8778Z" fill="black"/>
</g>
<defs>
<clipPath id="clip0_694_1784">
<rect width="33.0644" height="33.0644" fill="white" transform="translate(0.394043 0.913086)"/>
</clipPath>
</defs>
</svg>
