<svg width="596" height="358" viewBox="0 0 596 358" fill="none" xmlns="http://www.w3.org/2000/svg">
<path fill-rule="evenodd" clip-rule="evenodd" d="M119.25 2.96958C119.163 3.12656 119.053 3.27434 118.92 3.4081L3.82628 119.499L237.414 353.585L237.416 353.587L237.513 353.684C237.715 353.886 237.989 354 238.274 354C238.849 354 239.4 353.771 239.806 353.365L592.086 1.08534C592.867 0.304293 594.133 0.304293 594.914 1.08534C595.695 1.86639 595.695 3.13272 594.914 3.91377L242.634 356.194C241.478 357.35 239.91 358 238.274 358C236.928 358 235.637 357.465 234.685 356.513L234.606 356.434L234.584 356.413L0.584361 121.913C-0.0687403 121.258 -0.174202 120.264 0.2674 119.5C-0.173016 118.738 -0.0697268 117.747 0.579704 117.092L116.08 0.591895C116.857 -0.192508 118.124 -0.197974 118.908 0.579701C119.046 0.716578 119.16 0.868592 119.25 1.03045C119.339 0.869826 119.452 0.718879 119.589 0.582783C120.371 -0.196577 121.638 -0.193844 122.417 0.588889L237.917 116.589C238.696 117.371 238.693 118.638 237.911 119.417C237.128 120.196 235.862 120.194 235.082 119.411L119.582 3.4112C119.448 3.27664 119.338 3.12779 119.25 2.96958Z" fill="#E97810"/>
</svg>
