<svg width="60" height="43" viewBox="0 0 60 43" fill="none" xmlns="http://www.w3.org/2000/svg">
<rect y="19.4602" width="4.61538" height="4.61538" fill="black"/>
<rect y="24.0757" width="4.61538" height="4.61538" fill="black"/>
<rect y="14.8447" width="4.61538" height="4.61538" fill="black"/>
<rect x="4.61548" y="14.8447" width="4.61538" height="4.61538" fill="black"/>
<rect x="9.23071" y="14.8447" width="4.61538" height="4.61538" fill="black"/>
<rect x="13.8462" y="10.2295" width="4.61538" height="4.61538" fill="black"/>
<rect x="13.8462" y="28.6912" width="4.61538" height="4.61538" fill="black"/>
<rect x="18.4617" y="33.3062" width="4.61538" height="4.61538" fill="black"/>
<rect x="18.4617" y="5.61401" width="4.61538" height="4.61538" fill="black"/>
<rect x="23.0769" y="0.998535" width="4.61538" height="4.61538" fill="black"/>
<rect x="27.6924" y="0.998535" width="4.61538" height="4.61538" fill="black"/>
<rect x="32.3076" y="0.998535" width="4.61538" height="4.61538" fill="black"/>
<rect x="23.0769" y="37.9216" width="4.61538" height="4.61538" fill="black"/>
<rect x="27.6924" y="37.9216" width="4.61538" height="4.61538" fill="black"/>
<rect x="32.3076" y="37.9216" width="4.61538" height="4.61538" fill="black"/>
<rect x="36.9231" y="33.3062" width="4.61538" height="4.61538" fill="black"/>
<rect x="36.9231" y="28.6912" width="4.61538" height="4.61538" fill="black"/>
<rect x="36.9231" y="24.0757" width="4.61538" height="4.61538" fill="black"/>
<rect x="36.9231" y="19.4602" width="4.61538" height="4.61538" fill="black"/>
<rect x="36.9231" y="14.8447" width="4.61538" height="4.61538" fill="black"/>
<rect x="36.9231" y="10.2295" width="4.61538" height="4.61538" fill="black"/>
<rect x="36.9231" y="5.61401" width="4.61538" height="4.61538" fill="black"/>
<rect x="46" y="19.4609" width="4.61538" height="4.61538" fill="#2313DB"/>
<rect x="50.6155" y="19.4609" width="4.61538" height="4.61538" fill="#2313DB"/>
<rect x="50.6155" y="33.3069" width="4.61538" height="4.61538" fill="#2313DB"/>
<rect x="55.2307" y="37.9224" width="4.61538" height="4.61538" fill="#2313DB"/>
<rect x="55.2307" y="19.4609" width="4.61538" height="4.61538" fill="#2313DB"/>
<rect x="46" y="10.2302" width="4.61538" height="4.61538" fill="#2313DB"/>
<rect x="50.6155" y="5.61475" width="4.61538" height="4.61538" fill="#2313DB"/>
<rect x="55.2307" y="0.999268" width="4.61538" height="4.61538" fill="#2313DB"/>
<rect x="46" y="28.6919" width="4.61538" height="4.61538" fill="#2313DB"/>
<rect x="4.61548" y="24.0757" width="4.61538" height="4.61538" fill="black"/>
<rect x="9.23071" y="24.0757" width="4.61538" height="4.61538" fill="black"/>
<rect x="9.23071" y="19.4602" width="4.61538" height="4.61538" fill="black"/>
<rect x="4.61548" y="19.4602" width="4.61538" height="4.61538" fill="black"/>
</svg>
