<svg width="20" height="19" viewBox="0 0 20 19" fill="none" xmlns="http://www.w3.org/2000/svg">
<path d="M9.99075 0.333252C4.93075 0.333252 0.833252 4.43992 0.833252 9.49992C0.833252 14.5599 4.93075 18.6666 9.99075 18.6666C15.0599 18.6666 19.1666 14.5599 19.1666 9.49992C19.1666 4.43992 15.0599 0.333252 9.99075 0.333252ZM16.3433 5.83325H13.6391C13.3458 4.68742 12.9241 3.58742 12.3741 2.56992C14.0608 3.14742 15.4633 4.32075 16.3433 5.83325ZM9.99992 2.20325C10.7608 3.30325 11.3566 4.52242 11.7508 5.83325H8.24908C8.64325 4.52242 9.23909 3.30325 9.99992 2.20325ZM2.90492 11.3333C2.75825 10.7466 2.66659 10.1324 2.66659 9.49992C2.66659 8.86742 2.75825 8.25325 2.90492 7.66658H6.00325C5.92992 8.27158 5.87492 8.87659 5.87492 9.49992C5.87492 10.1233 5.92992 10.7283 6.00325 11.3333H2.90492ZM3.65658 13.1666H6.36075C6.65408 14.3124 7.07575 15.4124 7.62575 16.4299C5.93909 15.8524 4.53659 14.6883 3.65658 13.1666ZM6.36075 5.83325H3.65658C4.53659 4.31159 5.93909 3.14742 7.62575 2.56992C7.07575 3.58742 6.65408 4.68742 6.36075 5.83325ZM9.99992 16.7966C9.23909 15.6966 8.64325 14.4774 8.24908 13.1666H11.7508C11.3566 14.4774 10.7608 15.6966 9.99992 16.7966ZM12.1449 11.3333H7.85492C7.77242 10.7283 7.70825 10.1233 7.70825 9.49992C7.70825 8.87659 7.77242 8.26242 7.85492 7.66658H12.1449C12.2274 8.26242 12.2916 8.87659 12.2916 9.49992C12.2916 10.1233 12.2274 10.7283 12.1449 11.3333ZM12.3741 16.4299C12.9241 15.4124 13.3458 14.3124 13.6391 13.1666H16.3433C15.4633 14.6791 14.0608 15.8524 12.3741 16.4299ZM13.9966 11.3333C14.0699 10.7283 14.1249 10.1233 14.1249 9.49992C14.1249 8.87659 14.0699 8.27158 13.9966 7.66658H17.0949C17.2416 8.25325 17.3333 8.86742 17.3333 9.49992C17.3333 10.1324 17.2416 10.7466 17.0949 11.3333H13.9966Z" fill="white"/>
</svg>
