<svg width="310" height="61" viewBox="0 0 310 61" fill="none" xmlns="http://www.w3.org/2000/svg">
<g filter="url(#filter0_b_68_810)">
<rect x="236.07" width="73.2" height="61" rx="3.66" fill="white" fill-opacity="0.06"/>
<rect x="236.68" y="0.61" width="71.98" height="59.78" rx="3.05" stroke="white" stroke-opacity="0.5" stroke-width="1.22"/>
</g>
<g filter="url(#filter1_d_68_810)">
<path d="M17.1565 9.3095C29.5587 9.3095 39.6872 19.438 39.6872 31.8403C39.6872 44.3114 29.5587 54.371 17.1565 54.371C13.5736 54.371 2.75606 54.371 2.75606 54.371V9.3095C2.75606 9.3095 13.5736 9.3095 17.1565 9.3095ZM17.1565 44.1047C23.8399 44.1047 29.352 38.5926 29.352 31.8403C29.352 25.1568 23.8399 19.6447 17.1565 19.6447C16.1229 19.6447 13.0913 19.6447 13.0913 19.6447V44.1047C13.0913 44.1047 16.1229 44.1047 17.1565 44.1047ZM65.7115 7.24245C78.9406 7.24245 89.6203 17.9911 89.6203 31.1513C89.6203 44.3114 78.9406 55.0601 65.7115 55.0601C52.5513 55.0601 41.8716 44.3114 41.8716 31.1513C41.8716 17.9911 52.5513 7.24245 65.7115 7.24245ZM65.7115 44.7937C72.8773 44.7937 78.7339 38.317 78.7339 31.1513C78.7339 23.9855 72.8773 17.5088 65.7115 17.5088C58.6147 17.5088 52.758 23.9855 52.758 31.1513C52.758 38.317 58.6147 44.7937 65.7115 44.7937ZM118.972 26.0525H142.812C142.812 26.0525 142.812 30.1866 142.812 31.5647C142.812 44.6559 132.064 55.3357 118.972 55.3357C105.743 55.3357 95.0635 44.587 95.0635 31.4269C95.0635 18.1978 105.743 7.51806 118.972 7.51806C125.725 7.51806 131.857 10.343 136.198 14.8905L128.412 22.6075C126.069 20.0581 122.693 17.7844 118.972 17.7844C111.807 17.7844 105.95 24.2611 105.95 31.4269C105.95 38.5926 111.807 45.0004 118.972 45.0004C124.071 45.0004 128.55 41.3487 130.617 37.0079H118.972V26.0525ZM170.918 26.0525H194.757C194.757 26.0525 194.757 30.1866 194.757 31.5647C194.757 44.6559 184.009 55.3357 170.918 55.3357C157.688 55.3357 147.009 44.587 147.009 31.4269C147.009 18.1978 157.688 7.51806 170.918 7.51806C177.67 7.51806 183.802 10.343 188.143 14.8905L180.357 22.6075C178.014 20.0581 174.638 17.7844 170.918 17.7844C163.752 17.7844 157.895 24.2611 157.895 31.4269C157.895 38.5926 163.752 45.0004 170.918 45.0004C176.016 45.0004 180.495 41.3487 182.562 37.0079H170.918V26.0525ZM214.837 29.2909L225.173 7.93147L234.405 12.479L220.005 42.3133V54.371H209.67V42.3133L195.2 12.479L204.502 7.93147L214.837 29.2909ZM257.372 8.96499L267.707 9.03389L283.279 51.8217L273.633 55.3357L270.257 46.1029H254.892L251.516 55.3357L241.8 51.8217L257.372 8.96499ZM258.612 35.7677H266.467L262.54 24.9501L258.612 35.7677ZM297.456 54.5777H287.121V9.5162H297.456V54.5777Z" fill="white"/>
</g>
<defs>
<filter id="filter0_b_68_810" x="227.042" y="-9.028" width="91.2562" height="79.056" filterUnits="userSpaceOnUse" color-interpolation-filters="sRGB">
<feFlood flood-opacity="0" result="BackgroundImageFix"/>
<feGaussianBlur in="BackgroundImageFix" stdDeviation="4.514"/>
<feComposite in2="SourceAlpha" operator="in" result="effect1_backgroundBlur_68_810"/>
<feBlend mode="normal" in="SourceGraphic" in2="effect1_backgroundBlur_68_810" result="shape"/>
</filter>
<filter id="filter1_d_68_810" x="0.315859" y="7.24243" width="299.58" height="52.9733" filterUnits="userSpaceOnUse" color-interpolation-filters="sRGB">
<feFlood flood-opacity="0" result="BackgroundImageFix"/>
<feColorMatrix in="SourceAlpha" type="matrix" values="0 0 0 0 0 0 0 0 0 0 0 0 0 0 0 0 0 0 127 0" result="hardAlpha"/>
<feOffset dy="2.44"/>
<feGaussianBlur stdDeviation="1.22"/>
<feComposite in2="hardAlpha" operator="out"/>
<feColorMatrix type="matrix" values="0 0 0 0 0 0 0 0 0 0 0 0 0 0 0 0 0 0 0.25 0"/>
<feBlend mode="normal" in2="BackgroundImageFix" result="effect1_dropShadow_68_810"/>
<feBlend mode="normal" in="SourceGraphic" in2="effect1_dropShadow_68_810" result="shape"/>
</filter>
</defs>
</svg>
