<svg width="55" height="55" viewBox="0 0 55 55" fill="none" xmlns="http://www.w3.org/2000/svg">
<path d="M38.1518 16.2105C38.1626 16.2105 38.177 16.2105 38.1914 16.2105C38.5672 16.2105 38.9161 16.3274 39.202 16.5288L39.1966 16.5252C39.4052 16.7068 39.5454 16.9622 39.5796 17.2499V17.2553C39.6155 17.4746 39.6353 17.7264 39.6353 17.9835C39.6353 18.1004 39.6317 18.2155 39.6227 18.3306V18.3144C39.2182 22.5743 37.4631 32.9048 36.5712 37.6735C36.1936 39.6929 35.451 40.369 34.7317 40.4337C33.1691 40.5794 31.9823 39.4016 30.4682 38.409C28.0983 36.8536 26.7586 35.8861 24.4587 34.3703C21.7993 32.6207 23.5237 31.655 25.0378 30.0834C25.4352 29.6699 32.324 23.4032 32.4588 22.835C32.466 22.8008 32.4696 22.7631 32.4696 22.7235C32.4696 22.5833 32.4175 22.4556 32.3329 22.3585C32.2394 22.2973 32.1226 22.2632 32.0003 22.2632C31.9194 22.2632 31.842 22.2794 31.7701 22.3063L31.7737 22.3045C31.5364 22.3585 27.7506 24.8603 20.4165 29.8101C19.6163 30.4413 18.6057 30.8405 17.5052 30.8872H17.4944C15.9354 30.6984 14.5202 30.3514 13.177 29.8569L13.3101 29.9C11.6234 29.3498 10.2838 29.0603 10.3988 28.1288C10.46 27.6445 11.1277 27.1488 12.402 26.6417C20.2516 23.2216 25.4861 20.9673 28.1054 19.8788C30.9951 18.345 34.3451 17.0826 37.8677 16.2645L38.15 16.2087L38.1518 16.2105ZM27.0175 0C12.0891 0.0359635 0 12.1467 0 27.0805C0 42.0359 12.1233 54.161 27.0805 54.161C42.0377 54.161 54.161 42.0377 54.161 27.0805C54.161 12.1467 42.0719 0.0359635 27.147 0H27.1434C27.1015 0 27.0595 0 27.0175 0Z" fill="white"/>
</svg>
