<svg width="272" height="49" viewBox="0 0 272 49" fill="none" xmlns="http://www.w3.org/2000/svg">
<path d="M40.3637 1.55933H15.138L2.12354 24.0535M40.3637 1.55933L28.1525 24.0535M40.3637 1.55933L54.5029 24.0535L41.4884 46.7084M28.1525 24.0535H2.12354M28.1525 24.0535L41.4884 46.7084M2.12354 24.0535L15.138 46.7084H41.4884" stroke="black" stroke-width="2.76907"/>
<path d="M52.4159 1.55933H77.6415L91.7807 24.0535M52.4159 1.55933L39.4014 24.0535L52.4159 46.7084M52.4159 1.55933L65.4304 24.0535M65.4304 24.0535L52.4159 46.7084M65.4304 24.0535H78.6055H91.7807M52.4159 46.7084H78.7662L91.7807 24.0535" stroke="black" stroke-width="2.76907"/>
<path d="M132.784 27.9422C132.784 29.5359 132.378 30.9267 131.567 32.1147C130.756 33.3027 129.655 34.23 128.264 34.8964C126.902 35.5629 125.395 35.8961 123.744 35.8961H109.096V5.03673H124.439C125.888 5.03673 127.134 5.42791 128.177 6.21026C129.249 6.96363 130.06 7.94881 130.611 9.1658C131.19 10.3538 131.48 11.5998 131.48 12.9037C131.48 14.4104 131.089 15.8303 130.307 17.1632C129.553 18.4671 128.467 19.4378 127.047 20.0752C128.814 20.5968 130.205 21.5675 131.219 22.9873C132.262 24.3782 132.784 26.0298 132.784 27.9422ZM128.829 27.2468C128.829 26.2906 128.612 25.4068 128.177 24.5955C127.771 23.7841 127.206 23.1322 126.482 22.6396C125.786 22.147 124.975 21.9007 124.048 21.9007H113.008V32.5059H123.744C124.7 32.5059 125.555 32.2596 126.308 31.767C127.09 31.2744 127.699 30.637 128.133 29.8546C128.597 29.0433 128.829 28.174 128.829 27.2468ZM113.008 8.42691V18.7279H122.831C123.758 18.7279 124.569 18.496 125.265 18.0324C125.989 17.5688 126.554 16.9458 126.96 16.1635C127.395 15.3811 127.612 14.5263 127.612 13.5991C127.612 12.6139 127.409 11.7447 127.003 10.9913C126.627 10.2089 126.091 9.58595 125.395 9.12233C124.729 8.65872 123.961 8.42691 123.092 8.42691H113.008Z" fill="black"/>
<path d="M138.256 36.0202V5.03673H142.168V32.419H159.38V36.0202H138.256Z" fill="black"/>
<path d="M175.222 36.1134C173.049 36.1134 171.079 35.6788 169.311 34.8095C167.544 33.9402 166.008 32.7667 164.704 31.2889C163.429 29.7822 162.444 28.1016 161.748 26.2471C161.053 24.3637 160.705 22.4368 160.705 20.4664C160.705 18.4091 161.067 16.4532 161.792 14.5988C162.545 12.7153 163.574 11.0492 164.878 9.60044C166.211 8.12267 167.761 6.96363 169.528 6.12333C171.296 5.25405 173.223 4.81941 175.309 4.81941C177.482 4.81941 179.453 5.26854 181.22 6.16679C182.988 7.06505 184.509 8.26755 185.784 9.77429C187.059 11.281 188.044 12.9616 188.739 14.8161C189.435 16.6706 189.783 18.5685 189.783 20.5099C189.783 22.5672 189.42 24.5375 188.696 26.421C187.972 28.2754 186.943 29.9415 185.61 31.4193C184.306 32.8681 182.77 34.0126 181.003 34.853C179.235 35.6933 177.308 36.1134 175.222 36.1134ZM164.66 20.4664C164.66 22.0311 164.907 23.5523 165.399 25.0301C165.921 26.4789 166.645 27.7683 167.573 28.8984C168.5 30.0285 169.615 30.9267 170.919 31.5932C172.223 32.2596 173.672 32.5928 175.266 32.5928C176.917 32.5928 178.395 32.2451 179.699 31.5497C181.003 30.8543 182.104 29.927 183.002 28.768C183.929 27.609 184.625 26.3051 185.089 24.8563C185.581 23.4075 185.827 21.9442 185.827 20.4664C185.827 18.9017 185.567 17.395 185.045 15.9462C184.552 14.4974 183.828 13.2079 182.872 12.0779C181.945 10.9188 180.829 10.0206 179.525 9.38312C178.25 8.71667 176.83 8.38345 175.266 8.38345C173.614 8.38345 172.136 8.73116 170.832 9.42658C169.528 10.093 168.413 11.0058 167.486 12.1648C166.587 13.3238 165.892 14.6278 165.399 16.0766C164.907 17.4964 164.66 18.9597 164.66 20.4664Z" fill="black"/>
<path d="M255.318 4.81943H258.583L271.044 36.0202H266.919L263.31 26.8797H250.506L246.939 36.0202H242.814L255.318 4.81943ZM262.45 23.8036L256.951 9.38969L251.279 23.8036H262.45Z" fill="black"/>
<path d="M197.363 4.81943L206.664 17.5978L215.965 4.81943H220.355L208.837 20.4664L220.527 36.0202H216.07L206.664 23.3351L197.498 36.0202H193.041L204.447 20.4664L192.929 4.81943H197.363Z" fill="black"/>
<path d="M243.683 4.81943H239.098L216.072 36.0202H220.53L243.683 4.81943Z" fill="black"/>
<path d="M216.072 4.81943H220.585L247.273 41.9632H241.33L216.072 4.81943Z" fill="black"/>
</svg>
