<svg width="112" height="112" viewBox="0 0 112 112" fill="none" xmlns="http://www.w3.org/2000/svg">
<path d="M74.6667 37.3333V-3.8147e-06H79.6445C97.5139 -3.8147e-06 112 14.4861 112 32.3556V37.3333H74.6667Z" fill="black"/>
<rect x="74.6667" y="112" width="37.3333" height="37.3333" transform="rotate(-90 74.6667 112)" fill="black"/>
<rect x="74.6667" y="74.6667" width="37.3333" height="37.3333" transform="rotate(-90 74.6667 74.6667)" fill="black"/>
<path d="M56 112C45.6907 112 37.3333 103.643 37.3333 93.3333V74.6667H74.6666V112H56Z" fill="black"/>
<path d="M37.3333 74.6667V56C37.3333 45.6907 45.6907 37.3333 56 37.3333H74.6666V74.6667H37.3333Z" fill="black"/>
<path d="M0 37.3333L0 18.6667C0 8.35735 8.35735 -3.8147e-06 18.6667 -3.8147e-06H37.3333V37.3333H0Z" fill="url(#paint0_linear_719_676)"/>
<rect y="74.6667" width="37.3333" height="37.3333" transform="rotate(-90 0 74.6667)" fill="url(#paint1_linear_719_676)"/>
<path d="M18.6667 112C8.35735 112 0 103.643 0 93.3333L0 74.6667H37.3333V93.3333C37.3333 103.643 28.976 112 18.6667 112Z" fill="url(#paint2_linear_719_676)"/>
<path d="M37.3333 37.3333V-3.8147e-06H56C66.3093 -3.8147e-06 74.6666 8.35735 74.6666 18.6667C74.6666 28.976 66.3093 37.3333 56 37.3333H37.3333Z" fill="url(#paint3_linear_719_676)"/>
<defs>
<linearGradient id="paint0_linear_719_676" x1="-6.84444" y1="18.6667" x2="37.3333" y2="18.6667" gradientUnits="userSpaceOnUse">
<stop stop-color="#EA590D"/>
<stop offset="1" stop-color="#FB913B"/>
</linearGradient>
<linearGradient id="paint1_linear_719_676" x1="21.4667" y1="72.8" x2="43.5556" y2="112" gradientUnits="userSpaceOnUse">
<stop stop-color="#EA590D"/>
<stop offset="1" stop-color="#FB913B"/>
</linearGradient>
<linearGradient id="paint2_linear_719_676" x1="2.24232" y1="78.3511" x2="37.304" y2="106.992" gradientUnits="userSpaceOnUse">
<stop stop-color="#EA590D"/>
<stop offset="1" stop-color="#FB913B"/>
</linearGradient>
<linearGradient id="paint3_linear_719_676" x1="74.6666" y1="18.6667" x2="37.3333" y2="18.6667" gradientUnits="userSpaceOnUse">
<stop stop-color="#EA590D"/>
<stop offset="1" stop-color="#FB913B"/>
</linearGradient>
</defs>
</svg>
