<svg width="180" height="74" viewBox="0 0 180 74" fill="none" xmlns="http://www.w3.org/2000/svg">
<path d="M12.1237 0.140381C15.2978 0.140381 18.0716 0.769481 20.445 2.02768C22.8184 3.28588 24.6485 5.0588 25.9353 7.34644C27.2507 9.60549 27.9084 12.222 27.9084 15.1959C27.9084 18.1412 27.2507 20.7577 25.9353 23.0454C24.6485 25.333 22.8041 27.1059 20.4021 28.3641C18.0287 29.6223 15.2692 30.2514 12.1237 30.2514H0.842773V0.140381H12.1237ZM11.6519 23.9032C14.4256 23.9032 16.5846 23.1454 18.1287 21.6299C19.6729 20.1143 20.445 17.9697 20.445 15.1959C20.445 12.4221 19.6729 10.2632 18.1287 8.71903C16.5846 7.17487 14.4256 6.40279 11.6519 6.40279H8.17752V23.9032H11.6519Z" fill="#E97810"/>
<path d="M54.5283 17.8982C54.5283 18.5845 54.4854 19.2994 54.3997 20.0428H37.8C37.9144 21.5298 38.3862 22.6736 39.2155 23.4743C40.0733 24.2464 41.1171 24.6324 42.3467 24.6324C44.1768 24.6324 45.4493 23.8603 46.1642 22.3162H53.9707C53.5704 23.8889 52.8412 25.3044 51.7832 26.5626C50.7537 27.8208 49.4526 28.8074 47.8799 29.5222C46.3071 30.2371 44.5485 30.5946 42.604 30.5946C40.2592 30.5946 38.1717 30.0942 36.3416 29.0933C34.5115 28.0925 33.0817 26.6627 32.0523 24.804C31.0228 22.9453 30.5081 20.772 30.5081 18.2842C30.5081 15.7964 31.0085 13.6232 32.0094 11.7644C33.0388 9.90574 34.4686 8.47596 36.2987 7.47512C38.1288 6.47428 40.2306 5.97386 42.604 5.97386C44.9203 5.97386 46.9791 6.45998 48.7806 7.43223C50.5822 8.40448 51.9833 9.79136 52.9842 11.5929C54.0136 13.3944 54.5283 15.4962 54.5283 17.8982ZM47.022 15.968C47.022 14.7098 46.5931 13.7089 45.7352 12.9655C44.8774 12.222 43.805 11.8502 42.5182 11.8502C41.2886 11.8502 40.2449 12.2077 39.387 12.9226C38.5578 13.6375 38.043 14.6526 37.8429 15.968H47.022Z" fill="#E97810"/>
<path d="M69.1231 23.3885L74.3132 6.31701H82.1197L73.6269 30.2514H64.5764L56.0835 6.31701H63.933L69.1231 23.3885Z" fill="#E97810"/>
<path d="M23.7907 52.7275C23.7907 54.4718 23.3903 56.0731 22.5896 57.5315C21.789 58.9613 20.5594 60.1194 18.9008 61.0059C17.2423 61.8923 15.1834 62.3356 12.7242 62.3356H8.17752V73.1447H0.842773V43.0336H12.7242C15.1262 43.0336 17.1565 43.4482 18.815 44.2775C20.4736 45.1068 21.7175 46.2506 22.5468 47.709C23.376 49.1673 23.7907 50.8402 23.7907 52.7275ZM12.1666 56.5021C13.5678 56.5021 14.6115 56.1732 15.2978 55.5155C15.9841 54.8578 16.3272 53.9285 16.3272 52.7275C16.3272 51.5265 15.9841 50.5971 15.2978 49.9394C14.6115 49.2817 13.5678 48.9529 12.1666 48.9529H8.17752V56.5021H12.1666Z" fill="#E97810"/>
<path d="M34.903 53.1993C35.7609 51.8839 36.8332 50.8545 38.12 50.111C39.4068 49.3389 40.8366 48.9529 42.4093 48.9529V56.7165H40.3933C38.5632 56.7165 37.1906 57.1169 36.2756 57.9176C35.3605 58.6896 34.903 60.0622 34.903 62.0353V73.1447H27.5683V49.2102H34.903V53.1993Z" fill="#E97810"/>
<path d="M44.4159 61.1346C44.4159 58.6753 44.8734 56.5164 45.7885 54.6577C46.7322 52.799 48.0046 51.3692 49.606 50.3684C51.2073 49.3675 52.9946 48.8671 54.9676 48.8671C56.6548 48.8671 58.1275 49.2102 59.3857 49.8965C60.6725 50.5828 61.659 51.4836 62.3453 52.5988V49.2102H69.68V73.1447H62.3453V69.7561C61.6304 70.8713 60.6296 71.7721 59.3428 72.4584C58.0846 73.1447 56.6119 73.4878 54.9248 73.4878C52.9803 73.4878 51.2073 72.9874 49.606 71.9865C48.0046 70.9571 46.7322 69.513 45.7885 67.6543C44.8734 65.767 44.4159 63.5938 44.4159 61.1346ZM62.3453 61.1774C62.3453 59.3473 61.8306 57.9033 60.8011 56.8452C59.8003 55.7872 58.5707 55.2582 57.1123 55.2582C55.6539 55.2582 54.41 55.7872 53.3806 56.8452C52.3798 57.8747 51.8793 59.3044 51.8793 61.1346C51.8793 62.9647 52.3798 64.423 53.3806 65.5097C54.41 66.5677 55.6539 67.0967 57.1123 67.0967C58.5707 67.0967 59.8003 66.5677 60.8011 65.5097C61.8306 64.4516 62.3453 63.0076 62.3453 61.1774Z" fill="#E97810"/>
<path d="M73.4871 61.1774C73.4871 58.6896 73.9875 56.5164 74.9884 54.6577C76.0178 52.799 77.4333 51.3692 79.2348 50.3684C81.0649 49.3675 83.1524 48.8671 85.4972 48.8671C88.4998 48.8671 91.0019 49.6535 93.0036 51.2262C95.0338 52.799 96.3635 55.0151 96.9926 57.8747H89.1861C88.5284 56.0446 87.2559 55.1295 85.3686 55.1295C84.0246 55.1295 82.9522 55.6585 82.1516 56.7165C81.3509 57.746 80.9506 59.2329 80.9506 61.1774C80.9506 63.1219 81.3509 64.6232 82.1516 65.6812C82.9522 66.7107 84.0246 67.2254 85.3686 67.2254C87.2559 67.2254 88.5284 66.3103 89.1861 64.4802H96.9926C96.3635 67.2826 95.0338 69.4844 93.0036 71.0858C90.9733 72.6871 88.4712 73.4878 85.4972 73.4878C83.1524 73.4878 81.0649 72.9874 79.2348 71.9865C77.4333 70.9857 76.0178 69.5559 74.9884 67.6972C73.9875 65.8385 73.4871 63.6652 73.4871 61.1774Z" fill="#E97810"/>
<path d="M114.215 66.9251V73.1447H110.483C107.824 73.1447 105.751 72.5013 104.264 71.2145C102.777 69.8991 102.033 67.7687 102.033 64.8234V55.3011H99.1165V49.2102H102.033V43.3768H109.368V49.2102H114.172V55.3011H109.368V64.9092C109.368 65.624 109.54 66.1388 109.883 66.4533C110.226 66.7679 110.798 66.9251 111.598 66.9251H114.215Z" fill="#E97810"/>
<path d="M121.948 46.7224C120.662 46.7224 119.604 46.3507 118.774 45.6072C117.974 44.8351 117.573 43.8915 117.573 42.7762C117.573 41.6324 117.974 40.6888 118.774 39.9453C119.604 39.1732 120.662 38.7872 121.948 38.7872C123.207 38.7872 124.236 39.1732 125.037 39.9453C125.866 40.6888 126.281 41.6324 126.281 42.7762C126.281 43.8915 125.866 44.8351 125.037 45.6072C124.236 46.3507 123.207 46.7224 121.948 46.7224ZM125.594 49.2102V73.1447H118.26V49.2102H125.594Z" fill="#E97810"/>
<path d="M129.41 61.1774C129.41 58.6896 129.911 56.5164 130.912 54.6577C131.941 52.799 133.357 51.3692 135.158 50.3684C136.988 49.3675 139.076 48.8671 141.421 48.8671C144.423 48.8671 146.925 49.6535 148.927 51.2262C150.957 52.799 152.287 55.0151 152.916 57.8747H145.109C144.452 56.0446 143.179 55.1295 141.292 55.1295C139.948 55.1295 138.876 55.6585 138.075 56.7165C137.274 57.746 136.874 59.2329 136.874 61.1774C136.874 63.1219 137.274 64.6232 138.075 65.6812C138.876 66.7107 139.948 67.2254 141.292 67.2254C143.179 67.2254 144.452 66.3103 145.109 64.4802H152.916C152.287 67.2826 150.957 69.4844 148.927 71.0858C146.897 72.6871 144.395 73.4878 141.421 73.4878C139.076 73.4878 136.988 72.9874 135.158 71.9865C133.357 70.9857 131.941 69.5559 130.912 67.6972C129.911 65.8385 129.41 63.6652 129.41 61.1774Z" fill="#E97810"/>
<path d="M179.36 60.7914C179.36 61.4777 179.317 62.1926 179.232 62.9361H162.632C162.746 64.423 163.218 65.5668 164.047 66.3675C164.905 67.1396 165.949 67.5256 167.179 67.5256C169.009 67.5256 170.281 66.7536 170.996 65.2094H178.803C178.402 66.7822 177.673 68.1976 176.615 69.4558C175.586 70.714 174.285 71.7006 172.712 72.4155C171.139 73.1304 169.381 73.4878 167.436 73.4878C165.091 73.4878 163.004 72.9874 161.174 71.9865C159.343 70.9857 157.914 69.5559 156.884 67.6972C155.855 65.8385 155.34 63.6652 155.34 61.1774C155.34 58.6896 155.841 56.5164 156.841 54.6577C157.871 52.799 159.301 51.3692 161.131 50.3684C162.961 49.3675 165.063 48.8671 167.436 48.8671C169.752 48.8671 171.811 49.3532 173.613 50.3255C175.414 51.2977 176.815 52.6846 177.816 54.4861C178.846 56.2876 179.36 58.3894 179.36 60.7914ZM171.854 58.8612C171.854 57.603 171.425 56.6022 170.567 55.8587C169.709 55.1152 168.637 54.7435 167.35 54.7435C166.121 54.7435 165.077 55.1009 164.219 55.8158C163.39 56.5307 162.875 57.5458 162.675 58.8612H171.854Z" fill="#E97810"/>
</svg>
