<svg width="181" height="74" viewBox="0 0 181 74" fill="none" xmlns="http://www.w3.org/2000/svg">
<path d="M11.4378 0C14.656 0 17.4684 0.634697 19.8748 1.90409C22.2812 3.17349 24.1368 4.96218 25.4415 7.27017C26.7752 9.54932 27.442 12.1891 27.442 15.1895C27.442 18.161 26.7752 20.8008 25.4415 23.1088C24.1368 25.4168 22.2667 27.2055 19.8313 28.4749C17.4249 29.7442 14.627 30.3789 11.4378 30.3789H0V0H11.4378ZM10.9594 23.9743C13.7717 23.9743 15.9607 23.2097 17.5264 21.6807C19.092 20.1517 19.8748 17.9879 19.8748 15.1895C19.8748 12.391 19.092 10.2129 17.5264 8.65497C15.9607 7.09707 13.7717 6.31813 10.9594 6.31813H7.43674V23.9743H10.9594Z" fill="white"/>
<path d="M54.4321 17.9158C54.4321 18.6082 54.3886 19.3294 54.3016 20.0795H37.4711C37.5871 21.5797 38.0655 22.7337 38.9063 23.5415C39.7761 24.3205 40.8343 24.7099 42.081 24.7099C43.9366 24.7099 45.2268 23.931 45.9516 22.3731H53.8667C53.4608 23.9598 52.7215 25.3879 51.6488 26.6573C50.605 27.9267 49.2858 28.922 47.6912 29.6433C46.0966 30.3645 44.3135 30.7251 42.342 30.7251C39.9645 30.7251 37.848 30.2203 35.9925 29.2105C34.1369 28.2008 32.6873 26.7583 31.6435 24.883C30.5998 23.0078 30.0779 20.8152 30.0779 18.3053C30.0779 15.7953 30.5853 13.6027 31.6 11.7275C32.6438 9.85224 34.0934 8.40975 35.949 7.4C37.8045 6.39025 39.9355 5.88538 42.342 5.88538C44.6904 5.88538 46.7779 6.37583 48.6045 7.35673C50.4311 8.33762 51.8517 9.73684 52.8665 11.5544C53.9102 13.3719 54.4321 15.4924 54.4321 17.9158ZM46.8214 15.9684C46.8214 14.699 46.3865 13.6893 45.5167 12.9392C44.6469 12.1891 43.5597 11.814 42.255 11.814C41.0083 11.814 39.95 12.1747 39.0802 12.8959C38.2394 13.6172 37.7176 14.6413 37.5146 15.9684H46.8214Z" fill="white"/>
<path d="M69.2298 23.455L74.4921 6.23158H82.4072L73.7962 30.3789H64.6199L56.0089 6.23158H63.9676L69.2298 23.455Z" fill="white"/>
<path d="M23.267 53.055C23.267 54.8148 22.8611 56.4304 22.0493 57.9018C21.2375 59.3442 19.9908 60.5127 18.3092 61.407C16.6276 62.3014 14.5401 62.7485 12.0466 62.7485H7.43674V73.6538H0V43.2749H12.0466C14.4821 43.2749 16.5406 43.6932 18.2222 44.5298C19.9038 45.3665 21.165 46.5205 22.0058 47.9918C22.8466 49.4632 23.267 51.1509 23.267 53.055ZM11.4813 56.8632C12.9019 56.8632 13.9602 56.5314 14.656 55.8678C15.3519 55.2043 15.6998 54.2667 15.6998 53.055C15.6998 51.8433 15.3519 50.9057 14.656 50.2421C13.9602 49.5786 12.9019 49.2468 11.4813 49.2468H7.43674V56.8632H11.4813Z" fill="white"/>
<path d="M34.5339 53.531C35.4037 52.2039 36.4909 51.1653 37.7956 50.4152C39.1003 49.6363 40.5499 49.2468 42.1446 49.2468V57.0795H40.1006C38.245 57.0795 36.8533 57.4834 35.9255 58.2912C34.9978 59.0702 34.5339 60.455 34.5339 62.4456V73.6538H27.0971V49.5064H34.5339V53.531Z" fill="white"/>
<path d="M44.1791 61.5368C44.1791 59.0558 44.643 56.8776 45.5707 55.0023C46.5275 53.1271 47.8177 51.6846 49.4413 50.6749C51.0649 49.6651 52.877 49.1602 54.8775 49.1602C56.5881 49.1602 58.0813 49.5064 59.357 50.1988C60.6617 50.8912 61.6619 51.8 62.3578 52.9251V49.5064H69.7945V73.6538H62.3578V70.2351C61.6329 71.3602 60.6182 72.269 59.3135 72.9614C58.0378 73.6538 56.5446 74 54.834 74C52.8625 74 51.0649 73.4951 49.4413 72.4854C47.8177 71.4468 46.5275 69.9899 45.5707 68.1146C44.643 66.2105 44.1791 64.0179 44.1791 61.5368ZM62.3578 61.5801C62.3578 59.7337 61.8359 58.2768 60.7921 57.2094C59.7774 56.1419 58.5307 55.6082 57.052 55.6082C55.5734 55.6082 54.3122 56.1419 53.2684 57.2094C52.2537 58.248 51.7463 59.6904 51.7463 61.5368C51.7463 63.3832 52.2537 64.8546 53.2684 65.9509C54.3122 67.0183 55.5734 67.552 57.052 67.552C58.5307 67.552 59.7774 67.0183 60.7921 65.9509C61.8359 64.8834 62.3578 63.4265 62.3578 61.5801Z" fill="white"/>
<path d="M73.6545 61.5801C73.6545 59.0702 74.1619 56.8776 75.1767 55.0023C76.2204 53.1271 77.6556 51.6846 79.4822 50.6749C81.3377 49.6651 83.4542 49.1602 85.8317 49.1602C88.8759 49.1602 91.4128 49.9536 93.4424 51.5404C95.5009 53.1271 96.8491 55.363 97.4869 58.248H89.5718C88.9049 56.4016 87.6147 55.4784 85.7012 55.4784C84.3385 55.4784 83.2513 56.0121 82.4395 57.0795C81.6277 58.1181 81.2218 59.6183 81.2218 61.5801C81.2218 63.5419 81.6277 65.0565 82.4395 66.124C83.2513 67.1626 84.3385 67.6819 85.7012 67.6819C87.6147 67.6819 88.9049 66.7587 89.5718 64.9123H97.4869C96.8491 67.7396 95.5009 69.961 93.4424 71.5766C91.3839 73.1922 88.8469 74 85.8317 74C83.4542 74 81.3377 73.4951 79.4822 72.4854C77.6556 71.4756 76.2204 70.0331 75.1767 68.1579C74.1619 66.2827 73.6545 64.0901 73.6545 61.5801Z" fill="white"/>
<path d="M114.949 67.3789V73.6538H111.165C108.469 73.6538 106.367 73.0047 104.859 71.7064C103.351 70.3793 102.598 68.23 102.598 65.2585V55.6515H99.6403V49.5064H102.598V43.6211H110.034V49.5064H114.905V55.6515H110.034V65.345C110.034 66.0663 110.208 66.5856 110.556 66.9029C110.904 67.2203 111.484 67.3789 112.296 67.3789H114.949Z" fill="white"/>
<path d="M122.79 46.9965C121.485 46.9965 120.412 46.6214 119.572 45.8713C118.76 45.0924 118.354 44.1404 118.354 43.0152C118.354 41.8612 118.76 40.9092 119.572 40.1591C120.412 39.3801 121.485 38.9906 122.79 38.9906C124.065 38.9906 125.109 39.3801 125.921 40.1591C126.762 40.9092 127.182 41.8612 127.182 43.0152C127.182 44.1404 126.762 45.0924 125.921 45.8713C125.109 46.6214 124.065 46.9965 122.79 46.9965ZM126.486 49.5064V73.6538H119.05V49.5064H126.486Z" fill="white"/>
<path d="M130.356 61.5801C130.356 59.0702 130.863 56.8776 131.878 55.0023C132.921 53.1271 134.357 51.6846 136.183 50.6749C138.039 49.6651 140.155 49.1602 142.533 49.1602C145.577 49.1602 148.114 49.9536 150.143 51.5404C152.202 53.1271 153.55 55.363 154.188 58.248H146.273C145.606 56.4016 144.316 55.4784 142.402 55.4784C141.04 55.4784 139.952 56.0121 139.141 57.0795C138.329 58.1181 137.923 59.6183 137.923 61.5801C137.923 63.5419 138.329 65.0565 139.141 66.124C139.952 67.1626 141.04 67.6819 142.402 67.6819C144.316 67.6819 145.606 66.7587 146.273 64.9123H154.188C153.55 67.7396 152.202 69.961 150.143 71.5766C148.085 73.1922 145.548 74 142.533 74C140.155 74 138.039 73.4951 136.183 72.4854C134.357 71.4756 132.921 70.0331 131.878 68.1579C130.863 66.2827 130.356 64.0901 130.356 61.5801Z" fill="white"/>
<path d="M181 61.1906C181 61.883 180.957 62.6043 180.87 63.3544H164.039C164.155 64.8546 164.633 66.0086 165.474 66.8164C166.344 67.5953 167.402 67.9848 168.649 67.9848C170.505 67.9848 171.795 67.2058 172.52 65.648H180.435C180.029 67.2347 179.289 68.6628 178.217 69.9322C177.173 71.2016 175.854 72.1969 174.259 72.9181C172.664 73.6394 170.881 74 168.91 74C166.532 74 164.416 73.4951 162.56 72.4854C160.705 71.4756 159.255 70.0331 158.211 68.1579C157.168 66.2827 156.646 64.0901 156.646 61.5801C156.646 59.0702 157.153 56.8776 158.168 55.0023C159.212 53.1271 160.661 51.6846 162.517 50.6749C164.372 49.6651 166.503 49.1602 168.91 49.1602C171.258 49.1602 173.346 49.6507 175.172 50.6316C176.999 51.6125 178.42 53.0117 179.434 54.8292C180.478 56.6468 181 58.7673 181 61.1906ZM173.389 59.2433C173.389 57.9739 172.954 56.9641 172.085 56.214C171.215 55.4639 170.128 55.0889 168.823 55.0889C167.576 55.0889 166.518 55.4495 165.648 56.1708C164.807 56.892 164.285 57.9162 164.083 59.2433H173.389Z" fill="white"/>
</svg>
