<svg width="127" height="52" viewBox="0 0 127 52" fill="none" xmlns="http://www.w3.org/2000/svg">
<path d="M7.99766 0C10.248 0 12.2144 0.446004 13.8971 1.33801C15.5797 2.23002 16.8772 3.48694 17.7895 5.10877C18.722 6.71033 19.1883 8.5653 19.1883 10.6737C19.1883 12.7618 18.722 14.6168 17.7895 16.2386C16.8772 17.8604 15.5696 19.1173 13.8667 20.0094C12.184 20.9014 10.2277 21.3474 7.99766 21.3474H0V0H7.99766ZM7.66316 16.8468C9.62963 16.8468 11.1602 16.3096 12.255 15.2351C13.3497 14.1606 13.8971 12.6402 13.8971 10.6737C13.8971 8.70721 13.3497 7.17661 12.255 6.08187C11.1602 4.98713 9.62963 4.43976 7.66316 4.43976H5.2V16.8468H7.66316Z" fill="#E97810"/>
<path d="M38.0606 12.5895C38.0606 13.076 38.0302 13.5828 37.9694 14.1099H26.201C26.2821 15.1641 26.6166 15.975 27.2045 16.5427C27.8127 17.0901 28.5526 17.3637 29.4244 17.3637C30.7218 17.3637 31.624 16.8164 32.1308 15.7216H37.6653C37.3815 16.8366 36.8645 17.8402 36.1144 18.7322C35.3846 19.6242 34.4622 20.3236 33.3472 20.8304C32.2322 21.3372 30.9854 21.5906 29.6068 21.5906C27.9445 21.5906 26.4645 21.2359 25.1671 20.5263C23.8696 19.8168 22.856 18.8031 22.1261 17.4854C21.3963 16.1676 21.0314 14.6269 21.0314 12.8632C21.0314 11.0994 21.3862 9.55867 22.0957 8.24094C22.8255 6.9232 23.8392 5.90955 25.1367 5.2C26.4341 4.49045 27.9242 4.13567 29.6068 4.13567C31.2489 4.13567 32.7086 4.48031 33.9858 5.16959C35.263 5.85887 36.2563 6.8421 36.9659 8.1193C37.6957 9.39649 38.0606 10.8865 38.0606 12.5895ZM32.739 11.2211C32.739 10.329 32.4349 9.61949 31.8267 9.0924C31.2185 8.5653 30.4583 8.30175 29.546 8.30175C28.6743 8.30175 27.9343 8.55517 27.3261 9.06199C26.7382 9.56881 26.3733 10.2885 26.2314 11.2211H32.739Z" fill="#E97810"/>
<path d="M48.4076 16.4819L52.0872 4.37895H57.6217L51.6006 21.3474H45.1843L39.1632 4.37895H44.7281L48.4076 16.4819Z" fill="#E97810"/>
<path d="M16.269 37.2819C16.269 38.5185 15.9852 39.6538 15.4175 40.6877C14.8499 41.7014 13.9782 42.5224 12.8023 43.1509C11.6265 43.7793 10.1669 44.0936 8.42339 44.0936H5.2V51.7567H0V30.4094H8.42339C10.1263 30.4094 11.5657 30.7033 12.7415 31.2912C13.9174 31.8791 14.7992 32.6901 15.3871 33.724C15.975 34.7579 16.269 35.9439 16.269 37.2819ZM8.02807 39.9579C9.02144 39.9579 9.7614 39.7248 10.248 39.2585C10.7345 38.7922 10.9778 38.1333 10.9778 37.2819C10.9778 36.4304 10.7345 35.7715 10.248 35.3053C9.7614 34.839 9.02144 34.6058 8.02807 34.6058H5.2V39.9579H8.02807Z" fill="#E97810"/>
<path d="M24.1472 37.6164C24.7554 36.6838 25.5156 35.954 26.4279 35.4269C27.3401 34.8795 28.3538 34.6058 29.4688 34.6058V40.1099H28.0396C26.7421 40.1099 25.769 40.3938 25.1203 40.9614C24.4715 41.5088 24.1472 42.4819 24.1472 43.8807V51.7567H18.9472V34.7883H24.1472V37.6164Z" fill="#E97810"/>
<path d="M30.8914 43.2421C30.8914 41.4986 31.2157 39.968 31.8645 38.6503C32.5335 37.3326 33.4356 36.3189 34.5709 35.6094C35.7062 34.8998 36.9733 34.545 38.3721 34.545C39.5682 34.545 40.6122 34.7883 41.5042 35.2748C42.4165 35.7614 43.1159 36.4 43.6025 37.1906V34.7883H48.8025V51.7567H43.6025V49.3544C43.0957 50.145 42.3861 50.7836 41.4738 51.2702C40.5818 51.7567 39.5378 52 38.3417 52C36.9631 52 35.7062 51.6452 34.5709 50.9357C33.4356 50.2058 32.5335 49.1821 31.8645 47.8643C31.2157 46.5263 30.8914 44.9856 30.8914 43.2421ZM43.6025 43.2725C43.6025 41.975 43.2376 40.9513 42.5078 40.2012C41.7982 39.4511 40.9265 39.076 39.8926 39.076C38.8586 39.076 37.9768 39.4511 37.2469 40.2012C36.5374 40.931 36.1826 41.9446 36.1826 43.2421C36.1826 44.5396 36.5374 45.5735 37.2469 46.3439C37.9768 47.094 38.8586 47.469 39.8926 47.469C40.9265 47.469 41.7982 47.094 42.5078 46.3439C43.2376 45.5938 43.6025 44.57 43.6025 43.2725Z" fill="#E97810"/>
<path d="M51.5016 43.2725C51.5016 41.5088 51.8563 39.968 52.5659 38.6503C53.2957 37.3326 54.2992 36.3189 55.5764 35.6094C56.8739 34.8998 58.3538 34.545 60.0162 34.545C62.1448 34.545 63.9187 35.1025 65.3378 36.2175C66.7772 37.3326 67.7199 38.9037 68.1659 40.931H62.6314C62.1651 39.6335 61.263 38.9848 59.9249 38.9848C58.9721 38.9848 58.2119 39.3598 57.6442 40.1099C57.0766 40.8398 56.7928 41.894 56.7928 43.2725C56.7928 44.6511 57.0766 45.7154 57.6442 46.4655C58.2119 47.1953 58.9721 47.5602 59.9249 47.5602C61.263 47.5602 62.1651 46.9115 62.6314 45.614H68.1659C67.7199 47.6008 66.7772 49.1618 65.3378 50.2971C63.8984 51.4324 62.1246 52 60.0162 52C58.3538 52 56.8739 51.6452 55.5764 50.9357C54.2992 50.2261 53.2957 49.2125 52.5659 47.8947C51.8563 46.577 51.5016 45.0363 51.5016 43.2725Z" fill="#E97810"/>
<path d="M80.3757 47.3474V51.7567H77.7301C75.8447 51.7567 74.3749 51.3006 73.3207 50.3883C72.2665 49.4557 71.7394 47.9454 71.7394 45.8573V39.1064H69.6716V34.7883H71.7394V30.6526H76.9394V34.7883H80.3453V39.1064H76.9394V45.9181C76.9394 46.4249 77.0611 46.7899 77.3044 47.0129C77.5476 47.2359 77.9531 47.3474 78.5207 47.3474H80.3757Z" fill="#E97810"/>
<path d="M85.8584 33.0246C84.9461 33.0246 84.196 32.761 83.6081 32.2339C83.0405 31.6865 82.7567 31.0175 82.7567 30.2269C82.7567 29.416 83.0405 28.747 83.6081 28.2199C84.196 27.6725 84.9461 27.3988 85.8584 27.3988C86.7504 27.3988 87.4802 27.6725 88.0479 28.2199C88.6358 28.747 88.9298 29.416 88.9298 30.2269C88.9298 31.0175 88.6358 31.6865 88.0479 32.2339C87.4802 32.761 86.7504 33.0246 85.8584 33.0246ZM88.4432 34.7883V51.7567H83.2432V34.7883H88.4432Z" fill="#E97810"/>
<path d="M91.1487 43.2725C91.1487 41.5088 91.5035 39.968 92.213 38.6503C92.9428 37.3326 93.9464 36.3189 95.2235 35.6094C96.521 34.8998 98.0009 34.545 99.6633 34.545C101.792 34.545 103.566 35.1025 104.985 36.2175C106.424 37.3326 107.367 38.9037 107.813 40.931H102.279C101.812 39.6335 100.91 38.9848 99.5721 38.9848C98.6193 38.9848 97.859 39.3598 97.2914 40.1099C96.7237 40.8398 96.4399 41.894 96.4399 43.2725C96.4399 44.6511 96.7237 45.7154 97.2914 46.4655C97.859 47.1953 98.6193 47.5602 99.5721 47.5602C100.91 47.5602 101.812 46.9115 102.279 45.614H107.813C107.367 47.6008 106.424 49.1618 104.985 50.2971C103.546 51.4324 101.772 52 99.6633 52C98.0009 52 96.521 51.6452 95.2235 50.9357C93.9464 50.2261 92.9428 49.2125 92.213 47.8947C91.5035 46.577 91.1487 45.0363 91.1487 43.2725Z" fill="#E97810"/>
<path d="M126.561 42.9988C126.561 43.4854 126.53 43.9922 126.47 44.5193H114.701C114.782 45.5735 115.117 46.3844 115.705 46.952C116.313 47.4994 117.053 47.7731 117.925 47.7731C119.222 47.7731 120.124 47.2257 120.631 46.131H126.166C125.882 47.246 125.365 48.2495 124.615 49.1415C123.885 50.0335 122.962 50.7329 121.847 51.2398C120.732 51.7466 119.486 52 118.107 52C116.445 52 114.965 51.6452 113.667 50.9357C112.37 50.2261 111.356 49.2125 110.626 47.8947C109.897 46.577 109.532 45.0363 109.532 43.2725C109.532 41.5088 109.886 39.968 110.596 38.6503C111.326 37.3326 112.339 36.3189 113.637 35.6094C114.934 34.8998 116.424 34.545 118.107 34.545C119.749 34.545 121.209 34.8897 122.486 35.5789C123.763 36.2682 124.757 37.2515 125.466 38.5287C126.196 39.8058 126.561 41.2959 126.561 42.9988ZM121.239 41.6304C121.239 40.7384 120.935 40.0288 120.327 39.5018C119.719 38.9747 118.959 38.7111 118.046 38.7111C117.175 38.7111 116.435 38.9645 115.826 39.4713C115.238 39.9782 114.874 40.6979 114.732 41.6304H121.239Z" fill="#E97810"/>
</svg>
