<svg width="688" height="612" viewBox="0 0 688 612" fill="none" xmlns="http://www.w3.org/2000/svg">
<path d="M458.667 305.778V259.333C458.667 242.765 472.098 229.333 488.667 229.333H535.111V305.778H458.667Z" fill="#F0F0F0"/>
<rect x="535.111" y="305.778" width="76.4444" height="76.4444" transform="rotate(-90 535.111 305.778)" fill="#F0F0F0"/>
<path d="M535.111 229.333V182.889C535.111 166.321 548.543 152.889 565.111 152.889H611.556V229.333H535.111Z" fill="#F0F0F0"/>
<path d="M611.556 229.333V152.889H658C674.569 152.889 688 166.321 688 182.889V229.333H611.556Z" fill="#F0F0F0"/>
<path d="M382.222 229.333V182.889C382.222 166.321 395.654 152.889 412.222 152.889H458.667V229.333H382.222Z" fill="#E97810"/>
<path d="M382.222 229.333V182.889C382.222 166.321 395.654 152.889 412.222 152.889H458.667V229.333H382.222Z" fill="url(#paint0_linear_14_1146)"/>
<path d="M412.222 305.778C395.654 305.778 382.222 292.346 382.222 275.778V229.333H458.667V275.778C458.667 292.346 445.235 305.778 428.667 305.778H412.222Z" fill="#E97810"/>
<path d="M412.222 305.778C395.654 305.778 382.222 292.346 382.222 275.778V229.333H458.667V275.778C458.667 292.346 445.235 305.778 428.667 305.778H412.222Z" fill="url(#paint1_linear_14_1146)"/>
<path d="M458.667 152.889V106.444C458.667 89.8759 472.098 76.4445 488.667 76.4445H505.111C521.68 76.4445 535.111 89.8759 535.111 106.444V152.889H458.667Z" fill="#E97810"/>
<path d="M458.667 152.889V106.444C458.667 89.8759 472.098 76.4445 488.667 76.4445H505.111C521.68 76.4445 535.111 89.8759 535.111 106.444V152.889H458.667Z" fill="url(#paint2_linear_14_1146)"/>
<path d="M458.667 229.333V152.889H535.111V199.333C535.111 215.902 521.68 229.333 505.111 229.333H458.667Z" fill="#E97810"/>
<path d="M458.667 229.333V152.889H535.111V199.333C535.111 215.902 521.68 229.333 505.111 229.333H458.667Z" fill="url(#paint3_linear_14_1146)"/>
<rect x="458.667" y="382.222" width="76.4444" height="76.4444" transform="rotate(-90 458.667 382.222)" fill="#F0F0F0"/>
<rect x="535.111" y="382.222" width="76.4444" height="76.4444" transform="rotate(-90 535.111 382.222)" fill="#F0F0F0"/>
<path d="M611.556 382.222V305.778H688V352.222C688 368.791 674.569 382.222 658 382.222H611.556Z" fill="#F0F0F0"/>
<rect x="611.556" y="305.778" width="76.4444" height="76.4444" transform="rotate(-90 611.556 305.778)" fill="#F0F0F0"/>
<rect x="382.222" y="611.556" width="76.4444" height="76.4444" transform="rotate(-90 382.222 611.556)" fill="#F0F0F0"/>
<rect x="458.667" y="611.556" width="76.4444" height="76.4444" transform="rotate(-90 458.667 611.556)" fill="#F0F0F0"/>
<path d="M535.111 611.556V535.111H581.556C598.124 535.111 611.556 548.543 611.556 565.111V581.556C611.556 598.124 598.124 611.556 581.556 611.556H535.111Z" fill="#F0F0F0"/>
<path d="M611.556 458.667V382.222H658C674.569 382.222 688 395.654 688 412.222V428.667C688 445.235 674.569 458.667 658 458.667H611.556Z" fill="#E97810"/>
<path d="M611.556 458.667V382.222H658C674.569 382.222 688 395.654 688 412.222V428.667C688 445.235 674.569 458.667 658 458.667H611.556Z" fill="url(#paint4_linear_14_1146)"/>
<path d="M565.111 535.111C548.543 535.111 535.111 521.68 535.111 505.111V458.667H611.556V505.111C611.556 521.68 598.124 535.111 581.556 535.111H565.111Z" fill="#E97810"/>
<path d="M565.111 535.111C548.543 535.111 535.111 521.68 535.111 505.111V458.667H611.556V505.111C611.556 521.68 598.124 535.111 581.556 535.111H565.111Z" fill="url(#paint5_linear_14_1146)"/>
<path d="M535.111 458.667V412.222C535.111 395.654 548.543 382.222 565.111 382.222H611.556V458.667H535.111Z" fill="#E97810"/>
<path d="M535.111 458.667V412.222C535.111 395.654 548.543 382.222 565.111 382.222H611.556V458.667H535.111Z" fill="url(#paint6_linear_14_1146)"/>
<rect x="382.222" y="76.4446" width="76.4444" height="76.4444" transform="rotate(-90 382.222 76.4446)" fill="#F0F0F0"/>
<rect x="458.667" y="76.4446" width="76.4444" height="76.4444" transform="rotate(-90 458.667 76.4446)" fill="#F0F0F0"/>
<rect x="535.111" y="76.4446" width="76.4444" height="76.4444" transform="rotate(-90 535.111 76.4446)" fill="#F0F0F0"/>
<path d="M611.556 76.4446V0.000137329H658C674.569 0.000137329 688 13.4316 688 30.0001V46.4446C688 63.0131 674.569 76.4446 658 76.4446H611.556Z" fill="#F0F0F0"/>
<path d="M488.667 535.111C472.098 535.111 458.667 521.68 458.667 505.111V458.667H535.111V505.111C535.111 521.68 521.68 535.111 505.111 535.111H488.667Z" fill="#F0F0F0"/>
<rect x="458.667" y="458.667" width="76.4444" height="76.4444" transform="rotate(-90 458.667 458.667)" fill="#F0F0F0"/>
<path d="M412.222 458.667C395.654 458.667 382.222 445.235 382.222 428.667V382.222H458.667V458.667H412.222Z" fill="#F0F0F0"/>
<path d="M382.222 382.222V335.778C382.222 319.209 395.654 305.778 412.222 305.778H458.667V382.222H382.222Z" fill="#F0F0F0"/>
<path d="M305.778 458.444V382H352.222C368.791 382 382.222 395.431 382.222 412V458.444H305.778Z" fill="#E97810"/>
<path d="M305.778 458.444V382H352.222C368.791 382 382.222 395.431 382.222 412V458.444H305.778Z" fill="url(#paint7_linear_14_1146)"/>
<path d="M259.333 458.667C242.765 458.667 229.333 445.235 229.333 428.667V412.222C229.333 395.654 242.765 382.222 259.333 382.222H305.778V458.667H259.333Z" fill="#E97810"/>
<path d="M259.333 458.667C242.765 458.667 229.333 445.235 229.333 428.667V412.222C229.333 395.654 242.765 382.222 259.333 382.222H305.778V458.667H259.333Z" fill="url(#paint8_linear_14_1146)"/>
<path d="M382.222 535.111V458.667H428.667C445.235 458.667 458.667 472.098 458.667 488.667V505.111C458.667 521.68 445.235 535.111 428.667 535.111H382.222Z" fill="#E97810"/>
<path d="M382.222 535.111V458.667H428.667C445.235 458.667 458.667 472.098 458.667 488.667V505.111C458.667 521.68 445.235 535.111 428.667 535.111H382.222Z" fill="url(#paint9_linear_14_1146)"/>
<path d="M335.778 535.111C319.209 535.111 305.778 521.68 305.778 505.111V458.667H382.222V535.111H335.778Z" fill="#E97810"/>
<path d="M335.778 535.111C319.209 535.111 305.778 521.68 305.778 505.111V458.667H382.222V535.111H335.778Z" fill="url(#paint10_linear_14_1146)"/>
<rect x="305.778" y="76.4446" width="76.4444" height="76.4444" transform="rotate(-90 305.778 76.4446)" fill="#F0F0F0"/>
<rect x="229.333" y="76.4446" width="76.4444" height="76.4444" transform="rotate(-90 229.333 76.4446)" fill="#F0F0F0"/>
<rect x="229.333" y="152.889" width="76.4444" height="76.4444" transform="rotate(-90 229.333 152.889)" fill="#F0F0F0"/>
<path d="M152.889 76.4446V30.0002C152.889 13.4316 166.32 0.000137329 182.889 0.000137329H229.333V76.4446H152.889Z" fill="#F0F0F0"/>
<rect x="305.778" y="305.778" width="76.4444" height="76.4444" transform="rotate(-90 305.778 305.778)" fill="#F0F0F0"/>
<rect x="305.778" y="229.333" width="76.4444" height="76.4444" transform="rotate(-90 305.778 229.333)" fill="#F0F0F0"/>
<rect x="305.778" y="152.889" width="76.4444" height="76.4444" transform="rotate(-90 305.778 152.889)" fill="#F0F0F0"/>
<path d="M259.333 305.778C242.765 305.778 229.333 292.346 229.333 275.778V259.333C229.333 242.765 242.765 229.333 259.333 229.333H305.778V305.778H259.333Z" fill="#F0F0F0"/>
<path d="M30 229.333C13.4315 229.333 0 215.902 0 199.333L0 182.889C0 166.321 13.4315 152.889 30 152.889H76.4444V229.333H30Z" fill="#F0F0F0"/>
<path d="M76.4445 229.333V152.889H152.889V199.333C152.889 215.902 139.457 229.333 122.889 229.333H76.4445Z" fill="#F0F0F0"/>
<path d="M76.4445 152.889V106.444C76.4445 89.8759 89.8759 76.4445 106.444 76.4445H152.889V152.889H76.4445Z" fill="#F0F0F0"/>
<rect x="152.889" y="152.889" width="76.4444" height="76.4444" transform="rotate(-90 152.889 152.889)" fill="#F0F0F0"/>
<path d="M106.444 611.556C89.8759 611.556 76.4445 598.124 76.4445 581.556V565.111C76.4445 548.543 89.8759 535.111 106.444 535.111H152.889V611.556H106.444Z" fill="#F0F0F0"/>
<rect x="152.889" y="611.556" width="76.4444" height="76.4444" transform="rotate(-90 152.889 611.556)" fill="#F0F0F0"/>
<rect x="229.333" y="611.556" width="76.4444" height="76.4444" transform="rotate(-90 229.333 611.556)" fill="#F0F0F0"/>
<rect x="305.778" y="611.556" width="76.4444" height="76.4444" transform="rotate(-90 305.778 611.556)" fill="#F0F0F0"/>
<defs>
<linearGradient id="paint0_linear_14_1146" x1="386.814" y1="160.433" x2="458.607" y2="219.078" gradientUnits="userSpaceOnUse">
<stop/>
<stop offset="1" stop-color="#666666"/>
</linearGradient>
<linearGradient id="paint1_linear_14_1146" x1="386.814" y1="236.878" x2="458.607" y2="295.523" gradientUnits="userSpaceOnUse">
<stop/>
<stop offset="1" stop-color="#666666"/>
</linearGradient>
<linearGradient id="paint2_linear_14_1146" x1="463.258" y1="83.9887" x2="535.051" y2="142.634" gradientUnits="userSpaceOnUse">
<stop/>
<stop offset="1" stop-color="#666666"/>
</linearGradient>
<linearGradient id="paint3_linear_14_1146" x1="463.258" y1="160.433" x2="535.051" y2="219.078" gradientUnits="userSpaceOnUse">
<stop/>
<stop offset="1" stop-color="#666666"/>
</linearGradient>
<linearGradient id="paint4_linear_14_1146" x1="616.147" y1="389.767" x2="687.94" y2="448.411" gradientUnits="userSpaceOnUse">
<stop/>
<stop offset="1" stop-color="#666666"/>
</linearGradient>
<linearGradient id="paint5_linear_14_1146" x1="539.702" y1="466.211" x2="611.496" y2="524.856" gradientUnits="userSpaceOnUse">
<stop/>
<stop offset="1" stop-color="#666666"/>
</linearGradient>
<linearGradient id="paint6_linear_14_1146" x1="539.702" y1="389.767" x2="611.496" y2="448.411" gradientUnits="userSpaceOnUse">
<stop/>
<stop offset="1" stop-color="#666666"/>
</linearGradient>
<linearGradient id="paint7_linear_14_1146" x1="310.369" y1="389.544" x2="382.162" y2="448.189" gradientUnits="userSpaceOnUse">
<stop/>
<stop offset="1" stop-color="#666666"/>
</linearGradient>
<linearGradient id="paint8_linear_14_1146" x1="233.925" y1="389.767" x2="305.718" y2="448.411" gradientUnits="userSpaceOnUse">
<stop/>
<stop offset="1" stop-color="#666666"/>
</linearGradient>
<linearGradient id="paint9_linear_14_1146" x1="386.814" y1="466.211" x2="458.607" y2="524.856" gradientUnits="userSpaceOnUse">
<stop/>
<stop offset="1" stop-color="#666666"/>
</linearGradient>
<linearGradient id="paint10_linear_14_1146" x1="310.369" y1="466.211" x2="382.162" y2="524.856" gradientUnits="userSpaceOnUse">
<stop/>
<stop offset="1" stop-color="#666666"/>
</linearGradient>
</defs>
</svg>
