<svg width="54" height="54" viewBox="0 0 54 54" fill="none" xmlns="http://www.w3.org/2000/svg">
<g id="align-horizontal-center">
<rect x="0.00836182" width="54" height="54" rx="16.5971" fill="black"/>
<path id="Subtract" d="M31.8973 37.9998C34.202 37.9998 36.5765 37.9998 37.2924 37.2839C38.0084 36.5679 38.0084 35.4156 38.0084 33.111V25.7777C38.0084 23.4731 38.0084 22.3208 37.2924 21.6049C36.5765 20.8889 34.202 20.8889 31.8973 20.8889V37.9998Z" fill="white" fill-opacity="0.1"/>
<path id="Subtract_2" d="M22.1194 37.9998V20.8889C19.8148 20.8889 17.4403 20.8889 16.7243 21.6049C16.0084 22.3208 16.0084 23.4731 16.0084 25.7777V33.111C16.0084 35.4156 16.0084 36.5679 16.7243 37.2839C17.4403 37.9998 19.8148 37.9998 22.1194 37.9998Z" fill="white" fill-opacity="0.1"/>
<path id="Vector 175" d="M22.1198 37.9997V18.4444C22.1198 17.0944 23.2142 16 24.5642 16H29.4531C30.8031 16 31.8975 17.0944 31.8975 18.4444V37.9997" stroke="white" stroke-width="2.44442" stroke-linejoin="round"/>
<path id="Rectangle 3" d="M16.0084 25.7777C16.0084 23.4731 16.0084 22.3208 16.7243 21.6049C17.4403 20.8889 18.5926 20.8889 20.8972 20.8889H22.1194H31.8971H33.1193C35.4239 20.8889 36.5762 20.8889 37.2922 21.6049C38.0081 22.3208 38.0081 23.4731 38.0081 25.7777V33.111C38.0081 35.4156 38.0081 36.5679 37.2922 37.2839C36.5762 37.9998 35.4239 37.9998 33.1193 37.9998H31.8971H22.1194H20.8972C18.5926 37.9998 17.4403 37.9998 16.7243 37.2839C16.0084 36.5679 16.0084 35.4156 16.0084 33.111V25.7777Z" stroke="white" stroke-width="2.44442" stroke-linejoin="round"/>
</g>
</svg>
