<svg width="54" height="54" viewBox="0 0 54 54" fill="none" xmlns="http://www.w3.org/2000/svg">
<g id="align-horizontal-center">
<rect x="0.00836182" width="54" height="54" rx="16.5971" fill="black"/>
<path id="Rectangle 3" d="M36.5664 18.0189C37.2786 18.7727 37.6346 19.1497 37.8215 19.6196C38.0083 20.0895 38.0083 20.608 38.0083 21.645V28.6823C38.0083 31.1717 38.0083 32.4163 37.235 33.1897C36.4617 33.963 35.217 33.963 32.7277 33.963H28.622C26.1327 33.963 24.888 33.963 24.1147 33.1897C23.3414 32.4163 23.3414 31.1717 23.3414 28.6823L23.3414 19.2807C23.3414 16.7913 23.3414 15.5467 24.1147 14.7733C24.888 14 26.1327 14 28.622 14H30.4942C31.616 14 32.1769 14 32.6772 14.2156C33.1775 14.4312 33.5626 14.839 34.333 15.6545L36.5664 18.0189Z" fill="white" fill-opacity="0.1"/>
<path id="Rectangle 1" d="M36.5664 18.0189C37.2786 18.7727 37.6346 19.1497 37.8215 19.6196C38.0083 20.0895 38.0083 20.608 38.0083 21.645L38.0083 28.6823C38.0083 31.1717 38.0083 32.4163 37.235 33.1897C36.4617 33.963 35.217 33.963 32.7277 33.963H28.622C26.1327 33.963 24.888 33.963 24.1147 33.1897C23.3414 32.4163 23.3414 31.1717 23.3414 28.6823L23.3414 19.2807C23.3414 16.7913 23.3414 15.5467 24.1147 14.7733C24.888 14 26.1327 14 28.622 14H30.4942C31.616 14 32.1769 14 32.6772 14.2156C33.1775 14.4312 33.5626 14.839 34.333 15.6545L36.5664 18.0189Z" stroke="white" stroke-width="2.64033" stroke-linejoin="round"/>
<path id="Rectangle 2" d="M23.3418 19.7036L21.289 19.7036C18.7997 19.7036 17.555 19.7036 16.7817 20.4769C16.0084 21.2503 16.0084 22.4949 16.0084 24.9843L16.0084 34.386C16.0084 36.8753 16.0084 38.1199 16.7817 38.8933C17.555 39.6666 18.7997 39.6666 21.289 39.6666H25.3947C27.884 39.6666 29.1287 39.6666 29.902 38.8933C30.6753 38.1199 30.6753 36.8753 30.6753 34.386L30.6753 33.9629" stroke="white" stroke-width="2.64033" stroke-linejoin="round"/>
</g>
</svg>
