<svg width="54" height="54" viewBox="0 0 54 54" fill="none" xmlns="http://www.w3.org/2000/svg">
<g id="align-horizontal-center">
<rect x="0.00836182" width="54" height="54" rx="16.5971" fill="black"/>
<path id="Vector" d="M34.2483 28.3122C34.2483 29.5395 34.2338 30.7668 34.2531 31.9941C34.2771 34.107 33.3967 35.7578 31.7129 36.9851C30.5775 37.813 29.2785 38.0873 27.8881 37.9766C26.897 37.8996 25.983 37.606 25.1747 37.0381C23.5871 35.9215 22.6056 34.4198 22.5671 32.4513C22.5142 29.4914 22.5479 26.5314 22.5527 23.5714C22.5527 23.2971 22.4757 23.1671 22.2207 23.0516C19.6661 21.9158 19.2331 18.5708 21.3981 16.8092C23.4812 15.115 26.6324 16.2172 27.2194 18.8499C27.5513 20.3371 26.9692 21.858 25.7328 22.7243C25.5019 22.888 25.2469 23.0083 24.9871 23.1094C24.8331 23.1671 24.7706 23.2586 24.7706 23.4318C24.7754 26.3437 24.7561 29.2555 24.7802 32.1674C24.7994 34.4343 26.7335 36.0755 28.9754 35.7723C30.6545 35.5461 31.9967 34.054 32.0641 32.3166C32.0929 31.5946 32.0689 30.8727 32.0737 30.1507C32.0737 29.9727 32.0064 29.9149 31.8332 29.9149C31.2799 29.9245 30.7266 29.9197 30.1734 29.9197C30.106 29.9197 30.0146 29.9534 29.9809 29.8716C29.952 29.7994 30.0146 29.7368 30.0531 29.6791C31.0201 28.2256 31.9871 26.772 32.9589 25.3185C33.3198 24.7795 33.6758 24.2404 34.0414 23.7014C34.0895 23.634 34.1088 23.4992 34.205 23.5233C34.3012 23.5522 34.2579 23.6773 34.2579 23.7591C34.2627 24.9287 34.2627 26.103 34.2627 27.2726C34.2483 27.6239 34.2483 27.9657 34.2483 28.3122ZM23.6592 18.1953C22.851 18.1953 22.1871 18.8547 22.1871 19.6537C22.1871 20.4526 22.8365 21.1168 23.6304 21.1216C24.4482 21.1264 25.1122 20.4767 25.117 19.6729C25.1218 18.874 24.4579 18.1953 23.6592 18.1953Z" fill="white"/>
</g>
</svg>
