<svg width="78" height="78" viewBox="0 0 78 78" fill="none" xmlns="http://www.w3.org/2000/svg">
<g id="folder-open">
<rect width="78" height="78" rx="23.9736" fill="url(#paint0_linear_161_29)"/>
<g id="icon">
<path id="path" fill-rule="evenodd" clip-rule="evenodd" d="M28.6448 33.982C28.6448 30.1259 31.7707 27 35.6268 27C39.4828 27 42.6087 30.1259 42.6087 33.982C42.6087 37.838 39.4828 40.9639 35.6268 40.9639C31.7707 40.9639 28.6448 37.838 28.6448 33.982Z" fill="white"/>
<path id="path_2" d="M43.1789 37.9589C43.1083 38.0926 43.1382 38.2594 43.2598 38.3493C44.1621 39.0173 45.2788 39.4124 46.4877 39.4124C49.4868 39.4124 51.9181 36.9811 51.9181 33.9819C51.9181 30.9828 49.4868 28.5515 46.4877 28.5515C45.2788 28.5515 44.1621 28.9465 43.2598 29.6145C43.1382 29.7045 43.1083 29.8712 43.1789 30.005C43.8056 31.1926 44.1603 32.5458 44.1603 33.9819C44.1603 35.4181 43.8056 36.7713 43.1789 37.9589Z" fill="white"/>
<path id="path_3" fill-rule="evenodd" clip-rule="evenodd" d="M28.088 43.6004C30.0001 42.7704 32.5089 42.5154 35.6267 42.5154C38.7472 42.5154 41.2578 42.7709 43.1706 43.6026C45.2542 44.5087 46.5205 46.0518 47.1843 48.2306C47.4953 49.2518 46.7282 50.2731 45.6712 50.2731H25.5852C24.5268 50.2731 23.7581 49.2504 24.0702 48.2273C24.7348 46.048 26.0031 44.5053 28.088 43.6004Z" fill="white"/>
<path id="path_4" d="M43.879 41.0205C43.2367 41.0604 43.199 41.9234 43.7892 42.18V42.18C45.6667 42.9964 47.0056 44.2601 47.8926 45.8997C48.2912 46.6365 49.0204 47.1702 49.8581 47.1702H53.3898C54.487 47.1702 55.2876 46.0799 54.9016 45.0149C54.8794 44.9536 54.8563 44.8927 54.8324 44.8323C54.3011 43.4908 53.3905 42.5033 52.0422 41.8738C50.7763 41.2829 49.1916 41.039 47.3245 40.9653L47.2939 40.964H47.2633C46.1636 40.964 45.0149 40.9499 43.879 41.0205Z" fill="white"/>
</g>
</g>
<defs>
<linearGradient id="paint0_linear_161_29" x1="70.3022" y1="4.68484" x2="10.464" y2="77.9388" gradientUnits="userSpaceOnUse">
<stop stop-color="#EA590D"/>
<stop offset="1" stop-color="#FB913B"/>
</linearGradient>
</defs>
</svg>
