<svg width="78" height="78" viewBox="0 0 78 78" fill="none" xmlns="http://www.w3.org/2000/svg">
<rect width="78" height="78" rx="23.9736" fill="url(#paint0_linear_14_1206)"/>
<path fill-rule="evenodd" clip-rule="evenodd" d="M24 50.8C24 49.944 24.694 49.25 25.55 49.25H53.45C54.306 49.25 55 49.944 55 50.8C55 51.656 54.306 52.35 53.45 52.35H25.55C24.694 52.35 24 51.656 24 50.8Z" fill="white"/>
<path fill-rule="evenodd" clip-rule="evenodd" d="M53.45 33.648C53.45 33.6819 53.45 33.7159 53.45 33.75L53.45 40.052C53.4501 41.4261 53.4501 42.61 53.3354 43.5581C53.2125 44.5741 52.9352 45.5481 52.2242 46.338C51.5133 47.128 50.6367 47.4361 49.7223 47.5727C48.869 47.7001 47.8035 47.7001 46.5668 47.7L32.4332 47.7C31.1965 47.7001 30.131 47.7001 29.2777 47.5727C28.3633 47.4361 27.4868 47.128 26.7758 46.338C26.0648 45.5481 25.7876 44.5741 25.6646 43.5581C25.5499 42.61 25.5499 41.4261 25.55 40.052L25.55 33.648C25.5499 32.2739 25.5499 31.09 25.6646 30.1419C25.7876 29.1259 26.0648 28.1519 26.7758 27.362C27.4868 26.572 28.3633 26.2639 29.2778 26.1273C30.131 25.9999 31.1965 25.9999 32.4332 26L46.475 26C46.5057 26 46.5363 26 46.5668 26C47.8035 25.9999 48.869 25.9999 49.7223 26.1273C50.6367 26.2639 51.5133 26.572 52.2242 27.362C52.9352 28.1519 53.2125 29.1259 53.3354 30.1419C53.4501 31.09 53.4501 32.2739 53.45 33.648Z" fill="white"/>
<defs>
<linearGradient id="paint0_linear_14_1206" x1="70.3022" y1="4.68484" x2="10.464" y2="77.9388" gradientUnits="userSpaceOnUse">
<stop stop-color="#EA590D"/>
<stop offset="1" stop-color="#FB913B"/>
</linearGradient>
</defs>
</svg>
