<svg width="78" height="78" viewBox="0 0 78 78" fill="none" xmlns="http://www.w3.org/2000/svg">
<rect width="78" height="78" rx="23.9736" fill="url(#paint0_linear_15_1212)"/>
<path fill-rule="evenodd" clip-rule="evenodd" d="M28.7349 25.332C29.9994 25.051 31.5054 24.9597 33.247 24.9597H35.7705C37.3353 24.9597 38.7965 25.7418 39.6645 27.0437L40.9321 28.945C41.2214 29.379 41.7085 29.6397 42.2301 29.6397H50.1165C52.6086 29.6397 54.6286 31.6071 54.6048 34.1406C54.5765 37.1577 54.6003 40.1758 54.6003 43.193C54.6003 44.9346 54.509 46.4406 54.228 47.7052C53.943 48.9874 53.4427 50.1149 52.5591 50.9985C51.6755 51.8821 50.548 52.3824 49.2658 52.6674C48.0012 52.9484 46.4952 53.0397 44.7536 53.0397H33.247C31.5054 53.0397 29.9994 52.9484 28.7349 52.6674C27.4526 52.3824 26.3251 51.8821 25.4415 50.9985C24.558 50.1149 24.0576 48.9874 23.7726 47.7052C23.4916 46.4406 23.4003 44.9346 23.4003 43.193V34.8064C23.4003 33.0648 23.4916 31.5588 23.7726 30.2943C24.0576 29.012 24.558 27.8845 25.4415 27.0009C26.3251 26.1174 27.4526 25.617 28.7349 25.332ZM33.0585 41.8911C32.852 42.8201 32.7605 44.0559 32.7605 45.7264V48.3596C32.7605 49.2212 32.062 49.9196 31.2005 49.9196C30.3389 49.9196 29.6405 49.2212 29.6405 48.3596V45.7264C29.6405 43.9847 29.7317 42.4787 30.0128 41.2142C30.2977 39.932 30.7981 38.8044 31.6817 37.9209C32.5653 37.0373 33.6928 36.5369 34.975 36.252C36.2395 35.9709 37.7455 35.8796 39.4872 35.8796H47.8737H49.9205C50.782 35.8796 51.4805 36.5781 51.4805 37.4396C51.4805 38.3012 50.782 38.9996 49.9205 38.9996H47.8737H39.4872C37.8168 38.9996 36.5809 39.0912 35.6519 39.2976C34.7406 39.5002 34.223 39.792 33.8879 40.127C33.5528 40.4621 33.261 40.9798 33.0585 41.8911Z" fill="white"/>
<defs>
<linearGradient id="paint0_linear_15_1212" x1="70.3022" y1="4.68484" x2="10.464" y2="77.9388" gradientUnits="userSpaceOnUse">
<stop stop-color="#EA590D"/>
<stop offset="1" stop-color="#FB913B"/>
</linearGradient>
</defs>
</svg>
