<svg width="78" height="78" viewBox="0 0 78 78" fill="none" xmlns="http://www.w3.org/2000/svg">
<rect width="78" height="78" rx="23.9736" fill="url(#paint0_linear_15_1217)"/>
<path fill-rule="evenodd" clip-rule="evenodd" d="M30.75 24C28.1819 24 26.1 26.0819 26.1 28.65V30.2H24.55C23.694 30.2 23 30.894 23 31.75C23 32.606 23.694 33.3 24.55 33.3H26.1V37.95H24.55C23.694 37.95 23 38.644 23 39.5C23 40.356 23.694 41.05 24.55 41.05H26.1V45.7H24.55C23.694 45.7 23 46.394 23 47.25C23 48.106 23.694 48.8 24.55 48.8H26.1V50.35C26.1 52.9181 28.1819 55 30.75 55H49.35C51.9181 55 54 52.9181 54 50.35V28.65C54 26.0819 51.9181 24 49.35 24H30.75ZM33.85 39.5C33.85 36.0758 36.6258 33.3 40.05 33.3C43.4742 33.3 46.25 36.0758 46.25 39.5C46.25 42.9242 43.4742 45.7 40.05 45.7C36.6258 45.7 33.85 42.9242 33.85 39.5ZM35.9228 51.4066C36.5214 50.764 37.5933 50.35 40.036 50.35C42.5393 50.35 43.6008 50.7546 44.1887 51.3967C44.7668 52.0281 45.7473 52.0713 46.3786 51.4932C47.01 50.9151 47.0532 49.9347 46.4751 49.3033C44.9354 47.6217 42.6587 47.25 40.036 47.25C37.4301 47.25 35.1875 47.648 33.6546 49.2934C33.071 49.9198 33.1058 50.9006 33.7321 51.4841C34.3585 52.0676 35.3393 52.0329 35.9228 51.4066Z" fill="white"/>
<path fill-rule="evenodd" clip-rule="evenodd" d="M40.05 36.3999C38.3379 36.3999 36.95 37.7878 36.95 39.4999C36.95 41.212 38.3379 42.5999 40.05 42.5999C41.7621 42.5999 43.15 41.212 43.15 39.4999C43.15 37.7878 41.7621 36.3999 40.05 36.3999Z" fill="white"/>
<defs>
<linearGradient id="paint0_linear_15_1217" x1="70.3022" y1="4.68484" x2="10.464" y2="77.9388" gradientUnits="userSpaceOnUse">
<stop stop-color="#EA590D"/>
<stop offset="1" stop-color="#FB913B"/>
</linearGradient>
</defs>
</svg>
