<svg width="19" height="18" viewBox="0 0 19 18" fill="none" xmlns="http://www.w3.org/2000/svg">
<g clip-path="url(#clip0_210_331)">
<path fill-rule="evenodd" clip-rule="evenodd" d="M5.78955 0.054C6.74927 0.00981817 7.05527 0 9.5 0C11.9447 0 12.2507 0.0106364 13.2096 0.054C14.1685 0.0973636 14.8231 0.250364 15.3958 0.472091C15.9955 0.698727 16.5396 1.053 16.9896 1.51118C17.4478 1.96036 17.8013 2.50364 18.0271 3.10418C18.2496 3.67691 18.4018 4.33145 18.446 5.28873C18.4902 6.25009 18.5 6.55609 18.5 9C18.5 11.4447 18.4894 11.7507 18.446 12.7105C18.4026 13.6677 18.2496 14.3223 18.0271 14.895C17.8013 15.4956 17.4472 16.0398 16.9896 16.4896C16.5396 16.9478 15.9955 17.3013 15.3958 17.5271C14.8231 17.7496 14.1685 17.9018 13.2113 17.946C12.2507 17.9902 11.9447 18 9.5 18C7.05527 18 6.74927 17.9894 5.78955 17.946C4.83227 17.9026 4.17773 17.7496 3.605 17.5271C3.00439 17.3012 2.46022 16.9472 2.01036 16.4896C1.55249 16.0402 1.19817 15.4963 0.972091 14.8958C0.750364 14.3231 0.598182 13.6685 0.554 12.7113C0.509818 11.7499 0.5 11.4439 0.5 9C0.5 6.55527 0.510636 6.24927 0.554 5.29036C0.597364 4.33145 0.750364 3.67691 0.972091 3.10418C1.1985 2.5037 1.5531 1.9598 2.01118 1.51036C2.4604 1.05259 3.00402 0.698272 3.60418 0.472091C4.17691 0.250364 4.83145 0.0981818 5.78873 0.054H5.78955ZM13.1368 1.674C12.1877 1.63064 11.903 1.62164 9.5 1.62164C7.097 1.62164 6.81227 1.63064 5.86318 1.674C4.98527 1.71409 4.50909 1.86055 4.19164 1.98409C3.77191 2.14773 3.47164 2.34164 3.15664 2.65664C2.85804 2.94713 2.62824 3.30078 2.48409 3.69164C2.36055 4.00909 2.21409 4.48527 2.174 5.36318C2.13064 6.31227 2.12164 6.597 2.12164 9C2.12164 11.403 2.13064 11.6877 2.174 12.6368C2.21409 13.5147 2.36055 13.9909 2.48409 14.3084C2.62809 14.6986 2.858 15.0529 3.15664 15.3434C3.44709 15.642 3.80136 15.8719 4.19164 16.0159C4.50909 16.1395 4.98527 16.2859 5.86318 16.326C6.81227 16.3694 7.09618 16.3784 9.5 16.3784C11.9038 16.3784 12.1877 16.3694 13.1368 16.326C14.0147 16.2859 14.4909 16.1395 14.8084 16.0159C15.2281 15.8523 15.5284 15.6584 15.8434 15.3434C16.142 15.0529 16.3719 14.6986 16.5159 14.3084C16.6395 13.9909 16.7859 13.5147 16.826 12.6368C16.8694 11.6877 16.8784 11.403 16.8784 9C16.8784 6.597 16.8694 6.31227 16.826 5.36318C16.7859 4.48527 16.6395 4.00909 16.5159 3.69164C16.3523 3.27191 16.1584 2.97164 15.8434 2.65664C15.5528 2.35806 15.1992 2.12826 14.8084 1.98409C14.4909 1.86055 14.0147 1.71409 13.1368 1.674ZM8.35045 11.7745C8.99245 12.0417 9.70731 12.0778 10.3729 11.8765C11.0386 11.6752 11.6137 11.2491 12 10.6709C12.3864 10.0927 12.56 9.39835 12.4913 8.70636C12.4226 8.01437 12.1157 7.3677 11.6232 6.87682C11.3092 6.56303 10.9295 6.32276 10.5115 6.1733C10.0936 6.02385 9.64762 5.96893 9.20586 6.0125C8.7641 6.05608 8.33749 6.19705 7.95675 6.42529C7.57601 6.65352 7.25061 6.96334 7.00397 7.33242C6.75734 7.70151 6.59561 8.12069 6.53042 8.55979C6.46524 8.99888 6.49821 9.44697 6.62699 9.87179C6.75576 10.2966 6.97712 10.6876 7.27514 11.0166C7.57315 11.3456 7.9404 11.6044 8.35045 11.7745ZM6.22891 5.72891C6.65847 5.29934 7.16844 4.95859 7.7297 4.72611C8.29095 4.49363 8.8925 4.37398 9.5 4.37398C10.1075 4.37398 10.709 4.49363 11.2703 4.72611C11.8316 4.95859 12.3415 5.29934 12.7711 5.72891C13.2007 6.15847 13.5414 6.66844 13.7739 7.2297C14.0064 7.79095 14.126 8.3925 14.126 9C14.126 9.6075 14.0064 10.209 13.7739 10.7703C13.5414 11.3316 13.2007 11.8415 12.7711 12.2711C11.9035 13.1386 10.7269 13.626 9.5 13.626C8.2731 13.626 7.09646 13.1386 6.22891 12.2711C5.36136 11.4035 4.87398 10.2269 4.87398 9C4.87398 7.7731 5.36136 6.59646 6.22891 5.72891ZM15.152 5.06291C15.2585 4.96249 15.3437 4.84174 15.4026 4.7078C15.4616 4.57385 15.493 4.42945 15.4952 4.28312C15.4973 4.1368 15.47 3.99154 15.415 3.85594C15.36 3.72033 15.2784 3.59715 15.1749 3.49367C15.0714 3.39019 14.9482 3.30853 14.8126 3.25351C14.677 3.1985 14.5317 3.17125 14.3854 3.17339C14.2391 3.17552 14.0947 3.20699 13.9607 3.26593C13.8268 3.32488 13.7061 3.4101 13.6056 3.51655C13.4103 3.72357 13.3034 3.99855 13.3076 4.28312C13.3117 4.5677 13.4266 4.83945 13.6279 5.04069C13.8291 5.24193 14.1008 5.35682 14.3854 5.36097C14.67 5.36512 14.945 5.2582 15.152 5.06291Z" fill="black"/>
</g>
<defs>
<clipPath id="clip0_210_331">
<rect width="18" height="18" fill="white" transform="translate(0.5)"/>
</clipPath>
</defs>
</svg>
