<svg width="32" height="32" viewBox="0 0 32 32" fill="none" xmlns="http://www.w3.org/2000/svg">
<g clip-path="url(#clip0_53_286)">
<circle cx="16" cy="16" r="16" fill="#2A3636"/>
<path d="M16.0031 11.3784C13.4506 11.3784 11.3853 13.4472 11.3853 15.9963C11.3853 18.5477 13.454 20.6142 16.0031 20.6142C18.5556 20.6142 20.621 18.5454 20.621 15.9963C20.621 13.4438 18.5523 11.3784 16.0031 11.3784ZM16.0031 18.9943C14.3472 18.9943 13.0052 17.6522 13.0052 15.9963C13.0052 14.3404 14.3472 12.9983 16.0031 12.9983C17.6591 12.9983 19.0011 14.3393 19.0011 15.9963C19.0011 17.6522 17.6591 18.9943 16.0031 18.9943Z" fill="#EEF4F4"/>
<path d="M19.7109 7.05696C18.055 6.97934 13.9535 6.98271 12.2953 7.05696C10.8385 7.12558 9.55383 7.47769 8.51888 8.51263C6.78759 10.2439 7.00921 12.5759 7.00921 15.9969C7.00921 19.4977 6.81459 21.7768 8.51888 23.4811C10.2558 25.218 12.6227 24.9908 16.0031 24.9908C20.1463 24.9908 24.6798 25.3879 24.943 19.7047C25.0207 18.0476 25.0173 13.9472 24.943 12.2902C24.7946 9.13023 23.0981 7.21445 19.7109 7.05696ZM22.3309 22.3359C21.1959 23.471 19.6221 23.3698 15.9795 23.3698C12.2301 23.3698 10.726 23.4249 9.62807 22.3247C8.36364 21.067 8.59313 19.0466 8.59313 15.9856C8.59313 8.50476 9.02173 8.60038 15.9683 8.60038L16.002 8.62288C23.4514 8.62288 23.3749 9.10548 23.3749 15.9969C23.376 19.7024 23.4469 21.2155 22.3309 22.3359Z" fill="#EEF4F4"/>
<path d="M20.8044 12.2763C21.4002 12.2763 21.8832 11.7933 21.8832 11.1975C21.8832 10.6017 21.4002 10.1187 20.8044 10.1187C20.2086 10.1187 19.7256 10.6017 19.7256 11.1975C19.7256 11.7933 20.2086 12.2763 20.8044 12.2763Z" fill="#EEF4F4"/>
</g>
<defs>
<clipPath id="clip0_53_286">
<rect width="32" height="32" fill="white"/>
</clipPath>
</defs>
</svg>
