<svg width="54" height="54" viewBox="0 0 54 54" fill="none" xmlns="http://www.w3.org/2000/svg">
<g id="Frame">
<g clip-path="url(#clip0_321_428)">
<g id="Group">
<g id="Group_2">
<path id="Vector" d="M53.9171 53.9789C36.0809 53.9789 18.2447 53.9789 0.408463 53.986C0.120669 53.986 0.0645142 53.9298 0.0645142 53.642C0.0785529 35.8128 0.0785529 17.9766 0.0785529 0.140381C17.8305 0.140381 35.5825 0.140381 53.3415 0.140381C53.4679 0.140381 53.6012 0.140381 53.7276 0.140381C53.8539 0.140381 53.9241 0.196536 53.9241 0.329904C53.9241 0.456252 53.9241 0.58962 53.9241 0.715969C53.9241 18.2925 53.9241 35.869 53.9241 53.4525C53.9241 53.628 53.9171 53.8035 53.9171 53.9789ZM41.0927 24.5327C40.4399 24.5397 39.7801 24.5748 39.1413 24.7222C36.5021 25.3048 34.5507 26.7368 33.8768 29.4322C33.1889 32.1838 33.7645 34.6827 35.9616 36.6481C36.9022 37.4904 38.0042 38.0871 39.1554 38.5995C40.1241 39.0347 41.1068 39.4488 42.0754 39.884C42.6721 40.1508 43.2617 40.4456 43.7671 40.8738C44.5814 41.5617 44.8691 42.6356 44.4761 43.5622C44.1532 44.3203 43.5425 44.7415 42.7914 44.9871C40.7698 45.668 38.4956 45.0082 37.0776 43.3306C36.832 43.0357 36.5933 42.7269 36.3968 42.397C36.2634 42.1794 36.1581 42.1864 35.9616 42.3057C34.7823 43.0006 33.596 43.6885 32.4098 44.3624C32.1711 44.4958 32.136 44.6011 32.2764 44.8467C33.1468 46.384 34.3331 47.5983 35.8914 48.4266C38.299 49.7112 40.8751 49.9428 43.5284 49.5076C45.0797 49.2549 46.4766 48.6372 47.6769 47.5913C50.4215 45.1977 50.5197 39.6594 47.2487 37.1114C45.9712 36.1146 44.5463 35.3987 43.0792 34.7529C42.1456 34.3458 41.198 33.9808 40.2995 33.4964C39.8994 33.2788 39.5134 33.0331 39.1975 32.6962C38.0744 31.4748 38.6149 29.4884 40.2153 29.0672C41.4718 28.7373 42.6019 29.011 43.5144 29.9938C43.7671 30.2675 43.9847 30.5764 44.1742 30.8993C44.2585 31.0537 44.3287 31.0958 44.4971 30.9905C45.6764 30.2254 46.8556 29.4673 48.0419 28.7162C48.1893 28.625 48.2244 28.5478 48.1261 28.3793C47.0943 26.6385 45.6834 25.382 43.6899 24.8486C42.8195 24.6239 41.9631 24.5467 41.0927 24.5327ZM29.3563 34.0299C29.3563 31.0818 29.3493 28.1336 29.3634 25.1925C29.3634 24.9047 29.2861 24.8205 28.9913 24.8205C27.5664 24.8345 26.1344 24.8415 24.7095 24.8205C24.3656 24.8135 24.2884 24.9117 24.2884 25.2487C24.3024 30.7659 24.2954 36.2901 24.2954 41.8074C24.2954 42.2496 24.2884 42.6988 24.2111 43.134C24.0708 43.8991 23.783 44.573 23.0249 44.931C21.7965 45.5136 20.2592 45.1907 19.3748 44.1659C19.0168 43.7587 18.736 43.3025 18.4833 42.8252C18.378 42.6356 18.3008 42.6076 18.1113 42.7269C16.897 43.4709 15.6756 44.208 14.4472 44.945C14.2647 45.0503 14.2366 45.1416 14.3349 45.3311C15.2614 47.128 16.6162 48.4617 18.5395 49.1566C20.5611 49.8866 22.6248 49.9077 24.6744 49.3111C26.9066 48.6583 28.3315 47.1702 28.9843 44.945C29.2721 43.9693 29.3563 42.9726 29.3563 41.9618C29.3563 39.3155 29.3563 36.6762 29.3563 34.0299Z" fill="black"/>
<path id="Vector_2" d="M53.9171 53.979C53.9171 53.8035 53.9241 53.628 53.9241 53.4525C53.9241 35.876 53.9241 18.2996 53.9241 0.716034C53.9241 0.589685 53.9241 0.456317 53.9241 0.329968C53.9241 0.1966 53.8609 0.140445 53.7276 0.140445C53.6012 0.140445 53.4679 0.140445 53.3415 0.140445C35.5825 0.140445 17.8305 0.140445 0.0785415 0.140445C0.0925802 0.119387 0.0434447 0.0702518 0.113638 0.0702518C0.20489 0.0702518 0.303161 0.0702518 0.394413 0.0702518C18.1534 0.0702518 35.9124 0.0702518 53.6714 0.0632324C53.9311 0.0632324 53.9943 0.119387 53.9943 0.386123C53.9873 18.1451 53.9873 35.9041 53.9803 53.6631C53.9803 53.7684 54.0645 53.9018 53.9171 53.979Z" fill="black"/>
<path id="Vector_3" d="M41.0927 24.5327C41.9631 24.5468 42.8195 24.624 43.6618 24.8486C45.6553 25.3821 47.0662 26.6385 48.098 28.3793C48.1963 28.5408 48.1612 28.618 48.0138 28.7163C46.8275 29.4673 45.6483 30.2254 44.469 30.9905C44.3006 31.0958 44.2304 31.0537 44.1461 30.8993C43.9636 30.5694 43.746 30.2675 43.4863 29.9938C42.5738 29.0111 41.4437 28.7373 40.1872 29.0672C38.5868 29.4884 38.0463 31.4749 39.1694 32.6962C39.4853 33.0332 39.8643 33.2788 40.2714 33.4964C41.1699 33.9808 42.1175 34.3458 43.0511 34.7529C44.5182 35.3987 45.9431 36.1147 47.2206 37.1114C50.4916 39.6595 50.3934 45.1977 47.6488 47.5913C46.4485 48.6372 45.0516 49.2549 43.5003 49.5076C40.847 49.9428 38.2709 49.7112 35.8633 48.4266C34.305 47.5984 33.1187 46.384 32.2483 44.8468C32.1149 44.6081 32.15 44.4958 32.3817 44.3624C33.575 43.6886 34.7542 43.0007 35.9335 42.3058C36.137 42.1864 36.2353 42.1794 36.3687 42.397C36.5722 42.7269 36.8039 43.0358 37.0496 43.3306C38.4745 45.0082 40.7417 45.661 42.7633 44.9872C43.5144 44.7345 44.1321 44.3133 44.448 43.5622C44.841 42.6357 44.5533 41.5547 43.739 40.8738C43.2336 40.4456 42.644 40.1508 42.0473 39.8841C41.0787 39.4489 40.096 39.0347 39.1273 38.5995C37.9831 38.0871 36.8811 37.4905 35.9335 36.6481C33.7364 34.6827 33.1608 32.1838 33.8487 29.4322C34.5226 26.7368 36.474 25.3048 39.1132 24.7222C39.7801 24.5748 40.4329 24.5327 41.0927 24.5327Z" fill="white"/>
<path id="Vector_4" d="M29.3563 34.0301C29.3563 36.6764 29.3563 39.3157 29.3563 41.962C29.3563 42.9727 29.2721 43.9695 28.9843 44.9452C28.3315 47.1703 26.9066 48.6584 24.6744 49.3112C22.6248 49.9079 20.5611 49.8868 18.5395 49.1568C16.6162 48.4619 15.2685 47.1282 14.3349 45.3313C14.2366 45.1417 14.2647 45.0505 14.4472 44.9452C15.6756 44.2152 16.8899 43.4781 18.1113 42.7271C18.3008 42.6077 18.378 42.6358 18.4833 42.8253C18.736 43.2956 19.0238 43.7589 19.3748 44.166C20.2592 45.1838 21.8035 45.5067 23.0249 44.9311C23.783 44.5732 24.0707 43.8993 24.2111 43.1342C24.2954 42.692 24.2954 42.2497 24.2954 41.8075C24.2954 36.2903 24.2954 30.7661 24.2884 25.2488C24.2884 24.9119 24.3656 24.8136 24.7095 24.8207C26.1344 24.8417 27.5594 24.8347 28.9913 24.8207C29.2861 24.8207 29.3634 24.9049 29.3634 25.1927C29.3563 28.1408 29.3563 31.0819 29.3563 34.0301Z" fill="white"/>
</g>
</g>
</g>
</g>
<defs>
<clipPath id="clip0_321_428">
<rect x="0.00836182" width="54" height="53.986" rx="16" fill="white"/>
</clipPath>
</defs>
</svg>
