<svg width="54" height="54" viewBox="0 0 54 54" fill="none" xmlns="http://www.w3.org/2000/svg">
<g id="align-horizontal-center">
<rect x="0.00836182" width="54" height="54" rx="16.5971" fill="black"/>
<path id="path" d="M28.2306 30.4446H31.8973" stroke="white" stroke-width="2.44444" stroke-linecap="round"/>
<path id="path_2" d="M22.1194 30.4446L25.175 27.389V27.389C25.5125 27.0515 25.5125 26.5043 25.175 26.1668V26.1668L22.1194 23.1112" stroke="white" stroke-width="2.44444" stroke-linecap="round" stroke-linejoin="round"/>
<path id="path_3" d="M16.0084 21.8889C16.0084 19.5842 16.0084 18.4319 16.7243 17.716C17.4403 17 18.5926 17 20.8973 17H27.0084H33.1195C35.4241 17 36.5764 17 37.2924 17.716C38.0084 18.4319 38.0084 19.5842 38.0084 21.8889V26.7778V31.6667C38.0084 33.9713 38.0084 35.1236 37.2924 35.8396C36.5764 36.5556 35.4241 36.5556 33.1195 36.5556H27.0084H20.8973C18.5926 36.5556 17.4403 36.5556 16.7243 35.8396C16.0084 35.1236 16.0084 33.9713 16.0084 31.6667V26.7778V21.8889Z" stroke="white" stroke-width="2.44444" stroke-linejoin="round"/>
</g>
</svg>
