<svg width="51" height="51" viewBox="0 0 51 51" fill="none" xmlns="http://www.w3.org/2000/svg">
<g id="Group 1">
<path id="Vector" d="M25.5091 0C31.7562 0.0738038 37.3132 2.06651 42.0972 6.15255C45.8627 9.36972 48.4637 13.3786 49.9201 18.1423C50.4343 19.823 50.7528 21.544 50.9021 23.2951C51.0315 24.8215 51.0381 26.3446 50.8888 27.8676C50.3813 33.1144 48.4371 37.754 45.1029 41.7998C45.083 41.8266 45.0565 41.8467 45.0399 41.8769C44.9702 41.9943 44.9006 41.9675 44.8176 41.8903C44.6451 41.7327 44.4958 41.5515 44.3598 41.3603C43.4441 40.062 42.7143 38.6597 42.0574 37.2172C41.2611 35.4627 40.6275 33.6478 40.2028 31.7625C39.8711 30.2931 39.682 28.8069 39.6388 27.2973C39.6223 26.6666 39.7881 26.1098 40.0867 25.573C40.5645 24.7175 41.1815 23.9627 41.8152 23.2213C42.7806 22.0942 43.8223 21.0307 44.7944 19.9069C45.3518 19.2628 45.8992 18.612 46.3072 17.8538C46.6058 17.3003 46.775 16.7098 46.7186 16.0691C46.6622 15.4585 46.294 14.9587 45.7731 14.8178C45.3285 14.697 44.9337 14.8312 44.5754 15.0962C44.2769 15.3176 44.0612 15.6162 43.8787 15.9383C43.5403 16.5287 43.2086 17.1225 42.7806 17.6525C42.2034 18.3704 41.4801 18.9273 40.7668 19.4909C40.173 19.9572 39.5327 20.3598 38.8327 20.6483C38.6004 20.7422 38.3649 20.8127 38.1161 20.8462C37.5322 20.9267 37.1904 20.5745 37.2833 19.9807C37.3563 19.5211 37.5521 19.1085 37.7644 18.7025C38.2189 17.8337 38.69 16.9749 39.1512 16.1093C39.3104 15.8108 39.4232 15.4954 39.4464 15.1566C39.5061 14.3716 38.9853 13.7879 38.1559 13.6839C37.3729 13.5866 36.6563 13.7778 36.0127 14.2106C34.679 15.1063 33.8297 16.3576 33.4449 17.9242C33.3321 18.3805 33.4283 18.8367 33.5908 19.2728C33.7169 19.6117 33.843 19.9505 33.9226 20.3061C34.0951 21.0911 33.8463 21.7184 33.279 22.2485C32.4264 23.0435 31.4112 23.5266 30.3097 23.8487C29.1784 24.1808 28.0305 24.1774 26.8727 24.06C26.239 23.9963 25.6153 23.8722 25.0314 23.6071C24.2584 23.2549 23.7342 22.6779 23.4589 21.866C23.0574 20.6885 22.6759 19.5043 22.2048 18.3537C21.9958 17.8471 21.7569 17.3573 21.5181 16.8675C21.1034 16.0154 20.4332 15.3948 19.7133 14.8211C19.3782 14.5561 19.063 14.2676 18.7943 13.9288C18.426 13.4625 18.3464 12.9458 18.5189 12.3823C18.7346 11.6643 19.136 11.0504 19.5673 10.4533C20.0085 9.84274 20.4232 9.21541 20.6588 8.49079C20.7749 8.13854 20.8512 7.77959 20.7915 7.40386C20.682 6.70943 20.2341 6.31358 19.5374 6.26661C18.9237 6.22635 18.3497 6.37061 17.8057 6.63563C16.8402 7.10193 16.0341 7.77623 15.3971 8.64175C14.707 9.57436 14.5677 10.6277 14.79 11.7482C14.8497 12.0434 14.916 12.3386 14.9724 12.6339C15.0819 13.2109 14.9459 13.7309 14.6108 14.2005C14.3122 14.6199 13.9506 14.9822 13.5857 15.3378C13.1809 15.737 12.7894 16.1462 12.5174 16.6528C12.1856 17.2701 12.0264 17.941 11.9202 18.6287C11.7444 19.7593 11.7079 20.8965 11.6681 22.0371C11.6216 23.3857 11.3761 24.6974 10.9681 25.9823C10.7159 26.7807 10.4903 27.5858 10.4173 28.4279C10.3444 29.29 10.3676 30.1455 10.5069 31.0009C10.6595 31.9335 10.9548 32.8326 11.1605 33.7518C11.3927 34.7817 11.5287 35.8284 11.6216 36.8817C11.7013 37.7909 11.7477 38.7 11.7444 39.6125C11.7344 41.3469 11.5354 43.0544 11.1439 44.7452C11.051 45.1478 10.9747 45.5537 10.8254 45.9395C10.706 46.2515 10.7027 46.2515 10.4439 46.0602C6.42626 43.0846 3.48686 39.2636 1.67213 34.5703C0.982066 32.7856 0.514283 30.9372 0.248874 29.0384C0.0133239 27.351 -0.0596635 25.6535 0.0498176 23.9527C0.374943 18.9307 2.00721 14.385 4.98974 10.356C8.06516 6.20287 12.0363 3.26078 16.8601 1.49956C18.5123 0.89571 20.2109 0.483079 21.9494 0.238185C23.1304 0.0838681 24.3148 0.00335472 25.5091 0Z" fill="#F04635"/>
<path id="Vector_2" d="M21.873 38.7571C21.873 37.3313 21.8564 35.9056 21.8763 34.4798C21.8962 33.1111 21.9692 31.7424 22.2678 30.4005C22.3839 29.8771 22.5465 29.3672 22.792 28.8875C23.2664 27.9582 24.0228 27.4248 25.0479 27.3946C26.7167 27.3443 28.2859 27.7335 29.6594 28.7365C30.5817 29.4075 31.1059 30.3602 31.4244 31.4438C31.6566 32.2388 31.7628 33.0608 31.8855 33.876C32.0348 34.8757 32.1841 35.8754 32.3334 36.8751C32.5258 38.1767 32.7183 39.4817 32.8875 40.79C33.0301 41.887 33.1661 42.984 33.269 44.0844C33.3851 45.2921 33.4846 46.4998 33.4448 47.7142C33.4349 48.0228 33.4017 48.3281 33.342 48.63C33.2491 49.0929 32.9439 49.4016 32.5988 49.6834C32.068 50.1161 31.4509 50.3208 30.7907 50.455C28.9428 50.8273 27.0783 51.0555 25.1939 50.9884C24.1157 50.9481 23.2797 50.4214 22.8019 49.4049C22.4668 48.6904 22.3176 47.9222 22.2048 47.1472C21.946 45.339 21.9128 43.5174 21.8962 41.6958C21.8863 40.7162 21.8962 39.74 21.8962 38.7604C21.8863 38.7571 21.8796 38.7571 21.873 38.7571Z" fill="#F04635"/>
<path id="Vector_3" d="M36.3875 40.5418C36.4008 39.8977 36.4074 39.059 36.6629 38.2472C36.706 38.113 36.7591 37.9855 36.8288 37.8647C37.0212 37.5494 37.2899 37.4454 37.6349 37.5628C37.8937 37.65 38.1027 37.811 38.2951 37.9989C38.9023 38.586 39.3435 39.2938 39.7449 40.0285C40.4151 41.253 40.9658 42.5278 41.3307 43.8831C41.48 44.4433 41.4568 44.9734 41.2146 45.4967C41.1748 45.5806 41.1251 45.6443 41.0521 45.7013C40.2326 46.332 39.3833 46.9124 38.4942 47.4357C38.1293 47.6538 37.7544 47.5498 37.5586 47.1707C37.1705 46.4159 36.9648 45.5973 36.7956 44.7721C36.5302 43.4436 36.3908 42.095 36.3875 40.5418Z" fill="#EF4636"/>
<path id="Vector_4" d="M17.9881 46.3487C17.9782 47.1841 17.9815 48.0462 17.7592 48.8882C17.6929 49.1365 17.6 49.3747 17.4341 49.576C17.381 49.6397 17.3346 49.6565 17.2483 49.6296C16.827 49.482 16.4056 49.3244 15.9909 49.1633C15.9013 49.1298 15.8649 49.0627 15.8284 48.9855C15.5298 48.3616 15.3772 47.6906 15.271 47.013C14.989 45.235 14.9525 43.4435 15.0255 41.6488C15.0653 40.6088 15.1549 39.5756 15.3672 38.5557C15.4535 38.1464 15.553 37.7372 15.7554 37.3682C15.8582 37.1803 15.971 36.9824 16.2165 36.9824C16.4521 36.9824 16.5715 37.1702 16.6744 37.3514C16.9829 37.8915 17.1255 38.4886 17.2549 39.0891C17.5071 40.2364 17.6497 41.3972 17.7658 42.5646C17.8886 43.8126 17.9583 45.0672 17.9881 46.3487Z" fill="#EF4636"/>
</g>
</svg>
