<svg width="32" height="32" viewBox="0 0 32 32" fill="none" xmlns="http://www.w3.org/2000/svg">
<g clip-path="url(#clip0_53_301)">
<circle cx="16" cy="15.9973" r="16" fill="#2A3636"/>
<path d="M8.26416 13.315H11.5812V23.997H8.26416V13.315Z" fill="#EEF4F4"/>
<path d="M9.921 7.99731C8.861 7.99731 8 8.85831 8 9.91831C8 10.9793 8.861 11.8573 9.921 11.8573C10.981 11.8573 11.842 10.9793 11.842 9.91831C11.842 8.85831 10.981 7.99731 9.921 7.99731Z" fill="#EEF4F4"/>
<path d="M23.9962 23.9969L24.0002 23.9959V18.1279C24.0002 15.2569 23.3822 13.0459 20.0262 13.0459C18.4132 13.0459 17.3302 13.9309 16.8882 14.7709H16.8422V13.3139H13.6602V23.9959H16.9742V18.7069C16.9742 17.3139 17.2382 15.9679 18.9632 15.9679C20.6622 15.9679 20.6882 17.5569 20.6882 18.7969V23.9969H23.9962Z" fill="#EEF4F4"/>
</g>
<defs>
<clipPath id="clip0_53_301">
<rect width="32" height="32" fill="white" transform="translate(0 -0.00268555)"/>
</clipPath>
</defs>
</svg>
