<svg width="1760" height="206" viewBox="0 0 1760 206" fill="none" xmlns="http://www.w3.org/2000/svg">
<path d="M177.095 41.2262H0V29.4522C0 27.5029 0.195562 25.5147 0.586673 23.5653H177.095V41.2262ZM44.2738 64.7741H0V47.1131H44.2738V64.7741ZM44.2738 88.283H0V70.622H44.2738V88.283ZM44.2738 111.831H0V94.17H44.2738V111.831ZM44.2738 135.379H0V117.718H44.2738V135.379ZM44.2738 158.888H0V141.227H44.2738V158.888ZM177.095 182.436H0.586673C0.195562 180.486 0 178.498 0 176.549V164.775H177.095V182.436ZM177.095 17.6783H2.34666C7.47022 5.90437 16.5049 0.017395 29.4898 0.017395H177.056V17.6783H177.095ZM177.095 205.983H29.4898C16.5049 205.983 7.47022 200.097 2.34666 188.323H177.056V205.983H177.095ZM177.095 88.283H73.7636V70.622H177.056V88.283H177.095ZM177.095 111.831H73.7636V94.17H177.056V111.831H177.095ZM177.095 135.379H132.821V117.718H177.095V135.379ZM177.095 158.888H132.821V141.227H177.095V158.888Z" fill="#1E2323"/>
<path d="M380.435 41.2089H218.124V29.4348C218.124 27.4855 218.319 25.4973 218.71 23.5479H380.435V41.2089ZM262.358 64.7567H218.084V47.0958H262.358V64.7567ZM380.435 88.2656H218.124V70.6047H380.435V88.2656ZM380.435 111.814H218.124V94.1526H380.435V111.814ZM262.358 135.361H218.084V117.7H262.358V135.361ZM262.358 158.87H218.084V141.209H262.358V158.87ZM380.435 182.418H218.71C218.319 180.469 218.124 178.481 218.124 176.531V164.757H380.435V182.418ZM380.435 17.6609H220.47C225.594 5.88697 234.628 0 247.613 0H380.435V17.6609ZM380.435 205.966H247.613C234.628 205.966 225.555 200.079 220.47 188.305H380.435V205.966Z" fill="#1E2323"/>
<path d="M490.529 17.6609H434.444L421.459 0H477.544L490.529 17.6609ZM490.529 188.305L477.544 205.966H421.459L434.444 188.305H490.529ZM507.621 41.2089H451.535L438.551 23.5479H494.636L507.621 41.2089ZM507.621 164.757L494.636 182.418H438.551L451.535 164.757H507.621ZM593.509 47.0958L580.798 64.7567H468.627L455.916 47.0958H512.001L524.712 64.7567L537.423 47.0958H593.509ZM593.509 158.87H537.463L524.751 141.209L512.04 158.87H455.955L468.666 141.209H580.837L593.509 158.87ZM576.417 70.6047L563.432 88.2656H486.11L473.125 70.6047H576.417ZM576.417 135.361H473.125L486.11 117.7H563.432L576.417 135.361ZM559.287 111.814H490.216L496.709 103.003L490.216 94.1916H559.287L552.794 103.003L559.287 111.814ZM610.952 23.5479L597.968 41.2089H541.882L554.867 23.5479H610.952ZM610.952 182.418H554.867L541.882 164.757H597.968L610.952 182.418ZM628.044 0L615.059 17.6609H558.974L571.959 0H628.044ZM628.044 205.966H571.959L558.974 188.305H615.059L628.044 205.966Z" fill="#1E2323"/>
<path d="M717.493 188.305L710.414 205.966H660.234L667.313 188.305H717.493ZM726.919 164.757L719.84 182.418H669.66L676.739 164.757H726.919ZM862.713 158.87H679.125L686.204 141.209H855.634L862.713 158.87ZM853.248 135.361H688.551L695.63 117.7H846.169L853.248 135.361ZM755.274 94.1526L748.195 111.814H698.016L705.095 94.1526H755.274ZM764.7 70.6047L757.621 88.2656H707.442L714.521 70.6047H764.7ZM824.931 64.7567H774.752L770.919 55.0491L767.086 64.7567H716.906L723.986 47.0958H817.852L824.931 64.7567ZM815.467 41.2089H726.332L733.411 23.5479H808.387L815.467 41.2089ZM806.041 17.6609H735.797L742.876 0H798.962L806.041 17.6609ZM834.357 88.2656H784.178L777.098 70.6047H827.278L834.357 88.2656ZM843.822 111.814H793.643L786.563 94.1526H836.743L843.822 111.814ZM872.139 182.418H821.959L814.88 164.757H865.059L872.139 182.418ZM881.603 205.966H831.424L824.345 188.305H874.524L881.603 205.966Z" fill="#1E2323"/>
<path d="M1088.5 17.6609H913.792V0H1061.36C1074.34 0 1083.38 5.88697 1088.5 17.6609ZM1090.85 41.2089H913.753V23.5479H1090.26C1090.65 25.4973 1090.85 27.4855 1090.85 29.4348V41.2089ZM958.027 64.7567H913.753V47.0958H958.027V64.7567ZM1088.5 70.6047C1083.38 82.3786 1074.34 88.2656 1061.36 88.2656H913.792V70.6047H1088.5ZM1088.5 111.814H913.792V94.1526H1061.36C1074.34 94.1526 1083.38 100.04 1088.5 111.814ZM958.027 135.361H913.753V117.7H958.027V135.361ZM958.027 158.87H913.753V141.209H958.027V158.87ZM1090.85 176.531C1090.85 178.481 1090.65 180.469 1090.26 182.418H913.753V164.757H1090.85V176.531ZM1088.5 188.305C1083.38 200.079 1074.34 205.966 1061.36 205.966H913.792V188.305H1088.5ZM1090.85 58.8698C1090.85 60.8191 1090.65 62.8074 1090.26 64.7567H1046.57V47.0958H1090.85V58.8698ZM1090.85 135.361H1046.57V117.7H1090.26C1090.65 119.65 1090.85 121.638 1090.85 123.587V135.361ZM1090.85 158.87H1046.57V141.209H1090.85V158.87Z" fill="#1E2323"/>
<path d="M1200.95 17.6609H1144.86L1131.88 0H1187.96L1200.95 17.6609ZM1218.08 41.2089H1161.99L1149.01 23.5479H1205.09L1218.08 41.2089ZM1303.97 47.0958L1291.26 64.7567H1179.09L1166.37 47.0958H1222.46L1235.17 64.7567L1247.84 47.0958H1303.97ZM1286.84 70.6047L1273.85 88.2656H1196.53L1183.54 70.6047H1286.84ZM1269.71 94.1526L1257.31 111.814H1213.03L1200.64 94.1526H1269.71ZM1257.31 135.361H1213.03V117.7H1257.31V135.361ZM1257.31 158.87H1213.03V141.209H1257.31V158.87ZM1257.31 182.418H1213.03V164.757H1257.31V182.418ZM1257.31 205.966H1213.03V188.305H1257.31V205.966ZM1321.37 23.5479L1308.39 41.2089H1252.3L1265.29 23.5479H1321.37ZM1338.46 0L1325.48 17.6609H1269.39L1282.38 0H1338.46Z" fill="#1E2323"/>
<path d="M1556.58 17.6609H1379.49V0H1556.58V17.6609ZM1556.58 41.2089H1379.49V23.5479H1556.58V41.2089ZM1493.15 64.7567H1448.87V47.0958H1493.15V64.7567ZM1493.15 88.2656H1448.87V70.6047H1493.15V88.2656ZM1493.15 111.814H1448.87V94.1526H1493.15V111.814ZM1493.15 135.361H1448.87V117.7H1493.15V135.361ZM1493.15 158.87H1448.87V141.209H1493.15V158.87ZM1493.15 182.418H1448.87V164.757H1493.15V182.418ZM1493.15 205.966H1448.87V188.305H1493.15V205.966Z" fill="#1E2323"/>
<path d="M1759.96 41.2089H1597.61V29.4348C1597.61 27.4855 1597.81 25.4973 1598.2 23.5479H1759.92V41.2089H1759.96ZM1641.88 64.7567H1597.61V47.0958H1641.88V64.7567ZM1759.96 88.2656H1597.61V70.6047H1759.96V88.2656ZM1759.96 111.814H1597.61V94.1526H1759.96V111.814ZM1641.88 135.361H1597.61V117.7H1641.88V135.361ZM1641.88 158.87H1597.61V141.209H1641.88V158.87ZM1759.96 182.418H1598.24C1597.85 180.469 1597.65 178.481 1597.65 176.531V164.757H1760V182.418H1759.96ZM1759.96 17.6609H1600C1605.12 5.88697 1614.15 0 1627.14 0H1759.96V17.6609ZM1759.96 205.966H1627.14C1614.15 205.966 1605.08 200.079 1600 188.305H1759.96V205.966Z" fill="#1E2323"/>
</svg>
