<svg width="578" height="477" viewBox="0 0 578 477" fill="none" xmlns="http://www.w3.org/2000/svg">
<path d="M0.625488 30C0.625488 13.4314 14.0569 0 30.6255 0H299.651C307.495 0 315.026 3.07167 320.632 8.55699L568.355 250.941C574.123 256.585 577.375 264.314 577.375 272.384V446.047C577.375 462.615 563.943 476.047 547.375 476.047H30.6255C14.057 476.047 0.625488 462.615 0.625488 446.047V30Z" fill="white" fill-opacity="0.35"/>
<path d="M1.62549 30C1.62549 13.9837 14.6092 1 30.6255 1H299.651C307.233 1 314.514 3.96928 319.933 9.27176L567.656 251.656C573.232 257.112 576.375 264.583 576.375 272.384V446.047C576.375 462.063 563.391 475.047 547.375 475.047H30.6255C14.6093 475.047 1.62549 462.063 1.62549 446.047V30Z" stroke="#CFE3E5" stroke-opacity="0.44" stroke-width="2"/>
</svg>
