<svg width="220" height="53" viewBox="0 0 220 53" fill="none" xmlns="http://www.w3.org/2000/svg">
<path d="M47.9864 43.1798H46.3484C46.1948 43.1798 45.9389 43.1798 45.6318 43.1798C44.7104 43.1798 43.9938 43.1798 43.5843 43.1798C42.3977 43.1798 41.2052 43.0342 40.0697 42.6902C40.0449 42.6827 40.022 42.6755 40.001 42.6685C39.6939 42.5662 39.2332 42.4127 38.9263 42.2592C38.8637 42.2279 38.7968 42.1945 38.727 42.1589C38.1262 41.8531 37.6245 41.3899 37.1857 40.8783C36.9298 40.5203 36.705 39.9112 36.6738 39.5996C36.6226 39.0881 36.6228 38.7812 36.6228 38.1163C36.6738 37.298 36.674 36.7354 36.8276 35.8659C36.9811 35.0476 37.1859 34.0758 37.4418 33.0529L38.2096 30.0353C38.6191 28.3986 39.131 26.9665 39.7453 25.8413C40.3595 24.7161 40.9737 23.8466 41.6392 23.1817C42.3046 22.5679 43.226 22.0565 44.3521 21.7496C45.4782 21.4427 46.5532 21.2381 47.5769 21.1358C48.6006 21.0335 49.9827 21.0335 51.7231 21.0335H54.2312C54.9577 21.0335 55.4499 21.0847 56.0228 21.0847C56.6058 21.0847 57.0293 21.0847 57.6096 21.0847C58.1899 21.0847 58.1724 21.0847 58.7869 21.0847C59.4521 21.0847 59.4521 21.0847 60.1178 21.0847C60.8568 21.0847 61.2437 21.0847 61.4996 21.0847C61.8358 20.4467 62.1105 19.7541 62.1432 19.0338C62.1802 18.2158 62.034 17.6145 61.7046 17.2487C61.2439 16.7373 60.2713 16.4815 58.7869 16.4815L44.9663 16.5838L46.6553 9.42339C51.5181 9.42335 57.1487 9.42335 63.2912 9.42335C67.4373 9.42335 70.1505 9.78137 71.6349 11.2135C73.1193 12.6456 73.3752 15.3563 72.3515 19.3457L66.6183 43.1798H56.4323M60.0666 27.4779C57.6096 27.4779 55.5621 27.4779 54.0265 27.4779H52.0302C50.8017 27.4779 49.9315 27.6314 49.3685 27.9894C48.8566 28.3474 48.4471 29.1146 48.1399 30.3421L47.4233 33.2063C47.1674 34.2292 47.2186 34.9964 47.6281 35.4568C48.0376 35.9171 48.8054 36.1216 49.9315 36.1216H51.3136C51.8766 36.1216 52.5419 36.1216 53.2075 36.1216C53.8215 36.1216 54.7527 36.1216 55.9204 36.1216C57.1487 36.1216 57.8498 36.1216 58.4286 36.1216L60.0666 27.4779Z" fill="black"/>
<path d="M78.3914 17.2487L80.3877 9.37215H109.308L107.517 16.7372L86.8373 35.0475H102.91L100.914 43.1798H70.9692L72.7608 35.559L93.9011 17.2487H78.3914Z" fill="black"/>
<path d="M172.831 35.3544L170.937 43.1798C165.41 43.1798 159.421 43.1798 153.125 43.1798C149.03 43.1798 146.368 42.6172 144.934 41.1339C143.45 39.6507 143.194 36.9399 144.167 32.8994L147.34 20.0106C148.108 16.8906 149.797 14.3333 152.408 12.3386C155.018 10.3439 158.192 9.37215 161.928 9.37215H169.555C173.343 9.37215 176.005 10.3439 177.541 12.3386C179.076 14.3333 179.435 16.8906 178.667 20.0106L176.312 29.5237C176.261 29.7795 176.21 29.9329 176.21 30.0352C176.159 30.1375 176.107 30.1886 176.005 30.2909C175.903 30.3421 175.749 30.3932 175.544 30.3932H155.069L154.558 32.3879C154.199 33.7177 154.199 34.5361 154.506 34.8941C154.813 35.2521 155.632 35.4567 156.963 35.4567H172.831V35.3544ZM168.225 23.5908L168.839 20.9823C169.248 19.3457 169.248 18.2204 168.788 17.6578C168.327 17.0952 167.406 16.8395 166.023 16.8395H162.44C161.007 16.8395 159.881 17.0952 159.113 17.6578C158.345 18.2204 157.731 19.3457 157.322 21.0335L156.605 23.7954L168.225 23.5908Z" fill="black"/>
<path d="M219.412 9.37215L202.674 41.9011C202.265 42.7706 201.65 43.1798 200.883 43.1798H185.219C184.759 43.1798 184.451 43.0775 184.298 42.924C184.144 42.7706 184.042 42.4126 183.991 41.9011L183.274 9.37215H194.842L194.279 34.5361H196.02L207.844 9.37215H219.412Z" fill="black"/>
<path d="M118.149 43.1798H116.664C112.672 43.1798 109.959 42.6684 108.577 41.1851C107.143 39.7019 106.939 36.9911 107.911 33.0529L111.29 19.2946C112.262 15.3563 113.798 12.6456 115.948 11.2135C118.097 9.78137 121.117 9.42335 125.11 9.42335H126.594C128.693 9.42335 131.114 9.42335 135.209 9.42335L137.355 0.217041H147.274L136.745 43.1798H126.646M122.762 35.0987C123.325 35.0987 123.337 35.0987 124.038 35.0987C124.738 35.0987 125.228 35.0987 126.492 35.0987C127.664 35.0987 128.452 35.0987 128.949 35.0987L133.162 17.5044C132.716 17.5044 131.438 17.5044 130.382 17.5044C129.284 17.5044 128.555 17.5044 127.925 17.5044C127.243 17.5044 126.697 17.5044 126.083 17.5044H124.956C123.83 17.5044 122.96 17.709 122.397 18.1693C121.783 18.6297 121.373 19.3969 121.066 20.4709L118.149 32.1834C117.893 33.2063 117.944 33.9735 118.302 34.4338C118.712 34.8941 119.428 35.0987 120.554 35.0987H122.762Z" fill="black"/>
<path d="M28.4174 9.42335H38.5525L28.0079 52.335H18.3358L20.2939 43.2308C15.0216 43.2308 13.7267 43.2308 11.6792 43.2308H10.1948C6.20219 43.2308 3.48926 42.6684 2.10721 41.1851C0.673969 39.7019 0.46922 36.9911 1.44178 33.0529L4.82013 19.2946C5.79269 15.3563 7.3283 12.6456 9.47817 11.2135C11.628 9.78138 14.6481 9.42335 18.6407 9.42335H20.1251M22.4285 34.9964L26.4364 17.4533C25.9397 17.4533 25.075 17.4533 23.9641 17.4533C22.8533 17.4533 22.0855 17.4533 21.5072 17.4533C20.8058 17.4533 20.2787 17.4533 19.6644 17.4533H18.5383C17.4122 17.4533 16.542 17.6579 15.9789 18.1182C15.3647 18.5785 14.9552 19.3457 14.6481 20.4198L11.7304 32.1322C11.4745 33.2063 11.5257 33.9735 11.884 34.3827C12.2935 34.7919 13.0101 34.9964 14.1362 34.9964H15.2623C15.8254 34.9964 16.4549 34.9964 17.2074 34.9964C17.96 34.9964 18.7583 34.9964 19.8692 34.9964C21.0617 34.9964 21.8295 34.9964 22.4285 34.9964Z" fill="black"/>
</svg>
