<svg width="54" height="54" viewBox="0 0 54 54" fill="none" xmlns="http://www.w3.org/2000/svg">
<rect x="0.00836182" width="54" height="54" rx="16.5971" fill="black"/>
<path d="M34.9361 19.8344C34.9263 20.7632 34.7739 21.6773 34.5675 22.5767C34.5184 22.788 34.5823 22.8667 34.7789 22.9256C36.0419 23.3188 37.2656 23.8004 38.3124 24.6408C38.8628 25.0782 39.3297 25.5942 39.5361 26.2921C39.8114 27.216 39.5509 28.022 38.9415 28.7297C38.1994 29.5898 37.2312 30.1107 36.209 30.5481C35.7716 30.7349 35.3244 30.8921 34.8722 31.0297C34.5086 31.1428 34.5086 31.1477 34.5921 31.5212C34.8231 32.5532 34.9803 33.6 34.9312 34.6616C34.8968 35.4479 34.7543 36.2146 34.312 36.883C33.6927 37.8216 32.7885 38.1263 31.7073 37.9543C30.8914 37.8266 30.1739 37.4481 29.481 37.0157C28.7634 36.5684 28.1196 36.0229 27.5004 35.4479C27.3726 35.33 27.2891 35.3201 27.1564 35.4479C26.3602 36.1949 25.5198 36.883 24.5418 37.3842C23.7997 37.7676 23.0282 38.0575 22.1681 37.9789C21.2147 37.8904 20.5611 37.3793 20.163 36.534C19.6568 35.4627 19.6764 34.3274 19.7895 33.1872C19.8485 32.5778 19.9517 31.9684 20.1089 31.3787C20.163 31.187 20.0745 31.1084 19.9074 31.0641C18.9737 30.7987 18.0841 30.4351 17.2437 29.9584C16.5262 29.5505 15.8726 29.059 15.4303 28.3415C14.811 27.3389 14.8749 26.3118 15.6121 25.378C16.192 24.6408 16.9685 24.1592 17.7893 23.7365C18.4675 23.3876 19.1948 23.1615 19.9173 22.9158C20.1237 22.847 20.1384 22.7487 20.0942 22.5718C19.8386 21.525 19.6863 20.4635 19.7305 19.3872C19.7649 18.5615 19.9074 17.7604 20.3891 17.0577C20.9837 16.1927 21.8192 15.9077 22.8267 16.0256C23.7211 16.1288 24.4976 16.5367 25.2348 17.0134C25.9032 17.4459 26.5273 17.9325 27.0876 18.4976C27.2547 18.6647 27.3726 18.6746 27.5545 18.5025C28.4587 17.6523 29.4269 16.8906 30.572 16.3844C31.1961 16.1092 31.84 15.947 32.528 16.0158C33.5502 16.1239 34.194 16.7087 34.5724 17.6228C34.8722 18.3305 34.9459 19.0775 34.9361 19.8344ZM27.4463 30.9757C27.8837 30.9708 28.6111 30.9757 29.3434 30.9265C29.4957 30.9167 29.6087 30.8676 29.6923 30.7398C30.4541 29.6045 31.1372 28.425 31.7367 27.1964C31.8006 27.0637 31.8105 26.9408 31.7417 26.8032C31.1519 25.5598 30.4442 24.3853 29.6874 23.2353C29.6235 23.1419 29.5449 23.0927 29.4269 23.0829C28.0607 22.96 26.6993 22.9797 25.3331 23.0682C25.1414 23.0829 25.0186 23.1566 24.9154 23.3188C24.1831 24.4344 23.5098 25.5844 22.92 26.7836C22.8463 26.931 22.8414 27.0539 22.9151 27.2013C23.5294 28.4201 24.2027 29.6094 24.9645 30.7447C25.0431 30.8626 25.1414 30.9167 25.2889 30.9265C25.913 30.9609 26.5372 30.9757 27.4463 30.9757ZM20.792 34.2733C20.7871 34.8189 20.8412 35.3496 21.0279 35.8657C21.2884 36.5979 21.77 36.937 22.5515 36.9223C22.979 36.9125 23.3673 36.7699 23.7506 36.5979C24.7679 36.1409 25.5936 35.4233 26.4143 34.696C26.5372 34.5879 26.5617 34.4896 26.4389 34.3471C25.8196 33.6492 25.225 32.9317 24.6893 32.1699C24.5615 31.9832 24.4092 31.8898 24.1831 31.8799C24.0062 31.875 23.8243 31.8406 23.6474 31.8161C22.9004 31.7178 22.1583 31.6195 21.4211 31.4524C21.2442 31.4131 21.1656 31.4819 21.1262 31.649C20.9444 32.5139 20.7871 33.3838 20.792 34.2733ZM38.5876 26.9556C38.5778 26.9064 38.5729 26.8131 38.5532 26.7246C38.4402 26.2086 38.106 25.84 37.7178 25.5156C36.7545 24.7293 35.6143 24.3017 34.4496 23.9282C34.2923 23.8791 34.194 23.9184 34.14 24.0953C33.8451 25.0045 33.506 25.8989 33.103 26.7737C33.044 26.9064 33.0391 27.0391 33.0981 27.1767C33.506 28.0712 33.8549 28.9853 34.1547 29.924C34.1989 30.0567 34.2677 30.0861 34.3955 30.0468C34.6265 29.9682 34.8673 29.9092 35.0983 29.8257C36.1205 29.4571 37.1084 29.0344 37.9143 28.2776C38.2829 27.9336 38.5778 27.5355 38.5876 26.9556ZM16.079 27.0195C16.0839 27.1866 16.1331 27.3586 16.2019 27.5257C16.4181 28.0466 16.8309 28.3955 17.2732 28.7101C18.1726 29.349 19.1948 29.7225 20.2318 30.0567C20.394 30.1058 20.4726 30.0567 20.5217 29.8994C20.8117 28.9804 21.1557 28.0761 21.5636 27.2013C21.6275 27.0588 21.6275 26.931 21.5587 26.7786C21.1754 25.9186 20.8117 25.0487 20.5414 24.1494C20.4726 23.9233 20.3546 23.8889 20.1581 23.9528C19.8337 24.0658 19.5093 24.1739 19.185 24.2968C18.32 24.631 17.4846 25.0242 16.7916 25.6581C16.4034 26.0218 16.0986 26.4395 16.079 27.0195ZM20.797 19.9867C20.8117 20.778 20.969 21.5447 21.1213 22.3162C21.1656 22.5276 21.2491 22.5767 21.4555 22.5325C22.3893 22.331 23.3329 22.1737 24.2863 22.0902C24.4436 22.0754 24.5468 22.0115 24.6303 21.8887C25.1758 21.1122 25.7705 20.375 26.4094 19.6722C26.5421 19.5297 26.5519 19.4314 26.3995 19.2889C25.7951 18.7237 25.1611 18.2028 24.4583 17.7605C24.0455 17.5049 23.613 17.2985 23.1461 17.1609C21.9863 16.8218 21.2344 17.2592 20.9297 18.4239C20.797 18.9399 20.792 19.4609 20.797 19.9867ZM33.8746 34.2635C33.8746 33.3838 33.7271 32.5238 33.5453 31.6686C33.4912 31.4229 33.3585 31.4229 33.1718 31.4671C32.2773 31.6735 31.3731 31.7866 30.4639 31.8849C30.2673 31.9045 30.1297 31.9782 30.0167 32.1355C29.481 32.8973 28.8863 33.6148 28.2671 34.3127C28.1344 34.4601 28.1295 34.5535 28.2769 34.7009C28.8028 35.2071 29.363 35.674 29.9724 36.0721C30.5474 36.4456 31.1519 36.7798 31.8449 36.9026C32.6705 37.0501 33.2504 36.765 33.5944 35.9983C33.8353 35.443 33.8795 34.8582 33.8746 34.2635ZM33.8697 19.8196C33.8844 19.1365 33.8353 18.478 33.5256 17.8686C33.216 17.2543 32.6656 16.979 31.9874 17.0724C31.4419 17.1461 30.9455 17.3476 30.4737 17.613C29.6677 18.0602 28.9699 18.65 28.2867 19.2643C28.1049 19.4314 28.1393 19.5543 28.2867 19.7115C28.9355 20.4045 29.5105 21.1613 30.0707 21.9231C30.1395 22.0164 30.2132 22.0705 30.3312 22.0803C31.3092 22.159 32.2773 22.3212 33.2357 22.5325C33.4126 22.5718 33.4962 22.5226 33.5355 22.3506C33.7075 21.5103 33.8893 20.6699 33.8697 19.8196ZM31.2158 23.2451C31.1568 23.2549 31.0831 23.2254 31.0389 23.2893C30.9996 23.3581 31.0536 23.4122 31.088 23.4662C31.5107 24.1248 31.8989 24.803 32.2675 25.496C32.297 25.55 32.3167 25.6336 32.3953 25.6286C32.4739 25.6237 32.4838 25.5402 32.5083 25.4861C32.7491 24.9406 32.9359 24.3754 33.1325 23.8103C33.1816 23.6776 33.1521 23.5891 33.0047 23.5547C32.415 23.4318 31.8203 23.3237 31.2158 23.2451ZM31.1716 30.7545C31.319 30.7299 31.4763 30.7005 31.6286 30.6759C32.0808 30.5923 32.528 30.5137 32.9801 30.4302C33.1177 30.4056 33.1964 30.3466 33.1472 30.1992C32.9506 29.6193 32.7541 29.0393 32.5083 28.4742C32.4887 28.425 32.469 28.3513 32.4051 28.3464C32.3216 28.3366 32.3068 28.4201 32.2773 28.4742C32.184 28.6363 32.1053 28.8084 32.012 28.9705C31.7073 29.4915 31.3976 30.0124 31.0929 30.5334C31.0291 30.6317 30.9406 30.7545 31.1716 30.7545ZM27.3284 21.9673C27.7216 21.9624 28.1147 21.9673 28.503 21.9624C28.557 21.9624 28.6258 21.987 28.6652 21.9329C28.7094 21.869 28.6652 21.8051 28.6258 21.756C28.2572 21.2891 27.8837 20.8222 27.4807 20.3848C27.3874 20.2865 27.294 20.2718 27.1908 20.3848C26.7878 20.8222 26.4143 21.2842 26.0457 21.756C26.0064 21.8051 25.9572 21.869 25.9966 21.9329C26.031 21.987 26.0998 21.9673 26.1538 21.9673C26.5421 21.9673 26.9352 21.9673 27.3284 21.9673ZM23.4361 23.25C22.8807 23.3188 22.2762 23.4269 21.6767 23.5498C21.5391 23.5793 21.4997 23.6579 21.5341 23.7808C21.7012 24.3705 21.942 24.9357 22.1583 25.5107C22.2222 25.6778 22.3106 25.663 22.3893 25.5205C22.4925 25.3338 22.5809 25.1421 22.6891 24.9554C22.9839 24.4541 23.2788 23.9577 23.5786 23.4564C23.613 23.3974 23.6523 23.3434 23.6179 23.2746C23.5884 23.2254 23.5393 23.2303 23.4361 23.25ZM23.4606 30.7496C23.5639 30.7496 23.6179 30.7545 23.6425 30.7054C23.672 30.6513 23.6327 30.612 23.6081 30.5727C23.1756 29.8994 22.7824 29.2015 22.404 28.4987C22.3745 28.4447 22.3549 28.366 22.2762 28.366C22.1976 28.366 22.1779 28.4398 22.1534 28.4987C21.9224 29.0492 21.7258 29.6094 21.5391 30.1795C21.4997 30.2975 21.5145 30.3958 21.657 30.4203C22.2762 30.5334 22.8955 30.6464 23.4606 30.7496ZM26.2275 32.0176C26.2521 32.0176 26.203 32.0176 26.1538 32.0176C26.0899 32.0176 26.0113 31.9979 25.9818 32.0716C25.9523 32.1404 26.0064 32.1945 26.0506 32.2436C26.4143 32.6761 26.7829 33.1037 27.1367 33.5411C27.2891 33.7278 27.3874 33.6983 27.5397 33.5362C27.9083 33.1282 28.2474 32.7007 28.5914 32.2731C28.6357 32.2191 28.7094 32.165 28.6799 32.0864C28.6406 31.9832 28.5423 32.0126 28.4637 32.0176C27.7412 32.0667 27.0237 32.052 26.2275 32.0176Z" fill="white"/>
<path d="M27.3382 29.1965C26.1046 29.1965 25.1168 28.2136 25.1168 26.9849C25.1168 25.776 26.1341 24.7783 27.3579 24.7832C28.5619 24.7881 29.535 25.7858 29.5301 27.0193C29.5301 28.2234 28.5521 29.1916 27.3382 29.1965Z" fill="white"/>
</svg>
