<svg width="54" height="54" viewBox="0 0 54 54" fill="none" xmlns="http://www.w3.org/2000/svg">
<rect x="0.00830078" width="54" height="54" rx="16.5971" fill="black"/>
<path d="M16 23.7833C16 18.1972 17.1972 17 22.7833 17H25.1454C25.8141 17 26.4386 17.3342 26.8095 17.8906L28.176 19.9403C28.5469 20.4967 29.1715 20.8309 29.8402 20.8309C32.6237 20.8309 35.3663 20.8309 37.1108 20.8309C38.1657 20.8309 39.0038 21.6518 38.9942 22.7066C38.9902 23.1486 38.9855 23.5532 38.9855 23.7833V30.6483C38.9855 36.2343 37.7883 37.4316 32.2022 37.4316H22.7833C17.1972 37.4316 16 36.2343 16 30.6483V23.7833Z" stroke="white" stroke-width="2" stroke-linejoin="round"/>
<path d="M38.986 25.939H34.7567H27.8917C22.3056 25.939 21.1084 27.1362 21.1084 32.7222V36.7932" stroke="white" stroke-width="2" stroke-linecap="round"/>
</svg>
