<svg width="54" height="54" viewBox="0 0 54 54" fill="none" xmlns="http://www.w3.org/2000/svg">
<rect x="0.00830078" width="54" height="54" rx="16.5971" fill="black"/>
<path fill-rule="evenodd" clip-rule="evenodd" d="M17.2885 37.8002C16.692 37.8002 16.2085 37.3167 16.2085 36.7202L16.2085 17.2802C16.2085 16.6837 16.692 16.2002 17.2885 16.2002C17.885 16.2002 18.3685 16.6837 18.3685 17.2802L18.3685 36.7202C18.3685 37.3167 17.885 37.8002 17.2885 37.8002Z" fill="white"/>
<path fill-rule="evenodd" clip-rule="evenodd" d="M36.7284 37.8002C36.132 37.8002 35.6484 37.3167 35.6484 36.7202L35.6484 17.2802C35.6484 16.6837 36.132 16.2002 36.7284 16.2002C37.3249 16.2002 37.8084 16.6837 37.8084 17.2802L37.8084 36.7202C37.8084 37.3167 37.3249 37.8002 36.7284 37.8002Z" fill="white"/>
<path fill-rule="evenodd" clip-rule="evenodd" d="M23.1537 20.6908C23.7444 20.5595 24.4311 20.52 25.1939 20.52H28.8227C29.5856 20.52 30.2723 20.5595 30.863 20.6908C31.4659 20.8248 32.033 21.0684 32.4865 21.5219C32.94 21.9754 33.1836 22.5424 33.3176 23.1454C33.4489 23.7361 33.4883 24.4228 33.4883 25.1856V28.8144C33.4883 29.5773 33.4489 30.264 33.3176 30.8547C33.1836 31.4576 32.94 32.0247 32.4865 32.4782C32.033 32.9317 31.4659 33.1753 30.863 33.3093C30.2723 33.4406 29.5856 33.48 28.8227 33.48H25.1939C24.4311 33.48 23.7444 33.4406 23.1537 33.3093C22.5507 33.1753 21.9837 32.9317 21.5302 32.4782C21.0767 32.0247 20.8331 31.4576 20.6991 30.8547C20.5678 30.264 20.5283 29.5773 20.5283 28.8144V25.1856C20.5283 24.4228 20.5678 23.7361 20.6991 23.1454C20.8331 22.5424 21.0767 21.9754 21.5302 21.5219C21.9837 21.0684 22.5507 20.8248 23.1537 20.6908Z" fill="white"/>
</svg>
