<svg width="54" height="54" viewBox="0 0 54 54" fill="none" xmlns="http://www.w3.org/2000/svg">
<rect x="0.00830078" width="54" height="54" rx="16.5971" fill="black"/>
<path d="M31.8975 37.9996C34.2021 37.9996 36.5766 37.9996 37.2925 37.2836C38.0085 36.5677 38.0085 35.4154 38.0085 33.1108V25.7775C38.0085 23.4729 38.0085 22.3206 37.2925 21.6046C36.5766 20.8887 34.2021 20.8887 31.8975 20.8887V37.9996Z" fill="white" fill-opacity="0.1"/>
<path d="M22.1193 37.9996V20.8887C19.8147 20.8887 17.4402 20.8887 16.7243 21.6046C16.0083 22.3206 16.0083 23.4729 16.0083 25.7775V33.1108C16.0083 35.4154 16.0083 36.5677 16.7243 37.2836C17.4402 37.9996 19.8147 37.9996 22.1193 37.9996Z" fill="white" fill-opacity="0.1"/>
<path d="M22.1196 37.9997V18.4444C22.1196 17.0944 23.214 16 24.564 16H29.4529C30.8029 16 31.8973 17.0944 31.8973 18.4444V37.9997" stroke="white" stroke-width="2.44442" stroke-linejoin="round"/>
<path d="M16.0083 25.7775C16.0083 23.4729 16.0083 22.3206 16.7243 21.6046C17.4402 20.8887 18.5925 20.8887 20.8971 20.8887H22.1193H31.897H33.1192C35.4238 20.8887 36.5761 20.8887 37.2921 21.6046C38.008 22.3206 38.008 23.4729 38.008 25.7775V33.1108C38.008 35.4154 38.008 36.5677 37.2921 37.2836C36.5761 37.9996 35.4238 37.9996 33.1192 37.9996H31.897H22.1193H20.8971C18.5925 37.9996 17.4402 37.9996 16.7243 37.2836C16.0083 36.5677 16.0083 35.4154 16.0083 33.1108V25.7775Z" stroke="white" stroke-width="2.44442" stroke-linejoin="round"/>
</svg>
