<svg width="54" height="54" viewBox="0 0 54 54" fill="none" xmlns="http://www.w3.org/2000/svg">
<rect x="0.00830078" width="54" height="54" rx="16.5971" fill="black"/>
<path d="M36.5664 18.0189C37.2785 18.7727 37.6346 19.1497 37.8214 19.6196C38.0083 20.0895 38.0083 20.608 38.0083 21.645V28.6823C38.0083 31.1717 38.0083 32.4163 37.2349 33.1897C36.4616 33.963 35.2169 33.963 32.7276 33.963H28.622C26.1326 33.963 24.888 33.963 24.1146 33.1897C23.3413 32.4163 23.3413 31.1717 23.3413 28.6823L23.3413 19.2807C23.3413 16.7913 23.3413 15.5467 24.1146 14.7733C24.888 14 26.1326 14 28.622 14H30.4942C31.616 14 32.1769 14 32.6771 14.2156C33.1774 14.4312 33.5626 14.839 34.3329 15.6545L36.5664 18.0189Z" fill="white" fill-opacity="0.1"/>
<path d="M36.5664 18.0189C37.2785 18.7727 37.6346 19.1497 37.8214 19.6196C38.0083 20.0895 38.0083 20.608 38.0083 21.645L38.0083 28.6823C38.0083 31.1717 38.0083 32.4163 37.2349 33.1897C36.4616 33.963 35.2169 33.963 32.7276 33.963H28.622C26.1326 33.963 24.888 33.963 24.1146 33.1897C23.3413 32.4163 23.3413 31.1717 23.3413 28.6823L23.3413 19.2807C23.3413 16.7913 23.3413 15.5467 24.1146 14.7733C24.888 14 26.1326 14 28.622 14H30.4942C31.616 14 32.1769 14 32.6771 14.2156C33.1774 14.4312 33.5626 14.839 34.3329 15.6545L36.5664 18.0189Z" stroke="white" stroke-width="2.64033" stroke-linejoin="round"/>
<path d="M23.3418 19.7036L21.289 19.7036C18.7996 19.7036 17.555 19.7036 16.7816 20.4769C16.0083 21.2503 16.0083 22.4949 16.0083 24.9843L16.0083 34.386C16.0083 36.8753 16.0083 38.1199 16.7816 38.8933C17.555 39.6666 18.7996 39.6666 21.289 39.6666H25.3946C27.8839 39.6666 29.1286 39.6666 29.9019 38.8933C30.6753 38.1199 30.6753 36.8753 30.6753 34.386L30.6753 33.9629" stroke="white" stroke-width="2.64033" stroke-linejoin="round"/>
</svg>
