<svg width="54" height="54" viewBox="0 0 54 54" fill="none" xmlns="http://www.w3.org/2000/svg">
<rect x="0.00830078" width="54" height="54" rx="16.5971" fill="black"/>
<path d="M35 35.0001C32.7909 37.2092 27.4183 35.4183 23 31.0001C18.5817 26.5818 16.7908 21.2092 19 19C21.2091 16.7909 26.5817 18.5817 31 23C35.4183 27.4183 37.2092 32.7909 35 35.0001Z" stroke="white" stroke-width="2"/>
<path d="M18.9999 35C16.7908 32.7909 18.5817 27.4183 22.9999 23C27.4182 18.5817 32.7908 16.7908 35 19C37.2091 21.2091 35.4183 26.5817 31 31C26.5817 35.4183 21.2091 37.2092 18.9999 35Z" stroke="white" stroke-width="2"/>
<path d="M29 27C29 28.1046 28.1046 29 27 29C25.8954 29 25 28.1046 25 27C25 25.8954 25.8954 25 27 25C28.1046 25 29 25.8954 29 27Z" stroke="white" stroke-width="2"/>
</svg>
