<svg width="54" height="54" viewBox="0 0 54 54" fill="none" xmlns="http://www.w3.org/2000/svg">
<rect x="0.00830078" width="54" height="54" rx="16.5971" fill="black"/>
<g style="mix-blend-mode:luminosity">
<path d="M26.7831 9.00158C25.2988 9.00848 23.8814 9.13506 22.6351 9.35584C18.9598 10.0051 18.2927 11.3635 18.2927 13.8698V17.1792H26.9742V18.2821H18.2927H15.0351C12.512 18.2821 10.301 19.7989 9.61123 22.6828C8.814 25.9889 8.7787 28.0548 9.61123 31.5067C10.2284 34.0772 11.7024 35.9074 14.2256 35.9074H17.2108V31.9406C17.2108 29.0749 19.6903 26.5459 22.6347 26.5459H31.3065C33.7205 26.5459 35.6489 24.5583 35.6489 22.1355V13.8685C35.6489 11.5157 33.6639 9.7496 31.3065 9.35454C29.815 9.10627 28.2675 8.99349 26.7828 9.00029L26.7831 9.00158ZM22.0878 11.663C22.9848 11.663 23.7169 12.4075 23.7169 13.3226C23.7169 14.2344 22.9845 14.9721 22.0878 14.9721C21.1879 14.9721 20.4587 14.2348 20.4587 13.3226C20.4587 12.4075 21.1879 11.663 22.0878 11.663Z" fill="url(#paint0_linear_433_3334)"/>
</g>
<g style="mix-blend-mode:luminosity">
<path d="M36.731 18.2783V22.135C36.731 25.1241 34.1968 27.6398 31.3071 27.6398H22.6353C20.2598 27.6398 18.293 29.6727 18.293 32.0502V40.3171C18.293 42.67 20.3392 44.054 22.6353 44.7275C25.3835 45.5357 28.0204 45.6818 31.3071 44.7275C33.4928 44.0948 35.6494 42.8209 35.6494 40.3171V37.0078H26.9777V35.9048H35.6494H39.9918C42.515 35.9048 43.4566 34.1449 44.3341 31.5042C45.2405 28.7845 45.202 26.1677 44.3341 22.6803C43.7105 20.1684 42.5195 18.2796 39.9918 18.2796H36.7342L36.731 18.2783ZM31.8543 39.2162C32.7542 39.2162 33.4834 39.9535 33.4834 40.8657C33.4834 41.7808 32.7542 42.5252 31.8543 42.5252C30.9574 42.5252 30.2252 41.7808 30.2252 40.8657C30.2252 39.9538 30.9577 39.2162 31.8543 39.2162Z" fill="url(#paint1_linear_433_3334)"/>
</g>
<defs>
<linearGradient id="paint0_linear_433_3334" x1="8.99942" y1="9.00087" x2="29.0266" y2="26.0605" gradientUnits="userSpaceOnUse">
<stop stop-color="#5A9FD4"/>
<stop offset="1" stop-color="#306998"/>
</linearGradient>
<linearGradient id="paint1_linear_433_3334" x1="31.6495" y1="40.5983" x2="24.4534" y2="30.53" gradientUnits="userSpaceOnUse">
<stop stop-color="#FFD43B"/>
<stop offset="1" stop-color="#FFE873"/>
</linearGradient>
</defs>
</svg>
