<svg width="54" height="54" viewBox="0 0 54 54" fill="none" xmlns="http://www.w3.org/2000/svg">
<rect x="0.00830078" width="54" height="54" rx="16.5971" fill="black"/>
<path d="M28.2305 30.4443H31.8971" stroke="white" stroke-width="2.44444" stroke-linecap="round"/>
<path d="M22.1191 30.4443L25.1747 27.3888V27.3888C25.5122 27.0513 25.5122 26.5041 25.1747 26.1666V26.1666L22.1191 23.111" stroke="white" stroke-width="2.44444" stroke-linecap="round" stroke-linejoin="round"/>
<path d="M16.0083 21.8889C16.0083 19.5842 16.0083 18.4319 16.7243 17.716C17.4402 17 18.5925 17 20.8972 17H27.0083H33.1194C35.4241 17 36.5764 17 37.2923 17.716C38.0083 18.4319 38.0083 19.5842 38.0083 21.8889V26.7778V31.6667C38.0083 33.9713 38.0083 35.1236 37.2923 35.8396C36.5764 36.5556 35.4241 36.5556 33.1194 36.5556H27.0083H20.8972C18.5925 36.5556 17.4402 36.5556 16.7243 35.8396C16.0083 35.1236 16.0083 33.9713 16.0083 31.6667V26.7778V21.8889Z" stroke="white" stroke-width="2.44444" stroke-linejoin="round"/>
</svg>
