<svg width="197" height="61" viewBox="0 0 197 61" fill="none" xmlns="http://www.w3.org/2000/svg">
<path d="M92.9691 26.4693C92.9691 27.5324 93.1558 28.5498 93.5292 29.5217C93.9314 30.4937 94.4915 31.3593 95.2096 32.1186C95.9277 32.8779 96.7464 33.4701 97.6656 33.8953C98.5848 34.2902 99.5471 34.4876 100.552 34.4876V39.8635C98.2545 39.8635 96.1288 39.2712 94.1755 38.0867C92.251 36.8718 90.7285 35.2317 89.6083 33.1664C88.4593 31.1315 87.8848 28.8991 87.8848 26.4693V4.57764e-05H92.9691V13.0297H100.552V18.4511H92.9691V26.4693Z" fill="black"/>
<path d="M124.232 18.8846C125.295 19.3339 125.967 19.8506 126.539 20.6367L120.954 25.3462V28.6477C120.954 29.4488 121.882 29.8797 122.48 29.3561L133.461 19.742C132.25 17.8253 129.548 15.7699 127.599 14.6618C125.65 13.5537 123.538 12.9996 121.264 12.9996C118.902 12.9996 116.716 13.5836 114.708 14.7516C112.67 15.9496 111.061 17.5669 109.88 19.6034C108.728 21.64 108.152 23.8562 108.152 26.2521C108.152 28.6481 108.743 30.8943 109.924 32.9907C111.105 35.0872 112.7 36.7643 114.708 38.0222C116.746 39.2501 118.931 39.8641 121.264 39.8641H134.332V34.5181H121.264C120.201 34.5181 119.197 34.3235 118.252 33.9341C117.307 33.5448 116.465 32.9757 115.727 32.227C115.018 31.5082 114.457 30.6098 114.044 29.5316C113.63 28.4534 113.424 27.3603 113.424 26.2521C113.424 25.174 113.615 24.1557 113.999 23.1973C114.413 22.2389 114.989 21.3854 115.727 20.6367C116.465 19.8879 117.307 19.3189 118.252 18.9296C119.197 18.5103 120.201 18.3006 121.264 18.3006C122.357 18.3006 123.346 18.4953 124.232 18.8846Z" fill="black"/>
<path d="M165.578 34.5181V39.8641H152.222C149.944 39.8042 147.814 39.1453 145.832 37.8874C143.85 36.6296 142.282 34.9674 141.129 32.9009C139.975 30.8344 139.398 28.6181 139.398 26.2521C139.398 23.8562 139.975 21.64 141.129 19.6034C142.312 17.5669 143.909 15.9496 145.921 14.7516C147.933 13.5836 150.122 12.9996 152.488 12.9996C154.855 12.9996 157.044 13.5986 159.055 14.7966C161.067 15.9646 162.664 17.5669 163.848 19.6034C165.001 21.61 165.578 23.8263 165.578 26.2521H160.342C160.342 25.2039 160.135 24.2006 159.721 23.2422C159.336 22.2539 158.774 21.3854 158.035 20.6367C157.295 19.8879 156.437 19.3189 155.461 18.9296C154.514 18.5103 153.523 18.3006 152.488 18.3006C150.417 18.3006 148.569 19.0793 146.942 20.6367C146.202 21.3854 145.64 22.2539 145.255 23.2422C144.871 24.2006 144.679 25.2039 144.679 26.2521C144.679 27.3303 144.871 28.4235 145.255 29.5316C145.67 30.6098 146.232 31.5082 146.942 32.227C148.539 33.7544 150.388 34.5181 152.488 34.5181H165.578Z" fill="black"/>
<path d="M196.824 39.8179H191.57V26.1049C191.57 25.0418 191.363 24.0244 190.947 23.0525C190.561 22.0806 189.997 21.215 189.255 20.4557C188.513 19.6964 187.667 19.1193 186.717 18.7244C185.767 18.2992 184.773 18.0866 183.734 18.0866C182.695 18.0866 181.701 18.2992 180.751 18.7244C179.801 19.1193 178.955 19.6964 178.213 20.4557C177.471 21.215 176.892 22.0806 176.477 23.0525C176.091 24.0244 175.898 25.0418 175.898 26.1049V39.8634H170.644V3.05176e-05H175.898V15.3531C178.273 13.5916 180.885 12.7108 183.734 12.7108C186.109 12.7108 188.29 13.303 190.279 14.4875C192.298 15.672 193.9 17.297 195.088 19.3623C196.245 21.3972 196.824 23.6447 196.824 26.1049V39.8179Z" fill="black"/>
<path d="M87.8848 52.8712C87.8848 51.5489 88.2326 50.3626 88.9283 49.3125C89.624 48.2494 90.5693 47.4197 91.7641 46.8233C92.974 46.2269 94.3125 45.9287 95.7796 45.9287C97.5037 45.9287 99.0086 46.2853 100.294 46.9983C101.58 47.7114 102.517 48.7226 103.107 50.032H100.634C100.196 49.2152 99.5606 48.5865 98.7288 48.1457C97.9121 47.7049 96.929 47.4845 95.7796 47.4845C94.6755 47.4845 93.6849 47.7049 92.8077 48.1457C91.9305 48.5865 91.2423 49.2152 90.7432 50.032C90.2441 50.8358 89.9946 51.7822 89.9946 52.8712C89.9946 53.9473 90.2441 54.8937 90.7432 55.7105C91.2423 56.5143 91.9305 57.1365 92.8077 57.5773C93.6849 58.0181 94.6755 58.2385 95.7796 58.2385C96.929 58.2385 97.9121 58.0246 98.7288 57.5968C99.5606 57.156 100.196 56.5272 100.634 55.7105H103.107C102.517 57.0069 101.58 58.0117 100.294 58.7247C99.0086 59.4248 97.5037 59.7748 95.7796 59.7748C94.3125 59.7748 92.974 59.4831 91.7641 58.8997C90.5693 58.3034 89.624 57.4801 88.9283 56.43C88.2326 55.3799 87.8848 54.1936 87.8848 52.8712Z" fill="black"/>
<path d="M110.808 46.1038V54.6798C110.808 55.8855 111.149 56.78 111.829 57.3634C112.525 57.9468 113.485 58.2385 114.71 58.2385C115.92 58.2385 116.866 57.9468 117.546 57.3634C118.242 56.78 118.59 55.8855 118.59 54.6798V46.1038H120.654V54.6603C120.654 55.7882 120.389 56.7411 119.86 57.519C119.331 58.2839 118.612 58.8543 117.705 59.2303C116.813 59.6063 115.807 59.7943 114.688 59.7943C113.568 59.7943 112.555 59.6063 111.648 59.2303C110.755 58.8543 110.045 58.2839 109.515 57.519C109.001 56.7411 108.744 55.7882 108.744 54.6603V46.1038H110.808Z" fill="black"/>
<path d="M128.771 58.2191H134.307V59.6581H126.707V46.1038H128.771V58.2191Z" fill="black"/>
<path d="M148.841 46.1038V47.5428H144.53V59.6581H142.466V47.5428H138.133V46.1038H148.841Z" fill="black"/>
<path d="M156.01 46.1038V54.6798C156.01 55.8855 156.35 56.78 157.031 57.3634C157.726 57.9468 158.687 58.2385 159.912 58.2385C161.122 58.2385 162.067 57.9468 162.748 57.3634C163.443 56.78 163.791 55.8855 163.791 54.6798V46.1038H165.856V54.6603C165.856 55.7882 165.591 56.7411 165.062 57.519C164.532 58.2839 163.814 58.8543 162.906 59.2303C162.014 59.6063 161.008 59.7943 159.889 59.7943C158.77 59.7943 157.757 59.6063 156.849 59.2303C155.957 58.8543 155.246 58.2839 154.717 57.519C154.202 56.7411 153.945 55.7882 153.945 54.6603V46.1038H156.01Z" fill="black"/>
<path d="M180.234 59.6581L176.468 54.1158H173.973V59.6581H171.908V46.1038H177.013C178.208 46.1038 179.213 46.2788 180.03 46.6288C180.862 46.9789 181.482 47.4521 181.89 48.0484C182.299 48.6448 182.503 49.3254 182.503 50.0903C182.503 51.0238 182.185 51.847 181.55 52.5601C180.93 53.2731 179.992 53.7463 178.737 53.9797L182.707 59.6581H180.234ZM173.973 52.6962H177.013C178.132 52.6962 178.971 52.4628 179.531 51.9961C180.091 51.5164 180.37 50.8812 180.37 50.0903C180.37 49.2865 180.091 48.6643 179.531 48.2235C178.986 47.7827 178.147 47.5623 177.013 47.5623H173.973V52.6962Z" fill="black"/>
<path d="M190.384 47.5428V52.0739H196.146V53.5324H190.384V58.1996H196.827V59.6581H188.32V46.0843H196.827V47.5428H190.384Z" fill="black"/>
<g clip-path="url(#clip0_53_202)">
<path d="M0 22.6164C0.000282037 22.4934 0.0371626 22.3735 0.105705 22.2726C0.174247 22.1718 0.27118 22.0948 0.383529 22.052C0.561879 21.9746 0.750812 21.9258 0.943653 21.9075C4.89252 21.7279 8.84295 21.5834 12.7918 21.4046C15.8212 21.2673 18.8482 21.0853 21.8775 20.94C22.9954 20.8857 23.4295 21.3519 23.3968 22.5126C23.3968 22.6324 23.3859 22.7521 23.3859 22.8711C23.3618 28.4703 23.2778 34.0695 23.3369 39.6679C23.3789 43.629 23.6115 47.5886 23.7671 51.5481C23.8449 53.4879 23.9437 55.427 24.0254 57.3668C24.0534 58.0414 23.792 58.4924 23.3253 58.6521C22.7636 58.8413 22.1583 58.6074 21.8238 58.0614C21.7663 57.9764 21.7273 57.8798 21.7095 57.778C21.6589 57.3565 21.6037 56.9342 21.5858 56.5103C21.508 54.6742 21.4512 52.8461 21.3765 51.014C21.3329 49.9659 21.2699 48.9193 21.2209 47.872C21.1688 46.8525 21.1128 45.8339 21.0653 44.8145C21.0078 43.5293 20.9447 42.244 20.9097 40.9572C20.8475 38.8201 20.8047 36.6823 20.7541 34.5453C20.73 33.577 20.6639 32.6078 20.6763 31.6403C20.6981 29.3947 20.7604 27.1491 20.7876 24.9043C20.7907 24.6274 20.7262 24.3541 20.6001 24.1092C20.4095 23.7524 20.0991 23.5265 19.658 23.5504C17.9761 23.6374 16.2942 23.7141 14.6114 23.7963C14.3656 23.8075 14.1206 23.8298 13.8747 23.8386C11.8681 23.9142 9.86207 23.9887 7.85651 24.0621C5.57867 24.1459 3.30162 24.2441 1.023 24.3016C0.806335 24.2941 0.592703 24.247 0.392087 24.1627C0.278095 24.1211 0.179477 24.0443 0.109815 23.9427C0.0401527 23.8412 0.00287437 23.7201 0.00311246 23.5959L0 22.6164Z" fill="#F0B270"/>
<path d="M61.6906 23.709C61.6517 24.1122 61.3957 24.2295 61.0464 24.22L55.6483 24.0667L55.5705 24.0619C51.7404 23.8942 47.9103 23.725 44.0801 23.5542C43.6289 23.5334 43.24 23.6444 43.0105 24.0332C42.8623 24.2916 42.7819 24.5851 42.7771 24.8849C42.7771 26.361 42.8549 27.8386 42.8385 29.3131C42.7833 33.7835 42.746 38.2539 42.6052 42.7156C42.4869 46.4891 42.2341 50.2578 42.0419 54.029C41.9805 55.2368 41.9307 56.4462 41.8607 57.654C41.8311 58.1665 41.4911 58.4739 41.0617 58.6231C40.8671 58.6969 40.6571 58.7173 40.4524 58.6823C40.2478 58.6473 40.0556 58.5581 39.8948 58.4236C39.5439 58.1386 39.526 57.745 39.5408 57.3443C39.8302 49.2544 40.3398 41.1701 40.3429 33.0682C40.3429 29.5038 40.2464 25.9395 40.1873 22.3759C40.1748 21.6119 40.3872 21.1992 40.9442 21.0084C41.104 20.9548 41.2719 20.9312 41.4398 20.939C44.2622 21.0763 47.083 21.2264 49.9054 21.3605C52.9472 21.5047 55.9895 21.6417 59.0323 21.7716C59.6275 21.7979 60.2257 21.7908 60.8216 21.8386C61.1997 21.869 61.619 21.9017 61.6906 22.4334V23.709Z" fill="#F0B270"/>
<path d="M48.235 4.57764e-05C48.449 0.281842 48.7298 0.534102 48.8628 0.851822C49.1172 1.45852 48.6404 2.18417 47.9939 2.25282C47.8127 2.26659 47.6309 2.27032 47.4493 2.264C39.5741 2.20812 31.699 2.1243 23.8238 2.10993C20.7439 2.10434 17.6617 2.25202 14.581 2.33904C13.852 2.359 13.3876 2.08917 13.1853 1.47529C13.0298 0.992321 13.2787 0.473432 13.8544 0.0918492C13.8832 0.0652303 13.9078 0.034275 13.9275 4.57764e-05H48.235Z" fill="#F0B270"/>
<path d="M61.6934 34.2251C61.6934 34.3241 61.6662 35.2213 61.6055 35.298C61.481 35.4576 60.8174 35.4744 60.6058 35.4784C58.079 35.5271 56.0198 35.6021 53.493 35.6181C52.7081 35.6237 52.0927 36.1569 52.0632 37.0406C52.0095 38.6229 51.9737 40.2051 51.8951 41.7849C51.7084 45.5033 51.5095 49.2207 51.2984 52.937C51.2564 53.6818 50.7158 54.1736 50.0327 54.1496C49.4469 54.1289 49.0276 53.705 49.0408 53.1015C49.0525 52.5842 49.1186 52.0677 49.1443 51.5496C49.4036 45.9179 49.6629 40.2854 49.9222 34.6522C49.9489 34.3018 50.0452 33.9609 50.2054 33.6503C50.3719 33.3158 50.6986 33.1793 51.0822 33.1761C54.3604 33.1442 57.2498 33.1011 60.5288 33.0747C60.826 33.0747 61.5518 33.0827 61.6693 33.4483" fill="#F0B270"/>
<path d="M32.8117 60.0903C32.5685 60.2152 32.3012 60.283 32.0293 60.2888C31.7574 60.2946 31.4876 60.2382 31.2395 60.1238L31.1679 60.0903C30.9711 60.0903 30.8062 59.6113 30.8054 59.4077C30.7665 45.9305 30.7297 32.4526 30.6949 18.9743C30.6903 16.8189 30.7502 14.6635 30.7766 12.5081C30.7836 11.9549 30.7463 11.9054 30.1994 11.9277C25.7176 12.1121 21.2397 12.2934 16.7556 12.4985C12.9748 12.671 9.19399 12.8745 5.41316 13.0573C4.76979 13.0885 4.47184 12.8282 4.22834 12.259C3.98484 11.6899 4.54419 10.7766 5.13621 10.7543C5.89938 10.7239 6.66254 10.6656 7.42649 10.6361C9.34258 10.5627 11.2602 10.5124 13.1763 10.4254C15.1173 10.3375 17.0567 10.205 18.9969 10.1156C21.6357 9.99348 24.2737 9.86256 26.9133 9.7963C29.6595 9.72526 32.408 9.69891 35.1549 9.7029C36.8773 9.7029 38.5997 9.79391 40.322 9.85618C41.4112 9.89556 42.4975 9.94718 43.5809 10.011C46.8483 10.1978 50.1219 10.4014 53.3939 10.5786C54.4161 10.6337 55.4415 10.6193 56.4653 10.6489C57.3342 10.6744 57.9488 11.44 57.7341 12.2111C57.5886 12.734 57.1794 13.0422 56.5804 13.0158C54.6892 12.936 52.7996 12.8338 50.9084 12.742C45.3409 12.4727 39.7731 12.2066 34.205 11.9437C33.1992 11.8974 33.2451 11.7649 33.2505 12.9017C33.2902 21.0706 33.3532 29.2395 33.3415 37.4092C33.3306 44.7264 33.2334 52.0435 33.1735 59.3622C33.1735 59.3782 33.1735 59.3942 33.1735 59.4101C33.168 59.6113 33.0078 60.0903 32.8117 60.0903Z" fill="#F0B270"/>
<path d="M7.43796 33.2253C9.4723 33.2253 11.5074 33.2205 13.5418 33.2253C14.2839 33.2253 14.7631 33.6963 14.795 34.4802C14.8479 35.7695 14.8417 37.0611 14.9078 38.3495C15.1672 43.4506 15.4371 48.5515 15.7177 53.652C15.7426 54.1166 15.7511 54.582 15.7745 55.0474C15.7994 55.544 15.5963 55.9255 15.1521 56.0924C14.7079 56.2592 14.224 56.2233 13.9035 55.8218C13.7051 55.5719 13.5316 55.2278 13.5106 54.9149C13.3698 52.7667 13.2773 50.6161 13.1598 48.4663C13.0594 46.5823 12.9458 44.6992 12.8486 42.8152C12.7521 40.8905 12.6697 38.965 12.5864 37.0395C12.5538 36.2724 12.0839 35.7527 11.3269 35.7152C10.57 35.6777 9.79748 35.6793 9.03276 35.6641C6.40173 35.6122 3.30471 35.5611 0.673687 35.51C-0.0498067 35.4956 -0.00935313 35.0462 -0.0311357 34.3309C-0.0505845 33.6883 -0.0140264 33.2149 0.721136 33.2094C2.80838 33.1926 5.35072 33.2253 7.43796 33.2253Z" fill="#F0B270"/>
</g>
<defs>
<clipPath id="clip0_53_202">
<rect width="61.6914" height="60.2894" fill="white"/>
</clipPath>
</defs>
</svg>
