<svg width="32" height="32" viewBox="0 0 32 32" fill="none" xmlns="http://www.w3.org/2000/svg">
<g clip-path="url(#clip0_53_297)">
<circle cx="16" cy="16" r="16" fill="#EEF4F4"/>
<path d="M16 32C24.838 32 32 24.838 32 16C32 7.162 24.838 0 16 0C7.162 0 0 7.162 0 16C0 24.838 7.162 32 16 32ZM7.32 15.654L22.746 9.706C23.462 9.448 24.088 9.88 23.856 10.964L23.858 10.962L21.232 23.336C21.038 24.212 20.516 24.426 19.786 24.014L15.786 21.066L13.856 22.924C13.642 23.138 13.462 23.318 13.05 23.318L13.334 19.246L20.748 12.548C21.07 12.264 20.676 12.104 20.252 12.386L11.09 18.154L7.142 16.922C6.282 16.652 6.264 16.066 7.32 15.654Z" fill="#2A3636"/>
</g>
<defs>
<clipPath id="clip0_53_297">
<rect width="32" height="32" fill="white"/>
</clipPath>
</defs>
</svg>
