<svg width="32" height="32" viewBox="0 0 32 32" fill="none" xmlns="http://www.w3.org/2000/svg">
<g clip-path="url(#clip0_53_292)">
<circle cx="16" cy="16" r="16" fill="#2A3636"/>
<path d="M14.4868 13.8188L14.5316 13.7964C14.5045 13.7423 14.3796 13.4413 14.2365 13.095C14.22 13.0552 14.2033 13.0148 14.1865 12.9742C14.0583 12.6637 13.9243 12.3394 13.8411 12.1446C13.749 11.9209 13.6512 11.812 13.5488 11.7634C13.4671 11.7246 13.386 11.728 13.3266 11.7304C13.3144 11.7309 13.3032 11.7314 13.2931 11.7314C12.8614 11.6945 12.5238 11.6977 12.229 12.0044L12.229 12.0044L12.228 12.0054C11.6148 12.6797 11.3823 13.3684 11.438 14.0757C11.4934 14.7804 11.8344 15.497 12.3547 16.2304L12.3547 16.2304L12.3558 16.2318C13.3748 17.5658 14.1583 18.3589 14.9377 18.9037C15.7173 19.4487 16.49 19.7433 17.4822 20.0838L17.4833 20.0842C18.0287 20.2572 18.5253 20.2328 18.9151 20.1771L18.9158 20.177C19.1403 20.1413 19.4781 20.0024 19.7825 19.8073C20.0856 19.6131 20.3678 19.3552 20.467 19.0746C20.5641 18.8063 20.6128 18.5603 20.6301 18.3676C20.6387 18.2712 20.6395 18.1875 20.6343 18.1205C20.6293 18.0561 20.6184 18.0007 20.599 17.9653C20.5654 17.9015 20.5046 17.8564 20.431 17.8159C20.3727 17.7838 20.3006 17.7517 20.2185 17.7152C20.1964 17.7054 20.1736 17.6953 20.1502 17.6847L20.0882 17.6568L20.0818 17.7102C20.0148 17.6768 19.9504 17.6447 19.8883 17.6137C19.2249 17.2828 18.8324 17.087 18.5827 17.0053C18.4423 16.9593 18.3368 16.9457 18.2496 16.9721C18.1606 16.999 18.1015 17.0642 18.0463 17.1468L18.0462 17.1469C17.9012 17.365 17.4734 17.8634 17.3428 18.0133C17.2825 18.0803 17.2275 18.111 17.1666 18.1177C17.1032 18.1246 17.0251 18.1066 16.9169 18.0575C16.8791 18.0387 16.8285 18.0167 16.7664 17.9898C16.4494 17.8522 15.8353 17.5858 15.1266 16.9517C14.4666 16.3609 14.0232 15.6353 13.891 15.4112C13.8403 15.324 13.8329 15.2633 13.8472 15.2093C13.8625 15.151 13.9049 15.0918 13.9749 15.0117C13.9964 14.9871 14.02 14.9611 14.0453 14.9333C14.1825 14.782 14.3706 14.5746 14.5502 14.2348L14.5502 14.2348L14.5511 14.233C14.636 14.0555 14.591 13.9142 14.5315 13.7962L14.4868 13.8188ZM14.4868 13.8188C14.5431 13.9301 14.5813 14.0539 14.506 14.2114M14.4868 13.8188C14.4555 13.756 14.3023 13.3853 14.1403 12.9933C14.012 12.6825 13.8781 12.3585 13.795 12.1639C13.6326 11.7691 13.4656 11.7754 13.3329 11.7804C13.3185 11.7809 13.3045 11.7815 13.291 11.7815L14.506 14.2114M14.506 14.2114C14.3296 14.5452 14.1458 14.7479 14.0087 14.8992C13.8205 15.1067 13.7203 15.2172 13.8479 15.4365C13.9806 15.6615 14.4272 16.3927 15.0932 16.989C15.8088 17.6292 16.4314 17.8991 16.7473 18.036C16.8088 18.0627 16.8587 18.0843 16.8954 18.1027C17.1182 18.2039 17.2486 18.1927 17.3803 18.0464C17.5096 17.8979 17.9405 17.3962 18.0879 17.1746C18.2901 16.8724 18.455 16.9546 19.8678 17.6594C19.9342 17.6925 20.0034 17.727 20.0754 17.7629L14.506 14.2114Z" fill="#EEF4F4" stroke="#EEF4F4" stroke-width="0.1"/>
<path d="M22.4365 9.60411L22.4479 9.57349L22.4244 9.55079C16.6267 3.94654 7.02877 8.01056 7.02537 15.9203V15.9203C7.02537 17.4937 7.43575 19.029 8.21746 20.3855L6.95179 24.9867L6.92883 25.0702L7.01261 25.0484L11.7444 23.8147C17.7025 27.0164 25.0462 22.7439 25.0496 15.9249C25.0496 13.5407 24.1223 11.2953 22.4364 9.60442L22.4365 9.60411ZM11.9598 22.0683L9.23116 22.7777L9.96188 20.1275L9.96778 20.1061L9.95587 20.0874L9.77714 19.8064C9.77713 19.8064 9.77712 19.8063 9.7771 19.8063C6.70455 14.917 10.234 8.52527 16.0538 8.52527C18.0306 8.52527 19.8864 9.29621 21.2844 10.6931L21.2846 10.6932C22.6813 12.0776 23.4511 13.9334 23.4511 15.9001C23.4466 21.5859 17.205 25.1366 12.2679 22.2346C12.2678 22.2345 12.2678 22.2345 12.2677 22.2345L11.998 22.0737L11.98 22.063L11.9598 22.0683Z" fill="#EEF4F4" stroke="#EEF4F4" stroke-width="0.1"/>
</g>
<defs>
<clipPath id="clip0_53_292">
<rect width="32" height="32" fill="white"/>
</clipPath>
</defs>
</svg>
