<svg width="54" height="54" viewBox="0 0 54 54" fill="none" xmlns="http://www.w3.org/2000/svg">
<g id="align-horizontal-center">
<rect x="0.00836182" width="54" height="54" rx="16.5971" fill="black"/>
<path id="path" fill-rule="evenodd" clip-rule="evenodd" d="M17.2884 37.8C16.692 37.8 16.2084 37.3164 16.2084 36.72L16.2084 17.28C16.2084 16.6835 16.692 16.2 17.2884 16.2C17.8849 16.2 18.3684 16.6835 18.3684 17.28L18.3684 36.72C18.3684 37.3164 17.8849 37.8 17.2884 37.8Z" fill="white"/>
<path id="path_2" fill-rule="evenodd" clip-rule="evenodd" d="M36.7283 37.8C36.1318 37.8 35.6483 37.3164 35.6483 36.72L35.6483 17.28C35.6483 16.6835 36.1318 16.2 36.7283 16.2C37.3248 16.2 37.8083 16.6835 37.8083 17.28L37.8083 36.72C37.8083 37.3164 37.3248 37.8 36.7283 37.8Z" fill="white"/>
<path id="path_3" fill-rule="evenodd" clip-rule="evenodd" d="M23.1536 20.6908C23.7443 20.5595 24.4311 20.52 25.1939 20.52H28.8227C29.5855 20.52 30.2722 20.5595 30.8629 20.6908C31.4659 20.8248 32.0329 21.0684 32.4864 21.5219C32.94 21.9754 33.1835 22.5424 33.3175 23.1454C33.4488 23.7361 33.4883 24.4228 33.4883 25.1856V28.8144C33.4883 29.5773 33.4488 30.264 33.3175 30.8547C33.1835 31.4576 32.94 32.0247 32.4864 32.4782C32.0329 32.9317 31.4659 33.1753 30.8629 33.3093C30.2722 33.4406 29.5855 33.48 28.8227 33.48H25.1939C24.4311 33.48 23.7443 33.4406 23.1536 33.3093C22.5507 33.1753 21.9837 32.9317 21.5301 32.4782C21.0766 32.0247 20.833 31.4576 20.699 30.8547C20.5678 30.264 20.5283 29.5773 20.5283 28.8144V25.1856C20.5283 24.4228 20.5678 23.7361 20.699 23.1454C20.833 22.5424 21.0766 21.9754 21.5301 21.5219C21.9837 21.0684 22.5507 20.8248 23.1536 20.6908Z" fill="white"/>
</g>
</svg>
