<svg width="54" height="54" viewBox="0 0 54 54" fill="none" xmlns="http://www.w3.org/2000/svg">
<g id="align-horizontal-center">
<rect x="0.00836182" width="54" height="54" rx="16.5971" fill="black"/>
<path id="path" d="M38.0084 22.1111C38.0084 25.4862 35.2724 28.2222 31.8973 28.2222C28.5222 28.2222 25.7862 25.4862 25.7862 22.1111C25.7862 18.736 28.5222 16 31.8973 16C35.2724 16 38.0084 18.736 38.0084 22.1111Z" stroke="white" stroke-width="2.44444"/>
<path id="path_2" d="M24.5639 31.2778C24.5639 33.6403 22.6487 35.5556 20.2861 35.5556C17.9236 35.5556 16.0084 33.6403 16.0084 31.2778C16.0084 28.9152 17.9236 27 20.2861 27C22.6487 27 24.5639 28.9152 24.5639 31.2778Z" stroke="white" stroke-width="2.44444"/>
<path id="path_3" d="M35.5639 34.9445C35.5639 36.632 34.1959 38 32.5084 38C30.8208 38 29.4528 36.632 29.4528 34.9445C29.4528 33.2569 30.8208 31.8889 32.5084 31.8889C34.1959 31.8889 35.5639 33.2569 35.5639 34.9445Z" stroke="white" stroke-width="2.44444"/>
</g>
</svg>
