<svg width="54" height="54" viewBox="0 0 54 54" fill="none" xmlns="http://www.w3.org/2000/svg">
<g id="align-horizontal-center">
<rect x="0.00836182" y="-0.00292969" width="54" height="54" rx="16.5971" fill="black"/>
<path id="path" d="M17.0084 31.6775V31.5804V22.1082C17.0084 21.7307 17.212 21.3825 17.541 21.1975L17.56 21.1868L26.3195 16.2595L26.3861 16.2221C26.6345 16.0824 26.9378 16.0824 27.1862 16.2221L36.0879 21.2293C36.3819 21.3947 36.5639 21.7059 36.5639 22.0432V22.1082V31.5804V31.6775C36.5639 32.0227 36.3814 32.3422 36.084 32.5174L27.2494 37.724C26.9635 37.8925 26.6088 37.8925 26.3229 37.724L17.4883 32.5174C17.1909 32.3422 17.0084 32.0227 17.0084 31.6775Z" stroke="white" stroke-width="2.44444"/>
<path id="path_2" d="M26.7861 37.9971V26.9971" stroke="white" stroke-width="2.44444"/>
<path id="path_3" d="M26.7861 26.9971L17.0084 21.4971" stroke="white" stroke-width="2.44444"/>
<path id="path_4" d="M36.5639 21.4971L26.7861 26.9971" stroke="white" stroke-width="2.44444"/>
</g>
</svg>
